<?xml version="1.0" encoding="UTF-8"?>
<svg xmlns="http://www.w3.org/2000/svg" viewBox="0 0 3200 1800" width="3200" height="1800">
  <defs>
    <linearGradient id="pageBg" x1="0" y1="0" x2="0" y2="1"><stop offset="0%" stop-color="#ede7de"/><stop offset="100%" stop-color="#d9d0c2"/></linearGradient>
    <linearGradient id="headBg" x1="0" y1="0" x2="1" y2="0"><stop offset="0%" stop-color="#16212a"/><stop offset="100%" stop-color="#243746"/></linearGradient>
    <pattern id="paperGrid" width="24" height="24" patternUnits="userSpaceOnUse"><path d="M 24 0 L 0 0 0 24" fill="none" stroke="#ddd3c3" stroke-width="0.8" opacity="0.32"/></pattern>
    <filter id="shadow" x="-20%" y="-20%" width="140%" height="140%"><feDropShadow dx="0" dy="12" stdDeviation="14" flood-color="#8c948f" flood-opacity="0.18"/></filter>
  </defs>
  <rect x="0" y="0" width="3200" height="1800" fill="url(#pageBg)"/>
  <rect x="0" y="0" width="3200" height="1800" fill="url(#paperGrid)" opacity="0.42"/>
  <rect x="54" y="46" width="3092" height="176" rx="24" fill="url(#headBg)" filter="url(#shadow)"/>
  <rect x="54" y="196" width="3092" height="20" fill="#7e453d" opacity="0.95"/>
  
    <rect x="92" y="82" width="270" height="38" rx="10" fill="#f2ecdf" stroke="#7e453d" stroke-opacity="0.15" stroke-width="1.2"/>
    <rect x="102" y="90" width="8" height="22" rx="4" fill="#7e453d" opacity="0.84"/>
    <text x="122" y="108" font-family="Helvetica Neue, Arial, sans-serif" font-size="18" font-weight="700" letter-spacing="1.8" fill="#7e453d">TAIL CONTROL</text>
  
  
    <rect x="2926" y="82" width="162" height="38" rx="10" fill="#f2ecdf" stroke="#16212a" stroke-opacity="0.15" stroke-width="1.2"/>
    <rect x="2936" y="90" width="8" height="22" rx="4" fill="#16212a" opacity="0.84"/>
    <text x="2956" y="108" font-family="Helvetica Neue, Arial, sans-serif" font-size="18" font-weight="700" letter-spacing="1.8" fill="#16212a">FIG. 09</text>
  
  <text x="92" y="152" font-family="Helvetica Neue, Arial, sans-serif" font-size="58" font-weight="700" fill="#fcfaf6">Residual-Loss Robustness Envelope</text>
  <text x="92" y="188" font-family="Helvetica Neue, Arial, sans-serif" font-size="25" fill="#d7dde0">The re-derived design is judged by both mean performance and the low-tail failure region</text>
  <rect x="92" y="106" width="941.1200000000001" height="6" rx="3" fill="#7e453d"/><rect x="1088.48" y="106" width="442.88" height="6" rx="3" fill="#d5c8ae"/><rect x="1586.72" y="106" width="775.0400000000001" height="6" rx="3" fill="#8796a2" opacity="0.55"/><rect x="92" y="118" width="2103.68" height="2" rx="1" fill="#c5beb1"/>
  
    <rect x="58" y="256" width="3084" height="1482" rx="26" fill="#f5f0e8" stroke="#c5beb1" stroke-width="2.2" filter="url(#shadow)"/>
    <rect x="74" y="272" width="3052" height="1450" rx="18" fill="#fcfaf6" stroke="#ddd3c5" stroke-width="1.4"/>
    <rect x="86" y="284" width="22" height="1426" rx="11" fill="#16212a" opacity="0.92"/>
    <rect x="130" y="284" width="2984" height="34" rx="10" fill="#eef1ed"/>
    <line x1="150" y1="332" x2="150" y2="1710" stroke="#efe7da" stroke-width="1"/><line x1="732.8" y1="332" x2="732.8" y2="1710" stroke="#efe7da" stroke-width="1"/><line x1="1315.6" y1="332" x2="1315.6" y2="1710" stroke="#efe7da" stroke-width="1"/><line x1="1898.3999999999999" y1="332" x2="1898.3999999999999" y2="1710" stroke="#efe7da" stroke-width="1"/><line x1="2481.2" y1="332" x2="2481.2" y2="1710" stroke="#efe7da" stroke-width="1"/><line x1="3064" y1="332" x2="3064" y2="1710" stroke="#efe7da" stroke-width="1"/>
  <rect x="220" y="408" width="2220" height="930" rx="26" fill="#ffffff" stroke="#c5beb1" stroke-width="2" filter="url(#shadow)"/><rect x="330" y="450" width="720" height="832" fill="#f3e2dc" opacity="0.5"/><text x="690.0000000000002" y="486" text-anchor="middle" font-family="Helvetica Neue, Arial, sans-serif" font-size="22" font-weight="700" fill="#7e453d">loss-heavy tail</text><line x1="450.0000000000001" y1="468" x2="450.0000000000001" y2="1268" stroke="#dfe4e5" stroke-width="1.5" stroke-dasharray="5 10"/><text x="450.0000000000001" y="1310" text-anchor="middle" font-family="Helvetica Neue, Arial, sans-serif" font-size="22" fill="#5d6872">0.50</text><line x1="1050" y1="468" x2="1050" y2="1268" stroke="#dfe4e5" stroke-width="1.5" stroke-dasharray="5 10"/><text x="1050" y="1310" text-anchor="middle" font-family="Helvetica Neue, Arial, sans-serif" font-size="22" fill="#5d6872">0.60</text><line x1="1649.9999999999998" y1="468" x2="1649.9999999999998" y2="1268" stroke="#dfe4e5" stroke-width="1.5" stroke-dasharray="5 10"/><text x="1649.9999999999998" y="1310" text-anchor="middle" font-family="Helvetica Neue, Arial, sans-serif" font-size="22" fill="#5d6872">0.70</text><line x1="2250" y1="468" x2="2250" y2="1268" stroke="#dfe4e5" stroke-width="1.5" stroke-dasharray="5 10"/><text x="2250" y="1310" text-anchor="middle" font-family="Helvetica Neue, Arial, sans-serif" font-size="22" fill="#5d6872">0.80</text><text x="1330" y="1336" text-anchor="middle" font-family="Helvetica Neue, Arial, sans-serif" font-size="28" font-weight="700" fill="#16212a">replication PI</text><path d="M 330 768 L 339.31506849315053 768 L 348.63013698630147 768 L 357.945205479452 768 L 367.2602739726029 768 L 376.57534246575347 768 L 385.890410958904 768 L 395.2054794520549 768 L 404.52054794520546 768 L 413.835616438356 768 L 423.15068493150693 768 L 432.46575342465746 768 L 441.78082191780834 768 L 451.09589041095893 768 L 460.4109589041098 768 L 469.72602739726 767.9999999999999 L 479.04109589041093 767.9999999999999 L 488.3561643835618 767.9999999999999 L 497.671232876712 767.9999999999998 L 506.98630136986293 767.9999999999997 L 516.3013698630139 767.9999999999994 L 525.616438356164 767.9999999999991 L 534.9315068493149 767.9999999999985 L 544.2465753424658 767.9999999999977 L 553.5616438356167 767.9999999999965 L 562.8767123287669 767.9999999999944 L 572.1917808219179 767.9999999999914 L 581.5068493150687 767.9999999999867 L 590.8219178082189 767.9999999999795 L 600.1369863013699 767.9999999999687 L 609.4520547945207 767.9999999999521 L 618.767123287671 767.9999999999269 L 628.0821917808219 767.9999999998889 L 637.3972602739727 767.9999999998315 L 646.7123287671236 767.9999999997452 L 656.0273972602738 767.9999999996159 L 665.3424657534247 767.9999999994222 L 674.6575342465756 767.9999999991334 L 683.9726027397259 767.9999999987034 L 693.2876712328767 767.9999999980647 L 702.6027397260276 767.9999999971182 L 711.9178082191779 767.9999999957184 L 721.2328767123288 767.9999999936523 L 730.5479452054797 767.9999999906081 L 739.8630136986299 767.9999999861299 L 749.1780821917807 767.9999999795517 L 758.4931506849316 767.9999999699008 L 767.8082191780818 767.9999999557575 L 777.1232876712327 767.9999999350493 L 786.4383561643837 767.9999999047518 L 795.7534246575339 767.9999998604505 L 805.0684931506847 767.9999997957021 L 814.3835616438357 767.9999997011023 L 823.6986301369865 767.9999995629239 L 833.0136986301368 767.9999993611343 L 842.3287671232877 767.999999066507 L 851.6438356164385 767.9999986364245 L 860.9589041095887 767.99999800879 L 870.2739726027397 767.9999970932184 L 879.5890410958905 767.9999957583271 L 888.9041095890414 767.9999938134599 L 898.2191780821917 767.9999909825021 L 907.5342465753425 767.9999868665177 L 916.8493150684934 767.999980890669 L 926.1643835616437 767.9999722291682 L 935.4794520547945 767.9999596997034 L 944.7945205479454 767.9999416157228 L 954.1095890410957 767.9999155809221 L 963.4246575342465 767.9998782050096 L 972.7397260273974 767.9998247130234 L 982.0547945205477 767.9997484117689 L 991.3698630136986 767.9996399659607 L 1000.6849315068494 767.999486422926 L 1009.9999999999997 767.9992699078192 L 1019.3150684931505 767.9989658907348 L 1028.6301369863013 767.9985409024919 L 1037.9452054794517 767.9979495468581 L 1047.2602739726026 767.9971306234413 L 1056.5753424657535 767.9960021374723 L 1065.8904109589043 767.9944549306839 L 1075.2054794520545 767.9923446223505 L 1084.5205479452054 767.9894815027939 L 1093.8356164383563 767.9856179755303 L 1103.1506849315065 767.9804331018088 L 1112.4657534246576 767.9735137666573 L 1121.7808219178085 767.9643319638152 L 1131.0958904109593 767.9522176942431 L 1140.4109589041095 767.9363269964205 L 1149.7260273972604 767.9156046842872 L 1159.0410958904113 767.8887414688852 L 1168.3561643835615 767.8541252909225 L 1177.6712328767123 767.8097869014179 L 1186.9863013698632 767.7533400026332 L 1196.3013698630134 767.6819166056503 L 1205.6164383561643 767.592098674691 L 1214.9315068493152 767.4798476075443 L 1224.2465753424653 767.3404336364656 L 1233.5616438356165 767.1683678082027 L 1242.8767123287673 766.9573397915426 L 1252.1917808219175 766.7001653343877 L 1261.5068493150684 766.3887477108078 L 1270.8219178082193 766.0140579160675 L 1280.1369863013695 765.5661386336286 L 1289.4520547945203 765.0341370594083 L 1298.7671232876714 764.4063714727888 L 1308.0821917808216 763.6704359435579 L 1317.3972602739723 762.8133467211564 L 1326.7123287671234 761.821732643834 L 1336.027397260274 760.6820703264477 L 1345.3424657534242 759.3809629563385 L 1354.6575342465753 757.905459293923 L 1363.972602739726 756.2434070145171 L 1373.287671232877 754.3838319460342 L 1382.6027397260273 752.3173321862772 L 1391.9178082191781 750.0364736787499 L 1401.232876712329 747.5361717575302 L 1410.5479452054794 744.8140416154729 L 1419.86301369863 741.8706997752415 L 1429.178082191781 738.7099985994338 L 1438.4931506849314 735.339176781566 L 1447.808219178082 731.7689106854134 L 1457.1232876712331 728.0132543608821 L 1466.4383561643833 724.0894600099108 L 1475.7534246575342 720.0176754864336 L 1485.068493150685 715.8205209020374 L 1494.3835616438353 711.5225523226388 L 1503.6986301369861 707.1496265786233 L 1513.013698630137 702.728187033087 L 1522.3287671232874 698.2844954063313 L 1531.643835616438 693.8438390934361 L 1540.958904109589 689.4297465212181 L 1550.27397260274 685.0632447122174 L 1559.58904109589 680.7621931741365 L 1568.9041095890411 676.5407264239586 L 1578.2191780821913 672.4088339012983 L 1587.5342465753429 668.3721008473129 L 1596.849315068493 664.4316271492182 L 1606.164383561644 660.5841334934714 L 1615.4794520547941 656.8222558240116 L 1624.794520547945 653.1350205057811 L 1634.1095890410961 649.5084842099689 L 1643.4246575342468 645.9265148193875 L 1652.7397260273972 642.3716830162173 L 1662.054794520548 638.8262290119773 L 1671.3698630136987 635.2730653773601 L 1680.6849315068491 631.6967752924631 L 1690 628.0845658216175 L 1699.3150684931509 624.4271379670706 L 1708.630136986301 620.7194391150107 L 1717.9452054794522 616.9612688094325 L 1727.2602739726028 613.1577152575944 L 1736.575342465753 609.3194072214294 L 1745.890410958904 605.4625735956381 L 1755.2054794520548 601.6089106303612 L 1764.5205479452052 597.7852640637349 L 1773.835616438356 594.0231400703558 L 1783.150684931507 590.3580646472542 L 1792.4657534246578 586.8288156591304 L 1801.780821917808 583.4765551317543 L 1811.0958904109589 580.3438914708455 L 1820.410958904109 577.4739021146397 L 1829.7260273972609 574.9091467808685 L 1839.0410958904108 572.6907000691305 L 1848.356164383562 570.857229887633 L 1857.6712328767128 569.4441451702515 L 1866.9863013698628 568.4828328254342 L 1876.3013698630132 568 L 1885.6164383561647 568.0171337239458 L 1894.931506849315 568.550085984227 L 1904.2465753424658 569.6087883902408 L 1913.561643835617 571.1970969502468 L 1922.8767123287669 573.3127641592353 L 1932.1917808219177 575.9475326633121 L 1941.5068493150688 579.0873422497921 L 1950.8219178082188 582.7126398330915 L 1960.13698630137 586.7987804656476 L 1969.4520547945208 591.3165061897055 L 1978.767123287671 596.2324887399893 L 1988.0821917808219 601.509921682675 L 1997.3972602739727 607.1091475021608 L 2006.712328767123 612.9883053908022 L 2016.0273972602738 619.1039860234189 L 2025.3424657534247 625.4118803728023 L 2034.6575342465749 631.8674106090753 L 2043.972602739726 638.4263322889456 L 2053.2876712328766 645.0452983450914 L 2062.602739726027 651.6823767956722 L 2071.9178082191784 658.2975155741391 L 2081.2328767123286 664.8529493955928 L 2090.5479452054797 671.3135450943661 L 2099.8630136986303 677.6470833560517 L 2109.178082191781 683.8244761958697 L 2118.4931506849307 689.8199208764073 L 2127.8082191780823 695.6109921871163 L 2137.123287671233 701.1786761049175 L 2146.4383561643835 706.5073488034678 L 2155.7534246575347 711.584705766192 L 2165.068493150685 716.4016463780608 L 2174.3835616438355 720.9521198207824 L 2183.6986301369866 725.232938377869 L 2193.013698630137 729.2435643764179 L 2202.3287671232874 732.9858769617333 L 2211.6438356164385 736.4639247328057 L 2220.9589041095887 739.6836699774582 L 2230.2739726027394 742.6527298539343 L 2239.589041095891 745.3801193903856 L 2248.9041095890407 747.8760006351971 L 2258.2191780821913 750.1514417092845 L 2267.534246575343 752.2181889056586 L 2276.8493150684926 754.0884543696042 L 2286.1643835616437 755.7747212910207 L 2295.479452054795 757.2895679630483 L 2304.7945205479446 758.6455115200125 L 2314.109589041096 759.8548716725436 L 2323.4246575342468 760.9296543156231 L 2332.7397260273965 761.8814545010947 L 2342.054794520548 762.7213779424108 L 2351.3698630136987 763.4599799566386 L 2360.6849315068484 764.1072205457476 L 2370.0000000000005 764.6724341731738 L 2370.0000000000005 768 L 2360.6849315068484 768 L 2351.3698630136987 768 L 2342.054794520548 768 L 2332.7397260273965 768 L 2323.4246575342468 768 L 2314.109589041096 768 L 2304.7945205479446 768 L 2295.479452054795 768 L 2286.1643835616437 768 L 2276.8493150684926 768 L 2267.534246575343 768 L 2258.2191780821913 768 L 2248.9041095890407 768 L 2239.589041095891 768 L 2230.2739726027394 768 L 2220.9589041095887 768 L 2211.6438356164385 768 L 2202.3287671232874 768 L 2193.013698630137 768 L 2183.6986301369866 768 L 2174.3835616438355 768 L 2165.068493150685 768 L 2155.7534246575347 768 L 2146.4383561643835 768 L 2137.123287671233 768 L 2127.8082191780823 768 L 2118.4931506849307 768 L 2109.178082191781 768 L 2099.8630136986303 768 L 2090.5479452054797 768 L 2081.2328767123286 768 L 2071.9178082191784 768 L 2062.602739726027 768 L 2053.2876712328766 768 L 2043.972602739726 768 L 2034.6575342465749 768 L 2025.3424657534247 768 L 2016.0273972602738 768 L 2006.712328767123 768 L 1997.3972602739727 768 L 1988.0821917808219 768 L 1978.767123287671 768 L 1969.4520547945208 768 L 1960.13698630137 768 L 1950.8219178082188 768 L 1941.5068493150688 768 L 1932.1917808219177 768 L 1922.8767123287669 768 L 1913.561643835617 768 L 1904.2465753424658 768 L 1894.931506849315 768 L 1885.6164383561647 768 L 1876.3013698630132 768 L 1866.9863013698628 768 L 1857.6712328767128 768 L 1848.356164383562 768 L 1839.0410958904108 768 L 1829.7260273972609 768 L 1820.410958904109 768 L 1811.0958904109589 768 L 1801.780821917808 768 L 1792.4657534246578 768 L 1783.150684931507 768 L 1773.835616438356 768 L 1764.5205479452052 768 L 1755.2054794520548 768 L 1745.890410958904 768 L 1736.575342465753 768 L 1727.2602739726028 768 L 1717.9452054794522 768 L 1708.630136986301 768 L 1699.3150684931509 768 L 1690 768 L 1680.6849315068491 768 L 1671.3698630136987 768 L 1662.054794520548 768 L 1652.7397260273972 768 L 1643.4246575342468 768 L 1634.1095890410961 768 L 1624.794520547945 768 L 1615.4794520547941 768 L 1606.164383561644 768 L 1596.849315068493 768 L 1587.5342465753429 768 L 1578.2191780821913 768 L 1568.9041095890411 768 L 1559.58904109589 768 L 1550.27397260274 768 L 1540.958904109589 768 L 1531.643835616438 768 L 1522.3287671232874 768 L 1513.013698630137 768 L 1503.6986301369861 768 L 1494.3835616438353 768 L 1485.068493150685 768 L 1475.7534246575342 768 L 1466.4383561643833 768 L 1457.1232876712331 768 L 1447.808219178082 768 L 1438.4931506849314 768 L 1429.178082191781 768 L 1419.86301369863 768 L 1410.5479452054794 768 L 1401.232876712329 768 L 1391.9178082191781 768 L 1382.6027397260273 768 L 1373.287671232877 768 L 1363.972602739726 768 L 1354.6575342465753 768 L 1345.3424657534242 768 L 1336.027397260274 768 L 1326.7123287671234 768 L 1317.3972602739723 768 L 1308.0821917808216 768 L 1298.7671232876714 768 L 1289.4520547945203 768 L 1280.1369863013695 768 L 1270.8219178082193 768 L 1261.5068493150684 768 L 1252.1917808219175 768 L 1242.8767123287673 768 L 1233.5616438356165 768 L 1224.2465753424653 768 L 1214.9315068493152 768 L 1205.6164383561643 768 L 1196.3013698630134 768 L 1186.9863013698632 768 L 1177.6712328767123 768 L 1168.3561643835615 768 L 1159.0410958904113 768 L 1149.7260273972604 768 L 1140.4109589041095 768 L 1131.0958904109593 768 L 1121.7808219178085 768 L 1112.4657534246576 768 L 1103.1506849315065 768 L 1093.8356164383563 768 L 1084.5205479452054 768 L 1075.2054794520545 768 L 1065.8904109589043 768 L 1056.5753424657535 768 L 1047.2602739726026 768 L 1037.9452054794517 768 L 1028.6301369863013 768 L 1019.3150684931505 768 L 1009.9999999999997 768 L 1000.6849315068494 768 L 991.3698630136986 768 L 982.0547945205477 768 L 972.7397260273974 768 L 963.4246575342465 768 L 954.1095890410957 768 L 944.7945205479454 768 L 935.4794520547945 768 L 926.1643835616437 768 L 916.8493150684934 768 L 907.5342465753425 768 L 898.2191780821917 768 L 888.9041095890414 768 L 879.5890410958905 768 L 870.2739726027397 768 L 860.9589041095887 768 L 851.6438356164385 768 L 842.3287671232877 768 L 833.0136986301368 768 L 823.6986301369865 768 L 814.3835616438357 768 L 805.0684931506847 768 L 795.7534246575339 768 L 786.4383561643837 768 L 777.1232876712327 768 L 767.8082191780818 768 L 758.4931506849316 768 L 749.1780821917807 768 L 739.8630136986299 768 L 730.5479452054797 768 L 721.2328767123288 768 L 711.9178082191779 768 L 702.6027397260276 768 L 693.2876712328767 768 L 683.9726027397259 768 L 674.6575342465756 768 L 665.3424657534247 768 L 656.0273972602738 768 L 646.7123287671236 768 L 637.3972602739727 768 L 628.0821917808219 768 L 618.767123287671 768 L 609.4520547945207 768 L 600.1369863013699 768 L 590.8219178082189 768 L 581.5068493150687 768 L 572.1917808219179 768 L 562.8767123287669 768 L 553.5616438356167 768 L 544.2465753424658 768 L 534.9315068493149 768 L 525.616438356164 768 L 516.3013698630139 768 L 506.98630136986293 768 L 497.671232876712 768 L 488.3561643835618 768 L 479.04109589041093 768 L 469.72602739726 768 L 460.4109589041098 768 L 451.09589041095893 768 L 441.78082191780834 768 L 432.46575342465746 768 L 423.15068493150693 768 L 413.835616438356 768 L 404.52054794520546 768 L 395.2054794520549 768 L 385.890410958904 768 L 376.57534246575347 768 L 367.2602739726029 768 L 357.945205479452 768 L 348.63013698630147 768 L 339.31506849315053 768 L 330 768 Z" fill="#26455d" fill-opacity="0.22" stroke="none"/><path d="M 330 768 L 339.31506849315053 768 L 348.63013698630147 768 L 357.945205479452 768 L 367.2602739726029 768 L 376.57534246575347 768 L 385.890410958904 768 L 395.2054794520549 768 L 404.52054794520546 768 L 413.835616438356 768 L 423.15068493150693 768 L 432.46575342465746 768 L 441.78082191780834 768 L 451.09589041095893 768 L 460.4109589041098 768 L 469.72602739726 767.9999999999999 L 479.04109589041093 767.9999999999999 L 488.3561643835618 767.9999999999999 L 497.671232876712 767.9999999999998 L 506.98630136986293 767.9999999999997 L 516.3013698630139 767.9999999999994 L 525.616438356164 767.9999999999991 L 534.9315068493149 767.9999999999985 L 544.2465753424658 767.9999999999977 L 553.5616438356167 767.9999999999965 L 562.8767123287669 767.9999999999944 L 572.1917808219179 767.9999999999914 L 581.5068493150687 767.9999999999867 L 590.8219178082189 767.9999999999795 L 600.1369863013699 767.9999999999687 L 609.4520547945207 767.9999999999521 L 618.767123287671 767.9999999999269 L 628.0821917808219 767.9999999998889 L 637.3972602739727 767.9999999998315 L 646.7123287671236 767.9999999997452 L 656.0273972602738 767.9999999996159 L 665.3424657534247 767.9999999994222 L 674.6575342465756 767.9999999991334 L 683.9726027397259 767.9999999987034 L 693.2876712328767 767.9999999980647 L 702.6027397260276 767.9999999971182 L 711.9178082191779 767.9999999957184 L 721.2328767123288 767.9999999936523 L 730.5479452054797 767.9999999906081 L 739.8630136986299 767.9999999861299 L 749.1780821917807 767.9999999795517 L 758.4931506849316 767.9999999699008 L 767.8082191780818 767.9999999557575 L 777.1232876712327 767.9999999350493 L 786.4383561643837 767.9999999047518 L 795.7534246575339 767.9999998604505 L 805.0684931506847 767.9999997957021 L 814.3835616438357 767.9999997011023 L 823.6986301369865 767.9999995629239 L 833.0136986301368 767.9999993611343 L 842.3287671232877 767.999999066507 L 851.6438356164385 767.9999986364245 L 860.9589041095887 767.99999800879 L 870.2739726027397 767.9999970932184 L 879.5890410958905 767.9999957583271 L 888.9041095890414 767.9999938134599 L 898.2191780821917 767.9999909825021 L 907.5342465753425 767.9999868665177 L 916.8493150684934 767.999980890669 L 926.1643835616437 767.9999722291682 L 935.4794520547945 767.9999596997034 L 944.7945205479454 767.9999416157228 L 954.1095890410957 767.9999155809221 L 963.4246575342465 767.9998782050096 L 972.7397260273974 767.9998247130234 L 982.0547945205477 767.9997484117689 L 991.3698630136986 767.9996399659607 L 1000.6849315068494 767.999486422926 L 1009.9999999999997 767.9992699078192 L 1019.3150684931505 767.9989658907348 L 1028.6301369863013 767.9985409024919 L 1037.9452054794517 767.9979495468581 L 1047.2602739726026 767.9971306234413 L 1056.5753424657535 767.9960021374723 L 1065.8904109589043 767.9944549306839 L 1075.2054794520545 767.9923446223505 L 1084.5205479452054 767.9894815027939 L 1093.8356164383563 767.9856179755303 L 1103.1506849315065 767.9804331018088 L 1112.4657534246576 767.9735137666573 L 1121.7808219178085 767.9643319638152 L 1131.0958904109593 767.9522176942431 L 1140.4109589041095 767.9363269964205 L 1149.7260273972604 767.9156046842872 L 1159.0410958904113 767.8887414688852 L 1168.3561643835615 767.8541252909225 L 1177.6712328767123 767.8097869014179 L 1186.9863013698632 767.7533400026332 L 1196.3013698630134 767.6819166056503 L 1205.6164383561643 767.592098674691 L 1214.9315068493152 767.4798476075443 L 1224.2465753424653 767.3404336364656 L 1233.5616438356165 767.1683678082027 L 1242.8767123287673 766.9573397915426 L 1252.1917808219175 766.7001653343877 L 1261.5068493150684 766.3887477108078 L 1270.8219178082193 766.0140579160675 L 1280.1369863013695 765.5661386336286 L 1289.4520547945203 765.0341370594083 L 1298.7671232876714 764.4063714727888 L 1308.0821917808216 763.6704359435579 L 1317.3972602739723 762.8133467211564 L 1326.7123287671234 761.821732643834 L 1336.027397260274 760.6820703264477 L 1345.3424657534242 759.3809629563385 L 1354.6575342465753 757.905459293923 L 1363.972602739726 756.2434070145171 L 1373.287671232877 754.3838319460342 L 1382.6027397260273 752.3173321862772 L 1391.9178082191781 750.0364736787499 L 1401.232876712329 747.5361717575302 L 1410.5479452054794 744.8140416154729 L 1419.86301369863 741.8706997752415 L 1429.178082191781 738.7099985994338 L 1438.4931506849314 735.339176781566 L 1447.808219178082 731.7689106854134 L 1457.1232876712331 728.0132543608821 L 1466.4383561643833 724.0894600099108 L 1475.7534246575342 720.0176754864336 L 1485.068493150685 715.8205209020374 L 1494.3835616438353 711.5225523226388 L 1503.6986301369861 707.1496265786233 L 1513.013698630137 702.728187033087 L 1522.3287671232874 698.2844954063313 L 1531.643835616438 693.8438390934361 L 1540.958904109589 689.4297465212181 L 1550.27397260274 685.0632447122174 L 1559.58904109589 680.7621931741365 L 1568.9041095890411 676.5407264239586 L 1578.2191780821913 672.4088339012983 L 1587.5342465753429 668.3721008473129 L 1596.849315068493 664.4316271492182 L 1606.164383561644 660.5841334934714 L 1615.4794520547941 656.8222558240116 L 1624.794520547945 653.1350205057811 L 1634.1095890410961 649.5084842099689 L 1643.4246575342468 645.9265148193875 L 1652.7397260273972 642.3716830162173 L 1662.054794520548 638.8262290119773 L 1671.3698630136987 635.2730653773601 L 1680.6849315068491 631.6967752924631 L 1690 628.0845658216175 L 1699.3150684931509 624.4271379670706 L 1708.630136986301 620.7194391150107 L 1717.9452054794522 616.9612688094325 L 1727.2602739726028 613.1577152575944 L 1736.575342465753 609.3194072214294 L 1745.890410958904 605.4625735956381 L 1755.2054794520548 601.6089106303612 L 1764.5205479452052 597.7852640637349 L 1773.835616438356 594.0231400703558 L 1783.150684931507 590.3580646472542 L 1792.4657534246578 586.8288156591304 L 1801.780821917808 583.4765551317543 L 1811.0958904109589 580.3438914708455 L 1820.410958904109 577.4739021146397 L 1829.7260273972609 574.9091467808685 L 1839.0410958904108 572.6907000691305 L 1848.356164383562 570.857229887633 L 1857.6712328767128 569.4441451702515 L 1866.9863013698628 568.4828328254342 L 1876.3013698630132 568 L 1885.6164383561647 568.0171337239458 L 1894.931506849315 568.550085984227 L 1904.2465753424658 569.6087883902408 L 1913.561643835617 571.1970969502468 L 1922.8767123287669 573.3127641592353 L 1932.1917808219177 575.9475326633121 L 1941.5068493150688 579.0873422497921 L 1950.8219178082188 582.7126398330915 L 1960.13698630137 586.7987804656476 L 1969.4520547945208 591.3165061897055 L 1978.767123287671 596.2324887399893 L 1988.0821917808219 601.509921682675 L 1997.3972602739727 607.1091475021608 L 2006.712328767123 612.9883053908022 L 2016.0273972602738 619.1039860234189 L 2025.3424657534247 625.4118803728023 L 2034.6575342465749 631.8674106090753 L 2043.972602739726 638.4263322889456 L 2053.2876712328766 645.0452983450914 L 2062.602739726027 651.6823767956722 L 2071.9178082191784 658.2975155741391 L 2081.2328767123286 664.8529493955928 L 2090.5479452054797 671.3135450943661 L 2099.8630136986303 677.6470833560517 L 2109.178082191781 683.8244761958697 L 2118.4931506849307 689.8199208764073 L 2127.8082191780823 695.6109921871163 L 2137.123287671233 701.1786761049175 L 2146.4383561643835 706.5073488034678 L 2155.7534246575347 711.584705766192 L 2165.068493150685 716.4016463780608 L 2174.3835616438355 720.9521198207824 L 2183.6986301369866 725.232938377869 L 2193.013698630137 729.2435643764179 L 2202.3287671232874 732.9858769617333 L 2211.6438356164385 736.4639247328057 L 2220.9589041095887 739.6836699774582 L 2230.2739726027394 742.6527298539343 L 2239.589041095891 745.3801193903856 L 2248.9041095890407 747.8760006351971 L 2258.2191780821913 750.1514417092845 L 2267.534246575343 752.2181889056586 L 2276.8493150684926 754.0884543696042 L 2286.1643835616437 755.7747212910207 L 2295.479452054795 757.2895679630483 L 2304.7945205479446 758.6455115200125 L 2314.109589041096 759.8548716725436 L 2323.4246575342468 760.9296543156231 L 2332.7397260273965 761.8814545010947 L 2342.054794520548 762.7213779424108 L 2351.3698630136987 763.4599799566386 L 2360.6849315068484 764.1072205457476 L 2370.0000000000005 764.6724341731738" fill="none" stroke="#26455d" stroke-width="6" stroke-linecap="round"/><path d="M 330 1097.438920119586 L 339.31506849315053 1097.3438496922358 L 348.63013698630147 1097.2330280147512 L 357.945205479452 1097.1039295555322 L 367.2602739726029 1096.953657862747 L 376.57534246575347 1096.7789033738745 L 385.890410958904 1096.5758999949096 L 395.2054794520549 1096.3403814175915 L 404.52054794520546 1096.0675384046942 L 413.835616438356 1095.751978550571 L 423.15068493150693 1095.3876903072548 L 432.46575342465746 1094.9680133431673 L 441.78082191780834 1094.485617556919 L 451.09589041095893 1093.9324932852635 L 460.4109589041098 1093.2999554025353 L 469.72602739726 1092.5786640879985 L 479.04109589041093 1091.7586650162698 L 488.3561643835618 1090.8294515839134 L 497.671232876712 1089.7800515042454 L 506.98630136986293 1088.5991396678069 L 516.3013698630139 1087.2751785687076 L 525.616438356164 1085.7965868349281 L 534.9315068493149 1084.1519354798177 L 544.2465753424658 1082.3301704282655 L 553.5616438356167 1080.3208586904675 L 562.8767123287669 1078.1144542956818 L 572.1917808219179 1075.7025788049482 L 581.5068493150687 1073.0783099517355 L 590.8219178082189 1070.2364707765075 L 600.1369863013699 1067.173910593705 L 609.4520547945207 1063.8897683275056 L 618.767123287671 1060.3857082434722 L 628.0821917808219 1056.6661179478258 L 637.3972602739727 1052.7382587745842 L 646.7123287671236 1048.6123593680393 L 656.0273972602738 1044.3016444099662 L 665.3424657534247 1039.8222920315006 L 674.6575342465756 1035.1933154588041 L 683.9726027397259 1030.4363668147935 L 693.2876712328767 1025.5754636578351 L 702.6027397260276 1020.6366416822068 L 711.9178082191779 1015.6475399164673 L 721.2328767123288 1010.6369276042917 L 730.5479452054797 1005.6341846013993 L 739.8630136986299 1000.6687494367444 L 749.1780821917807 995.7695510398798 L 758.4931506849316 990.9644414195117 L 767.8082191780818 986.2796472044827 L 777.1232876712327 981.739257870969 L 786.4383561643837 977.3647676556553 L 795.7534246575339 973.1746866076782 L 805.0684931506847 969.1842340127976 L 814.3835616438357 965.4051246172847 L 823.6986301369865 961.8454548034902 L 833.0136986301368 958.5096922664534 L 842.3287671232877 955.3987689716748 L 851.6438356164385 952.5102734080597 L 860.9589041095887 949.8387345569431 L 870.2739726027397 947.3759867387661 L 879.5890410958905 945.1116017163229 L 888.9041095890414 943.0333722451537 L 898.2191780821917 941.1278297539409 L 907.5342465753425 939.380778061713 L 916.8493150684934 937.7778250081897 L 926.1643835616437 936.3048945658511 L 935.4794520547945 934.9487033601989 L 944.7945205479454 933.6971874611734 L 954.1095890410957 932.5398677128718 L 963.4246575342465 931.4681446126966 L 972.7397260273974 930.4755166976634 L 982.0547945205477 929.5577194060734 L 991.3698630136986 928.7127843241481 L 1000.6849315068494 927.9410214788612 L 1009.9999999999997 927.2449297971477 L 1019.3150684931505 926.6290429365796 L 1028.6301369863013 926.0997193462739 L 1037.9452054794517 925.6648866069477 L 1047.2602739726026 925.3337508177433 L 1056.5753424657535 925.1164820592238 L 1065.8904109589043 925.0238868007588 L 1075.2054794520545 925.0670775860815 L 1084.5205479452054 925.2571494842973 L 1093.8356164383563 925.6048717033743 L 1103.1506849315065 926.120401500352 L 1112.4657534246576 926.8130261572994 L 1121.7808219178085 927.6909373902338 L 1131.0958904109593 928.7610411784761 L 1140.4109589041095 930.0288046939969 L 1149.7260273972604 931.4981408137934 L 1159.0410958904113 933.1713296421713 L 1168.3561643835615 935.048975572573 L 1177.6712328767123 937.1299976891303 L 1186.9863013698632 939.4116507467508 L 1196.3013698630134 941.8895735684112 L 1205.6164383561643 944.5578614469908 L 1214.9315068493152 947.40915901996 L 1224.2465753424653 950.4347700796325 L 1233.5616438356165 953.6247808693865 L 1242.8767123287673 956.9681935773147 L 1252.1917808219175 960.4530669541505 L 1261.5068493150684 964.0666612348132 L 1270.8219178082193 967.7955848173935 L 1280.1369863013695 971.6259404372852 L 1289.4520547945203 975.5434688572741 L 1298.7671232876714 979.5336883690522 L 1308.0821917808216 983.5820286623414 L 1317.3972602739723 987.6739578610402 L 1326.7123287671234 991.7951017496391 L 1336.027397260274 995.9313544169727 L 1345.3424657534242 1000.0689797284937 L 1354.6575342465753 1004.1947032037041 L 1363.972602739726 1008.2957940235128 L 1373.287671232877 1012.3601370247488 L 1382.6027397260273 1016.3762946573788 L 1391.9178082191781 1020.3335589857261 L 1401.232876712329 1024.2219939094164 L 1410.5479452054794 1028.0324678640445 L 1419.86301369863 1031.7566773364615 L 1429.178082191781 1035.3871615958053 L 1438.4931506849314 1038.9173090993684 L 1447.808219178082 1042.34135608238 L 1457.1232876712331 1045.654377882962 L 1466.4383561643833 1048.852273588006 L 1475.7534246575342 1051.9317446125303 L 1485.068493150685 1054.8902678443492 L 1494.3835616438353 1057.72606399767 L 1503.6986301369861 1060.43806182372 L 1513.013698630137 1063.0258588239228 L 1522.3287671232874 1065.4896791018068 L 1531.643835616438 1067.8303289741452 L 1540.958904109589 1070.049150940246 L 1550.27397260274 1072.1479765814413 L 1559.58904109589 1074.1290789312097 L 1568.9041095890411 1075.9951248207208 L 1578.2191780821913 1077.7491276655862 L 1587.5342465753429 1079.39440111796 L 1596.849315068493 1080.9345139645554 L 1606.164383561644 1082.373246606385 L 1615.4794520547941 1083.714549410697 L 1624.794520547945 1084.9625031804228 L 1634.1095890410961 1086.1212819419627 L 1643.4246575342468 1087.1951182089613 L 1652.7397260273972 1088.1882708382898 L 1662.054794520548 1089.1049955552123 L 1671.3698630136987 1089.9495181880116 L 1680.6849315068491 1090.7260106184847 L 1690 1091.4385694238956 L 1699.3150684931509 1092.0911971583485 L 1708.630136986301 1092.6877861972232 L 1717.9452054794522 1093.232105047299 L 1727.2602739726028 1093.727787007475 L 1736.575342465753 1094.1783210505016 L 1745.890410958904 1094.5870447847446 L 1755.2054794520548 1094.9571393465512 L 1764.5205479452052 1095.291626068111 L 1773.835616438356 1095.5933647625784 L 1783.150684931507 1095.865053467415 L 1792.4657534246578 1096.1092294882137 L 1801.780821917808 1096.328271588386 L 1811.0958904109589 1096.5244031748261 L 1820.410958904109 1096.6996963357406 L 1829.7260273972609 1096.8560765940192 L 1839.0410958904108 1096.9953282475842 L 1848.356164383562 1097.1191001768943 L 1857.6712328767128 1097.2289120089677 L 1866.9863013698628 1097.3261605367657 L 1876.3013698630132 1097.4121263023676 L 1885.6164383561647 1097.4879802619078 L 1894.931506849315 1097.554790459636 L 1904.2465753424658 1097.6135286475699 L 1913.561643835617 1097.6650767959366 L 1922.8767123287669 1097.710233447905 L 1932.1917808219177 1097.7497198798908 L 1941.5068493150688 1097.784186035964 L 1950.8219178082188 1097.8142162115619 L 1960.13698630137 1097.8403344677838 L 1969.4520547945208 1097.8630097630282 L 1978.767123287671 1097.8826607936328 L 1988.0821917808219 1097.899660539482 L 1997.3972602739727 1097.9143405143182 L 2006.712328767123 1097.926994723716 L 2016.0273972602738 1097.9378833364094 L 2025.3424657534247 1097.9472360769294 L 2034.6575342465749 1097.955255349343 L 2043.972602739726 1097.9621191033327 L 2053.2876712328766 1097.967983454939 L 2062.602739726027 1097.9729850750743 L 2071.9178082191784 1097.9772433594026 L 2081.2328767123286 1097.9808623934416 L 2090.5479452054797 1097.9839327267832 L 2099.8630136986303 1097.9865329701981 L 2109.178082191781 1097.9887312291073 L 2118.4931506849307 1097.990586386507 L 2127.8082191780823 1097.9921492479325 L 2137.123287671233 1097.9934635604798 L 2146.4383561643835 1097.9945669172762 L 2155.7534246575347 1097.9954915581372 L 2165.068493150685 1097.9962650764605 L 2174.3835616438355 1097.9969110417194 L 2183.6986301369866 1097.9974495462307 L 2193.013698630137 1097.9978976842 L 2202.3287671232874 1097.9982699703814 L 2211.6438356164385 1097.9985787050657 L 2220.9589041095887 1097.9988342914992 L 2230.2739726027394 1097.9990455112709 L 2239.589041095891 1097.999219762659 L 2248.9041095890407 1097.9993632664361 L 2258.2191780821913 1097.9994812431542 L 2267.534246575343 1097.9995780655127 L 2276.8493150684926 1097.999657389007 L 2286.1643835616437 1097.9997222636985 L 2295.479452054795 1097.9997752296156 L 2304.7945205479446 1097.9998183980053 L 2314.109589041096 1097.9998535203729 L 2323.4246575342468 1097.9998820470187 L 2332.7397260273965 1097.9999051765603 L 2342.054794520548 1097.9999238977366 L 2351.3698630136987 1097.9999390246182 L 2360.6849315068484 1097.999951226203 L 2370.0000000000005 1097.999961051235 L 2370.0000000000005 1098 L 2360.6849315068484 1098 L 2351.3698630136987 1098 L 2342.054794520548 1098 L 2332.7397260273965 1098 L 2323.4246575342468 1098 L 2314.109589041096 1098 L 2304.7945205479446 1098 L 2295.479452054795 1098 L 2286.1643835616437 1098 L 2276.8493150684926 1098 L 2267.534246575343 1098 L 2258.2191780821913 1098 L 2248.9041095890407 1098 L 2239.589041095891 1098 L 2230.2739726027394 1098 L 2220.9589041095887 1098 L 2211.6438356164385 1098 L 2202.3287671232874 1098 L 2193.013698630137 1098 L 2183.6986301369866 1098 L 2174.3835616438355 1098 L 2165.068493150685 1098 L 2155.7534246575347 1098 L 2146.4383561643835 1098 L 2137.123287671233 1098 L 2127.8082191780823 1098 L 2118.4931506849307 1098 L 2109.178082191781 1098 L 2099.8630136986303 1098 L 2090.5479452054797 1098 L 2081.2328767123286 1098 L 2071.9178082191784 1098 L 2062.602739726027 1098 L 2053.2876712328766 1098 L 2043.972602739726 1098 L 2034.6575342465749 1098 L 2025.3424657534247 1098 L 2016.0273972602738 1098 L 2006.712328767123 1098 L 1997.3972602739727 1098 L 1988.0821917808219 1098 L 1978.767123287671 1098 L 1969.4520547945208 1098 L 1960.13698630137 1098 L 1950.8219178082188 1098 L 1941.5068493150688 1098 L 1932.1917808219177 1098 L 1922.8767123287669 1098 L 1913.561643835617 1098 L 1904.2465753424658 1098 L 1894.931506849315 1098 L 1885.6164383561647 1098 L 1876.3013698630132 1098 L 1866.9863013698628 1098 L 1857.6712328767128 1098 L 1848.356164383562 1098 L 1839.0410958904108 1098 L 1829.7260273972609 1098 L 1820.410958904109 1098 L 1811.0958904109589 1098 L 1801.780821917808 1098 L 1792.4657534246578 1098 L 1783.150684931507 1098 L 1773.835616438356 1098 L 1764.5205479452052 1098 L 1755.2054794520548 1098 L 1745.890410958904 1098 L 1736.575342465753 1098 L 1727.2602739726028 1098 L 1717.9452054794522 1098 L 1708.630136986301 1098 L 1699.3150684931509 1098 L 1690 1098 L 1680.6849315068491 1098 L 1671.3698630136987 1098 L 1662.054794520548 1098 L 1652.7397260273972 1098 L 1643.4246575342468 1098 L 1634.1095890410961 1098 L 1624.794520547945 1098 L 1615.4794520547941 1098 L 1606.164383561644 1098 L 1596.849315068493 1098 L 1587.5342465753429 1098 L 1578.2191780821913 1098 L 1568.9041095890411 1098 L 1559.58904109589 1098 L 1550.27397260274 1098 L 1540.958904109589 1098 L 1531.643835616438 1098 L 1522.3287671232874 1098 L 1513.013698630137 1098 L 1503.6986301369861 1098 L 1494.3835616438353 1098 L 1485.068493150685 1098 L 1475.7534246575342 1098 L 1466.4383561643833 1098 L 1457.1232876712331 1098 L 1447.808219178082 1098 L 1438.4931506849314 1098 L 1429.178082191781 1098 L 1419.86301369863 1098 L 1410.5479452054794 1098 L 1401.232876712329 1098 L 1391.9178082191781 1098 L 1382.6027397260273 1098 L 1373.287671232877 1098 L 1363.972602739726 1098 L 1354.6575342465753 1098 L 1345.3424657534242 1098 L 1336.027397260274 1098 L 1326.7123287671234 1098 L 1317.3972602739723 1098 L 1308.0821917808216 1098 L 1298.7671232876714 1098 L 1289.4520547945203 1098 L 1280.1369863013695 1098 L 1270.8219178082193 1098 L 1261.5068493150684 1098 L 1252.1917808219175 1098 L 1242.8767123287673 1098 L 1233.5616438356165 1098 L 1224.2465753424653 1098 L 1214.9315068493152 1098 L 1205.6164383561643 1098 L 1196.3013698630134 1098 L 1186.9863013698632 1098 L 1177.6712328767123 1098 L 1168.3561643835615 1098 L 1159.0410958904113 1098 L 1149.7260273972604 1098 L 1140.4109589041095 1098 L 1131.0958904109593 1098 L 1121.7808219178085 1098 L 1112.4657534246576 1098 L 1103.1506849315065 1098 L 1093.8356164383563 1098 L 1084.5205479452054 1098 L 1075.2054794520545 1098 L 1065.8904109589043 1098 L 1056.5753424657535 1098 L 1047.2602739726026 1098 L 1037.9452054794517 1098 L 1028.6301369863013 1098 L 1019.3150684931505 1098 L 1009.9999999999997 1098 L 1000.6849315068494 1098 L 991.3698630136986 1098 L 982.0547945205477 1098 L 972.7397260273974 1098 L 963.4246575342465 1098 L 954.1095890410957 1098 L 944.7945205479454 1098 L 935.4794520547945 1098 L 926.1643835616437 1098 L 916.8493150684934 1098 L 907.5342465753425 1098 L 898.2191780821917 1098 L 888.9041095890414 1098 L 879.5890410958905 1098 L 870.2739726027397 1098 L 860.9589041095887 1098 L 851.6438356164385 1098 L 842.3287671232877 1098 L 833.0136986301368 1098 L 823.6986301369865 1098 L 814.3835616438357 1098 L 805.0684931506847 1098 L 795.7534246575339 1098 L 786.4383561643837 1098 L 777.1232876712327 1098 L 767.8082191780818 1098 L 758.4931506849316 1098 L 749.1780821917807 1098 L 739.8630136986299 1098 L 730.5479452054797 1098 L 721.2328767123288 1098 L 711.9178082191779 1098 L 702.6027397260276 1098 L 693.2876712328767 1098 L 683.9726027397259 1098 L 674.6575342465756 1098 L 665.3424657534247 1098 L 656.0273972602738 1098 L 646.7123287671236 1098 L 637.3972602739727 1098 L 628.0821917808219 1098 L 618.767123287671 1098 L 609.4520547945207 1098 L 600.1369863013699 1098 L 590.8219178082189 1098 L 581.5068493150687 1098 L 572.1917808219179 1098 L 562.8767123287669 1098 L 553.5616438356167 1098 L 544.2465753424658 1098 L 534.9315068493149 1098 L 525.616438356164 1098 L 516.3013698630139 1098 L 506.98630136986293 1098 L 497.671232876712 1098 L 488.3561643835618 1098 L 479.04109589041093 1098 L 469.72602739726 1098 L 460.4109589041098 1098 L 451.09589041095893 1098 L 441.78082191780834 1098 L 432.46575342465746 1098 L 423.15068493150693 1098 L 413.835616438356 1098 L 404.52054794520546 1098 L 395.2054794520549 1098 L 385.890410958904 1098 L 376.57534246575347 1098 L 367.2602739726029 1098 L 357.945205479452 1098 L 348.63013698630147 1098 L 339.31506849315053 1098 L 330 1098 Z" fill="#996351" fill-opacity="0.22" stroke="none"/><path d="M 330 1097.438920119586 L 339.31506849315053 1097.3438496922358 L 348.63013698630147 1097.2330280147512 L 357.945205479452 1097.1039295555322 L 367.2602739726029 1096.953657862747 L 376.57534246575347 1096.7789033738745 L 385.890410958904 1096.5758999949096 L 395.2054794520549 1096.3403814175915 L 404.52054794520546 1096.0675384046942 L 413.835616438356 1095.751978550571 L 423.15068493150693 1095.3876903072548 L 432.46575342465746 1094.9680133431673 L 441.78082191780834 1094.485617556919 L 451.09589041095893 1093.9324932852635 L 460.4109589041098 1093.2999554025353 L 469.72602739726 1092.5786640879985 L 479.04109589041093 1091.7586650162698 L 488.3561643835618 1090.8294515839134 L 497.671232876712 1089.7800515042454 L 506.98630136986293 1088.5991396678069 L 516.3013698630139 1087.2751785687076 L 525.616438356164 1085.7965868349281 L 534.9315068493149 1084.1519354798177 L 544.2465753424658 1082.3301704282655 L 553.5616438356167 1080.3208586904675 L 562.8767123287669 1078.1144542956818 L 572.1917808219179 1075.7025788049482 L 581.5068493150687 1073.0783099517355 L 590.8219178082189 1070.2364707765075 L 600.1369863013699 1067.173910593705 L 609.4520547945207 1063.8897683275056 L 618.767123287671 1060.3857082434722 L 628.0821917808219 1056.6661179478258 L 637.3972602739727 1052.7382587745842 L 646.7123287671236 1048.6123593680393 L 656.0273972602738 1044.3016444099662 L 665.3424657534247 1039.8222920315006 L 674.6575342465756 1035.1933154588041 L 683.9726027397259 1030.4363668147935 L 693.2876712328767 1025.5754636578351 L 702.6027397260276 1020.6366416822068 L 711.9178082191779 1015.6475399164673 L 721.2328767123288 1010.6369276042917 L 730.5479452054797 1005.6341846013993 L 739.8630136986299 1000.6687494367444 L 749.1780821917807 995.7695510398798 L 758.4931506849316 990.9644414195117 L 767.8082191780818 986.2796472044827 L 777.1232876712327 981.739257870969 L 786.4383561643837 977.3647676556553 L 795.7534246575339 973.1746866076782 L 805.0684931506847 969.1842340127976 L 814.3835616438357 965.4051246172847 L 823.6986301369865 961.8454548034902 L 833.0136986301368 958.5096922664534 L 842.3287671232877 955.3987689716748 L 851.6438356164385 952.5102734080597 L 860.9589041095887 949.8387345569431 L 870.2739726027397 947.3759867387661 L 879.5890410958905 945.1116017163229 L 888.9041095890414 943.0333722451537 L 898.2191780821917 941.1278297539409 L 907.5342465753425 939.380778061713 L 916.8493150684934 937.7778250081897 L 926.1643835616437 936.3048945658511 L 935.4794520547945 934.9487033601989 L 944.7945205479454 933.6971874611734 L 954.1095890410957 932.5398677128718 L 963.4246575342465 931.4681446126966 L 972.7397260273974 930.4755166976634 L 982.0547945205477 929.5577194060734 L 991.3698630136986 928.7127843241481 L 1000.6849315068494 927.9410214788612 L 1009.9999999999997 927.2449297971477 L 1019.3150684931505 926.6290429365796 L 1028.6301369863013 926.0997193462739 L 1037.9452054794517 925.6648866069477 L 1047.2602739726026 925.3337508177433 L 1056.5753424657535 925.1164820592238 L 1065.8904109589043 925.0238868007588 L 1075.2054794520545 925.0670775860815 L 1084.5205479452054 925.2571494842973 L 1093.8356164383563 925.6048717033743 L 1103.1506849315065 926.120401500352 L 1112.4657534246576 926.8130261572994 L 1121.7808219178085 927.6909373902338 L 1131.0958904109593 928.7610411784761 L 1140.4109589041095 930.0288046939969 L 1149.7260273972604 931.4981408137934 L 1159.0410958904113 933.1713296421713 L 1168.3561643835615 935.048975572573 L 1177.6712328767123 937.1299976891303 L 1186.9863013698632 939.4116507467508 L 1196.3013698630134 941.8895735684112 L 1205.6164383561643 944.5578614469908 L 1214.9315068493152 947.40915901996 L 1224.2465753424653 950.4347700796325 L 1233.5616438356165 953.6247808693865 L 1242.8767123287673 956.9681935773147 L 1252.1917808219175 960.4530669541505 L 1261.5068493150684 964.0666612348132 L 1270.8219178082193 967.7955848173935 L 1280.1369863013695 971.6259404372852 L 1289.4520547945203 975.5434688572741 L 1298.7671232876714 979.5336883690522 L 1308.0821917808216 983.5820286623414 L 1317.3972602739723 987.6739578610402 L 1326.7123287671234 991.7951017496391 L 1336.027397260274 995.9313544169727 L 1345.3424657534242 1000.0689797284937 L 1354.6575342465753 1004.1947032037041 L 1363.972602739726 1008.2957940235128 L 1373.287671232877 1012.3601370247488 L 1382.6027397260273 1016.3762946573788 L 1391.9178082191781 1020.3335589857261 L 1401.232876712329 1024.2219939094164 L 1410.5479452054794 1028.0324678640445 L 1419.86301369863 1031.7566773364615 L 1429.178082191781 1035.3871615958053 L 1438.4931506849314 1038.9173090993684 L 1447.808219178082 1042.34135608238 L 1457.1232876712331 1045.654377882962 L 1466.4383561643833 1048.852273588006 L 1475.7534246575342 1051.9317446125303 L 1485.068493150685 1054.8902678443492 L 1494.3835616438353 1057.72606399767 L 1503.6986301369861 1060.43806182372 L 1513.013698630137 1063.0258588239228 L 1522.3287671232874 1065.4896791018068 L 1531.643835616438 1067.8303289741452 L 1540.958904109589 1070.049150940246 L 1550.27397260274 1072.1479765814413 L 1559.58904109589 1074.1290789312097 L 1568.9041095890411 1075.9951248207208 L 1578.2191780821913 1077.7491276655862 L 1587.5342465753429 1079.39440111796 L 1596.849315068493 1080.9345139645554 L 1606.164383561644 1082.373246606385 L 1615.4794520547941 1083.714549410697 L 1624.794520547945 1084.9625031804228 L 1634.1095890410961 1086.1212819419627 L 1643.4246575342468 1087.1951182089613 L 1652.7397260273972 1088.1882708382898 L 1662.054794520548 1089.1049955552123 L 1671.3698630136987 1089.9495181880116 L 1680.6849315068491 1090.7260106184847 L 1690 1091.4385694238956 L 1699.3150684931509 1092.0911971583485 L 1708.630136986301 1092.6877861972232 L 1717.9452054794522 1093.232105047299 L 1727.2602739726028 1093.727787007475 L 1736.575342465753 1094.1783210505016 L 1745.890410958904 1094.5870447847446 L 1755.2054794520548 1094.9571393465512 L 1764.5205479452052 1095.291626068111 L 1773.835616438356 1095.5933647625784 L 1783.150684931507 1095.865053467415 L 1792.4657534246578 1096.1092294882137 L 1801.780821917808 1096.328271588386 L 1811.0958904109589 1096.5244031748261 L 1820.410958904109 1096.6996963357406 L 1829.7260273972609 1096.8560765940192 L 1839.0410958904108 1096.9953282475842 L 1848.356164383562 1097.1191001768943 L 1857.6712328767128 1097.2289120089677 L 1866.9863013698628 1097.3261605367657 L 1876.3013698630132 1097.4121263023676 L 1885.6164383561647 1097.4879802619078 L 1894.931506849315 1097.554790459636 L 1904.2465753424658 1097.6135286475699 L 1913.561643835617 1097.6650767959366 L 1922.8767123287669 1097.710233447905 L 1932.1917808219177 1097.7497198798908 L 1941.5068493150688 1097.784186035964 L 1950.8219178082188 1097.8142162115619 L 1960.13698630137 1097.8403344677838 L 1969.4520547945208 1097.8630097630282 L 1978.767123287671 1097.8826607936328 L 1988.0821917808219 1097.899660539482 L 1997.3972602739727 1097.9143405143182 L 2006.712328767123 1097.926994723716 L 2016.0273972602738 1097.9378833364094 L 2025.3424657534247 1097.9472360769294 L 2034.6575342465749 1097.955255349343 L 2043.972602739726 1097.9621191033327 L 2053.2876712328766 1097.967983454939 L 2062.602739726027 1097.9729850750743 L 2071.9178082191784 1097.9772433594026 L 2081.2328767123286 1097.9808623934416 L 2090.5479452054797 1097.9839327267832 L 2099.8630136986303 1097.9865329701981 L 2109.178082191781 1097.9887312291073 L 2118.4931506849307 1097.990586386507 L 2127.8082191780823 1097.9921492479325 L 2137.123287671233 1097.9934635604798 L 2146.4383561643835 1097.9945669172762 L 2155.7534246575347 1097.9954915581372 L 2165.068493150685 1097.9962650764605 L 2174.3835616438355 1097.9969110417194 L 2183.6986301369866 1097.9974495462307 L 2193.013698630137 1097.9978976842 L 2202.3287671232874 1097.9982699703814 L 2211.6438356164385 1097.9985787050657 L 2220.9589041095887 1097.9988342914992 L 2230.2739726027394 1097.9990455112709 L 2239.589041095891 1097.999219762659 L 2248.9041095890407 1097.9993632664361 L 2258.2191780821913 1097.9994812431542 L 2267.534246575343 1097.9995780655127 L 2276.8493150684926 1097.999657389007 L 2286.1643835616437 1097.9997222636985 L 2295.479452054795 1097.9997752296156 L 2304.7945205479446 1097.9998183980053 L 2314.109589041096 1097.9998535203729 L 2323.4246575342468 1097.9998820470187 L 2332.7397260273965 1097.9999051765603 L 2342.054794520548 1097.9999238977366 L 2351.3698630136987 1097.9999390246182 L 2360.6849315068484 1097.999951226203 L 2370.0000000000005 1097.999961051235" fill="none" stroke="#996351" stroke-width="6" stroke-linecap="round"/><circle cx="1156.8000000000002" cy="786" r="5.8" fill="#26455d" fill-opacity="0.72"/><circle cx="1246.5599465410314" cy="811" r="5.8" fill="#26455d" fill-opacity="0.72"/><circle cx="1271.8404162616275" cy="804" r="5.8" fill="#26455d" fill-opacity="0.72"/><circle cx="1313.7365371489614" cy="802" r="5.8" fill="#26455d" fill-opacity="0.72"/><circle cx="1415.8304645127919" cy="795" r="5.8" fill="#26455d" fill-opacity="0.72"/><circle cx="1485.7964288435558" cy="820" r="5.8" fill="#26455d" fill-opacity="0.72"/><circle cx="1503.8436089973059" cy="786" r="5.8" fill="#26455d" fill-opacity="0.72"/><circle cx="1567.3976511675737" cy="811" r="5.8" fill="#26455d" fill-opacity="0.72"/><circle cx="1671.143860267867" cy="804" r="5.8" fill="#26455d" fill-opacity="0.72"/><circle cx="1719.0261285061615" cy="802" r="5.8" fill="#26455d" fill-opacity="0.72"/><circle cx="1741.1117522338684" cy="795" r="5.8" fill="#26455d" fill-opacity="0.72"/><circle cx="1825.7088280565508" cy="820" r="5.8" fill="#26455d" fill-opacity="0.72"/><circle cx="1919.994035524109" cy="786" r="5.8" fill="#26455d" fill-opacity="0.72"/><circle cx="1949.2712660517866" cy="811" r="5.8" fill="#26455d" fill-opacity="0.72"/><circle cx="1985.6122047625768" cy="804" r="5.8" fill="#26455d" fill-opacity="0.72"/><circle cx="2085.140880595838" cy="802" r="5.8" fill="#26455d" fill-opacity="0.72"/><circle cx="2161.323064175541" cy="795" r="5.8" fill="#26455d" fill-opacity="0.72"/><circle cx="2180.33364460874" cy="820" r="5.8" fill="#26455d" fill-opacity="0.72"/><circle cx="2237.4232098864495" cy="786" r="5.8" fill="#26455d" fill-opacity="0.72"/><circle cx="2341.8718432195074" cy="811" r="5.8" fill="#26455d" fill-opacity="0.72"/><circle cx="2396.037581360257" cy="804" r="5.8" fill="#26455d" fill-opacity="0.72"/><circle cx="2415.801599851194" cy="802" r="5.8" fill="#26455d" fill-opacity="0.72"/><circle cx="390.00000000000006" cy="1116" r="5.8" fill="#996351" fill-opacity="0.72"/><circle cx="390.00000000000006" cy="1141" r="5.8" fill="#996351" fill-opacity="0.72"/><circle cx="390.00000000000006" cy="1134" r="5.8" fill="#996351" fill-opacity="0.72"/><circle cx="390.00000000000006" cy="1132" r="5.8" fill="#996351" fill-opacity="0.72"/><circle cx="497.7739526837223" cy="1125" r="5.8" fill="#996351" fill-opacity="0.72"/><circle cx="591.0619051247422" cy="1150" r="5.8" fill="#996351" fill-opacity="0.72"/><circle cx="615.124811996408" cy="1116" r="5.8" fill="#996351" fill-opacity="0.72"/><circle cx="699.8635348900975" cy="1141" r="5.8" fill="#996351" fill-opacity="0.72"/><circle cx="838.191813690489" cy="1134" r="5.8" fill="#996351" fill-opacity="0.72"/><circle cx="902.0348380082152" cy="1132" r="5.8" fill="#996351" fill-opacity="0.72"/><circle cx="931.4823363118255" cy="1125" r="5.8" fill="#996351" fill-opacity="0.72"/><circle cx="1044.2784374087346" cy="1150" r="5.8" fill="#996351" fill-opacity="0.72"/><circle cx="1169.992047365478" cy="1116" r="5.8" fill="#996351" fill-opacity="0.72"/><circle cx="1209.028354735715" cy="1141" r="5.8" fill="#996351" fill-opacity="0.72"/><circle cx="1257.4829396834357" cy="1134" r="5.8" fill="#996351" fill-opacity="0.72"/><circle cx="1390.1878407944514" cy="1132" r="5.8" fill="#996351" fill-opacity="0.72"/><circle cx="1491.7640855673872" cy="1125" r="5.8" fill="#996351" fill-opacity="0.72"/><circle cx="1517.1115261449868" cy="1150" r="5.8" fill="#996351" fill-opacity="0.72"/><circle cx="1593.2309465152669" cy="1116" r="5.8" fill="#996351" fill-opacity="0.72"/><circle cx="1732.4957909593427" cy="1141" r="5.8" fill="#996351" fill-opacity="0.72"/><circle cx="1804.7167751470088" cy="1134" r="5.8" fill="#996351" fill-opacity="0.72"/><circle cx="1831.0687998015924" cy="1132" r="5.8" fill="#996351" fill-opacity="0.72"/><text x="254" y="750" font-family="Helvetica Neue, Arial, sans-serif" font-size="28" font-weight="700" fill="#16212a">barrier design</text><text x="254" y="1080" font-family="Helvetica Neue, Arial, sans-serif" font-size="28" font-weight="700" fill="#16212a">flat spread</text>
    <rect x="2512" y="430" width="470" height="238" rx="18" fill="#ffffff" stroke="#c5beb1" stroke-width="1.9" filter="url(#shadow)"/>
    <rect x="2528" y="446" width="10" height="206" rx="5" fill="#7e453d" opacity="0.9"/>
    <rect x="2552" y="448" width="272" height="30" rx="8" fill="#7e453d" fill-opacity="0.12"/>
    <text x="2564" y="484" font-family="Helvetica Neue, Arial, sans-serif" font-size="34" font-weight="700" fill="#16212a">What matters here</text>
    <text x="2564" y="528" font-family="Helvetica Neue, Arial, sans-serif" font-size="23" fill="#5d6872">The optimized ridge shifts rightward and leaves a much thinner low tail.</text><text x="2564" y="562" font-family="Helvetica Neue, Arial, sans-serif" font-size="23" fill="#5d6872">Tail-risk reduction is visible without collapsing all replications into one mean.</text>
  
    <rect x="2512" y="724" width="470" height="210" rx="18" fill="#ffffff" stroke="#c5beb1" stroke-width="1.9" filter="url(#shadow)"/>
    <rect x="2528" y="740" width="10" height="178" rx="5" fill="#26455d" opacity="0.9"/>
    <rect x="2552" y="742" width="202" height="30" rx="8" fill="#26455d" fill-opacity="0.12"/>
    <text x="2564" y="778" font-family="Helvetica Neue, Arial, sans-serif" font-size="34" font-weight="700" fill="#16212a">Tail reading</text>
    <text x="2564" y="822" font-family="Helvetica Neue, Arial, sans-serif" font-size="23" fill="#5d6872">PI below 0.60 is operationally fragile.</text><text x="2564" y="856" font-family="Helvetica Neue, Arial, sans-serif" font-size="23" fill="#5d6872">That region is common under flat spreading and rare under the barrier design.</text>
  
</svg>