<?xml version="1.0" encoding="UTF-8"?>
<svg xmlns="http://www.w3.org/2000/svg" viewBox="0 0 3200 1800" width="3200" height="1800">
  <defs>
    <linearGradient id="pageBg" x1="0" y1="0" x2="0" y2="1"><stop offset="0%" stop-color="#f5efe3"/><stop offset="100%" stop-color="#ece2d1"/></linearGradient>
    <pattern id="paperGrain" width="18" height="18" patternUnits="userSpaceOnUse"><circle cx="4" cy="5" r="0.9" fill="#d8d0c0" opacity="0.28"/><circle cx="13" cy="8" r="0.7" fill="#cfc7b7" opacity="0.24"/><circle cx="9" cy="14" r="0.8" fill="#d8d0c0" opacity="0.22"/></pattern>
    <filter id="shadow" x="-20%" y="-20%" width="140%" height="140%"><feDropShadow dx="0" dy="12" stdDeviation="14" flood-color="#8c948f" flood-opacity="0.18"/></filter>
  </defs>
  <rect x="0" y="0" width="3200" height="1800" fill="url(#pageBg)"/>
  <rect x="0" y="0" width="3200" height="1800" fill="url(#paperGrain)" opacity="0.44"/>
  <rect x="54" y="48" width="3092" height="162" rx="32" fill="#fbf8f1" stroke="#bcc4c5" stroke-width="2.2" filter="url(#shadow)"/>
  
    <rect x="92" y="78" width="248" height="42" rx="21" fill="#b26a48" stroke="#b26a48" stroke-width="1.2"/>
    <text x="216" y="106" text-anchor="middle" font-family="Helvetica Neue, Arial, sans-serif" font-size="19" font-weight="700" letter-spacing="2" fill="#fbf8f1">RESOURCE LEDGER</text>
  
  
    <rect x="2914" y="78" width="174" height="42" rx="21" fill="#efe5cb" stroke="#efe5cb" stroke-width="1.2"/>
    <text x="3001" y="106" text-anchor="middle" font-family="Helvetica Neue, Arial, sans-serif" font-size="19" font-weight="700" letter-spacing="2" fill="#20303d">FIG. 06</text>
  
  <text x="92" y="152" font-family="Helvetica Neue, Arial, sans-serif" font-size="60" font-weight="700" fill="#20303d">Resource Ledger from Assets to Sectors</text>
  <text x="92" y="189" font-family="Helvetica Neue, Arial, sans-serif" font-size="26" fill="#687682">Manpower, devices, and UAV effort are traced into sector commitments instead of shown as dashboard tiles</text>
  <rect x="92" y="98" width="2768" height="7" rx="4" fill="#b26a48"/><rect x="92" y="108" width="1826.88" height="2" rx="1" fill="#bcc4c5"/>
  
    <rect x="58" y="256" width="3084" height="1482" rx="34" fill="#fbf8f1" stroke="#bcc4c5" stroke-width="2.3" filter="url(#shadow)"/>
    <rect x="74" y="272" width="3052" height="1450" rx="28" fill="#f8f3ea" stroke="#dad3c4" stroke-width="1.5"/>
  
    <rect x="126" y="328" width="500" height="176" rx="24" fill="#ffffff" stroke="#bcc4c5" stroke-width="2" filter="url(#shadow)"/>
    <rect x="126" y="328" width="500" height="12" rx="24" fill="#405b74" opacity="0.92"/>
    <text x="152" y="386" font-family="Helvetica Neue, Arial, sans-serif" font-size="34" font-weight="700" fill="#20303d">Asset pool</text>
    <text x="152" y="434" font-family="Helvetica Neue, Arial, sans-serif" font-size="30" fill="#687682">34 field rangers</text><text x="152" y="468" font-family="Helvetica Neue, Arial, sans-serif" font-size="30" fill="#687682">12 fixed devices</text><text x="152" y="502" font-family="Helvetica Neue, Arial, sans-serif" font-size="30" fill="#687682">4 UAV sorties</text>
  
    <rect x="126" y="560" width="450" height="118" rx="20" fill="#ffffff" stroke="#bcc4c5" stroke-width="1.8"/>
    <rect x="126" y="560" width="450" height="10" rx="20" fill="#405b74"/>
    <text x="148" y="604" font-family="Helvetica Neue, Arial, sans-serif" font-size="23" fill="#687682">patrol-hours</text>
    <text x="148" y="646" font-family="Helvetica Neue, Arial, sans-serif" font-size="42" font-weight="700" fill="#20303d">100%</text>
    <text x="554" y="646" text-anchor="end" font-family="Helvetica Neue, Arial, sans-serif" font-size="22" fill="#687682">time budget</text>
  
    <rect x="126" y="700" width="450" height="118" rx="20" fill="#ffffff" stroke="#bcc4c5" stroke-width="1.8"/>
    <rect x="126" y="700" width="450" height="10" rx="20" fill="#4f7d78"/>
    <text x="148" y="744" font-family="Helvetica Neue, Arial, sans-serif" font-size="23" fill="#687682">device stock</text>
    <text x="148" y="786" font-family="Helvetica Neue, Arial, sans-serif" font-size="42" font-weight="700" fill="#20303d">12</text>
    <text x="554" y="786" text-anchor="end" font-family="Helvetica Neue, Arial, sans-serif" font-size="22" fill="#687682">persistent monitors</text>
  
    <rect x="126" y="840" width="450" height="118" rx="20" fill="#ffffff" stroke="#bcc4c5" stroke-width="1.8"/>
    <rect x="126" y="840" width="450" height="10" rx="20" fill="#b89443"/>
    <text x="148" y="884" font-family="Helvetica Neue, Arial, sans-serif" font-size="23" fill="#687682">UAV stock</text>
    <text x="148" y="926" font-family="Helvetica Neue, Arial, sans-serif" font-size="42" font-weight="700" fill="#20303d">4</text>
    <text x="554" y="926" text-anchor="end" font-family="Helvetica Neue, Arial, sans-serif" font-size="22" fill="#687682">mobile sweeps</text>
  <rect x="1170" y="468" width="520" height="172" rx="28" fill="#ffffff" stroke="#bcc4c5" stroke-width="2" filter="url(#shadow)"/><rect x="1170" y="468" width="520" height="12" rx="28" fill="#405b74"/><text x="1196" y="526" font-family="Helvetica Neue, Arial, sans-serif" font-size="34" font-weight="700" fill="#20303d">Eastern sector</text><text x="1196" y="572" font-family="Helvetica Neue, Arial, sans-serif" font-size="52" font-weight="700" fill="#405b74">49%</text><text x="1362" y="572" font-family="Helvetica Neue, Arial, sans-serif" font-size="24" fill="#687682">primary hotspot shield</text><rect x="1170" y="726" width="520" height="172" rx="28" fill="#ffffff" stroke="#bcc4c5" stroke-width="2" filter="url(#shadow)"/><rect x="1170" y="726" width="520" height="12" rx="28" fill="#b26a48"/><text x="1196" y="784" font-family="Helvetica Neue, Arial, sans-serif" font-size="34" font-weight="700" fill="#20303d">South-central corridor</text><text x="1196" y="830" font-family="Helvetica Neue, Arial, sans-serif" font-size="52" font-weight="700" fill="#b26a48">31%</text><text x="1362" y="830" font-family="Helvetica Neue, Arial, sans-serif" font-size="24" fill="#687682">link corridor control</text><rect x="1170" y="984" width="520" height="172" rx="28" fill="#ffffff" stroke="#bcc4c5" stroke-width="2" filter="url(#shadow)"/><rect x="1170" y="984" width="520" height="12" rx="28" fill="#6d8368"/><text x="1196" y="1042" font-family="Helvetica Neue, Arial, sans-serif" font-size="34" font-weight="700" fill="#20303d">West and north reserve</text><text x="1196" y="1088" font-family="Helvetica Neue, Arial, sans-serif" font-size="52" font-weight="700" fill="#6d8368">20%</text><text x="1362" y="1088" font-family="Helvetica Neue, Arial, sans-serif" font-size="24" fill="#687682">deterrence and fallback</text><path d="M 576 618 C 801.72 618, 979.9200000000001 556, 1170 556" fill="none" stroke="#405b74" stroke-width="24" stroke-linecap="round" opacity="0.7"/><path d="M 576 618 C 801.72 618, 979.9200000000001 814, 1170 814" fill="none" stroke="#405b74" stroke-width="16" stroke-linecap="round" opacity="0.48"/><path d="M 576 618 C 801.72 618, 979.9200000000001 1072, 1170 1072" fill="none" stroke="#405b74" stroke-width="11" stroke-linecap="round" opacity="0.35"/><path d="M 576 758 C 801.72 758, 979.9200000000001 564, 1170 564" fill="none" stroke="#4f7d78" stroke-width="14" stroke-linecap="round" opacity="0.62"/><path d="M 576 758 C 801.72 758, 979.9200000000001 822, 1170 822" fill="none" stroke="#4f7d78" stroke-width="9" stroke-linecap="round" opacity="0.52"/><path d="M 576 898 C 801.72 898, 979.9200000000001 572, 1170 572" fill="none" stroke="#b89443" stroke-width="12" stroke-linecap="round" opacity="0.58"/><path d="M 576 898 C 801.72 898, 979.9200000000001 830, 1170 830" fill="none" stroke="#b89443" stroke-width="10" stroke-linecap="round" opacity="0.46"/><path d="M 576 898 C 801.72 898, 979.9200000000001 1080, 1170 1080" fill="none" stroke="#b89443" stroke-width="7" stroke-linecap="round" opacity="0.32"/>
    <rect x="770" y="1266" width="980" height="192" rx="24" fill="#ffffff" stroke="#bcc4c5" stroke-width="2" filter="url(#shadow)"/>
    <rect x="770" y="1266" width="980" height="12" rx="24" fill="#b26a48" opacity="0.92"/>
    <text x="796" y="1324" font-family="Helvetica Neue, Arial, sans-serif" font-size="34" font-weight="700" fill="#20303d">Read this figure as a ledger, not a dashboard</text>
    <text x="796" y="1372" font-family="Helvetica Neue, Arial, sans-serif" font-size="24" fill="#687682">The widths of the connectors encode how much of each asset family is committed to each sector.</text><text x="796" y="1406" font-family="Helvetica Neue, Arial, sans-serif" font-size="24" fill="#687682">This makes the sector plan unique to the model rather than a decorative summary card.</text>
  
    <rect x="1788" y="1228" width="1230" height="230" rx="24" fill="#ffffff" stroke="#bcc4c5" stroke-width="2" filter="url(#shadow)"/>
    <rect x="1788" y="1228" width="1230" height="12" rx="24" fill="#6d8368" opacity="0.92"/>
    <text x="1814" y="1286" font-family="Helvetica Neue, Arial, sans-serif" font-size="34" font-weight="700" fill="#20303d">Inset map of final field attention</text>
    <text x="1814" y="1334" font-family="Helvetica Neue, Arial, sans-serif" font-size="24" fill="#687682">The inset shows the same corridor logic in spatial form so the ledger stays tied to geography.</text>
  <g transform="translate(2031.84 242.56) scale(0.32)">
    <rect x="88" y="242" width="3024" height="1298" rx="28" fill="#efe8db" stroke="#bcc4c5" stroke-width="1.6"/>
    <path d="M 285 500 L 530 420 L 1090 400 L 1670 410 L 2270 437 L 2800 469 L 2982 545 L 3000 795 L 2970 1185 L 2830 1350 L 2320 1389 L 1500 1415 L 830 1403 L 428 1337 L 290 1130 L 255 775 Z" fill="#d8cab1" stroke="none"/>
    <path d="M 320 775 L 600 675 L 970 645 L 1210 715 L 1090 865 L 730 915 L 420 885 Z" fill="#cfd6be" opacity="0.88"/>
    <path d="M 870 1125 L 1250 1055 L 1650 1025 L 1870 1155 L 1620 1310 L 1160 1270 L 930 1195 Z" fill="#c9d1ba" opacity="0.88"/>
    <path d="M 2120 905 L 2430 815 L 2830 775 L 2920 985 L 2620 1165 L 2250 1115 L 2100 1015 Z" fill="#ced7c1" opacity="0.88"/>
    <path d="M 1210 565 L 1420 495 L 1710 460 L 2055 480 L 2340 555 L 2470 650 L 2390 775 L 2080 820 L 1700 803 L 1415 750 L 1240 665 Z" fill="#e8dbc1" opacity="0.96"/>
    <path d="M 280 1255 C 810 1135 1610 1165 2930 875" fill="none" stroke="#d9cfbb" stroke-width="5" opacity="0.55" stroke-dasharray="16 12"/><path d="M 300 1115 C 890 1015 1630 985 2900 800" fill="none" stroke="#e4dbc9" stroke-width="3.4" opacity="0.48" stroke-dasharray="8 14"/><path d="M 360 935 C 930 865 1620 795 2880 695" fill="none" stroke="#d9cfbb" stroke-width="3.4" opacity="0.48" stroke-dasharray="16 12"/><path d="M 410 735 C 970 685 1690 615 2830 585" fill="none" stroke="#e4dbc9" stroke-width="3.4" opacity="0.48" stroke-dasharray="8 14"/>
    <path d="M 310 1075 C 890 955 1590 985 2870 790" fill="none" stroke="#d6c3a0" stroke-width="68" opacity="0.55" stroke-linecap="round"/><path d="M 310 1280 C 950 1195 1650 1150 2900 905" fill="none" stroke="#d6c3a0" stroke-width="38" opacity="0.36" stroke-linecap="round"/>
    <path d="M 285 500 L 530 420 L 1090 400 L 1670 410 L 2270 437 L 2800 469 L 2982 545 L 3000 795 L 2970 1185 L 2830 1350 L 2320 1389 L 1500 1415 L 830 1403 L 428 1337 L 290 1130 L 255 775 Z" fill="none" stroke="#20303d" stroke-width="4.2"/>
    <path d="M 280 1330 L 360 1185 L 590 935 L 870 930 L 1140 923 L 1500 947 L 1718 1160 L 1930 1075 L 2250 1060 L 2475 950 L 2730 815 L 2930 840" fill="none" stroke="#efe7da" stroke-width="16" stroke-linecap="round" stroke-linejoin="round"/><path d="M 280 1330 L 360 1185 L 590 935 L 870 930 L 1140 923 L 1500 947 L 1718 1160 L 1930 1075 L 2250 1060 L 2475 950 L 2730 815 L 2930 840" fill="none" stroke="#826f61" stroke-width="6.5" stroke-linecap="round" stroke-linejoin="round" />
    <path d="M 440 1025 L 690 975 L 970 930 L 1290 910 L 1600 925 L 1880 980 L 2180 963 L 2470 920 L 2785 820" fill="none" stroke="#efe7da" stroke-width="14" stroke-linecap="round" stroke-linejoin="round"/><path d="M 440 1025 L 690 975 L 970 930 L 1290 910 L 1600 925 L 1880 980 L 2180 963 L 2470 920 L 2785 820" fill="none" stroke="#978474" stroke-width="5.5" stroke-linecap="round" stroke-linejoin="round" />
    <path d="M 2440 325 L 2490 440 L 2590 685 L 2730 815" fill="none" stroke="#efe7da" stroke-width="14" stroke-linecap="round" stroke-linejoin="round"/><path d="M 2440 325 L 2490 440 L 2590 685 L 2730 815" fill="none" stroke="#978474" stroke-width="5.5" stroke-linecap="round" stroke-linejoin="round" stroke-dasharray="14 10"/>
    <path d="M 280 1330 L 275 1135 L 256 985" fill="none" stroke="#efe7da" stroke-width="14" stroke-linecap="round" stroke-linejoin="round"/><path d="M 280 1330 L 275 1135 L 256 985" fill="none" stroke="#978474" stroke-width="5.5" stroke-linecap="round" stroke-linejoin="round" />
    <circle cx="490" cy="945" r="7" fill="#5d87ae" fill-opacity="0.92" stroke="#fbf8f1" stroke-width="2"/><circle cx="660" cy="955" r="7" fill="#5d87ae" fill-opacity="0.92" stroke="#fbf8f1" stroke-width="2"/><circle cx="810" cy="937" r="7" fill="#5d87ae" fill-opacity="0.92" stroke="#fbf8f1" stroke-width="2"/><circle cx="970" cy="925" r="7" fill="#5d87ae" fill-opacity="0.92" stroke="#fbf8f1" stroke-width="2"/><circle cx="1130" cy="920" r="7" fill="#5d87ae" fill-opacity="0.92" stroke="#fbf8f1" stroke-width="2"/><circle cx="1320" cy="920" r="7" fill="#5d87ae" fill-opacity="0.92" stroke="#fbf8f1" stroke-width="2"/><circle cx="1500" cy="949" r="7" fill="#5d87ae" fill-opacity="0.92" stroke="#fbf8f1" stroke-width="2"/><circle cx="1640" cy="985" r="7" fill="#5d87ae" fill-opacity="0.92" stroke="#fbf8f1" stroke-width="2"/><circle cx="1810" cy="1100" r="7" fill="#5d87ae" fill-opacity="0.92" stroke="#fbf8f1" stroke-width="2"/><circle cx="1940" cy="1063" r="7" fill="#5d87ae" fill-opacity="0.92" stroke="#fbf8f1" stroke-width="2"/><circle cx="2060" cy="1025" r="7" fill="#5d87ae" fill-opacity="0.92" stroke="#fbf8f1" stroke-width="2"/><circle cx="2170" cy="999" r="7" fill="#5d87ae" fill-opacity="0.92" stroke="#fbf8f1" stroke-width="2"/><circle cx="2290" cy="965" r="7" fill="#5d87ae" fill-opacity="0.92" stroke="#fbf8f1" stroke-width="2"/><circle cx="2400" cy="935" r="7" fill="#5d87ae" fill-opacity="0.92" stroke="#fbf8f1" stroke-width="2"/><circle cx="2510" cy="905" r="7" fill="#5d87ae" fill-opacity="0.92" stroke="#fbf8f1" stroke-width="2"/><circle cx="2600" cy="879" r="7" fill="#5d87ae" fill-opacity="0.92" stroke="#fbf8f1" stroke-width="2"/><circle cx="2690" cy="855" r="7" fill="#5d87ae" fill-opacity="0.92" stroke="#fbf8f1" stroke-width="2"/><circle cx="2770" cy="835" r="7" fill="#5d87ae" fill-opacity="0.92" stroke="#fbf8f1" stroke-width="2"/><circle cx="2830" cy="815" r="7" fill="#5d87ae" fill-opacity="0.92" stroke="#fbf8f1" stroke-width="2"/><circle cx="2890" cy="795" r="7" fill="#5d87ae" fill-opacity="0.92" stroke="#fbf8f1" stroke-width="2"/><circle cx="2950" cy="775" r="7" fill="#5d87ae" fill-opacity="0.92" stroke="#fbf8f1" stroke-width="2"/><circle cx="2550" cy="1105" r="7" fill="#5d87ae" fill-opacity="0.92" stroke="#fbf8f1" stroke-width="2"/><circle cx="2390" cy="1115" r="7" fill="#5d87ae" fill-opacity="0.92" stroke="#fbf8f1" stroke-width="2"/><circle cx="2170" cy="1155" r="7" fill="#5d87ae" fill-opacity="0.92" stroke="#fbf8f1" stroke-width="2"/>
    
    <rect x="241" y="970" width="30" height="30" rx="8" fill="#fbf8f1" stroke="#8f4637" stroke-width="4"/>
    <circle cx="256" cy="985" r="5.5" fill="#8f4637"/>
    
  
    <rect x="575" y="920" width="30" height="30" rx="8" fill="#fbf8f1" stroke="#8f4637" stroke-width="4"/>
    <circle cx="590" cy="935" r="5.5" fill="#8f4637"/>
    
  
    <rect x="1703" y="1145" width="30" height="30" rx="8" fill="#fbf8f1" stroke="#8f4637" stroke-width="4"/>
    <circle cx="1718" cy="1160" r="5.5" fill="#8f4637"/>
    
  
    <rect x="2235" y="1045" width="30" height="30" rx="8" fill="#fbf8f1" stroke="#8f4637" stroke-width="4"/>
    <circle cx="2250" cy="1060" r="5.5" fill="#8f4637"/>
    
  
    <rect x="2715" y="800" width="30" height="30" rx="8" fill="#fbf8f1" stroke="#8f4637" stroke-width="4"/>
    <circle cx="2730" cy="815" r="5.5" fill="#8f4637"/>
    
  
    <rect x="2575" y="670" width="30" height="30" rx="8" fill="#fbf8f1" stroke="#8f4637" stroke-width="4"/>
    <circle cx="2590" cy="685" r="5.5" fill="#8f4637"/>
    
  
    
    <path d="M 280 1314 L 296 1330 L 280 1346 L 264 1330 Z" fill="#edf4eb" stroke="#6d8368" stroke-width="3.2"/>
    
  
    <path d="M 1730 1329 L 1746 1345 L 1730 1361 L 1714 1345 Z" fill="#edf4eb" stroke="#6d8368" stroke-width="3.2"/>
    
  
    <path d="M 2930 824 L 2946 840 L 2930 856 L 2914 840 Z" fill="#edf4eb" stroke="#6d8368" stroke-width="3.2"/>
    
  
    <path d="M 2440 309 L 2456 325 L 2440 341 L 2424 325 Z" fill="#edf4eb" stroke="#6d8368" stroke-width="3.2"/>
    
  
    <text x="1820" y="683" font-family="Helvetica Neue, Arial, sans-serif" font-size="42" font-weight="700" fill="#8f8675">Etosha Pan</text>
    
    
    
    
  <rect x="470" y="365" width="310" height="135" fill="#d7e0de" fill-opacity="0.38" stroke="#fbf8f1" stroke-opacity="0.6" stroke-width="1.2"/><rect x="780" y="365" width="310" height="135" fill="#d7e0de" fill-opacity="0.38" stroke="#fbf8f1" stroke-opacity="0.6" stroke-width="1.2"/><rect x="1090" y="365" width="310" height="135" fill="#d7e0de" fill-opacity="0.38" stroke="#fbf8f1" stroke-opacity="0.6" stroke-width="1.2"/><rect x="1400" y="365" width="310" height="135" fill="#d7e0de" fill-opacity="0.38" stroke="#fbf8f1" stroke-opacity="0.6" stroke-width="1.2"/><rect x="1710" y="365" width="310" height="135" fill="#d7e0de" fill-opacity="0.38" stroke="#fbf8f1" stroke-opacity="0.6" stroke-width="1.2"/><rect x="2020" y="365" width="310" height="135" fill="#d7e0de" fill-opacity="0.38" stroke="#fbf8f1" stroke-opacity="0.6" stroke-width="1.2"/><rect x="2330" y="365" width="310" height="135" fill="#d7e0de" fill-opacity="0.38" stroke="#fbf8f1" stroke-opacity="0.6" stroke-width="1.2"/><rect x="2640" y="365" width="310" height="135" fill="#d7e0de" fill-opacity="0.38" stroke="#fbf8f1" stroke-opacity="0.6" stroke-width="1.2"/><rect x="470" y="500" width="310" height="135" fill="#d7e0de" fill-opacity="0.38" stroke="#fbf8f1" stroke-opacity="0.6" stroke-width="1.2"/><rect x="780" y="500" width="310" height="135" fill="#d7e0de" fill-opacity="0.38" stroke="#fbf8f1" stroke-opacity="0.6" stroke-width="1.2"/><rect x="1090" y="500" width="310" height="135" fill="#d7e0de" fill-opacity="0.38" stroke="#fbf8f1" stroke-opacity="0.6" stroke-width="1.2"/><rect x="1400" y="500" width="310" height="135" fill="#d7e0de" fill-opacity="0.38" stroke="#fbf8f1" stroke-opacity="0.6" stroke-width="1.2"/><rect x="1710" y="500" width="310" height="135" fill="#d7e0de" fill-opacity="0.38" stroke="#fbf8f1" stroke-opacity="0.6" stroke-width="1.2"/><rect x="2020" y="500" width="310" height="135" fill="#d7e0de" fill-opacity="0.38" stroke="#fbf8f1" stroke-opacity="0.6" stroke-width="1.2"/><rect x="2330" y="500" width="310" height="135" fill="#d7e0de" fill-opacity="0.38" stroke="#fbf8f1" stroke-opacity="0.6" stroke-width="1.2"/><rect x="2640" y="500" width="310" height="135" fill="#8f4637" fill-opacity="0.54" stroke="#fbf8f1" stroke-opacity="0.6" stroke-width="1.2"/><rect x="470" y="635" width="310" height="135" fill="#d7e0de" fill-opacity="0.38" stroke="#fbf8f1" stroke-opacity="0.6" stroke-width="1.2"/><rect x="780" y="635" width="310" height="135" fill="#d7e0de" fill-opacity="0.38" stroke="#fbf8f1" stroke-opacity="0.6" stroke-width="1.2"/><rect x="1090" y="635" width="310" height="135" fill="#d7e0de" fill-opacity="0.38" stroke="#fbf8f1" stroke-opacity="0.6" stroke-width="1.2"/><rect x="1400" y="635" width="310" height="135" fill="#d7e0de" fill-opacity="0.38" stroke="#fbf8f1" stroke-opacity="0.6" stroke-width="1.2"/><rect x="1710" y="635" width="310" height="135" fill="#d7e0de" fill-opacity="0.38" stroke="#fbf8f1" stroke-opacity="0.6" stroke-width="1.2"/><rect x="2020" y="635" width="310" height="135" fill="#d7e0de" fill-opacity="0.38" stroke="#fbf8f1" stroke-opacity="0.6" stroke-width="1.2"/><rect x="2330" y="635" width="310" height="135" fill="#d7e0de" fill-opacity="0.38" stroke="#fbf8f1" stroke-opacity="0.6" stroke-width="1.2"/><rect x="2640" y="635" width="310" height="135" fill="#8f4637" fill-opacity="0.54" stroke="#fbf8f1" stroke-opacity="0.6" stroke-width="1.2"/><rect x="470" y="770" width="310" height="135" fill="#d7e0de" fill-opacity="0.38" stroke="#fbf8f1" stroke-opacity="0.6" stroke-width="1.2"/><rect x="780" y="770" width="310" height="135" fill="#d7e0de" fill-opacity="0.38" stroke="#fbf8f1" stroke-opacity="0.6" stroke-width="1.2"/><rect x="1090" y="770" width="310" height="135" fill="#d7e0de" fill-opacity="0.38" stroke="#fbf8f1" stroke-opacity="0.6" stroke-width="1.2"/><rect x="1400" y="770" width="310" height="135" fill="#8f4637" fill-opacity="0.54" stroke="#fbf8f1" stroke-opacity="0.6" stroke-width="1.2"/><rect x="1710" y="770" width="310" height="135" fill="#d7e0de" fill-opacity="0.38" stroke="#fbf8f1" stroke-opacity="0.6" stroke-width="1.2"/><rect x="2020" y="770" width="310" height="135" fill="#8f4637" fill-opacity="0.54" stroke="#fbf8f1" stroke-opacity="0.6" stroke-width="1.2"/><rect x="2330" y="770" width="310" height="135" fill="#8f4637" fill-opacity="0.54" stroke="#fbf8f1" stroke-opacity="0.6" stroke-width="1.2"/><rect x="2640" y="770" width="310" height="135" fill="#8f4637" fill-opacity="0.54" stroke="#fbf8f1" stroke-opacity="0.6" stroke-width="1.2"/><rect x="470" y="905" width="310" height="135" fill="#d7e0de" fill-opacity="0.38" stroke="#fbf8f1" stroke-opacity="0.6" stroke-width="1.2"/><rect x="780" y="905" width="310" height="135" fill="#d7e0de" fill-opacity="0.38" stroke="#fbf8f1" stroke-opacity="0.6" stroke-width="1.2"/><rect x="1090" y="905" width="310" height="135" fill="#8f4637" fill-opacity="0.54" stroke="#fbf8f1" stroke-opacity="0.6" stroke-width="1.2"/><rect x="1400" y="905" width="310" height="135" fill="#8f4637" fill-opacity="0.54" stroke="#fbf8f1" stroke-opacity="0.6" stroke-width="1.2"/><rect x="1710" y="905" width="310" height="135" fill="#8f4637" fill-opacity="0.54" stroke="#fbf8f1" stroke-opacity="0.6" stroke-width="1.2"/><rect x="2020" y="905" width="310" height="135" fill="#8f4637" fill-opacity="0.54" stroke="#fbf8f1" stroke-opacity="0.6" stroke-width="1.2"/><rect x="2330" y="905" width="310" height="135" fill="#8f4637" fill-opacity="0.54" stroke="#fbf8f1" stroke-opacity="0.6" stroke-width="1.2"/><rect x="2640" y="905" width="310" height="135" fill="#8f4637" fill-opacity="0.54" stroke="#fbf8f1" stroke-opacity="0.6" stroke-width="1.2"/><rect x="470" y="1040" width="310" height="135" fill="#d7e0de" fill-opacity="0.38" stroke="#fbf8f1" stroke-opacity="0.6" stroke-width="1.2"/><rect x="780" y="1040" width="310" height="135" fill="#d7e0de" fill-opacity="0.38" stroke="#fbf8f1" stroke-opacity="0.6" stroke-width="1.2"/><rect x="1090" y="1040" width="310" height="135" fill="#d7e0de" fill-opacity="0.38" stroke="#fbf8f1" stroke-opacity="0.6" stroke-width="1.2"/><rect x="1400" y="1040" width="310" height="135" fill="#d7e0de" fill-opacity="0.38" stroke="#fbf8f1" stroke-opacity="0.6" stroke-width="1.2"/><rect x="1710" y="1040" width="310" height="135" fill="#8f4637" fill-opacity="0.54" stroke="#fbf8f1" stroke-opacity="0.6" stroke-width="1.2"/><rect x="2020" y="1040" width="310" height="135" fill="#8f4637" fill-opacity="0.54" stroke="#fbf8f1" stroke-opacity="0.6" stroke-width="1.2"/><rect x="2330" y="1040" width="310" height="135" fill="#8f4637" fill-opacity="0.54" stroke="#fbf8f1" stroke-opacity="0.6" stroke-width="1.2"/><rect x="2640" y="1040" width="310" height="135" fill="#8f4637" fill-opacity="0.54" stroke="#fbf8f1" stroke-opacity="0.6" stroke-width="1.2"/><rect x="470" y="1175" width="310" height="135" fill="#d7e0de" fill-opacity="0.38" stroke="#fbf8f1" stroke-opacity="0.6" stroke-width="1.2"/><rect x="780" y="1175" width="310" height="135" fill="#d7e0de" fill-opacity="0.38" stroke="#fbf8f1" stroke-opacity="0.6" stroke-width="1.2"/><rect x="1090" y="1175" width="310" height="135" fill="#d7e0de" fill-opacity="0.38" stroke="#fbf8f1" stroke-opacity="0.6" stroke-width="1.2"/><rect x="1400" y="1175" width="310" height="135" fill="#d7e0de" fill-opacity="0.38" stroke="#fbf8f1" stroke-opacity="0.6" stroke-width="1.2"/><rect x="1710" y="1175" width="310" height="135" fill="#d7e0de" fill-opacity="0.38" stroke="#fbf8f1" stroke-opacity="0.6" stroke-width="1.2"/><rect x="2020" y="1175" width="310" height="135" fill="#d7e0de" fill-opacity="0.38" stroke="#fbf8f1" stroke-opacity="0.6" stroke-width="1.2"/><rect x="2330" y="1175" width="310" height="135" fill="#d7e0de" fill-opacity="0.38" stroke="#fbf8f1" stroke-opacity="0.6" stroke-width="1.2"/><rect x="2640" y="1175" width="310" height="135" fill="#d7e0de" fill-opacity="0.38" stroke="#fbf8f1" stroke-opacity="0.6" stroke-width="1.2"/><rect x="470" y="1310" width="310" height="135" fill="#d7e0de" fill-opacity="0.38" stroke="#fbf8f1" stroke-opacity="0.6" stroke-width="1.2"/><rect x="780" y="1310" width="310" height="135" fill="#d7e0de" fill-opacity="0.38" stroke="#fbf8f1" stroke-opacity="0.6" stroke-width="1.2"/><rect x="1090" y="1310" width="310" height="135" fill="#d7e0de" fill-opacity="0.38" stroke="#fbf8f1" stroke-opacity="0.6" stroke-width="1.2"/><rect x="1400" y="1310" width="310" height="135" fill="#d7e0de" fill-opacity="0.38" stroke="#fbf8f1" stroke-opacity="0.6" stroke-width="1.2"/><rect x="1710" y="1310" width="310" height="135" fill="#d7e0de" fill-opacity="0.38" stroke="#fbf8f1" stroke-opacity="0.6" stroke-width="1.2"/><rect x="2020" y="1310" width="310" height="135" fill="#d7e0de" fill-opacity="0.38" stroke="#fbf8f1" stroke-opacity="0.6" stroke-width="1.2"/><rect x="2330" y="1310" width="310" height="135" fill="#d7e0de" fill-opacity="0.38" stroke="#fbf8f1" stroke-opacity="0.6" stroke-width="1.2"/><rect x="2640" y="1310" width="310" height="135" fill="#d7e0de" fill-opacity="0.38" stroke="#fbf8f1" stroke-opacity="0.6" stroke-width="1.2"/><rect x="470" y="365" width="2480" height="1080" fill="none" stroke="#20303d" stroke-width="2.4"/><rect x="2648" y="508" width="294" height="119" rx="14" fill="none" stroke="#fff5d9" stroke-width="3.2" stroke-dasharray="9 8"/><rect x="2648" y="643" width="294" height="119" rx="14" fill="none" stroke="#fff5d9" stroke-width="3.2" stroke-dasharray="9 8"/><rect x="1408" y="778" width="294" height="119" rx="14" fill="none" stroke="#fff5d9" stroke-width="3.2" stroke-dasharray="9 8"/><rect x="2028" y="778" width="294" height="119" rx="14" fill="none" stroke="#fff5d9" stroke-width="3.2" stroke-dasharray="9 8"/><rect x="2338" y="778" width="294" height="119" rx="14" fill="none" stroke="#fff5d9" stroke-width="3.2" stroke-dasharray="9 8"/><rect x="2648" y="778" width="294" height="119" rx="14" fill="none" stroke="#fff5d9" stroke-width="3.2" stroke-dasharray="9 8"/><rect x="1098" y="913" width="294" height="119" rx="14" fill="none" stroke="#fff5d9" stroke-width="3.2" stroke-dasharray="9 8"/><rect x="1408" y="913" width="294" height="119" rx="14" fill="none" stroke="#fff5d9" stroke-width="3.2" stroke-dasharray="9 8"/><rect x="1718" y="913" width="294" height="119" rx="14" fill="none" stroke="#fff5d9" stroke-width="3.2" stroke-dasharray="9 8"/><rect x="2028" y="913" width="294" height="119" rx="14" fill="none" stroke="#fff5d9" stroke-width="3.2" stroke-dasharray="9 8"/><rect x="2338" y="913" width="294" height="119" rx="14" fill="none" stroke="#fff5d9" stroke-width="3.2" stroke-dasharray="9 8"/><rect x="2648" y="913" width="294" height="119" rx="14" fill="none" stroke="#fff5d9" stroke-width="3.2" stroke-dasharray="9 8"/><rect x="1718" y="1048" width="294" height="119" rx="14" fill="none" stroke="#fff5d9" stroke-width="3.2" stroke-dasharray="9 8"/><rect x="2028" y="1048" width="294" height="119" rx="14" fill="none" stroke="#fff5d9" stroke-width="3.2" stroke-dasharray="9 8"/><rect x="2338" y="1048" width="294" height="119" rx="14" fill="none" stroke="#fff5d9" stroke-width="3.2" stroke-dasharray="9 8"/><rect x="2648" y="1048" width="294" height="119" rx="14" fill="none" stroke="#fff5d9" stroke-width="3.2" stroke-dasharray="9 8"/></g>
</svg>