<?xml version="1.0" encoding="UTF-8"?>
<svg xmlns="http://www.w3.org/2000/svg" viewBox="0 0 3200 1800" width="3200" height="1800">
  <defs>
    <linearGradient id="paperBg" x1="0" y1="0" x2="0" y2="1">
      <stop offset="0%" stop-color="#faf7f0"/>
      <stop offset="100%" stop-color="#f1ece1"/>
    </linearGradient>
    <linearGradient id="headerRule" x1="0" y1="0" x2="1" y2="0">
      <stop offset="0%" stop-color="#3f678e"/>
      <stop offset="35%" stop-color="#5f805d"/>
      <stop offset="68%" stop-color="#b77735"/>
      <stop offset="100%" stop-color="#9f473b"/>
    </linearGradient>
    <filter id="shadow" x="-20%" y="-20%" width="140%" height="140%">
      <feDropShadow dx="0" dy="10" stdDeviation="14" flood-color="#a6afb7" flood-opacity="0.20"/>
    </filter>
    <clipPath id="parkClip" clipPathUnits="userSpaceOnUse">
      <path d="M 285 500 L 530 420 L 1090 400 L 1670 410 L 2270 437 L 2800 469 L 2982 545 L 3000 795 L 2970 1185 L 2830 1350 L 2320 1389 L 1500 1415 L 830 1403 L 428 1337 L 290 1130 L 255 775 Z"/>
    </clipPath>
  </defs>
  <rect x="0" y="0" width="3200" height="1800" fill="url(#paperBg)"/>
  <rect x="68" y="54" width="3064" height="144" rx="28" fill="#ffffff" stroke="#cfd6dc" stroke-width="2" filter="url(#shadow)"/>
  <rect x="98" y="86" width="3004" height="10" rx="5" fill="url(#headerRule)"/>
  <rect x="2942" y="104" width="162" height="48" rx="24" fill="#ece1c5" stroke="#ece1c5" stroke-width="1.5"/>
    <text x="3023" y="136" text-anchor="middle" font-family="Helvetica Neue, Arial, sans-serif" font-size="24" font-weight="700" fill="#243240">FIG. 08</text>
  <text x="104" y="145" font-family="Helvetica Neue, Arial, sans-serif" font-size="56" font-weight="700" fill="#243240">Protection Trajectories with Confidence Bands</text>
  <text x="104" y="184" font-family="Helvetica Neue, Arial, sans-serif" font-size="28" fill="#6a7682">Confidence envelopes and threshold lines in an academic plotting style</text>
  
    <rect x="180" y="330" width="2860" height="1180" rx="22" fill="#ffffff" stroke="#cfd6dc" stroke-width="2.2" filter="url(#shadow)"/><line x1="280" y1="1510" x2="2990" y2="1510" stroke="#d7dbdf" stroke-width="2" stroke-dasharray="6 10"/>
      <text x="256" y="1519" text-anchor="end" font-family="Helvetica Neue, Arial, sans-serif" font-size="25" fill="#6a7682">0.50</text><line x1="280" y1="1172.857142857143" x2="2990" y2="1172.857142857143" stroke="#d7dbdf" stroke-width="2" stroke-dasharray="6 10"/>
      <text x="256" y="1181.857142857143" text-anchor="end" font-family="Helvetica Neue, Arial, sans-serif" font-size="25" fill="#6a7682">0.60</text><line x1="280" y1="835.7142857142859" x2="2990" y2="835.7142857142859" stroke="#d7dbdf" stroke-width="2" stroke-dasharray="6 10"/>
      <text x="256" y="844.7142857142859" text-anchor="end" font-family="Helvetica Neue, Arial, sans-serif" font-size="25" fill="#6a7682">0.70</text><line x1="280" y1="498.5714285714283" x2="2990" y2="498.5714285714283" stroke="#d7dbdf" stroke-width="2" stroke-dasharray="6 10"/>
      <text x="256" y="507.5714285714283" text-anchor="end" font-family="Helvetica Neue, Arial, sans-serif" font-size="25" fill="#6a7682">0.80</text><line x1="280" y1="400" x2="280" y2="1440" stroke="#d7dbdf" stroke-width="1.6" stroke-dasharray="6 12"/>
      <text x="280" y="1486" text-anchor="middle" font-family="Helvetica Neue, Arial, sans-serif" font-size="25" fill="#6a7682">1</text><line x1="653.7931034482758" y1="400" x2="653.7931034482758" y2="1440" stroke="#d7dbdf" stroke-width="1.6" stroke-dasharray="6 12"/>
      <text x="653.7931034482758" y="1486" text-anchor="middle" font-family="Helvetica Neue, Arial, sans-serif" font-size="25" fill="#6a7682">5</text><line x1="1121.0344827586207" y1="400" x2="1121.0344827586207" y2="1440" stroke="#d7dbdf" stroke-width="1.6" stroke-dasharray="6 12"/>
      <text x="1121.0344827586207" y="1486" text-anchor="middle" font-family="Helvetica Neue, Arial, sans-serif" font-size="25" fill="#6a7682">10</text><line x1="1588.2758620689656" y1="400" x2="1588.2758620689656" y2="1440" stroke="#d7dbdf" stroke-width="1.6" stroke-dasharray="6 12"/>
      <text x="1588.2758620689656" y="1486" text-anchor="middle" font-family="Helvetica Neue, Arial, sans-serif" font-size="25" fill="#6a7682">15</text><line x1="2055.5172413793102" y1="400" x2="2055.5172413793102" y2="1440" stroke="#d7dbdf" stroke-width="1.6" stroke-dasharray="6 12"/>
      <text x="2055.5172413793102" y="1486" text-anchor="middle" font-family="Helvetica Neue, Arial, sans-serif" font-size="25" fill="#6a7682">20</text><line x1="2522.7586206896553" y1="400" x2="2522.7586206896553" y2="1440" stroke="#d7dbdf" stroke-width="1.6" stroke-dasharray="6 12"/>
      <text x="2522.7586206896553" y="1486" text-anchor="middle" font-family="Helvetica Neue, Arial, sans-serif" font-size="25" fill="#6a7682">25</text><line x1="2990" y1="400" x2="2990" y2="1440" stroke="#d7dbdf" stroke-width="1.6" stroke-dasharray="6 12"/>
      <text x="2990" y="1486" text-anchor="middle" font-family="Helvetica Neue, Arial, sans-serif" font-size="25" fill="#6a7682">30</text><line x1="280" y1="1440" x2="2990" y2="1440" stroke="#243240" stroke-width="3"/>
    <line x1="280" y1="400" x2="280" y2="1440" stroke="#243240" stroke-width="3"/>
    <text x="1610" y="1505" text-anchor="middle" font-family="Helvetica Neue, Arial, sans-serif" font-size="28" font-weight="700" fill="#243240">Simulation day</text>
    <text x="204" y="920" transform="rotate(-90 204 920)" text-anchor="middle" font-family="Helvetica Neue, Arial, sans-serif" font-size="28" font-weight="700" fill="#243240">Protection index</text>
    <path d="M 280 1179.7110803123019 L 280 1032.6253660265875 L 373.1034482758621 960.1326680916611 L 466.2068965517241 900.1049398178425 L 559.3103448275863 850.3988554209012 L 652.4137931034483 809.2396295577188 L 745.5172413793103 775.1576475587361 L 838.6206896551724 746.935991961029 L 931.7241379310345 723.5669917456255 L 1024.8275862068965 704.2162428437115 L 1117.9310344827586 688.1928152424699 L 1211.0344827586207 674.9245829175264 L 1304.1379310344828 663.937795732553 L 1397.2413793103449 654.8401639085329 L 1490.344827586207 647.3068510835951 L 1583.448275862069 641.0688758372747 L 1676.5517241379312 635.9035075487187 L 1769.655172413793 631.6263136672336 L 1862.7586206896551 628.0845744382326 L 1955.8620689655172 625.1518299534567 L 2048.9655172413795 622.7233648246417 L 2142.0689655172414 620.7124692582249 L 2235.1724137931033 619.0473430305289 L 2328.2758620689656 617.6685318180193 L 2421.3793103448274 616.5268043452782 L 2514.4827586206898 615.5813945529986 L 2607.5862068965516 614.7985460215601 L 2700.689655172414 614.1503066779651 L 2793.793103448276 613.6135307504278 L 2886.896551724138 613.1690523348077 L 2980 612.8010010645908 L 2980 759.8867153503052 L 2886.896551724138 760.2547666205221 L 2793.793103448276 760.6992450361423 L 2700.689655172414 761.2360209636796 L 2607.5862068965516 761.8842603072746 L 2514.4827586206898 762.667108838713 L 2421.3793103448274 763.6125186309926 L 2328.2758620689656 764.7542461037337 L 2235.1724137931033 766.1330573162433 L 2142.0689655172414 767.7981835439393 L 2048.9655172413795 769.8090791103562 L 1955.8620689655172 772.2375442391713 L 1862.7586206896551 775.170288723947 L 1769.655172413793 778.712027952948 L 1676.5517241379312 782.9892218344331 L 1583.448275862069 788.1545901229891 L 1490.344827586207 794.3925653693095 L 1397.2413793103449 801.9258781942473 L 1304.1379310344828 811.0235100182674 L 1211.0344827586207 822.0102972032408 L 1117.9310344827586 835.2785295281844 L 1024.8275862068965 851.301957129426 L 931.7241379310345 870.6527060313399 L 838.6206896551724 894.0217062467435 L 745.5172413793103 922.2433618444506 L 652.4137931034483 956.3253438434332 L 559.3103448275863 997.4845697066156 L 466.2068965517241 1047.1906541035569 L 373.1034482758621 1107.2183823773755 L 280 1179.7110803123019 Z" fill="#3f678e" opacity="0.16"/>
    <path d="M 280 1303.5062016113625 L 280 1201.677630182791 L 373.1034482758621 1178.680785154637 L 466.2068965517241 1158.324172315974 L 559.3103448275863 1140.3046706949513 L 652.4137931034483 1124.3539601694097 L 745.5172413793103 1110.2345260351829 L 838.6206896551724 1097.7361222837299 L 931.7241379310345 1086.6726409253893 L 1024.8275862068965 1076.8793407407866 L 1117.9310344827586 1068.210394195001 L 1211.0344827586207 1060.5367159867264 L 1304.1379310344828 1053.7440408983352 L 1397.2413793103449 1047.731222325008 L 1490.344827586207 1042.4087261470975 L 1583.448275862069 1037.697297518677 L 1676.5517241379312 1033.5267807200323 L 1769.655172413793 1029.8350745010614 L 1862.7586206896551 1026.5672073600826 L 1955.8620689655172 1023.6745189884539 L 2048.9655172413795 1021.1139356922641 L 2142.0689655172414 1018.8473290017436 L 2235.1724137931033 1016.8409479177312 L 2328.2758620689656 1015.0649163410495 L 2421.3793103448274 1013.4927882012335 L 2514.4827586206898 1012.1011536602421 L 2607.5862068965516 1010.869290527313 L 2700.689655172414 1009.778855694336 L 2793.793103448276 1008.8136119970585 L 2886.896551724138 1007.9591864349263 L 2980 1007.2028561493379 L 2980 1109.0314275779094 L 2886.896551724138 1109.787757863498 L 2793.793103448276 1110.64218342563 L 2700.689655172414 1111.6074271229077 L 2607.5862068965516 1112.6978619558845 L 2514.4827586206898 1113.9297250888137 L 2421.3793103448274 1115.321359629805 L 2328.2758620689656 1116.893487769621 L 2235.1724137931033 1118.6695193463026 L 2142.0689655172414 1120.675900430315 L 2048.9655172413795 1122.9425071208357 L 1955.8620689655172 1125.5030904170253 L 1862.7586206896551 1128.395778788654 L 1769.655172413793 1131.6636459296328 L 1676.5517241379312 1135.355352148604 L 1583.448275862069 1139.5258689472485 L 1490.344827586207 1144.237297575669 L 1397.2413793103449 1149.5597937535795 L 1304.1379310344828 1155.5726123269067 L 1211.0344827586207 1162.365287415298 L 1117.9310344827586 1170.0389656235725 L 1024.8275862068965 1178.707912169358 L 931.7241379310345 1188.501212353961 L 838.6206896551724 1199.5646937123013 L 745.5172413793103 1212.0630974637545 L 652.4137931034483 1226.1825315979813 L 559.3103448275863 1242.133242123523 L 466.2068965517241 1260.1527437445457 L 373.1034482758621 1280.5093565832087 L 280 1303.5062016113625 Z" fill="#b77735" opacity="0.16"/>
    <path d="M 280 1106.1682231694447 L 373.1034482758621 1033.6755252345183 L 466.2068965517241 973.6477969606997 L 559.3103448275863 923.9417125637583 L 652.4137931034483 882.782486700576 L 745.5172413793103 848.7005047015934 L 838.6206896551724 820.4788491038862 L 931.7241379310345 797.1098488884827 L 1024.8275862068965 777.7590999865688 L 1117.9310344827586 761.7356723853271 L 1211.0344827586207 748.4674400603835 L 1304.1379310344828 737.4806528754102 L 1397.2413793103449 728.3830210513901 L 1490.344827586207 720.8497082264523 L 1583.448275862069 714.6117329801319 L 1676.5517241379312 709.4463646915759 L 1769.655172413793 705.1691708100907 L 1862.7586206896551 701.6274315810899 L 1955.8620689655172 698.694687096314 L 2048.9655172413795 696.266221967499 L 2142.0689655172414 694.2553264010822 L 2235.1724137931033 692.5902001733862 L 2328.2758620689656 691.2113889608765 L 2421.3793103448274 690.0696614881355 L 2514.4827586206898 689.1242516958558 L 2607.5862068965516 688.3414031644173 L 2700.689655172414 687.6931638208224 L 2793.793103448276 687.156387893285 L 2886.896551724138 686.711909477665 L 2980 686.343858207448" fill="none" stroke="#3f678e" stroke-width="10" stroke-linecap="round" stroke-linejoin="round"/>
    <path d="M 280 1252.591915897077 L 373.1034482758621 1229.595070868923 L 466.2068965517241 1209.2384580302598 L 559.3103448275863 1191.218956409237 L 652.4137931034483 1175.2682458836955 L 745.5172413793103 1161.1488117494687 L 838.6206896551724 1148.6504079980155 L 931.7241379310345 1137.586926639675 L 1024.8275862068965 1127.7936264550722 L 1117.9310344827586 1119.124679909287 L 1211.0344827586207 1111.4510017010123 L 1304.1379310344828 1104.6583266126208 L 1397.2413793103449 1098.6455080392936 L 1490.344827586207 1093.3230118613833 L 1583.448275862069 1088.6115832329629 L 1676.5517241379312 1084.4410664343181 L 1769.655172413793 1080.749360215347 L 1862.7586206896551 1077.4814930743682 L 1955.8620689655172 1074.5888047027397 L 2048.9655172413795 1072.0282214065498 L 2142.0689655172414 1069.7616147160293 L 2235.1724137931033 1067.7552336320168 L 2328.2758620689656 1065.9792020553352 L 2421.3793103448274 1064.4070739155193 L 2514.4827586206898 1063.015439374528 L 2607.5862068965516 1061.7835762415987 L 2700.689655172414 1060.6931414086218 L 2793.793103448276 1059.7278977113442 L 2886.896551724138 1058.8734721492121 L 2980 1058.1171418636236" fill="none" stroke="#b77735" stroke-width="8" stroke-linecap="round" stroke-linejoin="round"/>
    <line x1="280" y1="712.8571428571429" x2="2980" y2="712.8571428571429" stroke="#9f473b" stroke-width="4" stroke-dasharray="14 12"/>
    <text x="2421.3793103448274" y="694.8571428571429" font-family="Helvetica Neue, Arial, sans-serif" font-size="24" font-weight="700" fill="#9f473b">command target = 0.75</text>
    <g>
    
      <line x1="2220" y1="470" x2="2274" y2="470" stroke="#3f678e" stroke-width="8" stroke-linecap="round"/>
      <text x="2292" y="478" font-family="Helvetica Neue, Arial, sans-serif" font-size="24" fill="#243240">Optimized package</text>
    
      <line x1="2220" y1="514" x2="2274" y2="514" stroke="#b77735" stroke-width="8" stroke-linecap="round"/>
      <text x="2292" y="522" font-family="Helvetica Neue, Arial, sans-serif" font-size="24" fill="#243240">Uniform deployment</text>
    
  </g>
    <rect x="2170" y="350" width="710" height="100" rx="22" fill="#fcfbf7" stroke="#cfd6dc" stroke-width="2.2" filter="url(#shadow)"/><text x="2204" y="406" font-family="Helvetica Neue, Arial, sans-serif" font-size="34" font-weight="700" fill="#243240">Reading</text><text x="2204" y="458" font-family="Helvetica Neue, Arial, sans-serif" font-size="24" fill="#6a7682">Bands show uncertainty envelopes, not just mean paths</text>
  
</svg>