<?xml version="1.0" encoding="UTF-8"?>
<svg xmlns="http://www.w3.org/2000/svg" viewBox="0 0 3200 1800" width="3200" height="1800">
  <defs>
    <linearGradient id="pageBg" x1="0" y1="0" x2="0" y2="1"><stop offset="0%" stop-color="#eef1ee"/><stop offset="100%" stop-color="#dfe6e1"/></linearGradient>
    <pattern id="paperGrain" width="18" height="18" patternUnits="userSpaceOnUse"><circle cx="4" cy="5" r="0.9" fill="#d8d0c0" opacity="0.28"/><circle cx="13" cy="8" r="0.7" fill="#cfc7b7" opacity="0.24"/><circle cx="9" cy="14" r="0.8" fill="#d8d0c0" opacity="0.22"/></pattern>
    <filter id="shadow" x="-20%" y="-20%" width="140%" height="140%"><feDropShadow dx="0" dy="12" stdDeviation="14" flood-color="#8c948f" flood-opacity="0.18"/></filter>
  </defs>
  <rect x="0" y="0" width="3200" height="1800" fill="url(#pageBg)"/>
  <rect x="0" y="0" width="3200" height="1800" fill="url(#paperGrain)" opacity="0.44"/>
  <rect x="54" y="48" width="3092" height="162" rx="32" fill="#f7f9f6" stroke="#bcc8c3" stroke-width="2.2" filter="url(#shadow)"/>
  
    <rect x="92" y="78" width="248" height="42" rx="21" fill="#35556c" stroke="#35556c" stroke-width="1.2"/>
    <text x="216" y="106" text-anchor="middle" font-family="Helvetica Neue, Arial, sans-serif" font-size="19" font-weight="700" letter-spacing="2" fill="#f7f9f6">STATE TRAJECTORY</text>
  
  
    <rect x="2914" y="78" width="174" height="42" rx="21" fill="#efe5cb" stroke="#efe5cb" stroke-width="1.2"/>
    <text x="3001" y="106" text-anchor="middle" font-family="Helvetica Neue, Arial, sans-serif" font-size="19" font-weight="700" letter-spacing="2" fill="#1f2d36">FIG. 08</text>
  
  <text x="92" y="152" font-family="Helvetica Neue, Arial, sans-serif" font-size="60" font-weight="700" fill="#1f2d36">Closed-Loop Protection Trajectory</text>
  <text x="92" y="189" font-family="Helvetica Neue, Arial, sans-serif" font-size="26" fill="#60717d">Threshold crossing and stabilization matter more than a simple before-versus-after comparison</text>
  <rect x="92" y="98" width="2768" height="7" rx="4" fill="#35556c"/><rect x="92" y="108" width="1826.88" height="2" rx="1" fill="#bcc8c3"/>
  
    <rect x="58" y="256" width="3084" height="1482" rx="34" fill="#f7f9f6" stroke="#bcc8c3" stroke-width="2.3" filter="url(#shadow)"/>
    <rect x="74" y="272" width="3052" height="1450" rx="28" fill="#f8f3ea" stroke="#dad3c4" stroke-width="1.5"/>
  <rect x="150" y="344" width="2230" height="1120" rx="26" fill="#ffffff" stroke="#bcc8c3" stroke-width="2" filter="url(#shadow)"/><line x1="246" y1="1294.9090909090908" x2="2336" y2="1294.9090909090908" stroke="#d9dedf" stroke-width="1.7" stroke-dasharray="5 9"/><text x="228" y="1302.9090909090908" text-anchor="end" font-family="Helvetica Neue, Arial, sans-serif" font-size="22" fill="#60717d">0.55</text><line x1="246" y1="1146.4242424242425" x2="2336" y2="1146.4242424242425" stroke="#d9dedf" stroke-width="1.7" stroke-dasharray="5 9"/><text x="228" y="1154.4242424242425" text-anchor="end" font-family="Helvetica Neue, Arial, sans-serif" font-size="22" fill="#60717d">0.60</text><line x1="246" y1="997.939393939394" x2="2336" y2="997.939393939394" stroke="#d9dedf" stroke-width="1.7" stroke-dasharray="5 9"/><text x="228" y="1005.939393939394" text-anchor="end" font-family="Helvetica Neue, Arial, sans-serif" font-size="22" fill="#60717d">0.65</text><line x1="246" y1="849.4545454545457" x2="2336" y2="849.4545454545457" stroke="#d9dedf" stroke-width="1.7" stroke-dasharray="5 9"/><text x="228" y="857.4545454545457" text-anchor="end" font-family="Helvetica Neue, Arial, sans-serif" font-size="22" fill="#60717d">0.70</text><line x1="246" y1="700.969696969697" x2="2336" y2="700.969696969697" stroke="#d9dedf" stroke-width="1.7" stroke-dasharray="5 9"/><text x="228" y="708.969696969697" text-anchor="end" font-family="Helvetica Neue, Arial, sans-serif" font-size="22" fill="#60717d">0.75</text><line x1="246" y1="552.4848484848485" x2="2336" y2="552.4848484848485" stroke="#d9dedf" stroke-width="1.7" stroke-dasharray="5 9"/><text x="228" y="560.4848484848485" text-anchor="end" font-family="Helvetica Neue, Arial, sans-serif" font-size="22" fill="#60717d">0.80</text><line x1="246" y1="394" x2="246" y2="1384" stroke="#e2e5e6" stroke-width="1.5" stroke-dasharray="5 11"/><text x="246" y="1438" text-anchor="middle" font-family="Helvetica Neue, Arial, sans-serif" font-size="22" fill="#60717d">day 1</text><line x1="678.4137931034483" y1="394" x2="678.4137931034483" y2="1384" stroke="#e2e5e6" stroke-width="1.5" stroke-dasharray="5 11"/><text x="678.4137931034483" y="1438" text-anchor="middle" font-family="Helvetica Neue, Arial, sans-serif" font-size="22" fill="#60717d">day 7</text><line x1="1182.896551724138" y1="394" x2="1182.896551724138" y2="1384" stroke="#e2e5e6" stroke-width="1.5" stroke-dasharray="5 11"/><text x="1182.896551724138" y="1438" text-anchor="middle" font-family="Helvetica Neue, Arial, sans-serif" font-size="22" fill="#60717d">day 14</text><line x1="1687.3793103448277" y1="394" x2="1687.3793103448277" y2="1384" stroke="#e2e5e6" stroke-width="1.5" stroke-dasharray="5 11"/><text x="1687.3793103448277" y="1438" text-anchor="middle" font-family="Helvetica Neue, Arial, sans-serif" font-size="22" fill="#60717d">day 21</text><line x1="2336" y1="394" x2="2336" y2="1384" stroke="#e2e5e6" stroke-width="1.5" stroke-dasharray="5 11"/><text x="2336" y="1438" text-anchor="middle" font-family="Helvetica Neue, Arial, sans-serif" font-size="22" fill="#60717d">day 30</text><line x1="246" y1="1384" x2="2336" y2="1384" stroke="#1f2d36" stroke-width="2.6"/><line x1="246" y1="394" x2="246" y2="1384" stroke="#1f2d36" stroke-width="2.6"/><text x="1265" y="1462" text-anchor="middle" font-family="Helvetica Neue, Arial, sans-serif" font-size="27" font-weight="700" fill="#1f2d36">simulation day</text><text x="172" y="904" transform="rotate(-90 172 904)" text-anchor="middle" font-family="Helvetica Neue, Arial, sans-serif" font-size="27" font-weight="700" fill="#1f2d36">protection index</text><rect x="246" y="700.969696969697" width="2090" height="59.39393939393949" fill="#edd7a2" opacity="0.18"/><line x1="246" y1="700.969696969697" x2="2336" y2="700.969696969697" stroke="#8c4338" stroke-width="3" stroke-dasharray="10 10"/><path d="M 246 1143.529003061772 L 246 1009.8926394254083 L 318.0689655172414 956.6138814342964 L 390.1379310344828 911.0421447418557 L 462.2068965517241 872.0625727046926 L 534.2758620689656 838.7215779022619 L 606.344827586207 810.2035137902219 L 678.4137931034483 785.8107209081348 L 750.4827586206897 764.9464594964638 L 822.551724137931 747.1003109902703 L 894.6206896551724 731.8356912550637 L 966.6896551724138 718.7791700914302 L 1038.7586206896551 707.6113357232252 L 1110.8275862068965 698.0589807802382 L 1182.896551724138 689.8884186149724 L 1254.9655172413793 682.8997664454372 L 1327.0344827586207 676.9220554680487 L 1399.103448275862 671.8090483155449 L 1471.1724137931033 667.4356615391615 L 1543.2413793103449 663.6949055954736 L 1615.310344827586 660.4952674784433 L 1687.3793103448277 657.7584719659662 L 1759.448275862069 655.4175667125731 L 1831.5172413793102 653.415284342414 L 1903.5862068965519 651.7026414731483 L 1975.655172413793 650.2377403975755 L 2047.7241379310344 648.9847441076168 L 2119.793103448276 647.9129995858668 L 2191.862068965517 646.996287917121 L 2263.9310344827586 646.2121828747707 L 2336 645.5415022906784 L 2336 779.177865927042 L 2263.9310344827586 779.8485465111345 L 2191.862068965517 780.6326515534847 L 2119.793103448276 781.5493632222307 L 2047.7241379310344 782.6211077439806 L 1975.655172413793 783.8741040339394 L 1903.5862068965519 785.3390051095121 L 1831.5172413793102 787.0516479787777 L 1759.448275862069 789.053930348937 L 1687.3793103448277 791.39483560233 L 1615.310344827586 794.1316311148071 L 1543.2413793103449 797.3312692318374 L 1471.1724137931033 801.0720251755253 L 1399.103448275862 805.4454119519087 L 1327.0344827586207 810.5584191044126 L 1254.9655172413793 816.5361300818009 L 1182.896551724138 823.5247822513361 L 1110.8275862068965 831.6953444166021 L 1038.7586206896551 841.247699359589 L 966.6896551724138 852.4155337277939 L 894.6206896551724 865.4720548914274 L 822.551724137931 880.736674626634 L 750.4827586206897 898.5828231328276 L 678.4137931034483 919.4470845444985 L 606.344827586207 943.8398774265856 L 534.2758620689656 972.3579415386256 L 462.2068965517241 1005.6989363410562 L 390.1379310344828 1044.6785083782195 L 318.0689655172414 1090.2502450706602 L 246 1143.529003061772 Z" fill="#35556c" opacity="0.16"/><path d="M 246 1260.7744902796028 L 246 1171.6835811886938 L 318.0689655172414 1154.3243870157444 L 390.1379310344828 1138.6995911389622 L 462.2068965517241 1124.6359057075533 L 534.2758620689656 1111.977356471238 L 606.344827586207 1100.5835529373253 L 678.4137931034483 1090.3281313605016 L 750.4827586206897 1081.097353297202 L 822.551724137931 1072.7888441817454 L 894.6206896551724 1065.3104579343187 L 966.6896551724138 1058.5792550086749 L 1038.7586206896551 1052.5205825455098 L 1110.8275862068965 1047.0672464298996 L 1182.896551724138 1042.1587660704442 L 1254.9655172413793 1037.7407036351965 L 1327.0344827586207 1033.76406030522 L 1399.103448275862 1030.1847328498893 L 1471.1724137931033 1026.9630244970415 L 1543.2413793103449 1024.0632046732494 L 1615.310344827586 1021.4531127314933 L 1687.3793103448277 1019.1038012713376 L 1759.448275862069 1016.989215095839 L 1831.5172413793102 1015.0859022446286 L 1903.5862068965519 1013.3727538983674 L 1975.655172413793 1011.8307702699631 L 2047.7241379310344 1010.4428498861528 L 2119.793103448276 1009.1935999224618 L 2191.862068965517 1008.0691654880477 L 2263.9310344827586 1007.0570759670991 L 2336 1006.1461067126342 L 2336 1095.2370158035433 L 2263.9310344827586 1096.1479850580083 L 2191.862068965517 1097.1600745789567 L 2119.793103448276 1098.284509013371 L 2047.7241379310344 1099.533758977062 L 1975.655172413793 1100.9216793608723 L 1903.5862068965519 1102.4636629892766 L 1831.5172413793102 1104.1768113355379 L 1759.448275862069 1106.0801241867482 L 1687.3793103448277 1108.1947103622467 L 1615.310344827586 1110.5440218224026 L 1543.2413793103449 1113.1541137641584 L 1471.1724137931033 1116.0539335879505 L 1399.103448275862 1119.2756419407983 L 1327.0344827586207 1122.854969396129 L 1254.9655172413793 1126.8316127261055 L 1182.896551724138 1131.2496751613535 L 1110.8275862068965 1136.1581555208088 L 1038.7586206896551 1141.611491636419 L 966.6896551724138 1147.6701640995839 L 894.6206896551724 1154.401367025228 L 822.551724137931 1161.8797532726544 L 750.4827586206897 1170.188262388111 L 678.4137931034483 1179.4190404514106 L 606.344827586207 1189.6744620282345 L 534.2758620689656 1201.0682655621472 L 462.2068965517241 1213.7268147984626 L 390.1379310344828 1227.7905002298714 L 318.0689655172414 1243.4152961066536 L 246 1260.7744902796028 Z" fill="#bc8531" opacity="0.18"/><path d="M 246 1084.1350636678326 L 318.0689655172414 1030.8563056767207 L 390.1379310344828 985.2845689842801 L 462.2068965517241 946.3049969471168 L 534.2758620689656 912.9640021446862 L 606.344827586207 884.4459380326462 L 678.4137931034483 860.0531451505591 L 750.4827586206897 839.1888837388882 L 822.551724137931 821.3427352326946 L 894.6206896551724 806.0781154974879 L 966.6896551724138 793.0215943338544 L 1038.7586206896551 781.8537599656496 L 1110.8275862068965 772.3014050226627 L 1182.896551724138 764.1308428573966 L 1254.9655172413793 757.1421906878614 L 1327.0344827586207 751.1644797104731 L 1399.103448275862 746.0514725579693 L 1471.1724137931033 741.6780857815859 L 1543.2413793103449 737.9373298378979 L 1615.310344827586 734.7376917208676 L 1687.3793103448277 732.0008962083906 L 1759.448275862069 729.6599909549976 L 1831.5172413793102 727.6577085848384 L 1903.5862068965519 725.9450657155726 L 1975.655172413793 724.4801646399999 L 2047.7241379310344 723.2271683500411 L 2119.793103448276 722.1554238282913 L 2191.862068965517 721.2387121595452 L 2263.9310344827586 720.4546071171951 L 2336 719.7839265331027" fill="none" stroke="#35556c" stroke-width="8" stroke-linecap="round"/><path d="M 246 1216.2290357341483 L 318.0689655172414 1198.869841561199 L 390.1379310344828 1183.2450456844167 L 462.2068965517241 1169.181360253008 L 534.2758620689656 1156.5228110166927 L 606.344827586207 1145.12900748278 L 678.4137931034483 1134.8735859059561 L 750.4827586206897 1125.6428078426566 L 822.551724137931 1117.3342987272 L 894.6206896551724 1109.8559124797732 L 966.6896551724138 1103.1247095541294 L 1038.7586206896551 1097.0660370909645 L 1110.8275862068965 1091.612700975354 L 1182.896551724138 1086.7042206158987 L 1254.9655172413793 1082.286158180651 L 1327.0344827586207 1078.3095148506745 L 1399.103448275862 1074.7301873953438 L 1471.1724137931033 1071.508479042496 L 1543.2413793103449 1068.608659218704 L 1615.310344827586 1065.9985672769478 L 1687.3793103448277 1063.6492558167922 L 1759.448275862069 1061.5346696412935 L 1831.5172413793102 1059.6313567900834 L 1903.5862068965519 1057.918208443822 L 1975.655172413793 1056.3762248154176 L 2047.7241379310344 1054.9883044316075 L 2119.793103448276 1053.7390544679165 L 2191.862068965517 1052.6146200335022 L 2263.9310344827586 1051.6025305125536 L 2336 1050.6915612580888" fill="none" stroke="#a35d43" stroke-width="7" stroke-linecap="round"/><line x1="678.4137931034483" y1="860.0531451505591" x2="678.4137931034483" y2="780.0531451505591" stroke="#60717d" stroke-width="2"/><rect x="634.4137931034483" y="728.0531451505591" width="88" height="34" rx="17" fill="#f7f9f6" stroke="#bcc8c3" stroke-width="1.2"/><text x="678.4137931034483" y="752.0531451505591" text-anchor="middle" font-family="Helvetica Neue, Arial, sans-serif" font-size="18" font-weight="700" fill="#1f2d36">day 7</text><line x1="1254.9655172413793" y1="757.1421906878614" x2="1254.9655172413793" y2="677.1421906878614" stroke="#60717d" stroke-width="2"/><rect x="1210.9655172413793" y="625.1421906878614" width="88" height="34" rx="17" fill="#f7f9f6" stroke="#bcc8c3" stroke-width="1.2"/><text x="1254.9655172413793" y="649.1421906878614" text-anchor="middle" font-family="Helvetica Neue, Arial, sans-serif" font-size="18" font-weight="700" fill="#1f2d36">day 15</text><line x1="2336" y1="719.7839265331027" x2="2336" y2="639.7839265331027" stroke="#60717d" stroke-width="2"/><rect x="2292" y="587.7839265331027" width="88" height="34" rx="17" fill="#f7f9f6" stroke="#bcc8c3" stroke-width="1.2"/><text x="2336" y="611.7839265331027" text-anchor="middle" font-family="Helvetica Neue, Arial, sans-serif" font-size="18" font-weight="700" fill="#1f2d36">day 30</text><text x="1471.1724137931033" y="688.969696969697" font-family="Helvetica Neue, Arial, sans-serif" font-size="20" font-weight="700" fill="#8c4338">command target = 0.75</text>
    <rect x="2450" y="396" width="546" height="260" rx="24" fill="#ffffff" stroke="#bcc8c3" stroke-width="2" filter="url(#shadow)"/>
    <rect x="2450" y="396" width="546" height="12" rx="24" fill="#35556c" opacity="0.92"/>
    <text x="2476" y="454" font-family="Helvetica Neue, Arial, sans-serif" font-size="34" font-weight="700" fill="#1f2d36">Reading the trajectory</text>
    <text x="2476" y="502" font-family="Helvetica Neue, Arial, sans-serif" font-size="23" fill="#60717d">The optimized plan clears the command target after the first week.</text><text x="2476" y="536" font-family="Helvetica Neue, Arial, sans-serif" font-size="23" fill="#60717d">The uniform plan improves slightly but never enters the target band.</text><text x="2476" y="570" font-family="Helvetica Neue, Arial, sans-serif" font-size="23" fill="#60717d">The shaded envelopes show that the gap persists under stochastic noise.</text>
  
    <rect x="2450" y="712" width="546" height="202" rx="24" fill="#ffffff" stroke="#bcc8c3" stroke-width="2" filter="url(#shadow)"/>
    <rect x="2450" y="712" width="546" height="12" rx="24" fill="#bc8531" opacity="0.92"/>
    <text x="2476" y="770" font-family="Helvetica Neue, Arial, sans-serif" font-size="34" font-weight="700" fill="#1f2d36">Milestones</text>
    <text x="2476" y="818" font-family="Helvetica Neue, Arial, sans-serif" font-size="24" fill="#60717d">day 7 - target crossed</text><text x="2476" y="852" font-family="Helvetica Neue, Arial, sans-serif" font-size="24" fill="#60717d">day 15 - gains stabilize</text><text x="2476" y="886" font-family="Helvetica Neue, Arial, sans-serif" font-size="24" fill="#60717d">day 30 - plateau maintained</text>
  
    <rect x="2470" y="1000" width="238" height="42" rx="21" fill="#dce5ef" stroke="#dce5ef" stroke-width="1.2"/>
    <text x="2589" y="1028" text-anchor="middle" font-family="Helvetica Neue, Arial, sans-serif" font-size="19" font-weight="700" letter-spacing="2" fill="#1f2d36">optimized package</text>
  
    <rect x="2720" y="1000" width="242" height="42" rx="21" fill="#efe1c9" stroke="#efe1c9" stroke-width="1.2"/>
    <text x="2841" y="1028" text-anchor="middle" font-family="Helvetica Neue, Arial, sans-serif" font-size="19" font-weight="700" letter-spacing="2" fill="#1f2d36">uniform deployment</text>
  
</svg>