<?xml version="1.0" encoding="UTF-8"?>
<svg xmlns="http://www.w3.org/2000/svg" viewBox="0 0 3200 1800" width="3200" height="1800">
  <defs>
    <linearGradient id="paperBg" x1="0" y1="0" x2="0" y2="1">
      <stop offset="0%" stop-color="#faf7f0"/>
      <stop offset="100%" stop-color="#f1ece1"/>
    </linearGradient>
    <linearGradient id="headerRule" x1="0" y1="0" x2="1" y2="0">
      <stop offset="0%" stop-color="#3f678e"/>
      <stop offset="35%" stop-color="#5f805d"/>
      <stop offset="68%" stop-color="#b77735"/>
      <stop offset="100%" stop-color="#9f473b"/>
    </linearGradient>
    <filter id="shadow" x="-20%" y="-20%" width="140%" height="140%">
      <feDropShadow dx="0" dy="10" stdDeviation="14" flood-color="#a6afb7" flood-opacity="0.20"/>
    </filter>
    <clipPath id="parkClip" clipPathUnits="userSpaceOnUse">
      <path d="M 285 500 L 530 420 L 1090 400 L 1670 410 L 2270 437 L 2800 469 L 2982 545 L 3000 795 L 2970 1185 L 2830 1350 L 2320 1389 L 1500 1415 L 830 1403 L 428 1337 L 290 1130 L 255 775 Z"/>
    </clipPath>
  </defs>
  <rect x="0" y="0" width="3200" height="1800" fill="url(#paperBg)"/>
  <rect x="68" y="54" width="3064" height="144" rx="28" fill="#ffffff" stroke="#cfd6dc" stroke-width="2" filter="url(#shadow)"/>
  <rect x="98" y="86" width="3004" height="10" rx="5" fill="url(#headerRule)"/>
  <rect x="2942" y="104" width="162" height="48" rx="24" fill="#ece1c5" stroke="#ece1c5" stroke-width="1.5"/>
    <text x="3023" y="136" text-anchor="middle" font-family="Helvetica Neue, Arial, sans-serif" font-size="24" font-weight="700" fill="#243240">FIG. 07</text>
  <text x="104" y="145" font-family="Helvetica Neue, Arial, sans-serif" font-size="56" font-weight="700" fill="#243240">Twenty-Four-Hour Command Schedule</text>
  <text x="104" y="184" font-family="Helvetica Neue, Arial, sans-serif" font-size="28" fill="#6a7682">Compact publication-grade operational rhythm diagram</text>
  <rect x="240" y="350" width="2700" height="1120" rx="24" fill="#ffffff" stroke="#cfd6dc" stroke-width="2.4" filter="url(#shadow)"/><line x1="410" y1="460" x2="410" y2="1390" stroke="#d7dbdf" stroke-width="2" stroke-dasharray="6 12"/>
      <text x="410" y="422" text-anchor="middle" font-family="Helvetica Neue, Arial, sans-serif" font-size="26" fill="#6a7682">00:00</text><line x1="613.3333333333333" y1="460" x2="613.3333333333333" y2="1390" stroke="#d7dbdf" stroke-width="2" stroke-dasharray="6 12"/>
      <text x="613.3333333333333" y="422" text-anchor="middle" font-family="Helvetica Neue, Arial, sans-serif" font-size="26" fill="#6a7682">02:00</text><line x1="816.6666666666666" y1="460" x2="816.6666666666666" y2="1390" stroke="#d7dbdf" stroke-width="2" stroke-dasharray="6 12"/>
      <text x="816.6666666666666" y="422" text-anchor="middle" font-family="Helvetica Neue, Arial, sans-serif" font-size="26" fill="#6a7682">04:00</text><line x1="1020" y1="460" x2="1020" y2="1390" stroke="#d7dbdf" stroke-width="2" stroke-dasharray="6 12"/>
      <text x="1020" y="422" text-anchor="middle" font-family="Helvetica Neue, Arial, sans-serif" font-size="26" fill="#6a7682">06:00</text><line x1="1223.3333333333333" y1="460" x2="1223.3333333333333" y2="1390" stroke="#d7dbdf" stroke-width="2" stroke-dasharray="6 12"/>
      <text x="1223.3333333333333" y="422" text-anchor="middle" font-family="Helvetica Neue, Arial, sans-serif" font-size="26" fill="#6a7682">08:00</text><line x1="1426.6666666666667" y1="460" x2="1426.6666666666667" y2="1390" stroke="#d7dbdf" stroke-width="2" stroke-dasharray="6 12"/>
      <text x="1426.6666666666667" y="422" text-anchor="middle" font-family="Helvetica Neue, Arial, sans-serif" font-size="26" fill="#6a7682">10:00</text><line x1="1630" y1="460" x2="1630" y2="1390" stroke="#d7dbdf" stroke-width="2" stroke-dasharray="6 12"/>
      <text x="1630" y="422" text-anchor="middle" font-family="Helvetica Neue, Arial, sans-serif" font-size="26" fill="#6a7682">12:00</text><line x1="1833.3333333333335" y1="460" x2="1833.3333333333335" y2="1390" stroke="#d7dbdf" stroke-width="2" stroke-dasharray="6 12"/>
      <text x="1833.3333333333335" y="422" text-anchor="middle" font-family="Helvetica Neue, Arial, sans-serif" font-size="26" fill="#6a7682">14:00</text><line x1="2036.6666666666665" y1="460" x2="2036.6666666666665" y2="1390" stroke="#d7dbdf" stroke-width="2" stroke-dasharray="6 12"/>
      <text x="2036.6666666666665" y="422" text-anchor="middle" font-family="Helvetica Neue, Arial, sans-serif" font-size="26" fill="#6a7682">16:00</text><line x1="2240" y1="460" x2="2240" y2="1390" stroke="#d7dbdf" stroke-width="2" stroke-dasharray="6 12"/>
      <text x="2240" y="422" text-anchor="middle" font-family="Helvetica Neue, Arial, sans-serif" font-size="26" fill="#6a7682">18:00</text><line x1="2443.3333333333335" y1="460" x2="2443.3333333333335" y2="1390" stroke="#d7dbdf" stroke-width="2" stroke-dasharray="6 12"/>
      <text x="2443.3333333333335" y="422" text-anchor="middle" font-family="Helvetica Neue, Arial, sans-serif" font-size="26" fill="#6a7682">20:00</text><line x1="2646.6666666666665" y1="460" x2="2646.6666666666665" y2="1390" stroke="#d7dbdf" stroke-width="2" stroke-dasharray="6 12"/>
      <text x="2646.6666666666665" y="422" text-anchor="middle" font-family="Helvetica Neue, Arial, sans-serif" font-size="26" fill="#6a7682">22:00</text><line x1="2850" y1="460" x2="2850" y2="1390" stroke="#d7dbdf" stroke-width="2" stroke-dasharray="6 12"/>
      <text x="2850" y="422" text-anchor="middle" font-family="Helvetica Neue, Arial, sans-serif" font-size="26" fill="#6a7682">24:00</text><text x="274" y="533" font-family="Helvetica Neue, Arial, sans-serif" font-size="28" font-weight="700" fill="#243240">East corridor patrol</text>
      <rect x="540" y="485" width="2310" height="150" rx="22" fill="#f4f6f7"/><rect x="410" y="505" width="355.83333333333337" height="110" rx="18" fill="#3f678e" opacity="0.86"/><rect x="1121.6666666666667" y="505" width="355.83333333333326" height="110" rx="18" fill="#3f678e" opacity="0.86"/><rect x="1935" y="505" width="457.5" height="110" rx="18" fill="#3f678e" opacity="0.86"/><text x="274" y="718" font-family="Helvetica Neue, Arial, sans-serif" font-size="28" font-weight="700" fill="#243240">South corridor patrol</text>
      <rect x="540" y="670" width="2310" height="150" rx="22" fill="#f4f6f7"/><rect x="816.6666666666666" y="690" width="355.83333333333337" height="110" rx="18" fill="#5f805d" opacity="0.86"/><rect x="1630" y="690" width="355.8333333333335" height="110" rx="18" fill="#5f805d" opacity="0.86"/><rect x="2443.3333333333335" y="690" width="305" height="110" rx="18" fill="#5f805d" opacity="0.86"/><text x="274" y="903" font-family="Helvetica Neue, Arial, sans-serif" font-size="28" font-weight="700" fill="#243240">Rapid response reserve</text>
      <rect x="540" y="855" width="2310" height="150" rx="22" fill="#f4f6f7"/><rect x="410" y="875" width="2440" height="110" rx="18" fill="#9f473b" opacity="0.28"/><text x="274" y="1088" font-family="Helvetica Neue, Arial, sans-serif" font-size="28" font-weight="700" fill="#243240">Drone windows</text>
      <rect x="540" y="1040" width="2310" height="150" rx="22" fill="#f4f6f7"/><rect x="1020" y="1060" width="203.33333333333326" height="110" rx="18" fill="#b77735" opacity="0.86"/><rect x="2036.6666666666665" y="1060" width="203.33333333333348" height="110" rx="18" fill="#b77735" opacity="0.86"/><text x="274" y="1273" font-family="Helvetica Neue, Arial, sans-serif" font-size="28" font-weight="700" fill="#243240">Control-room sync</text>
      <rect x="540" y="1225" width="2310" height="150" rx="22" fill="#f4f6f7"/><rect x="969.1666666666666" y="1245" width="50.83333333333337" height="110" rx="18" fill="#7a6a92" opacity="0.86"/><rect x="1782.5" y="1245" width="50.833333333333485" height="110" rx="18" fill="#7a6a92" opacity="0.86"/><rect x="2595.8333333333335" y="1245" width="50.83333333333303" height="110" rx="18" fill="#7a6a92" opacity="0.86"/><rect x="2280" y="1510" width="690" height="170" rx="22" fill="#fcfbf7" stroke="#cfd6dc" stroke-width="2.2" filter="url(#shadow)"/><text x="2314" y="1566" font-family="Helvetica Neue, Arial, sans-serif" font-size="34" font-weight="700" fill="#243240">Schedule Rationale</text><text x="2314" y="1618" font-family="Helvetica Neue, Arial, sans-serif" font-size="24" fill="#6a7682">Patrol waves are staggered to preserve detection continuity</text><text x="2314" y="1652" font-family="Helvetica Neue, Arial, sans-serif" font-size="24" fill="#6a7682">Reserve time is explicit instead of hidden in staffing averages</text>
</svg>