<?xml version="1.0" encoding="UTF-8"?>
<svg xmlns="http://www.w3.org/2000/svg" viewBox="0 0 3200 1800" width="3200" height="1800">
  <defs>
    <linearGradient id="pageBg" x1="0" y1="0" x2="0" y2="1"><stop offset="0%" stop-color="#f5efe3"/><stop offset="100%" stop-color="#ece2d1"/></linearGradient>
    <pattern id="paperGrain" width="18" height="18" patternUnits="userSpaceOnUse"><circle cx="4" cy="5" r="0.9" fill="#d8d0c0" opacity="0.28"/><circle cx="13" cy="8" r="0.7" fill="#cfc7b7" opacity="0.24"/><circle cx="9" cy="14" r="0.8" fill="#d8d0c0" opacity="0.22"/></pattern>
    <filter id="shadow" x="-20%" y="-20%" width="140%" height="140%"><feDropShadow dx="0" dy="12" stdDeviation="14" flood-color="#8c948f" flood-opacity="0.18"/></filter>
  </defs>
  <rect x="0" y="0" width="3200" height="1800" fill="url(#pageBg)"/>
  <rect x="0" y="0" width="3200" height="1800" fill="url(#paperGrain)" opacity="0.44"/>
  <rect x="54" y="48" width="3092" height="162" rx="32" fill="#fbf8f1" stroke="#bcc4c5" stroke-width="2.2" filter="url(#shadow)"/>
  
    <rect x="92" y="78" width="248" height="42" rx="21" fill="#8f4637" stroke="#8f4637" stroke-width="1.2"/>
    <text x="216" y="106" text-anchor="middle" font-family="Helvetica Neue, Arial, sans-serif" font-size="19" font-weight="700" letter-spacing="2" fill="#fbf8f1">HOTSPOT ATLAS</text>
  
  
    <rect x="2914" y="78" width="174" height="42" rx="21" fill="#efe5cb" stroke="#efe5cb" stroke-width="1.2"/>
    <text x="3001" y="106" text-anchor="middle" font-family="Helvetica Neue, Arial, sans-serif" font-size="19" font-weight="700" letter-spacing="2" fill="#20303d">FIG. 03</text>
  
  <text x="92" y="152" font-family="Helvetica Neue, Arial, sans-serif" font-size="60" font-weight="700" fill="#20303d">Hotspot Atlas and Corridor Transect</text>
  <text x="92" y="189" font-family="Helvetica Neue, Arial, sans-serif" font-size="26" fill="#687682">Risk is shown as a reserve-specific corridor ridge with a supporting transect rather than a stock heatmap</text>
  <rect x="92" y="98" width="2768" height="7" rx="4" fill="#8f4637"/><rect x="92" y="108" width="1826.88" height="2" rx="1" fill="#bcc4c5"/>
  
    <rect x="58" y="256" width="3084" height="1482" rx="34" fill="#fbf8f1" stroke="#bcc4c5" stroke-width="2.3" filter="url(#shadow)"/>
    <rect x="74" y="272" width="3052" height="1450" rx="28" fill="#f8f3ea" stroke="#dad3c4" stroke-width="1.5"/>
  <linearGradient id="legend_2706_458_34_300" x1="0" y1="1" x2="0" y2="0"><stop offset="0%" stop-color="rgb(247,241,223)"/><stop offset="25%" stop-color="rgb(227,208,162)"/><stop offset="50%" stop-color="rgb(205,164,105)"/><stop offset="75%" stop-color="rgb(176,113,71)"/><stop offset="100%" stop-color="rgb(143,70,55)"/></linearGradient>
    <rect x="88" y="242" width="3024" height="1298" rx="28" fill="#efe8db" stroke="#bcc4c5" stroke-width="1.6"/>
    <path d="M 285 500 L 530 420 L 1090 400 L 1670 410 L 2270 437 L 2800 469 L 2982 545 L 3000 795 L 2970 1185 L 2830 1350 L 2320 1389 L 1500 1415 L 830 1403 L 428 1337 L 290 1130 L 255 775 Z" fill="#d8cab1" stroke="none"/>
    <path d="M 320 775 L 600 675 L 970 645 L 1210 715 L 1090 865 L 730 915 L 420 885 Z" fill="#cfd6be" opacity="0.88"/>
    <path d="M 870 1125 L 1250 1055 L 1650 1025 L 1870 1155 L 1620 1310 L 1160 1270 L 930 1195 Z" fill="#c9d1ba" opacity="0.88"/>
    <path d="M 2120 905 L 2430 815 L 2830 775 L 2920 985 L 2620 1165 L 2250 1115 L 2100 1015 Z" fill="#ced7c1" opacity="0.88"/>
    <path d="M 1210 565 L 1420 495 L 1710 460 L 2055 480 L 2340 555 L 2470 650 L 2390 775 L 2080 820 L 1700 803 L 1415 750 L 1240 665 Z" fill="#e8dbc1" opacity="0.96"/>
    <path d="M 280 1255 C 810 1135 1610 1165 2930 875" fill="none" stroke="#d9cfbb" stroke-width="5" opacity="0.55" stroke-dasharray="16 12"/><path d="M 300 1115 C 890 1015 1630 985 2900 800" fill="none" stroke="#e4dbc9" stroke-width="3.4" opacity="0.48" stroke-dasharray="8 14"/><path d="M 360 935 C 930 865 1620 795 2880 695" fill="none" stroke="#d9cfbb" stroke-width="3.4" opacity="0.48" stroke-dasharray="16 12"/><path d="M 410 735 C 970 685 1690 615 2830 585" fill="none" stroke="#e4dbc9" stroke-width="3.4" opacity="0.48" stroke-dasharray="8 14"/>
    <path d="M 310 1075 C 890 955 1590 985 2870 790" fill="none" stroke="#d6c3a0" stroke-width="68" opacity="0.55" stroke-linecap="round"/><path d="M 310 1280 C 950 1195 1650 1150 2900 905" fill="none" stroke="#d6c3a0" stroke-width="38" opacity="0.36" stroke-linecap="round"/>
    <path d="M 285 500 L 530 420 L 1090 400 L 1670 410 L 2270 437 L 2800 469 L 2982 545 L 3000 795 L 2970 1185 L 2830 1350 L 2320 1389 L 1500 1415 L 830 1403 L 428 1337 L 290 1130 L 255 775 Z" fill="none" stroke="#20303d" stroke-width="4.2"/>
    <path d="M 280 1330 L 360 1185 L 590 935 L 870 930 L 1140 923 L 1500 947 L 1718 1160 L 1930 1075 L 2250 1060 L 2475 950 L 2730 815 L 2930 840" fill="none" stroke="#efe7da" stroke-width="16" stroke-linecap="round" stroke-linejoin="round"/><path d="M 280 1330 L 360 1185 L 590 935 L 870 930 L 1140 923 L 1500 947 L 1718 1160 L 1930 1075 L 2250 1060 L 2475 950 L 2730 815 L 2930 840" fill="none" stroke="#826f61" stroke-width="6.5" stroke-linecap="round" stroke-linejoin="round" />
    <path d="M 440 1025 L 690 975 L 970 930 L 1290 910 L 1600 925 L 1880 980 L 2180 963 L 2470 920 L 2785 820" fill="none" stroke="#efe7da" stroke-width="14" stroke-linecap="round" stroke-linejoin="round"/><path d="M 440 1025 L 690 975 L 970 930 L 1290 910 L 1600 925 L 1880 980 L 2180 963 L 2470 920 L 2785 820" fill="none" stroke="#978474" stroke-width="5.5" stroke-linecap="round" stroke-linejoin="round" />
    <path d="M 2440 325 L 2490 440 L 2590 685 L 2730 815" fill="none" stroke="#efe7da" stroke-width="14" stroke-linecap="round" stroke-linejoin="round"/><path d="M 2440 325 L 2490 440 L 2590 685 L 2730 815" fill="none" stroke="#978474" stroke-width="5.5" stroke-linecap="round" stroke-linejoin="round" stroke-dasharray="14 10"/>
    <path d="M 280 1330 L 275 1135 L 256 985" fill="none" stroke="#efe7da" stroke-width="14" stroke-linecap="round" stroke-linejoin="round"/><path d="M 280 1330 L 275 1135 L 256 985" fill="none" stroke="#978474" stroke-width="5.5" stroke-linecap="round" stroke-linejoin="round" />
    <circle cx="490" cy="945" r="7" fill="#5d87ae" fill-opacity="0.92" stroke="#fbf8f1" stroke-width="2"/><circle cx="660" cy="955" r="7" fill="#5d87ae" fill-opacity="0.92" stroke="#fbf8f1" stroke-width="2"/><circle cx="810" cy="937" r="7" fill="#5d87ae" fill-opacity="0.92" stroke="#fbf8f1" stroke-width="2"/><circle cx="970" cy="925" r="7" fill="#5d87ae" fill-opacity="0.92" stroke="#fbf8f1" stroke-width="2"/><circle cx="1130" cy="920" r="7" fill="#5d87ae" fill-opacity="0.92" stroke="#fbf8f1" stroke-width="2"/><circle cx="1320" cy="920" r="7" fill="#5d87ae" fill-opacity="0.92" stroke="#fbf8f1" stroke-width="2"/><circle cx="1500" cy="949" r="7" fill="#5d87ae" fill-opacity="0.92" stroke="#fbf8f1" stroke-width="2"/><circle cx="1640" cy="985" r="7" fill="#5d87ae" fill-opacity="0.92" stroke="#fbf8f1" stroke-width="2"/><circle cx="1810" cy="1100" r="7" fill="#5d87ae" fill-opacity="0.92" stroke="#fbf8f1" stroke-width="2"/><circle cx="1940" cy="1063" r="7" fill="#5d87ae" fill-opacity="0.92" stroke="#fbf8f1" stroke-width="2"/><circle cx="2060" cy="1025" r="7" fill="#5d87ae" fill-opacity="0.92" stroke="#fbf8f1" stroke-width="2"/><circle cx="2170" cy="999" r="7" fill="#5d87ae" fill-opacity="0.92" stroke="#fbf8f1" stroke-width="2"/><circle cx="2290" cy="965" r="7" fill="#5d87ae" fill-opacity="0.92" stroke="#fbf8f1" stroke-width="2"/><circle cx="2400" cy="935" r="7" fill="#5d87ae" fill-opacity="0.92" stroke="#fbf8f1" stroke-width="2"/><circle cx="2510" cy="905" r="7" fill="#5d87ae" fill-opacity="0.92" stroke="#fbf8f1" stroke-width="2"/><circle cx="2600" cy="879" r="7" fill="#5d87ae" fill-opacity="0.92" stroke="#fbf8f1" stroke-width="2"/><circle cx="2690" cy="855" r="7" fill="#5d87ae" fill-opacity="0.92" stroke="#fbf8f1" stroke-width="2"/><circle cx="2770" cy="835" r="7" fill="#5d87ae" fill-opacity="0.92" stroke="#fbf8f1" stroke-width="2"/><circle cx="2830" cy="815" r="7" fill="#5d87ae" fill-opacity="0.92" stroke="#fbf8f1" stroke-width="2"/><circle cx="2890" cy="795" r="7" fill="#5d87ae" fill-opacity="0.92" stroke="#fbf8f1" stroke-width="2"/><circle cx="2950" cy="775" r="7" fill="#5d87ae" fill-opacity="0.92" stroke="#fbf8f1" stroke-width="2"/><circle cx="2550" cy="1105" r="7" fill="#5d87ae" fill-opacity="0.92" stroke="#fbf8f1" stroke-width="2"/><circle cx="2390" cy="1115" r="7" fill="#5d87ae" fill-opacity="0.92" stroke="#fbf8f1" stroke-width="2"/><circle cx="2170" cy="1155" r="7" fill="#5d87ae" fill-opacity="0.92" stroke="#fbf8f1" stroke-width="2"/>
    
    <rect x="241" y="970" width="30" height="30" rx="8" fill="#fbf8f1" stroke="#8f4637" stroke-width="4"/>
    <circle cx="256" cy="985" r="5.5" fill="#8f4637"/>
    <rect x="278" y="965" width="172" height="38" rx="11" fill="#fbf8f1" stroke="#bcc4c5" stroke-width="1.4"/><text x="294" y="991" font-family="Helvetica Neue, Arial, sans-serif" font-size="24" font-weight="700" fill="#20303d">Dolomite</text>
  
    <rect x="575" y="920" width="30" height="30" rx="8" fill="#fbf8f1" stroke="#8f4637" stroke-width="4"/>
    <circle cx="590" cy="935" r="5.5" fill="#8f4637"/>
    <rect x="612" y="915" width="226" height="38" rx="11" fill="#fbf8f1" stroke="#bcc4c5" stroke-width="1.4"/><text x="628" y="941" font-family="Helvetica Neue, Arial, sans-serif" font-size="24" font-weight="700" fill="#20303d">Olifantsrus</text>
  
    <rect x="1703" y="1145" width="30" height="30" rx="8" fill="#fbf8f1" stroke="#8f4637" stroke-width="4"/>
    <circle cx="1718" cy="1160" r="5.5" fill="#8f4637"/>
    <rect x="1740" y="1140" width="190" height="38" rx="11" fill="#fbf8f1" stroke="#bcc4c5" stroke-width="1.4"/><text x="1756" y="1166" font-family="Helvetica Neue, Arial, sans-serif" font-size="24" font-weight="700" fill="#20303d">Okaukuejo</text>
  
    <rect x="2235" y="1045" width="30" height="30" rx="8" fill="#fbf8f1" stroke="#8f4637" stroke-width="4"/>
    <circle cx="2250" cy="1060" r="5.5" fill="#8f4637"/>
    <rect x="2272" y="1040" width="136" height="38" rx="11" fill="#fbf8f1" stroke="#bcc4c5" stroke-width="1.4"/><text x="2288" y="1066" font-family="Helvetica Neue, Arial, sans-serif" font-size="24" font-weight="700" fill="#20303d">Halali</text>
  
    <rect x="2715" y="800" width="30" height="30" rx="8" fill="#fbf8f1" stroke="#8f4637" stroke-width="4"/>
    <circle cx="2730" cy="815" r="5.5" fill="#8f4637"/>
    <rect x="2752" y="795" width="172" height="38" rx="11" fill="#fbf8f1" stroke="#bcc4c5" stroke-width="1.4"/><text x="2768" y="821" font-family="Helvetica Neue, Arial, sans-serif" font-size="24" font-weight="700" fill="#20303d">Namutoni</text>
  
    <rect x="2575" y="670" width="30" height="30" rx="8" fill="#fbf8f1" stroke="#8f4637" stroke-width="4"/>
    <circle cx="2590" cy="685" r="5.5" fill="#8f4637"/>
    <rect x="2612" y="665" width="154" height="38" rx="11" fill="#fbf8f1" stroke="#bcc4c5" stroke-width="1.4"/><text x="2628" y="691" font-family="Helvetica Neue, Arial, sans-serif" font-size="24" font-weight="700" fill="#20303d">Onkoshi</text>
  
    
    <path d="M 280 1314 L 296 1330 L 280 1346 L 264 1330 Z" fill="#edf4eb" stroke="#6d8368" stroke-width="3.2"/>
    <text x="302" y="1337" font-family="Helvetica Neue, Arial, sans-serif" font-size="22" fill="#20303d">Galton</text>
  
    <path d="M 1730 1329 L 1746 1345 L 1730 1361 L 1714 1345 Z" fill="#edf4eb" stroke="#6d8368" stroke-width="3.2"/>
    <text x="1752" y="1352" font-family="Helvetica Neue, Arial, sans-serif" font-size="22" fill="#20303d">Andersson</text>
  
    <path d="M 2930 824 L 2946 840 L 2930 856 L 2914 840 Z" fill="#edf4eb" stroke="#6d8368" stroke-width="3.2"/>
    <text x="2952" y="847" font-family="Helvetica Neue, Arial, sans-serif" font-size="22" fill="#20303d">VonLindequist</text>
  
    <path d="M 2440 309 L 2456 325 L 2440 341 L 2424 325 Z" fill="#edf4eb" stroke="#6d8368" stroke-width="3.2"/>
    <text x="2462" y="332" font-family="Helvetica Neue, Arial, sans-serif" font-size="22" fill="#20303d">Nehale</text>
  
    <text x="1820" y="683" font-family="Helvetica Neue, Arial, sans-serif" font-size="42" font-weight="700" fill="#8f8675">Etosha Pan</text>
    
    
    <g><line x1="2890" y1="402" x2="2890" y2="332" stroke="#20303d" stroke-width="4"/><path d="M 2877 356 L 2890 332 L 2903 356 Z" fill="#20303d"/><text x="2890" y="318" text-anchor="middle" font-family="Helvetica Neue, Arial, sans-serif" font-size="26" font-weight="700" fill="#20303d">N</text></g>
    <g><rect x="2502" y="1478" width="220" height="16" rx="3" fill="#20303d"/><rect x="2612" y="1478" width="110" height="16" fill="#fbf8f1" stroke="#20303d" stroke-width="1.8"/><line x1="2502" y1="1478" x2="2502" y2="1505" stroke="#20303d" stroke-width="2.4"/><line x1="2612" y1="1478" x2="2612" y2="1505" stroke="#20303d" stroke-width="2.4"/><line x1="2722" y1="1478" x2="2722" y2="1505" stroke="#20303d" stroke-width="2.4"/><text x="2502" y="1532" font-family="Helvetica Neue, Arial, sans-serif" font-size="22" fill="#20303d">0</text><text x="2601" y="1532" font-family="Helvetica Neue, Arial, sans-serif" font-size="22" fill="#20303d">25</text><text x="2705" y="1532" font-family="Helvetica Neue, Arial, sans-serif" font-size="22" fill="#20303d">50 km</text></g>
  <rect x="470" y="365" width="310" height="135" fill="rgb(235,222,188)" fill-opacity="0.66" stroke="#fbf8f1" stroke-opacity="0.6" stroke-width="1.2"/><rect x="780" y="365" width="310" height="135" fill="rgb(232,216,177)" fill-opacity="0.66" stroke="#fbf8f1" stroke-opacity="0.6" stroke-width="1.2"/><rect x="1090" y="365" width="310" height="135" fill="rgb(226,207,160)" fill-opacity="0.66" stroke="#fbf8f1" stroke-opacity="0.6" stroke-width="1.2"/><rect x="1400" y="365" width="310" height="135" fill="rgb(223,200,151)" fill-opacity="0.66" stroke="#fbf8f1" stroke-opacity="0.6" stroke-width="1.2"/><rect x="1710" y="365" width="310" height="135" fill="rgb(219,193,142)" fill-opacity="0.66" stroke="#fbf8f1" stroke-opacity="0.6" stroke-width="1.2"/><rect x="2020" y="365" width="310" height="135" fill="rgb(221,196,146)" fill-opacity="0.66" stroke="#fbf8f1" stroke-opacity="0.6" stroke-width="1.2"/><rect x="2330" y="365" width="310" height="135" fill="rgb(221,196,146)" fill-opacity="0.66" stroke="#fbf8f1" stroke-opacity="0.6" stroke-width="1.2"/><rect x="2640" y="365" width="310" height="135" fill="rgb(215,183,130)" fill-opacity="0.66" stroke="#fbf8f1" stroke-opacity="0.6" stroke-width="1.2"/><rect x="470" y="500" width="310" height="135" fill="rgb(237,224,192)" fill-opacity="0.66" stroke="#fbf8f1" stroke-opacity="0.6" stroke-width="1.2"/><rect x="780" y="500" width="310" height="135" fill="rgb(232,217,178)" fill-opacity="0.66" stroke="#fbf8f1" stroke-opacity="0.6" stroke-width="1.2"/><rect x="1090" y="500" width="310" height="135" fill="rgb(225,204,157)" fill-opacity="0.66" stroke="#fbf8f1" stroke-opacity="0.6" stroke-width="1.2"/><rect x="1400" y="500" width="310" height="135" fill="rgb(221,195,145)" fill-opacity="0.66" stroke="#fbf8f1" stroke-opacity="0.6" stroke-width="1.2"/><rect x="1710" y="500" width="310" height="135" fill="rgb(216,186,134)" fill-opacity="0.66" stroke="#fbf8f1" stroke-opacity="0.6" stroke-width="1.2"/><rect x="2020" y="500" width="310" height="135" fill="rgb(217,189,137)" fill-opacity="0.66" stroke="#fbf8f1" stroke-opacity="0.6" stroke-width="1.2"/><rect x="2330" y="500" width="310" height="135" fill="rgb(219,192,141)" fill-opacity="0.66" stroke="#fbf8f1" stroke-opacity="0.6" stroke-width="1.2"/><rect x="2640" y="500" width="310" height="135" fill="rgb(211,176,120)" fill-opacity="0.66" stroke="#fbf8f1" stroke-opacity="0.6" stroke-width="1.2"/><rect x="470" y="635" width="310" height="135" fill="rgb(235,221,185)" fill-opacity="0.66" stroke="#fbf8f1" stroke-opacity="0.6" stroke-width="1.2"/><rect x="780" y="635" width="310" height="135" fill="rgb(228,210,165)" fill-opacity="0.66" stroke="#fbf8f1" stroke-opacity="0.6" stroke-width="1.2"/><rect x="1090" y="635" width="310" height="135" fill="rgb(220,195,145)" fill-opacity="0.66" stroke="#fbf8f1" stroke-opacity="0.6" stroke-width="1.2"/><rect x="1400" y="635" width="310" height="135" fill="rgb(217,188,136)" fill-opacity="0.66" stroke="#fbf8f1" stroke-opacity="0.6" stroke-width="1.2"/><rect x="1710" y="635" width="310" height="135" fill="rgb(215,185,132)" fill-opacity="0.66" stroke="#fbf8f1" stroke-opacity="0.6" stroke-width="1.2"/><rect x="2020" y="635" width="310" height="135" fill="rgb(214,182,129)" fill-opacity="0.66" stroke="#fbf8f1" stroke-opacity="0.6" stroke-width="1.2"/><rect x="2330" y="635" width="310" height="135" fill="rgb(213,179,125)" fill-opacity="0.66" stroke="#fbf8f1" stroke-opacity="0.6" stroke-width="1.2"/><rect x="2640" y="635" width="310" height="135" fill="rgb(202,159,101)" fill-opacity="0.66" stroke="#fbf8f1" stroke-opacity="0.6" stroke-width="1.2"/><rect x="470" y="770" width="310" height="135" fill="rgb(225,204,156)" fill-opacity="0.66" stroke="#fbf8f1" stroke-opacity="0.6" stroke-width="1.2"/><rect x="780" y="770" width="310" height="135" fill="rgb(217,188,136)" fill-opacity="0.66" stroke="#fbf8f1" stroke-opacity="0.6" stroke-width="1.2"/><rect x="1090" y="770" width="310" height="135" fill="rgb(211,176,121)" fill-opacity="0.66" stroke="#fbf8f1" stroke-opacity="0.6" stroke-width="1.2"/><rect x="1400" y="770" width="310" height="135" fill="rgb(210,174,118)" fill-opacity="0.66" stroke="#fbf8f1" stroke-opacity="0.6" stroke-width="1.2"/><rect x="1710" y="770" width="310" height="135" fill="rgb(215,184,131)" fill-opacity="0.66" stroke="#fbf8f1" stroke-opacity="0.6" stroke-width="1.2"/><rect x="2020" y="770" width="310" height="135" fill="rgb(209,173,116)" fill-opacity="0.66" stroke="#fbf8f1" stroke-opacity="0.6" stroke-width="1.2"/><rect x="2330" y="770" width="310" height="135" fill="rgb(201,157,100)" fill-opacity="0.66" stroke="#fbf8f1" stroke-opacity="0.6" stroke-width="1.2"/><rect x="2640" y="770" width="310" height="135" fill="rgb(195,146,93)" fill-opacity="0.66" stroke="#fbf8f1" stroke-opacity="0.6" stroke-width="1.2"/><rect x="470" y="905" width="310" height="135" fill="rgb(217,187,135)" fill-opacity="0.66" stroke="#fbf8f1" stroke-opacity="0.6" stroke-width="1.2"/><rect x="780" y="905" width="310" height="135" fill="rgb(212,178,124)" fill-opacity="0.66" stroke="#fbf8f1" stroke-opacity="0.6" stroke-width="1.2"/><rect x="1090" y="905" width="310" height="135" fill="rgb(209,172,115)" fill-opacity="0.66" stroke="#fbf8f1" stroke-opacity="0.6" stroke-width="1.2"/><rect x="1400" y="905" width="310" height="135" fill="rgb(207,168,110)" fill-opacity="0.66" stroke="#fbf8f1" stroke-opacity="0.6" stroke-width="1.2"/><rect x="1710" y="905" width="310" height="135" fill="rgb(208,169,112)" fill-opacity="0.66" stroke="#fbf8f1" stroke-opacity="0.6" stroke-width="1.2"/><rect x="2020" y="905" width="310" height="135" fill="rgb(202,159,102)" fill-opacity="0.66" stroke="#fbf8f1" stroke-opacity="0.6" stroke-width="1.2"/><rect x="2330" y="905" width="310" height="135" fill="rgb(198,152,97)" fill-opacity="0.66" stroke="#fbf8f1" stroke-opacity="0.6" stroke-width="1.2"/><rect x="2640" y="905" width="310" height="135" fill="rgb(199,154,98)" fill-opacity="0.66" stroke="#fbf8f1" stroke-opacity="0.6" stroke-width="1.2"/><rect x="470" y="1040" width="310" height="135" fill="rgb(226,206,160)" fill-opacity="0.66" stroke="#fbf8f1" stroke-opacity="0.6" stroke-width="1.2"/><rect x="780" y="1040" width="310" height="135" fill="rgb(224,202,154)" fill-opacity="0.66" stroke="#fbf8f1" stroke-opacity="0.6" stroke-width="1.2"/><rect x="1090" y="1040" width="310" height="135" fill="rgb(221,196,147)" fill-opacity="0.66" stroke="#fbf8f1" stroke-opacity="0.6" stroke-width="1.2"/><rect x="1400" y="1040" width="310" height="135" fill="rgb(217,187,135)" fill-opacity="0.66" stroke="#fbf8f1" stroke-opacity="0.6" stroke-width="1.2"/><rect x="1710" y="1040" width="310" height="135" fill="rgb(208,169,112)" fill-opacity="0.66" stroke="#fbf8f1" stroke-opacity="0.6" stroke-width="1.2"/><rect x="2020" y="1040" width="310" height="135" fill="rgb(208,169,111)" fill-opacity="0.66" stroke="#fbf8f1" stroke-opacity="0.6" stroke-width="1.2"/><rect x="2330" y="1040" width="310" height="135" fill="rgb(201,158,101)" fill-opacity="0.66" stroke="#fbf8f1" stroke-opacity="0.6" stroke-width="1.2"/><rect x="2640" y="1040" width="310" height="135" fill="rgb(207,167,109)" fill-opacity="0.66" stroke="#fbf8f1" stroke-opacity="0.6" stroke-width="1.2"/><rect x="470" y="1175" width="310" height="135" fill="rgb(238,227,197)" fill-opacity="0.66" stroke="#fbf8f1" stroke-opacity="0.6" stroke-width="1.2"/><rect x="780" y="1175" width="310" height="135" fill="rgb(236,222,189)" fill-opacity="0.66" stroke="#fbf8f1" stroke-opacity="0.6" stroke-width="1.2"/><rect x="1090" y="1175" width="310" height="135" fill="rgb(233,218,181)" fill-opacity="0.66" stroke="#fbf8f1" stroke-opacity="0.6" stroke-width="1.2"/><rect x="1400" y="1175" width="310" height="135" fill="rgb(229,211,168)" fill-opacity="0.66" stroke="#fbf8f1" stroke-opacity="0.6" stroke-width="1.2"/><rect x="1710" y="1175" width="310" height="135" fill="rgb(218,191,140)" fill-opacity="0.66" stroke="#fbf8f1" stroke-opacity="0.6" stroke-width="1.2"/><rect x="2020" y="1175" width="310" height="135" fill="rgb(213,181,127)" fill-opacity="0.66" stroke="#fbf8f1" stroke-opacity="0.6" stroke-width="1.2"/><rect x="2330" y="1175" width="310" height="135" fill="rgb(214,182,128)" fill-opacity="0.66" stroke="#fbf8f1" stroke-opacity="0.6" stroke-width="1.2"/><rect x="2640" y="1175" width="310" height="135" fill="rgb(214,181,128)" fill-opacity="0.66" stroke="#fbf8f1" stroke-opacity="0.6" stroke-width="1.2"/><rect x="470" y="1310" width="310" height="135" fill="rgb(242,234,209)" fill-opacity="0.66" stroke="#fbf8f1" stroke-opacity="0.6" stroke-width="1.2"/><rect x="780" y="1310" width="310" height="135" fill="rgb(239,228,200)" fill-opacity="0.66" stroke="#fbf8f1" stroke-opacity="0.6" stroke-width="1.2"/><rect x="1090" y="1310" width="310" height="135" fill="rgb(237,225,193)" fill-opacity="0.66" stroke="#fbf8f1" stroke-opacity="0.6" stroke-width="1.2"/><rect x="1400" y="1310" width="310" height="135" fill="rgb(234,220,185)" fill-opacity="0.66" stroke="#fbf8f1" stroke-opacity="0.6" stroke-width="1.2"/><rect x="1710" y="1310" width="310" height="135" fill="rgb(230,213,171)" fill-opacity="0.66" stroke="#fbf8f1" stroke-opacity="0.6" stroke-width="1.2"/><rect x="2020" y="1310" width="310" height="135" fill="rgb(226,205,158)" fill-opacity="0.66" stroke="#fbf8f1" stroke-opacity="0.6" stroke-width="1.2"/><rect x="2330" y="1310" width="310" height="135" fill="rgb(225,204,156)" fill-opacity="0.66" stroke="#fbf8f1" stroke-opacity="0.6" stroke-width="1.2"/><rect x="2640" y="1310" width="310" height="135" fill="rgb(219,193,142)" fill-opacity="0.66" stroke="#fbf8f1" stroke-opacity="0.6" stroke-width="1.2"/><rect x="470" y="365" width="2480" height="1080" fill="none" stroke="#20303d" stroke-width="2.4"/><rect x="2648" y="508" width="294" height="119" rx="14" fill="none" stroke="#fff5d9" stroke-width="3.2" stroke-dasharray="9 8"/><rect x="2648" y="643" width="294" height="119" rx="14" fill="none" stroke="#fff5d9" stroke-width="3.2" stroke-dasharray="9 8"/><rect x="1408" y="778" width="294" height="119" rx="14" fill="none" stroke="#fff5d9" stroke-width="3.2" stroke-dasharray="9 8"/><rect x="2028" y="778" width="294" height="119" rx="14" fill="none" stroke="#fff5d9" stroke-width="3.2" stroke-dasharray="9 8"/><rect x="2338" y="778" width="294" height="119" rx="14" fill="none" stroke="#fff5d9" stroke-width="3.2" stroke-dasharray="9 8"/><rect x="2648" y="778" width="294" height="119" rx="14" fill="none" stroke="#fff5d9" stroke-width="3.2" stroke-dasharray="9 8"/><rect x="1098" y="913" width="294" height="119" rx="14" fill="none" stroke="#fff5d9" stroke-width="3.2" stroke-dasharray="9 8"/><rect x="1408" y="913" width="294" height="119" rx="14" fill="none" stroke="#fff5d9" stroke-width="3.2" stroke-dasharray="9 8"/><rect x="1718" y="913" width="294" height="119" rx="14" fill="none" stroke="#fff5d9" stroke-width="3.2" stroke-dasharray="9 8"/><rect x="2028" y="913" width="294" height="119" rx="14" fill="none" stroke="#fff5d9" stroke-width="3.2" stroke-dasharray="9 8"/><rect x="2338" y="913" width="294" height="119" rx="14" fill="none" stroke="#fff5d9" stroke-width="3.2" stroke-dasharray="9 8"/><rect x="2648" y="913" width="294" height="119" rx="14" fill="none" stroke="#fff5d9" stroke-width="3.2" stroke-dasharray="9 8"/><rect x="1718" y="1048" width="294" height="119" rx="14" fill="none" stroke="#fff5d9" stroke-width="3.2" stroke-dasharray="9 8"/><rect x="2028" y="1048" width="294" height="119" rx="14" fill="none" stroke="#fff5d9" stroke-width="3.2" stroke-dasharray="9 8"/><rect x="2338" y="1048" width="294" height="119" rx="14" fill="none" stroke="#fff5d9" stroke-width="3.2" stroke-dasharray="9 8"/><rect x="2648" y="1048" width="294" height="119" rx="14" fill="none" stroke="#fff5d9" stroke-width="3.2" stroke-dasharray="9 8"/><path d="M 370 1145 C 1050 1075 1750 1041 2850 803" fill="none" stroke="#8f4637" stroke-width="8" stroke-linecap="round"/><circle cx="382" cy="1145" r="9" fill="#8f4637"/><circle cx="2850" cy="803" r="9" fill="#8f4637"/><text x="400" y="1125" font-family="Helvetica Neue, Arial, sans-serif" font-size="24" font-weight="700" fill="#8f4637">transect A</text><text x="2800" y="785" font-family="Helvetica Neue, Arial, sans-serif" font-size="24" font-weight="700" fill="#8f4637">A'</text>
    <rect x="2344" y="322" width="640" height="206" rx="24" fill="#ffffff" stroke="#bcc4c5" stroke-width="2" filter="url(#shadow)"/>
    <rect x="2344" y="322" width="640" height="12" rx="24" fill="#8f4637" opacity="0.92"/>
    <text x="2370" y="380" font-family="Helvetica Neue, Arial, sans-serif" font-size="34" font-weight="700" fill="#20303d">What the map is saying</text>
    <text x="2370" y="428" font-family="Helvetica Neue, Arial, sans-serif" font-size="24" fill="#687682">Risk is not diffuse.</text><text x="2370" y="462" font-family="Helvetica Neue, Arial, sans-serif" font-size="24" fill="#687682">It condenses into an east-south ridge where water, access, and lag overlap.</text><text x="2370" y="496" font-family="Helvetica Neue, Arial, sans-serif" font-size="24" fill="#687682">The ridge justifies concentrated patrol recurrence.</text>
  
    <rect x="190" y="1198" width="1960" height="268" rx="24" fill="#ffffff" stroke="#bcc4c5" stroke-width="2" filter="url(#shadow)"/>
    <rect x="190" y="1198" width="1960" height="12" rx="24" fill="#b89443" opacity="0.92"/>
    <text x="216" y="1256" font-family="Helvetica Neue, Arial, sans-serif" font-size="34" font-weight="700" fill="#20303d">Corridor transect A-A'</text>
    <text x="216" y="1304" font-family="Helvetica Neue, Arial, sans-serif" font-size="22" fill="#687682">The lower strip translates the map into a west-to-east risk climb so the hotspot claim is not read only as color.</text>
  <line x1="360" y1="1430" x2="2050" y2="1430" stroke="#20303d" stroke-width="2.6"/><line x1="360" y1="1188" x2="360" y2="1430" stroke="#20303d" stroke-width="2.6"/><text x="332" y="1342" text-anchor="end" font-family="Helvetica Neue, Arial, sans-serif" font-size="20" fill="#687682">0.4</text><line x1="360" y1="1334" x2="2050" y2="1334" stroke="#ddd9cf" stroke-width="1.5" stroke-dasharray="5 9"/><text x="332" y="1294" text-anchor="end" font-family="Helvetica Neue, Arial, sans-serif" font-size="20" fill="#687682">0.6</text><line x1="360" y1="1286" x2="2050" y2="1286" stroke="#ddd9cf" stroke-width="1.5" stroke-dasharray="5 9"/><text x="332" y="1246" text-anchor="end" font-family="Helvetica Neue, Arial, sans-serif" font-size="20" fill="#687682">0.8</text><line x1="360" y1="1238" x2="2050" y2="1238" stroke="#ddd9cf" stroke-width="1.5" stroke-dasharray="5 9"/><text x="400" y="1464" text-anchor="middle" font-family="Helvetica Neue, Arial, sans-serif" font-size="21" fill="#687682">west gate</text><text x="720" y="1464" text-anchor="middle" font-family="Helvetica Neue, Arial, sans-serif" font-size="21" fill="#687682">Olifantsrus</text><text x="1040" y="1464" text-anchor="middle" font-family="Helvetica Neue, Arial, sans-serif" font-size="21" fill="#687682">Okaukuejo</text><text x="1360" y="1464" text-anchor="middle" font-family="Helvetica Neue, Arial, sans-serif" font-size="21" fill="#687682">Halali</text><text x="1680" y="1464" text-anchor="middle" font-family="Helvetica Neue, Arial, sans-serif" font-size="21" fill="#687682">Namutoni</text><text x="2000" y="1464" text-anchor="middle" font-family="Helvetica Neue, Arial, sans-serif" font-size="21" fill="#687682">east gate</text><path d="M 400 1338.8 L 720 1317.2 L 1040 1288.4 L 1360 1269.2 L 1680 1252.4 L 2000 1242.8" fill="none" stroke="#8f4637" stroke-width="7" stroke-linecap="round"/><circle cx="400" cy="1338.8" r="8" fill="#8f4637" stroke="#fbf8f1" stroke-width="3"/><circle cx="720" cy="1317.2" r="8" fill="#8f4637" stroke="#fbf8f1" stroke-width="3"/><circle cx="1040" cy="1288.4" r="8" fill="#8f4637" stroke="#fbf8f1" stroke-width="3"/><circle cx="1360" cy="1269.2" r="8" fill="#8f4637" stroke="#fbf8f1" stroke-width="3"/><circle cx="1680" cy="1252.4" r="8" fill="#8f4637" stroke="#fbf8f1" stroke-width="3"/><circle cx="2000" cy="1242.8" r="8" fill="#8f4637" stroke="#fbf8f1" stroke-width="3"/><text x="368" y="1170" font-family="Helvetica Neue, Arial, sans-serif" font-size="21" font-weight="700" fill="#20303d">risk score along the corridor</text><rect x="2706" y="458" width="34" height="300" rx="17" fill="url(#legend_2706_458_34_300)" stroke="#bcc4c5" stroke-width="1.4"/><text x="2704" y="444" font-family="Helvetica Neue, Arial, sans-serif" font-size="22" font-weight="700" fill="#20303d">risk score</text><text x="2758" y="765" font-family="Helvetica Neue, Arial, sans-serif" font-size="20" fill="#687682">low</text><text x="2758" y="615" font-family="Helvetica Neue, Arial, sans-serif" font-size="20" fill="#687682"></text><text x="2758" y="465" font-family="Helvetica Neue, Arial, sans-serif" font-size="20" fill="#687682">high</text>
</svg>