<?xml version="1.0" encoding="UTF-8"?>
<svg xmlns="http://www.w3.org/2000/svg" viewBox="0 0 3000 1289" width="3000" height="1289">
  <defs>
    <linearGradient id="legendGrad" x1="0" y1="1" x2="0" y2="0">
      <stop offset="0%" stop-color="rgb(255,247,188)"/>
      <stop offset="25%" stop-color="rgb(254,227,145)"/>
      <stop offset="50%" stop-color="rgb(254,196,79)"/>
      <stop offset="75%" stop-color="rgb(244,124,32)"/>
      <stop offset="100%" stop-color="rgb(206,45,37)"/>
    </linearGradient>
    <linearGradient id="paperBg" x1="0" y1="0" x2="0" y2="1">
      <stop offset="0%" stop-color="#fbfdff"/>
      <stop offset="100%" stop-color="#f2f6fb"/>
    </linearGradient>
    <linearGradient id="headerAccent" x1="0" y1="0" x2="1" y2="0">
      <stop offset="0%" stop-color="#3b4992"/>
      <stop offset="45%" stop-color="#4dbbd5"/>
      <stop offset="100%" stop-color="#008280"/>
    </linearGradient>
    <radialGradient id="mapVignette" cx="50%" cy="38%" r="80%">
      <stop offset="0%" stop-color="#ffffff" stop-opacity="0.00"/>
      <stop offset="100%" stop-color="#081220" stop-opacity="0.20"/>
    </radialGradient>
    <filter id="cardShadow" x="-20%" y="-20%" width="140%" height="140%">
      <feDropShadow dx="0" dy="10" stdDeviation="12" flood-color="#a8b7c8" flood-opacity="0.23"/>
    </filter>
  </defs>
  <rect x="0" y="0" width="3000" height="1289" fill="url(#paperBg)"/>
  <rect x="28" y="26" width="2944" height="112" rx="18" fill="#ffffff" fill-opacity="0.94" stroke="#d4dce6" stroke-width="1.8" filter="url(#cardShadow)"/>
  <rect x="52" y="42" width="840.0000000000001" height="8" rx="4" fill="url(#headerAccent)"/>
  <text x="60" y="78" font-family="Times New Roman, Georgia, serif" font-size="56" font-weight="700" fill="#18324a">Monte Carlo Robustness Distribution</text>
  <text x="60" y="115" font-family="Times New Roman, Georgia, serif" font-size="30" fill="#405d78">Probability-density view of solution robustness under repeated stochastic shocks</text>
  
  <rect x="90" y="180" width="2820" height="1020" rx="22" fill="#ffffff" stroke="#d8e0ea" stroke-width="3"/>
  <rect x="150" y="250" width="1840" height="850" rx="18" fill="#fbfdff" stroke="#e2eaf2" stroke-width="2"/>
  <rect x="170" y="206" width="300" height="34" rx="17" fill="#7a3e9d" fill-opacity="0.96" />
    <text x="320" y="230.48" text-anchor="middle" font-family="Times New Roman, Georgia, serif" font-size="22" font-weight="700" fill="#ffffff">1,000 Monte Carlo stress runs</text>
  <line x1="250" y1="1048" x2="1930" y2="1048" stroke="#e5ecf4" stroke-width="2"/>
    <text x="202" y="1056" font-family="Times New Roman, Georgia, serif" font-size="24" fill="#405d78">0</text><line x1="250" y1="909.5384615384615" x2="1930" y2="909.5384615384615" stroke="#e5ecf4" stroke-width="2"/>
    <text x="202" y="917.5384615384615" font-family="Times New Roman, Georgia, serif" font-size="24" fill="#405d78">1</text><line x1="250" y1="771.0769230769231" x2="1930" y2="771.0769230769231" stroke="#e5ecf4" stroke-width="2"/>
    <text x="202" y="779.0769230769231" font-family="Times New Roman, Georgia, serif" font-size="24" fill="#405d78">2</text><line x1="250" y1="632.6153846153846" x2="1930" y2="632.6153846153846" stroke="#e5ecf4" stroke-width="2"/>
    <text x="202" y="640.6153846153846" font-family="Times New Roman, Georgia, serif" font-size="24" fill="#405d78">3</text><line x1="250" y1="494.1538461538462" x2="1930" y2="494.1538461538462" stroke="#e5ecf4" stroke-width="2"/>
    <text x="202" y="502.1538461538462" font-family="Times New Roman, Georgia, serif" font-size="24" fill="#405d78">4</text><line x1="250" y1="355.69230769230774" x2="1930" y2="355.69230769230774" stroke="#e5ecf4" stroke-width="2"/>
    <text x="202" y="363.69230769230774" font-family="Times New Roman, Georgia, serif" font-size="24" fill="#405d78">5</text><line x1="250" y1="1048" x2="250" y2="328" stroke="#edf2f7" stroke-width="2"/>
    <text x="250" y="1090" text-anchor="middle" font-family="Times New Roman, Georgia, serif" font-size="24" fill="#405d78">0.45</text><line x1="460" y1="1048" x2="460" y2="328" stroke="#edf2f7" stroke-width="2"/>
    <text x="460" y="1090" text-anchor="middle" font-family="Times New Roman, Georgia, serif" font-size="24" fill="#405d78">0.50</text><line x1="670.0000000000002" y1="1048" x2="670.0000000000002" y2="328" stroke="#edf2f7" stroke-width="2"/>
    <text x="670.0000000000002" y="1090" text-anchor="middle" font-family="Times New Roman, Georgia, serif" font-size="24" fill="#405d78">0.55</text><line x1="879.9999999999999" y1="1048" x2="879.9999999999999" y2="328" stroke="#edf2f7" stroke-width="2"/>
    <text x="879.9999999999999" y="1090" text-anchor="middle" font-family="Times New Roman, Georgia, serif" font-size="24" fill="#405d78">0.60</text><line x1="1090.0000000000002" y1="1048" x2="1090.0000000000002" y2="328" stroke="#edf2f7" stroke-width="2"/>
    <text x="1090.0000000000002" y="1090" text-anchor="middle" font-family="Times New Roman, Georgia, serif" font-size="24" fill="#405d78">0.65</text><line x1="1299.9999999999998" y1="1048" x2="1299.9999999999998" y2="328" stroke="#edf2f7" stroke-width="2"/>
    <text x="1299.9999999999998" y="1090" text-anchor="middle" font-family="Times New Roman, Georgia, serif" font-size="24" fill="#405d78">0.70</text><line x1="1510" y1="1048" x2="1510" y2="328" stroke="#edf2f7" stroke-width="2"/>
    <text x="1510" y="1090" text-anchor="middle" font-family="Times New Roman, Georgia, serif" font-size="24" fill="#405d78">0.75</text><line x1="1720.0000000000002" y1="1048" x2="1720.0000000000002" y2="328" stroke="#edf2f7" stroke-width="2"/>
    <text x="1720.0000000000002" y="1090" text-anchor="middle" font-family="Times New Roman, Georgia, serif" font-size="24" fill="#405d78">0.80</text><line x1="1930" y1="1048" x2="1930" y2="328" stroke="#edf2f7" stroke-width="2"/>
    <text x="1930" y="1090" text-anchor="middle" font-family="Times New Roman, Georgia, serif" font-size="24" fill="#405d78">0.85</text>
  <line x1="250" y1="1048" x2="1930" y2="1048" stroke="#62768a" stroke-width="3"/>
  <line x1="250" y1="328" x2="250" y2="1048" stroke="#62768a" stroke-width="3"/>
  <line x1="1299.9999999999998" y1="328" x2="1299.9999999999998" y2="1048" stroke="#3b4992" stroke-width="3.5" stroke-dasharray="14 10"/>
  <text x="1315.9999999999998" y="350" font-family="Times New Roman, Georgia, serif" font-size="24" font-weight="700" fill="#3b4992">Robustness threshold</text>
  <path d="M 250 1048 L 250 1047.999999999943 L 271 1047.9999999998363 L 292.00000000000006 1047.9999999995352 L 313.00000000000006 1047.9999999986915 L 334.0000000000001 1047.9999999963445 L 355.0000000000001 1047.9999999898728 L 375.9999999999999 1047.9999999721897 L 396.9999999999999 1047.9999999243735 L 417.99999999999994 1047.9999997966 L 439 1047.9999994597613 L 460 1047.9999985852508 L 481 1047.9999963531066 L 502 1047.9999907608594 L 523 1047.9999770295901 L 544 1047.9999440292484 L 565.0000000000001 1047.9998664928835 L 586.0000000000001 1047.999688567834 L 607.0000000000001 1047.999290146577 L 628.0000000000002 1047.9984201712252 L 649.0000000000002 1047.996568925335 L 670.0000000000002 1047.9927319544581 L 690.9999999999998 1047.9849893214894 L 712.0000000000002 1047.96978380513 L 732.9999999999998 1047.9407311741413 L 754.0000000000002 1047.8867403858806 L 774.9999999999998 1047.789174711037 L 795.9999999999999 1047.6177697815074 L 816.9999999999999 1047.3250753780997 L 837.9999999999999 1046.8393450981514 L 858.9999999999999 1046.0560988817829 L 879.9999999999999 1044.829043394283 L 900.9999999999999 1042.9616259380932 L 922 1040.2011246995714 L 943 1036.2376725796337 L 964 1030.710745297846 L 985 1023.2251796632729 L 1006 1013.3775624875661 L 1027 1000.7918569329157 L 1048 985.1606796140933 L 1069 966.286251806379 L 1090.0000000000002 944.1134588261058 L 1111 918.7474047957398 L 1131.9999999999995 890.4498299385133 L 1153 859.612737473833 L 1173.9999999999995 826.7128784541296 L 1195.0000000000002 792.2560964034213 L 1215.9999999999998 756.7243722979088 L 1237 720.5393333430441 L 1257.9999999999998 684.0532556256442 L 1279 647.5724657580056 L 1299.9999999999998 611.4098471752058 L 1321.0000000000002 575.9549499816427 L 1341.9999999999998 541.744230399513 L 1363.0000000000002 509.5119551184024 L 1384 480.205017591613 L 1405 454.95179746018596 L 1426 434.98462783083744 L 1447 421.52517624146344 L 1468 415.6498576796125 L 1489 418.1566260916543 L 1510 429.4544205529219 L 1531 449.49247521979555 L 1552 477.73976296892874 L 1573.0000000000002 513.216616202557 L 1594 554.5726910063879 L 1614.9999999999995 600.1992545865019 L 1636 648.3601125393941 L 1656.9999999999998 697.3246065892677 L 1678.0000000000002 745.487742152398 L 1698.9999999999998 791.4660123461306 L 1720.0000000000002 834.1620417108925 L 1740.9999999999998 872.7959321120244 L 1762.0000000000002 906.9054319081673 L 1782.9999999999998 936.3202598424891 L 1804.0000000000002 961.117842902488 L 1824.9999999999998 981.568360714328 L 1846.0000000000002 998.0765103969483 L 1866.9999999999998 1011.1261222924885 L 1888 1021.232024856308 L 1909 1028.9017146408912 L 1930 1034.6077066027847 L 1930 1048 Z" fill="#008b45" fill-opacity="0.16"/>
  <path d="M 250 1048 L 250 1047.9971574202507 L 271 1047.9950791860495 L 292.00000000000006 1047.991590509029 L 313.00000000000006 1047.985812335705 L 334.0000000000001 1047.9763701682314 L 355.0000000000001 1047.9611474855953 L 375.9999999999999 1047.936935232819 L 396.9999999999999 1047.8989435180874 L 417.99999999999994 1047.8401355227486 L 439 1047.750338792858 L 460 1047.615087051692 L 481 1047.414148427706 L 502 1047.1197059108842 L 523 1046.6941755295861 L 544 1046.087679665618 L 565.0000000000001 1045.2352389821003 L 586.0000000000001 1044.0538072746074 L 607.0000000000001 1042.4393478523712 L 628.0000000000002 1040.2642338045437 L 649.0000000000002 1037.37534043864 L 670.0000000000002 1033.5932755351664 L 690.9999999999998 1028.7132478958895 L 712.0000000000002 1022.5080908398552 L 732.9999999999998 1014.7339182992393 L 754.0000000000002 1005.1387826265812 L 774.9999999999998 993.4745160434741 L 795.9999999999999 979.5116712345807 L 816.9999999999999 963.0571416367936 L 837.9999999999999 943.9736622628661 L 858.9999999999999 922.200004248361 L 879.9999999999999 897.770328326711 L 900.9999999999999 870.8309078235416 L 922 841.6523234294654 L 943 810.6353137247884 L 964 778.3087631808864 L 985 745.3188239731223 L 1006 712.4088704658868 L 1027 680.3908164912012 L 1048 650.1092005332355 L 1069 622.4002610725827 L 1090.0000000000002 598.0488786001229 L 1111 577.7466588520138 L 1131.9999999999995 562.0545068189178 L 1153 551.3727645593884 L 1173.9999999999995 545.921374267214 L 1195.0000000000002 545.731642732766 L 1215.9999999999998 550.6501233462593 L 1237 560.3540206174366 L 1257.9999999999998 574.3764904536345 L 1279 592.1393763227559 L 1299.9999999999998 612.9903779417791 L 1321.0000000000002 636.2414459985037 L 1341.9999999999998 661.2053384307701 L 1363.0000000000002 687.2277213766911 L 1384 713.7128752898122 L 1405 740.1418749851903 L 1426 766.0829450940416 L 1447 791.1944509076004 L 1468 815.221590758056 L 1489 837.9882606401719 L 1510 859.3857474093535 L 1531 879.3598862918236 L 1552 897.898128241236 L 1573.0000000000002 915.0176547975752 L 1594 930.755310260508 L 1614.9999999999995 945.1597479152803 L 1636 958.2858536937243 L 1656.9999999999998 970.1912480151657 L 1678.0000000000002 980.9344903004416 L 1698.9999999999998 990.5745221924838 L 1720.0000000000002 999.1708748525826 L 1740.9999999999998 1006.7842152832136 L 1762.0000000000002 1013.4768954062445 L 1782.9999999999998 1019.3132746601946 L 1804.0000000000002 1024.3596940882553 L 1824.9999999999998 1028.6840737262362 L 1846.0000000000002 1032.3551772045562 L 1866.9999999999998 1035.4416344387682 L 1888 1038.0108357904155 L 1909 1040.127812749342 L 1930 1041.8542063020654 L 1930 1048 Z" fill="#f28e2b" fill-opacity="0.14"/>
  <path d="M 250 1048 L 250 1047.4129852171754 L 271 1047.113044642868 L 292.00000000000006 1046.6777899314231 L 313.00000000000006 1046.0553230637 L 334.0000000000001 1045.178075237308 L 355.0000000000001 1043.9598508379095 L 375.9999999999999 1042.293013478208 L 396.9999999999999 1040.0461434514198 L 417.99999999999994 1037.0625851343905 L 439 1033.1603765849886 L 460 1028.1340949833273 L 481 1021.7591421652452 L 502 1013.7989166453949 L 523 1004.0151587858652 L 544 992.1815086851917 L 565.0000000000001 978.0999881096559 L 586.0000000000001 961.619728835362 L 607.0000000000001 942.656855802174 L 628.0000000000002 921.214043817118 L 649.0000000000002 897.397959648431 L 670.0000000000002 871.4326375295284 L 690.9999999999998 843.6668680781893 L 712.0000000000002 814.5739433620433 L 732.9999999999998 784.7426021762209 L 754.0000000000002 754.8587340136185 L 774.9999999999998 725.678267117579 L 795.9999999999999 697.9925939169 L 816.9999999999999 672.5887637547476 L 837.9999999999999 650.2073800713978 L 858.9999999999999 631.5015710963456 L 879.9999999999999 617.0004834179599 L 900.9999999999999 607.0804443408572 L 922 601.9462715591438 L 943 601.6242490483878 L 964 605.9671508862119 L 985 614.6705213305897 L 1006 627.2983569175926 L 1027 643.315514975345 L 1048 662.1236870913012 L 1069 683.0976706193017 L 1090.0000000000002 705.6189368338826 L 1111 729.1040710889065 L 1131.9999999999995 753.0264502009186 L 1153 776.9304061198137 L 1173.9999999999995 800.4379820534355 L 1195.0000000000002 823.2491133233411 L 1215.9999999999998 845.1365862522937 L 1237 865.9374078474268 L 1257.9999999999998 885.5422587298806 L 1279 903.8845362267373 L 1299.9999999999998 920.930181209503 L 1321.0000000000002 936.6690893819058 L 1341.9999999999998 951.1085024809411 L 1363.0000000000002 964.2684136405034 L 1384 976.1787431715951 L 1405 986.8778657132916 L 1426 996.411997886627 L 1447 1004.8349730632817 L 1468 1012.2080128044815 L 1489 1018.5992251073181 L 1510 1024.0826910515798 L 1531 1028.7371218129165 L 1552 1032.6441622817551 L 1573.0000000000002 1035.886478183891 L 1594 1038.5457898873321 L 1614.9999999999995 1040.7010124317737 L 1636 1042.4266353716655 L 1656.9999999999998 1043.7914366799118 L 1678.0000000000002 1044.8575807485909 L 1698.9999999999998 1045.680108475107 L 1720.0000000000002 1046.306792461626 L 1740.9999999999998 1046.7783051773545 L 1762.0000000000002 1047.128633239021 L 1782.9999999999998 1047.385665921257 L 1804.0000000000002 1047.5718887926985 L 1824.9999999999998 1047.7051216988941 L 1846.0000000000002 1047.7992518635306 L 1866.9999999999998 1047.864925616195 L 1888 1047.9101745912058 L 1909 1047.9409631025953 L 1930 1047.96165219391 L 1930 1048 Z" fill="#c73e1d" fill-opacity="0.11"/>
  <path d="M 250 1047.999999999943 L 271 1047.9999999998363 L 292.00000000000006 1047.9999999995352 L 313.00000000000006 1047.9999999986915 L 334.0000000000001 1047.9999999963445 L 355.0000000000001 1047.9999999898728 L 375.9999999999999 1047.9999999721897 L 396.9999999999999 1047.9999999243735 L 417.99999999999994 1047.9999997966 L 439 1047.9999994597613 L 460 1047.9999985852508 L 481 1047.9999963531066 L 502 1047.9999907608594 L 523 1047.9999770295901 L 544 1047.9999440292484 L 565.0000000000001 1047.9998664928835 L 586.0000000000001 1047.999688567834 L 607.0000000000001 1047.999290146577 L 628.0000000000002 1047.9984201712252 L 649.0000000000002 1047.996568925335 L 670.0000000000002 1047.9927319544581 L 690.9999999999998 1047.9849893214894 L 712.0000000000002 1047.96978380513 L 732.9999999999998 1047.9407311741413 L 754.0000000000002 1047.8867403858806 L 774.9999999999998 1047.789174711037 L 795.9999999999999 1047.6177697815074 L 816.9999999999999 1047.3250753780997 L 837.9999999999999 1046.8393450981514 L 858.9999999999999 1046.0560988817829 L 879.9999999999999 1044.829043394283 L 900.9999999999999 1042.9616259380932 L 922 1040.2011246995714 L 943 1036.2376725796337 L 964 1030.710745297846 L 985 1023.2251796632729 L 1006 1013.3775624875661 L 1027 1000.7918569329157 L 1048 985.1606796140933 L 1069 966.286251806379 L 1090.0000000000002 944.1134588261058 L 1111 918.7474047957398 L 1131.9999999999995 890.4498299385133 L 1153 859.612737473833 L 1173.9999999999995 826.7128784541296 L 1195.0000000000002 792.2560964034213 L 1215.9999999999998 756.7243722979088 L 1237 720.5393333430441 L 1257.9999999999998 684.0532556256442 L 1279 647.5724657580056 L 1299.9999999999998 611.4098471752058 L 1321.0000000000002 575.9549499816427 L 1341.9999999999998 541.744230399513 L 1363.0000000000002 509.5119551184024 L 1384 480.205017591613 L 1405 454.95179746018596 L 1426 434.98462783083744 L 1447 421.52517624146344 L 1468 415.6498576796125 L 1489 418.1566260916543 L 1510 429.4544205529219 L 1531 449.49247521979555 L 1552 477.73976296892874 L 1573.0000000000002 513.216616202557 L 1594 554.5726910063879 L 1614.9999999999995 600.1992545865019 L 1636 648.3601125393941 L 1656.9999999999998 697.3246065892677 L 1678.0000000000002 745.487742152398 L 1698.9999999999998 791.4660123461306 L 1720.0000000000002 834.1620417108925 L 1740.9999999999998 872.7959321120244 L 1762.0000000000002 906.9054319081673 L 1782.9999999999998 936.3202598424891 L 1804.0000000000002 961.117842902488 L 1824.9999999999998 981.568360714328 L 1846.0000000000002 998.0765103969483 L 1866.9999999999998 1011.1261222924885 L 1888 1021.232024856308 L 1909 1028.9017146408912 L 1930 1034.6077066027847" fill="none" stroke="#008b45" stroke-width="8"/>
  <path d="M 250 1047.9971574202507 L 271 1047.9950791860495 L 292.00000000000006 1047.991590509029 L 313.00000000000006 1047.985812335705 L 334.0000000000001 1047.9763701682314 L 355.0000000000001 1047.9611474855953 L 375.9999999999999 1047.936935232819 L 396.9999999999999 1047.8989435180874 L 417.99999999999994 1047.8401355227486 L 439 1047.750338792858 L 460 1047.615087051692 L 481 1047.414148427706 L 502 1047.1197059108842 L 523 1046.6941755295861 L 544 1046.087679665618 L 565.0000000000001 1045.2352389821003 L 586.0000000000001 1044.0538072746074 L 607.0000000000001 1042.4393478523712 L 628.0000000000002 1040.2642338045437 L 649.0000000000002 1037.37534043864 L 670.0000000000002 1033.5932755351664 L 690.9999999999998 1028.7132478958895 L 712.0000000000002 1022.5080908398552 L 732.9999999999998 1014.7339182992393 L 754.0000000000002 1005.1387826265812 L 774.9999999999998 993.4745160434741 L 795.9999999999999 979.5116712345807 L 816.9999999999999 963.0571416367936 L 837.9999999999999 943.9736622628661 L 858.9999999999999 922.200004248361 L 879.9999999999999 897.770328326711 L 900.9999999999999 870.8309078235416 L 922 841.6523234294654 L 943 810.6353137247884 L 964 778.3087631808864 L 985 745.3188239731223 L 1006 712.4088704658868 L 1027 680.3908164912012 L 1048 650.1092005332355 L 1069 622.4002610725827 L 1090.0000000000002 598.0488786001229 L 1111 577.7466588520138 L 1131.9999999999995 562.0545068189178 L 1153 551.3727645593884 L 1173.9999999999995 545.921374267214 L 1195.0000000000002 545.731642732766 L 1215.9999999999998 550.6501233462593 L 1237 560.3540206174366 L 1257.9999999999998 574.3764904536345 L 1279 592.1393763227559 L 1299.9999999999998 612.9903779417791 L 1321.0000000000002 636.2414459985037 L 1341.9999999999998 661.2053384307701 L 1363.0000000000002 687.2277213766911 L 1384 713.7128752898122 L 1405 740.1418749851903 L 1426 766.0829450940416 L 1447 791.1944509076004 L 1468 815.221590758056 L 1489 837.9882606401719 L 1510 859.3857474093535 L 1531 879.3598862918236 L 1552 897.898128241236 L 1573.0000000000002 915.0176547975752 L 1594 930.755310260508 L 1614.9999999999995 945.1597479152803 L 1636 958.2858536937243 L 1656.9999999999998 970.1912480151657 L 1678.0000000000002 980.9344903004416 L 1698.9999999999998 990.5745221924838 L 1720.0000000000002 999.1708748525826 L 1740.9999999999998 1006.7842152832136 L 1762.0000000000002 1013.4768954062445 L 1782.9999999999998 1019.3132746601946 L 1804.0000000000002 1024.3596940882553 L 1824.9999999999998 1028.6840737262362 L 1846.0000000000002 1032.3551772045562 L 1866.9999999999998 1035.4416344387682 L 1888 1038.0108357904155 L 1909 1040.127812749342 L 1930 1041.8542063020654" fill="none" stroke="#f28e2b" stroke-width="8"/>
  <path d="M 250 1047.4129852171754 L 271 1047.113044642868 L 292.00000000000006 1046.6777899314231 L 313.00000000000006 1046.0553230637 L 334.0000000000001 1045.178075237308 L 355.0000000000001 1043.9598508379095 L 375.9999999999999 1042.293013478208 L 396.9999999999999 1040.0461434514198 L 417.99999999999994 1037.0625851343905 L 439 1033.1603765849886 L 460 1028.1340949833273 L 481 1021.7591421652452 L 502 1013.7989166453949 L 523 1004.0151587858652 L 544 992.1815086851917 L 565.0000000000001 978.0999881096559 L 586.0000000000001 961.619728835362 L 607.0000000000001 942.656855802174 L 628.0000000000002 921.214043817118 L 649.0000000000002 897.397959648431 L 670.0000000000002 871.4326375295284 L 690.9999999999998 843.6668680781893 L 712.0000000000002 814.5739433620433 L 732.9999999999998 784.7426021762209 L 754.0000000000002 754.8587340136185 L 774.9999999999998 725.678267117579 L 795.9999999999999 697.9925939169 L 816.9999999999999 672.5887637547476 L 837.9999999999999 650.2073800713978 L 858.9999999999999 631.5015710963456 L 879.9999999999999 617.0004834179599 L 900.9999999999999 607.0804443408572 L 922 601.9462715591438 L 943 601.6242490483878 L 964 605.9671508862119 L 985 614.6705213305897 L 1006 627.2983569175926 L 1027 643.315514975345 L 1048 662.1236870913012 L 1069 683.0976706193017 L 1090.0000000000002 705.6189368338826 L 1111 729.1040710889065 L 1131.9999999999995 753.0264502009186 L 1153 776.9304061198137 L 1173.9999999999995 800.4379820534355 L 1195.0000000000002 823.2491133233411 L 1215.9999999999998 845.1365862522937 L 1237 865.9374078474268 L 1257.9999999999998 885.5422587298806 L 1279 903.8845362267373 L 1299.9999999999998 920.930181209503 L 1321.0000000000002 936.6690893819058 L 1341.9999999999998 951.1085024809411 L 1363.0000000000002 964.2684136405034 L 1384 976.1787431715951 L 1405 986.8778657132916 L 1426 996.411997886627 L 1447 1004.8349730632817 L 1468 1012.2080128044815 L 1489 1018.5992251073181 L 1510 1024.0826910515798 L 1531 1028.7371218129165 L 1552 1032.6441622817551 L 1573.0000000000002 1035.886478183891 L 1594 1038.5457898873321 L 1614.9999999999995 1040.7010124317737 L 1636 1042.4266353716655 L 1656.9999999999998 1043.7914366799118 L 1678.0000000000002 1044.8575807485909 L 1698.9999999999998 1045.680108475107 L 1720.0000000000002 1046.306792461626 L 1740.9999999999998 1046.7783051773545 L 1762.0000000000002 1047.128633239021 L 1782.9999999999998 1047.385665921257 L 1804.0000000000002 1047.5718887926985 L 1824.9999999999998 1047.7051216988941 L 1846.0000000000002 1047.7992518635306 L 1866.9999999999998 1047.864925616195 L 1888 1047.9101745912058 L 1909 1047.9409631025953 L 1930 1047.96165219391" fill="none" stroke="#c73e1d" stroke-width="8"/>
  <line x1="1468" y1="332" x2="1468" y2="1048" stroke="#008b45" stroke-width="3" stroke-dasharray="10 8"/>
  <line x1="1132.0000000000002" y1="332" x2="1132.0000000000002" y2="1048" stroke="#f28e2b" stroke-width="3" stroke-dasharray="10 8"/>
  <line x1="879.9999999999999" y1="332" x2="879.9999999999999" y2="1048" stroke="#c73e1d" stroke-width="3" stroke-dasharray="10 8"/>
  <rect x="2060" y="250" width="720" height="256" rx="16" fill="#ffffff" fill-opacity="0.93" stroke="#d5dee9" stroke-width="1.8" filter="url(#cardShadow)"/><text x="2084" y="292" font-family="Times New Roman, Georgia, serif" font-size="28" font-weight="700" fill="#18324a">Scenario Distributions</text><line x1="2084" y1="318" x2="2136" y2="318" stroke="#008b45" stroke-width="8" /><circle cx="2110" cy="318" r="6" fill="#008b45"/><text x="2148" y="322" font-family="Times New Roman, Georgia, serif" font-size="21" fill="#405d78">Optimized GIS package</text><line x1="2084" y1="358" x2="2136" y2="358" stroke="#f28e2b" stroke-width="8" /><circle cx="2110" cy="358" r="6" fill="#f28e2b"/><text x="2148" y="362" font-family="Times New Roman, Georgia, serif" font-size="21" fill="#405d78">Uniform patrol baseline</text><line x1="2084" y1="398" x2="2136" y2="398" stroke="#c73e1d" stroke-width="8" /><circle cx="2110" cy="398" r="6" fill="#c73e1d"/><text x="2148" y="402" font-family="Times New Roman, Georgia, serif" font-size="21" fill="#405d78">Ranger -20% contingency</text><line x1="2084" y1="438" x2="2136" y2="438" stroke="#3b4992" stroke-width="8" stroke-dasharray="14 10"/><text x="2148" y="442" font-family="Times New Roman, Georgia, serif" font-size="21" fill="#405d78">Robustness threshold PI = 0.70</text>
  <rect x="2060" y="560" width="720" height="208" rx="16" fill="#ffffff" fill-opacity="0.94" stroke="#d5dee9" stroke-width="1.8" filter="url(#cardShadow)"/><text x="2084" y="602" font-family="Times New Roman, Georgia, serif" font-size="28" font-weight="700" fill="#18324a">Statistical Reading</text><text x="2084" y="638" font-family="Times New Roman, Georgia, serif" font-size="22" fill="#405d78">The optimized package shifts the entire distribution rightward and compresses the left tail.</text><text x="2084" y="669" font-family="Times New Roman, Georgia, serif" font-size="22" fill="#405d78">Uniform patrol remains centered below the desired resilience band even with moderate variance.</text><text x="2084" y="700" font-family="Times New Roman, Georgia, serif" font-size="22" fill="#405d78">Staffing loss creates a broad low-performance tail, indicating materially higher mission fragility.</text>
  <rect x="2060" y="814" width="220" height="148" rx="16" fill="#eef8f1" stroke="#cfe6d7" stroke-width="1.8"/>
  <text x="2086" y="852" font-family="Times New Roman, Georgia, serif" font-size="23" fill="#405d78">Mean PI</text>
  <text x="2086" y="909" font-family="Times New Roman, Georgia, serif" font-size="52" font-weight="700" fill="#008b45">0.74</text>
  <text x="2086" y="938" font-family="Times New Roman, Georgia, serif" font-size="22" fill="#405d78">optimized</text>
  <rect x="2310" y="814" width="220" height="148" rx="16" fill="#fff4ea" stroke="#f0d7bb" stroke-width="1.8"/>
  <text x="2336" y="852" font-family="Times New Roman, Georgia, serif" font-size="23" fill="#405d78">Mean PI</text>
  <text x="2336" y="909" font-family="Times New Roman, Georgia, serif" font-size="52" font-weight="700" fill="#f28e2b">0.66</text>
  <text x="2336" y="938" font-family="Times New Roman, Georgia, serif" font-size="22" fill="#405d78">uniform</text>
  <rect x="2560" y="814" width="220" height="148" rx="16" fill="#fff0ee" stroke="#f0d3ce" stroke-width="1.8"/>
  <text x="2586" y="852" font-family="Times New Roman, Georgia, serif" font-size="23" fill="#405d78">Mean PI</text>
  <text x="2586" y="909" font-family="Times New Roman, Georgia, serif" font-size="52" font-weight="700" fill="#c73e1d">0.60</text>
  <text x="2586" y="938" font-family="Times New Roman, Georgia, serif" font-size="22" fill="#405d78">staff shock</text>
  <text x="940" y="1140" font-family="Times New Roman, Georgia, serif" font-size="31" fill="#18324a">Protection index</text>
  <text x="94" y="494" transform="rotate(-90 94 494)" font-family="Times New Roman, Georgia, serif" font-size="29" fill="#18324a">Density</text>
</svg>