<?xml version="1.0" encoding="UTF-8"?>
<svg xmlns="http://www.w3.org/2000/svg" viewBox="0 0 3000 1289" width="3000" height="1289">
  <defs>
    <linearGradient id="legendGrad" x1="0" y1="1" x2="0" y2="0">
      <stop offset="0%" stop-color="rgb(255,247,188)"/>
      <stop offset="25%" stop-color="rgb(254,227,145)"/>
      <stop offset="50%" stop-color="rgb(254,196,79)"/>
      <stop offset="75%" stop-color="rgb(244,124,32)"/>
      <stop offset="100%" stop-color="rgb(206,45,37)"/>
    </linearGradient>
    <linearGradient id="paperBg" x1="0" y1="0" x2="0" y2="1">
      <stop offset="0%" stop-color="#fbfdff"/>
      <stop offset="100%" stop-color="#f2f6fb"/>
    </linearGradient>
    <linearGradient id="headerAccent" x1="0" y1="0" x2="1" y2="0">
      <stop offset="0%" stop-color="#3b4992"/>
      <stop offset="45%" stop-color="#4dbbd5"/>
      <stop offset="100%" stop-color="#008280"/>
    </linearGradient>
    <radialGradient id="mapVignette" cx="50%" cy="38%" r="80%">
      <stop offset="0%" stop-color="#ffffff" stop-opacity="0.00"/>
      <stop offset="100%" stop-color="#081220" stop-opacity="0.20"/>
    </radialGradient>
    <filter id="cardShadow" x="-20%" y="-20%" width="140%" height="140%">
      <feDropShadow dx="0" dy="10" stdDeviation="12" flood-color="#a8b7c8" flood-opacity="0.23"/>
    </filter>
  </defs>
  <rect x="0" y="0" width="3000" height="1289" fill="url(#paperBg)"/>
  <rect x="28" y="26" width="2944" height="112" rx="18" fill="#ffffff" fill-opacity="0.94" stroke="#d4dce6" stroke-width="1.8" filter="url(#cardShadow)"/>
  <rect x="52" y="42" width="840.0000000000001" height="8" rx="4" fill="url(#headerAccent)"/>
  <text x="60" y="78" font-family="Times New Roman, Georgia, serif" font-size="56" font-weight="700" fill="#18324a">Dynamic Protection Performance</text>
  <text x="60" y="115" font-family="Times New Roman, Georgia, serif" font-size="30" fill="#405d78">30-day protection trajectory with uncertainty envelopes and command threshold</text>
  
  <rect x="90" y="180" width="2820" height="1020" rx="22" fill="#ffffff" stroke="#d8e0ea" stroke-width="3"/>
  <rect x="150" y="250" width="1850" height="860" rx="18" fill="#fbfdff" stroke="#e2eaf2" stroke-width="2"/>
  <rect x="170" y="206" width="320" height="34" rx="17" fill="#3b4992" fill-opacity="0.96" />
    <text x="330" y="230.48" text-anchor="middle" font-family="Times New Roman, Georgia, serif" font-size="22" font-weight="700" fill="#ffffff">Operational target PI >= 0.75</text>
  <line x1="220" y1="1048" x2="1920" y2="1048" stroke="#e5ecf4" stroke-width="2"/>
    <text x="162" y="1057" font-family="Times New Roman, Georgia, serif" font-size="24" fill="#405d78">0.45</text><line x1="220" y1="954.5" x2="1920" y2="954.5" stroke="#e5ecf4" stroke-width="2"/>
    <text x="162" y="963.5" font-family="Times New Roman, Georgia, serif" font-size="24" fill="#405d78">0.50</text><line x1="220" y1="861" x2="1920" y2="861" stroke="#e5ecf4" stroke-width="2"/>
    <text x="162" y="870" font-family="Times New Roman, Georgia, serif" font-size="24" fill="#405d78">0.55</text><line x1="220" y1="767.5" x2="1920" y2="767.5" stroke="#e5ecf4" stroke-width="2"/>
    <text x="162" y="776.5" font-family="Times New Roman, Georgia, serif" font-size="24" fill="#405d78">0.60</text><line x1="220" y1="674" x2="1920" y2="674" stroke="#e5ecf4" stroke-width="2"/>
    <text x="162" y="683" font-family="Times New Roman, Georgia, serif" font-size="24" fill="#405d78">0.65</text><line x1="220" y1="580.5000000000002" x2="1920" y2="580.5000000000002" stroke="#e5ecf4" stroke-width="2"/>
    <text x="162" y="589.5000000000002" font-family="Times New Roman, Georgia, serif" font-size="24" fill="#405d78">0.70</text><line x1="220" y1="487.0000000000001" x2="1920" y2="487.0000000000001" stroke="#e5ecf4" stroke-width="2"/>
    <text x="162" y="496.0000000000001" font-family="Times New Roman, Georgia, serif" font-size="24" fill="#405d78">0.75</text><line x1="220" y1="393.5" x2="1920" y2="393.5" stroke="#e5ecf4" stroke-width="2"/>
    <text x="162" y="402.5" font-family="Times New Roman, Georgia, serif" font-size="24" fill="#405d78">0.80</text><line x1="220" y1="300.0000000000001" x2="1920" y2="300.0000000000001" stroke="#e5ecf4" stroke-width="2"/>
    <text x="162" y="309.0000000000001" font-family="Times New Roman, Georgia, serif" font-size="24" fill="#405d78">0.85</text><line x1="220" y1="1048" x2="220" y2="300" stroke="#edf2f7" stroke-width="2"/>
    <text x="220" y="1090" text-anchor="middle" font-family="Times New Roman, Georgia, serif" font-size="24" fill="#405d78">1</text><line x1="454.48275862068965" y1="1048" x2="454.48275862068965" y2="300" stroke="#edf2f7" stroke-width="2"/>
    <text x="454.48275862068965" y="1090" text-anchor="middle" font-family="Times New Roman, Georgia, serif" font-size="24" fill="#405d78">5</text><line x1="747.5862068965517" y1="1048" x2="747.5862068965517" y2="300" stroke="#edf2f7" stroke-width="2"/>
    <text x="747.5862068965517" y="1090" text-anchor="middle" font-family="Times New Roman, Georgia, serif" font-size="24" fill="#405d78">10</text><line x1="1040.689655172414" y1="1048" x2="1040.689655172414" y2="300" stroke="#edf2f7" stroke-width="2"/>
    <text x="1040.689655172414" y="1090" text-anchor="middle" font-family="Times New Roman, Georgia, serif" font-size="24" fill="#405d78">15</text><line x1="1333.7931034482758" y1="1048" x2="1333.7931034482758" y2="300" stroke="#edf2f7" stroke-width="2"/>
    <text x="1333.7931034482758" y="1090" text-anchor="middle" font-family="Times New Roman, Georgia, serif" font-size="24" fill="#405d78">20</text><line x1="1626.896551724138" y1="1048" x2="1626.896551724138" y2="300" stroke="#edf2f7" stroke-width="2"/>
    <text x="1626.896551724138" y="1090" text-anchor="middle" font-family="Times New Roman, Georgia, serif" font-size="24" fill="#405d78">25</text><line x1="1920" y1="1048" x2="1920" y2="300" stroke="#edf2f7" stroke-width="2"/>
    <text x="1920" y="1090" text-anchor="middle" font-family="Times New Roman, Georgia, serif" font-size="24" fill="#405d78">30</text>
  <line x1="220" y1="1048" x2="1920" y2="1048" stroke="#62768a" stroke-width="3"/>
  <line x1="220" y1="300" x2="220" y2="1048" stroke="#62768a" stroke-width="3"/>
  <line x1="220" y1="487.0000000000001" x2="1920" y2="487.0000000000001" stroke="#3b4992" stroke-width="3.5" stroke-dasharray="14 10"/>
  <text x="244" y="473.0000000000001" font-family="Times New Roman, Georgia, serif" font-size="24" font-weight="700" fill="#3b4992">Command target</text>
  <path d="M 220 589.8500000000001 L 220 533.7500000000001 L 278.62068965517244 515.0500000000001 L 337.2413793103448 496.35 L 395.8620689655172 515.0500000000001 L 454.48275862068965 496.35 L 513.1034482758621 477.65 L 571.7241379310344 458.95000000000005 L 630.344827586207 477.65 L 688.9655172413793 458.95000000000005 L 747.5862068965517 440.25 L 806.2068965517242 458.95000000000005 L 864.8275862068965 477.65 L 923.448275862069 496.35 L 982.0689655172414 515.0500000000001 L 1040.689655172414 533.7500000000001 L 1099.3103448275863 515.0500000000001 L 1157.9310344827586 496.35 L 1216.551724137931 477.65 L 1275.1724137931035 458.95000000000005 L 1333.7931034482758 440.25 L 1392.4137931034484 458.95000000000005 L 1451.0344827586207 440.25 L 1509.655172413793 421.54999999999995 L 1568.2758620689656 421.54999999999995 L 1626.896551724138 402.85 L 1685.5172413793102 402.85 L 1744.1379310344828 384.15 L 1802.7586206896551 384.15 L 1861.3793103448277 365.44999999999993 L 1920 365.44999999999993 L 1920 421.54999999999995 L 1861.3793103448277 421.54999999999995 L 1802.7586206896551 440.25 L 1744.1379310344828 440.25 L 1685.5172413793102 458.95000000000005 L 1626.896551724138 458.95000000000005 L 1568.2758620689656 477.65 L 1509.655172413793 477.65 L 1451.0344827586207 496.35 L 1392.4137931034484 515.0500000000001 L 1333.7931034482758 496.35 L 1275.1724137931035 515.0500000000001 L 1216.551724137931 533.7500000000001 L 1157.9310344827586 552.45 L 1099.3103448275863 571.1500000000001 L 1040.689655172414 589.8500000000001 L 982.0689655172414 571.1500000000001 L 923.448275862069 552.45 L 864.8275862068965 533.7500000000001 L 806.2068965517242 515.0500000000001 L 747.5862068965517 496.35 L 688.9655172413793 515.0500000000001 L 630.344827586207 533.7500000000001 L 571.7241379310344 515.0500000000001 L 513.1034482758621 533.7500000000001 L 454.48275862068965 552.45 L 395.8620689655172 571.1500000000001 L 337.2413793103448 552.45 L 278.62068965517244 571.1500000000001 L 220 589.8500000000001 Z" fill="#008b45" fill-opacity="0.12"/>
    <path d="M 220 561.8000000000002 L 278.62068965517244 543.1000000000001 L 337.2413793103448 524.4000000000001 L 395.8620689655172 543.1000000000001 L 454.48275862068965 524.4000000000001 L 513.1034482758621 505.70000000000005 L 571.7241379310344 487.0000000000001 L 630.344827586207 505.70000000000005 L 688.9655172413793 487.0000000000001 L 747.5862068965517 468.30000000000007 L 806.2068965517242 487.0000000000001 L 864.8275862068965 505.70000000000005 L 923.448275862069 524.4000000000001 L 982.0689655172414 543.1000000000001 L 1040.689655172414 561.8000000000002 L 1099.3103448275863 543.1000000000001 L 1157.9310344827586 524.4000000000001 L 1216.551724137931 505.70000000000005 L 1275.1724137931035 487.0000000000001 L 1333.7931034482758 468.30000000000007 L 1392.4137931034484 487.0000000000001 L 1451.0344827586207 468.30000000000007 L 1509.655172413793 449.6 L 1568.2758620689656 449.6 L 1626.896551724138 430.9 L 1685.5172413793102 430.9 L 1744.1379310344828 412.20000000000005 L 1802.7586206896551 412.20000000000005 L 1861.3793103448277 393.5 L 1920 393.5" fill="none" stroke="#008b45" stroke-width="8" stroke-linecap="round"/>
    <circle cx="1920" cy="393.5" r="8" fill="#008b45" stroke="#ffffff" stroke-width="3"/><path d="M 220 857.2600000000002 L 220 789.94 L 278.62068965517244 771.24 L 337.2413793103448 752.5400000000001 L 395.8620689655172 771.24 L 454.48275862068965 771.24 L 513.1034482758621 752.5400000000001 L 571.7241379310344 733.84 L 630.344827586207 733.84 L 688.9655172413793 715.1400000000001 L 747.5862068965517 715.1400000000001 L 806.2068965517242 733.84 L 864.8275862068965 752.5400000000001 L 923.448275862069 771.24 L 982.0689655172414 789.94 L 1040.689655172414 808.6399999999999 L 1099.3103448275863 789.94 L 1157.9310344827586 771.24 L 1216.551724137931 752.5400000000001 L 1275.1724137931035 733.84 L 1333.7931034482758 733.84 L 1392.4137931034484 715.1400000000001 L 1451.0344827586207 715.1400000000001 L 1509.655172413793 696.44 L 1568.2758620689656 696.44 L 1626.896551724138 677.74 L 1685.5172413793102 677.74 L 1744.1379310344828 659.04 L 1802.7586206896551 659.04 L 1861.3793103448277 640.3399999999999 L 1920 640.3399999999999 L 1920 707.6600000000001 L 1861.3793103448277 707.6600000000001 L 1802.7586206896551 726.3600000000001 L 1744.1379310344828 726.3600000000001 L 1685.5172413793102 745.0600000000001 L 1626.896551724138 745.0600000000001 L 1568.2758620689656 763.7600000000001 L 1509.655172413793 763.7600000000001 L 1451.0344827586207 782.46 L 1392.4137931034484 782.46 L 1333.7931034482758 801.1600000000001 L 1275.1724137931035 801.1600000000001 L 1216.551724137931 819.8600000000001 L 1157.9310344827586 838.5600000000002 L 1099.3103448275863 857.2600000000002 L 1040.689655172414 875.9599999999999 L 982.0689655172414 857.2600000000002 L 923.448275862069 838.5600000000002 L 864.8275862068965 819.8600000000001 L 806.2068965517242 801.1600000000001 L 747.5862068965517 782.46 L 688.9655172413793 782.46 L 630.344827586207 801.1600000000001 L 571.7241379310344 801.1600000000001 L 513.1034482758621 819.8600000000001 L 454.48275862068965 838.5600000000002 L 395.8620689655172 838.5600000000002 L 337.2413793103448 819.8600000000001 L 278.62068965517244 838.5600000000002 L 220 857.2600000000002 Z" fill="#f28e2b" fill-opacity="0.12"/>
    <path d="M 220 823.6000000000001 L 278.62068965517244 804.9000000000001 L 337.2413793103448 786.2 L 395.8620689655172 804.9000000000001 L 454.48275862068965 804.9000000000001 L 513.1034482758621 786.2 L 571.7241379310344 767.5 L 630.344827586207 767.5 L 688.9655172413793 748.8000000000001 L 747.5862068965517 748.8000000000001 L 806.2068965517242 767.5 L 864.8275862068965 786.2 L 923.448275862069 804.9000000000001 L 982.0689655172414 823.6000000000001 L 1040.689655172414 842.3 L 1099.3103448275863 823.6000000000001 L 1157.9310344827586 804.9000000000001 L 1216.551724137931 786.2 L 1275.1724137931035 767.5 L 1333.7931034482758 767.5 L 1392.4137931034484 748.8000000000001 L 1451.0344827586207 748.8000000000001 L 1509.655172413793 730.1 L 1568.2758620689656 730.1 L 1626.896551724138 711.4000000000001 L 1685.5172413793102 711.4000000000001 L 1744.1379310344828 692.7 L 1802.7586206896551 692.7 L 1861.3793103448277 674 L 1920 674" fill="none" stroke="#f28e2b" stroke-width="8" stroke-linecap="round"/>
    <circle cx="1920" cy="674" r="8" fill="#f28e2b" stroke="#ffffff" stroke-width="3"/><path d="M 220 954.5 L 220 879.6999999999999 L 278.62068965517244 861 L 337.2413793103448 842.3 L 395.8620689655172 861 L 454.48275862068965 861 L 513.1034482758621 842.3 L 571.7241379310344 823.5999999999999 L 630.344827586207 823.5999999999999 L 688.9655172413793 823.5999999999999 L 747.5862068965517 804.8999999999999 L 806.2068965517242 823.5999999999999 L 864.8275862068965 842.3 L 923.448275862069 861 L 982.0689655172414 898.4 L 1040.689655172414 917.1 L 1099.3103448275863 898.4 L 1157.9310344827586 879.6999999999999 L 1216.551724137931 861 L 1275.1724137931035 842.3 L 1333.7931034482758 842.3 L 1392.4137931034484 823.5999999999999 L 1451.0344827586207 823.5999999999999 L 1509.655172413793 804.8999999999999 L 1568.2758620689656 804.8999999999999 L 1626.896551724138 804.8999999999999 L 1685.5172413793102 786.2 L 1744.1379310344828 786.2 L 1802.7586206896551 767.5 L 1861.3793103448277 767.5 L 1920 767.5 L 1920 842.3000000000002 L 1861.3793103448277 842.3000000000002 L 1802.7586206896551 842.3000000000002 L 1744.1379310344828 861.0000000000001 L 1685.5172413793102 861.0000000000001 L 1626.896551724138 879.6999999999999 L 1568.2758620689656 879.6999999999999 L 1509.655172413793 879.6999999999999 L 1451.0344827586207 898.4 L 1392.4137931034484 898.4 L 1333.7931034482758 917.1 L 1275.1724137931035 917.1 L 1216.551724137931 935.8 L 1157.9310344827586 954.5 L 1099.3103448275863 973.2 L 1040.689655172414 991.9000000000001 L 982.0689655172414 973.2 L 923.448275862069 935.8 L 864.8275862068965 917.1 L 806.2068965517242 898.4 L 747.5862068965517 879.6999999999999 L 688.9655172413793 898.4 L 630.344827586207 898.4 L 571.7241379310344 898.4 L 513.1034482758621 917.1 L 454.48275862068965 935.8 L 395.8620689655172 935.8 L 337.2413793103448 917.1 L 278.62068965517244 935.8 L 220 954.5 Z" fill="#c73e1d" fill-opacity="0.12"/>
    <path d="M 220 917.1 L 278.62068965517244 898.4 L 337.2413793103448 879.6999999999999 L 395.8620689655172 898.4 L 454.48275862068965 898.4 L 513.1034482758621 879.6999999999999 L 571.7241379310344 861 L 630.344827586207 861 L 688.9655172413793 861 L 747.5862068965517 842.3 L 806.2068965517242 861 L 864.8275862068965 879.6999999999999 L 923.448275862069 898.4 L 982.0689655172414 935.8 L 1040.689655172414 954.5 L 1099.3103448275863 935.8 L 1157.9310344827586 917.1 L 1216.551724137931 898.4 L 1275.1724137931035 879.6999999999999 L 1333.7931034482758 879.6999999999999 L 1392.4137931034484 861 L 1451.0344827586207 861 L 1509.655172413793 842.3 L 1568.2758620689656 842.3 L 1626.896551724138 842.3 L 1685.5172413793102 823.6000000000001 L 1744.1379310344828 823.6000000000001 L 1802.7586206896551 804.9000000000001 L 1861.3793103448277 804.9000000000001 L 1920 804.9000000000001" fill="none" stroke="#c73e1d" stroke-width="8" stroke-linecap="round"/>
    <circle cx="1920" cy="804.9000000000001" r="8" fill="#c73e1d" stroke="#ffffff" stroke-width="3"/>
  <text x="1938" y="383.5" font-family="Times New Roman, Georgia, serif" font-size="24" font-weight="700" fill="#008b45">0.80</text><text x="1938" y="668" font-family="Times New Roman, Georgia, serif" font-size="24" font-weight="700" fill="#f28e2b">0.65</text><text x="1938" y="802.9000000000001" font-family="Times New Roman, Georgia, serif" font-size="24" font-weight="700" fill="#c73e1d">0.58</text>
  <rect x="2060" y="250" width="720" height="256" rx="16" fill="#ffffff" fill-opacity="0.93" stroke="#d5dee9" stroke-width="1.8" filter="url(#cardShadow)"/><text x="2084" y="292" font-family="Times New Roman, Georgia, serif" font-size="28" font-weight="700" fill="#18324a">Deployment Arms</text><line x1="2084" y1="318" x2="2136" y2="318" stroke="#008b45" stroke-width="8" /><circle cx="2110" cy="318" r="6" fill="#008b45"/><text x="2148" y="322" font-family="Times New Roman, Georgia, serif" font-size="21" fill="#405d78">Optimized GIS-guided package</text><line x1="2084" y1="358" x2="2136" y2="358" stroke="#f28e2b" stroke-width="8" /><circle cx="2110" cy="358" r="6" fill="#f28e2b"/><text x="2148" y="362" font-family="Times New Roman, Georgia, serif" font-size="21" fill="#405d78">Uniform patrol baseline</text><line x1="2084" y1="398" x2="2136" y2="398" stroke="#c73e1d" stroke-width="8" /><circle cx="2110" cy="398" r="6" fill="#c73e1d"/><text x="2148" y="402" font-family="Times New Roman, Georgia, serif" font-size="21" fill="#405d78">Staffing shock: ranger -20%</text><line x1="2084" y1="438" x2="2136" y2="438" stroke="#3b4992" stroke-width="8" stroke-dasharray="14 10"/><text x="2148" y="442" font-family="Times New Roman, Georgia, serif" font-size="21" fill="#405d78">Mission target PI = 0.75</text>
  <rect x="2060" y="548" width="720" height="244" rx="16" fill="#ffffff" fill-opacity="0.94" stroke="#d5dee9" stroke-width="1.8" filter="url(#cardShadow)"/><text x="2084" y="590" font-family="Times New Roman, Georgia, serif" font-size="28" font-weight="700" fill="#18324a">Decision Reading</text><text x="2084" y="626" font-family="Times New Roman, Georgia, serif" font-size="21" fill="#405d78">Optimized deployment crosses the command target by day 7.</text><text x="2084" y="654" font-family="Times New Roman, Georgia, serif" font-size="21" fill="#405d78">It then maintains a stable upward drift through day 30.</text><text x="2084" y="682" font-family="Times New Roman, Georgia, serif" font-size="21" fill="#405d78">Uniform patrol improves gradually but never reaches the mission threshold.</text><text x="2084" y="710" font-family="Times New Roman, Georgia, serif" font-size="21" fill="#405d78">A 20% staffing shock compresses protection quickly.</text><text x="2084" y="738" font-family="Times New Roman, Georgia, serif" font-size="21" fill="#405d78">That pattern shows why reserve capacity matters operationally.</text>
  <rect x="2060" y="810" width="220" height="152" rx="16" fill="#eef8f1" stroke="#cfe6d7" stroke-width="1.8"/>
  <text x="2088" y="853" font-family="Times New Roman, Georgia, serif" font-size="24" fill="#405d78">Day 30 PI</text>
  <text x="2088" y="908" font-family="Times New Roman, Georgia, serif" font-size="54" font-weight="700" fill="#008b45">0.80</text>
  <text x="2088" y="938" font-family="Times New Roman, Georgia, serif" font-size="22" fill="#405d78">optimized package</text>
  <rect x="2310" y="810" width="220" height="152" rx="16" fill="#fff4ea" stroke="#f0d7bb" stroke-width="1.8"/>
  <text x="2338" y="853" font-family="Times New Roman, Georgia, serif" font-size="24" fill="#405d78">Day 30 PI</text>
  <text x="2338" y="908" font-family="Times New Roman, Georgia, serif" font-size="54" font-weight="700" fill="#f28e2b">0.65</text>
  <text x="2338" y="938" font-family="Times New Roman, Georgia, serif" font-size="22" fill="#405d78">uniform baseline</text>
  <rect x="2560" y="810" width="220" height="152" rx="16" fill="#fff0ee" stroke="#f0d3ce" stroke-width="1.8"/>
  <text x="2588" y="853" font-family="Times New Roman, Georgia, serif" font-size="24" fill="#405d78">Day 30 PI</text>
  <text x="2588" y="908" font-family="Times New Roman, Georgia, serif" font-size="54" font-weight="700" fill="#c73e1d">0.58</text>
  <text x="2588" y="938" font-family="Times New Roman, Georgia, serif" font-size="22" fill="#405d78">staffing shock</text>
  <text x="980" y="1140" font-family="Times New Roman, Georgia, serif" font-size="31" fill="#18324a">Simulation day</text>
  <text x="94" y="514" transform="rotate(-90 94 514)" font-family="Times New Roman, Georgia, serif" font-size="29" fill="#18324a">Protection index</text>
</svg>