<?xml version="1.0" encoding="UTF-8"?>
<svg xmlns="http://www.w3.org/2000/svg" viewBox="0 0 3200 1800" width="3200" height="1800">
  <defs>
    <linearGradient id="paperBg" x1="0" y1="0" x2="0" y2="1">
      <stop offset="0%" stop-color="#faf7f0"/>
      <stop offset="100%" stop-color="#f1ece1"/>
    </linearGradient>
    <linearGradient id="headerRule" x1="0" y1="0" x2="1" y2="0">
      <stop offset="0%" stop-color="#3f678e"/>
      <stop offset="35%" stop-color="#5f805d"/>
      <stop offset="68%" stop-color="#b77735"/>
      <stop offset="100%" stop-color="#9f473b"/>
    </linearGradient>
    <filter id="shadow" x="-20%" y="-20%" width="140%" height="140%">
      <feDropShadow dx="0" dy="10" stdDeviation="14" flood-color="#a6afb7" flood-opacity="0.20"/>
    </filter>
    <clipPath id="parkClip" clipPathUnits="userSpaceOnUse">
      <path d="M 285 500 L 530 420 L 1090 400 L 1670 410 L 2270 437 L 2800 469 L 2982 545 L 3000 795 L 2970 1185 L 2830 1350 L 2320 1389 L 1500 1415 L 830 1403 L 428 1337 L 290 1130 L 255 775 Z"/>
    </clipPath>
  </defs>
  <rect x="0" y="0" width="3200" height="1800" fill="url(#paperBg)"/>
  <rect x="68" y="54" width="3064" height="144" rx="28" fill="#ffffff" stroke="#cfd6dc" stroke-width="2" filter="url(#shadow)"/>
  <rect x="98" y="86" width="3004" height="10" rx="5" fill="url(#headerRule)"/>
  <rect x="2942" y="104" width="162" height="48" rx="24" fill="#ece1c5" stroke="#ece1c5" stroke-width="1.5"/>
    <text x="3023" y="136" text-anchor="middle" font-family="Helvetica Neue, Arial, sans-serif" font-size="24" font-weight="700" fill="#243240">FIG. 05</text>
  <text x="104" y="145" font-family="Helvetica Neue, Arial, sans-serif" font-size="56" font-weight="700" fill="#243240">Route Portfolio on Atlas Base Map</text>
  <text x="104" y="184" font-family="Helvetica Neue, Arial, sans-serif" font-size="28" fill="#6a7682">Patrol families redrawn as scholarly map overlays with route legends</text>
  
    
    <rect x="84" y="218" width="3032" height="1332" rx="26" fill="#ffffff" stroke="#cfd6dc" stroke-width="2.4" filter="url(#shadow)"/>
    <rect x="102" y="236" width="2996" height="1296" rx="20" fill="#f1ece1"/>
    <g clip-path="url(#parkClip)">
      <rect x="110" y="255" width="3000" height="1289" fill="#ecf0e4"/>
      <path d="M 285 500 L 530 420 L 1090 400 L 1670 410 L 2270 437 L 2800 469 L 2982 545 L 3000 795 L 2970 1185 L 2830 1350 L 2320 1389 L 1500 1415 L 830 1403 L 428 1337 L 290 1130 L 255 775 Z" fill="#e4ead9" stroke="none"/>
      <path d="M 320 775 L 600 675 L 970 645 L 1210 715 L 1090 865 L 730 915 L 420 885 Z" fill="#d7dfca" opacity="0.9"/>
      <path d="M 870 1125 L 1250 1055 L 1650 1025 L 1870 1155 L 1620 1310 L 1160 1270 L 930 1195 Z" fill="#d7dfca" opacity="0.85"/>
      <path d="M 2120 905 L 2430 815 L 2830 775 L 2920 985 L 2620 1165 L 2250 1115 L 2100 1015 Z" fill="#d7dfca" opacity="0.9"/>
      <path d="M 1210 565 L 1420 495 L 1710 460 L 2055 480 L 2340 555 L 2470 650 L 2390 775 L 2080 820 L 1700 803 L 1415 750 L 1240 665 Z" fill="#e7e1d3" opacity="0.98"/>
      <path d="M 350 1265 C 1090 1195 1710 1160 2920 845" fill="none" stroke="#dbd1bb" stroke-width="40" stroke-linecap="round" opacity="0.82"/>
      <path d="M 330 1045 C 1090 905 1950 975 2840 815" fill="none" stroke="#e9dfcb" stroke-width="24" stroke-linecap="round" opacity="0.9"/>
    </g>
    <path d="M 285 500 L 530 420 L 1090 400 L 1670 410 L 2270 437 L 2800 469 L 2982 545 L 3000 795 L 2970 1185 L 2830 1350 L 2320 1389 L 1500 1415 L 830 1403 L 428 1337 L 290 1130 L 255 775 Z" fill="none" stroke="#243240" stroke-width="5"/>
    <path d="M 280 1330 L 360 1185 L 590 935 L 870 930 L 1140 923 L 1500 947 L 1718 1160 L 1930 1075 L 2250 1060 L 2475 950 L 2730 815 L 2930 840" fill="none" stroke="#eee8df" stroke-width="18" stroke-linecap="round" stroke-linejoin="round"/>
    <path d="M 280 1330 L 360 1185 L 590 935 L 870 930 L 1140 923 L 1500 947 L 1718 1160 L 1930 1075 L 2250 1060 L 2475 950 L 2730 815 L 2930 840" fill="none" stroke="#7b6c60" stroke-width="8" stroke-linecap="round" stroke-linejoin="round" />
    <path d="M 440 1025 L 690 975 L 970 930 L 1290 910 L 1600 925 L 1880 980 L 2180 963 L 2470 920 L 2785 820" fill="none" stroke="#f2ebdf" stroke-width="14" stroke-linecap="round" stroke-linejoin="round"/>
    <path d="M 440 1025 L 690 975 L 970 930 L 1290 910 L 1600 925 L 1880 980 L 2180 963 L 2470 920 L 2785 820" fill="none" stroke="#98877a" stroke-width="6" stroke-linecap="round" stroke-linejoin="round" />
    <path d="M 2440 325 L 2490 440 L 2590 685 L 2730 815" fill="none" stroke="#f2ebdf" stroke-width="14" stroke-linecap="round" stroke-linejoin="round"/>
    <path d="M 2440 325 L 2490 440 L 2590 685 L 2730 815" fill="none" stroke="#98877a" stroke-width="6" stroke-linecap="round" stroke-linejoin="round" stroke-dasharray="18 10"/>
    <path d="M 280 1330 L 275 1135 L 256 985" fill="none" stroke="#f2ebdf" stroke-width="14" stroke-linecap="round" stroke-linejoin="round"/>
    <path d="M 280 1330 L 275 1135 L 256 985" fill="none" stroke="#98877a" stroke-width="6" stroke-linecap="round" stroke-linejoin="round" />
    
    <circle cx="490" cy="945" r="8" fill="#4f7ea7" fill-opacity="0.95" stroke="#ffffff" stroke-width="2.4"/>
  
    <circle cx="660" cy="955" r="8" fill="#4f7ea7" fill-opacity="0.95" stroke="#ffffff" stroke-width="2.4"/>
  
    <circle cx="810" cy="937" r="8" fill="#4f7ea7" fill-opacity="0.95" stroke="#ffffff" stroke-width="2.4"/>
  
    <circle cx="970" cy="925" r="8" fill="#4f7ea7" fill-opacity="0.95" stroke="#ffffff" stroke-width="2.4"/>
  
    <circle cx="1130" cy="920" r="8" fill="#4f7ea7" fill-opacity="0.95" stroke="#ffffff" stroke-width="2.4"/>
  
    <circle cx="1320" cy="920" r="8" fill="#4f7ea7" fill-opacity="0.95" stroke="#ffffff" stroke-width="2.4"/>
  
    <circle cx="1500" cy="949" r="8" fill="#4f7ea7" fill-opacity="0.95" stroke="#ffffff" stroke-width="2.4"/>
  
    <circle cx="1640" cy="985" r="8" fill="#4f7ea7" fill-opacity="0.95" stroke="#ffffff" stroke-width="2.4"/>
  
    <circle cx="1810" cy="1100" r="8" fill="#4f7ea7" fill-opacity="0.95" stroke="#ffffff" stroke-width="2.4"/>
  
    <circle cx="1940" cy="1063" r="8" fill="#4f7ea7" fill-opacity="0.95" stroke="#ffffff" stroke-width="2.4"/>
  
    <circle cx="2060" cy="1025" r="8" fill="#4f7ea7" fill-opacity="0.95" stroke="#ffffff" stroke-width="2.4"/>
  
    <circle cx="2170" cy="999" r="8" fill="#4f7ea7" fill-opacity="0.95" stroke="#ffffff" stroke-width="2.4"/>
  
    <circle cx="2290" cy="965" r="8" fill="#4f7ea7" fill-opacity="0.95" stroke="#ffffff" stroke-width="2.4"/>
  
    <circle cx="2400" cy="935" r="8" fill="#4f7ea7" fill-opacity="0.95" stroke="#ffffff" stroke-width="2.4"/>
  
    <circle cx="2510" cy="905" r="8" fill="#4f7ea7" fill-opacity="0.95" stroke="#ffffff" stroke-width="2.4"/>
  
    <circle cx="2600" cy="879" r="8" fill="#4f7ea7" fill-opacity="0.95" stroke="#ffffff" stroke-width="2.4"/>
  
    <circle cx="2690" cy="855" r="8" fill="#4f7ea7" fill-opacity="0.95" stroke="#ffffff" stroke-width="2.4"/>
  
    <circle cx="2770" cy="835" r="8" fill="#4f7ea7" fill-opacity="0.95" stroke="#ffffff" stroke-width="2.4"/>
  
    <circle cx="2830" cy="815" r="8" fill="#4f7ea7" fill-opacity="0.95" stroke="#ffffff" stroke-width="2.4"/>
  
    <circle cx="2890" cy="795" r="8" fill="#4f7ea7" fill-opacity="0.95" stroke="#ffffff" stroke-width="2.4"/>
  
    <circle cx="2950" cy="775" r="8" fill="#4f7ea7" fill-opacity="0.95" stroke="#ffffff" stroke-width="2.4"/>
  
    <circle cx="2550" cy="1105" r="8" fill="#4f7ea7" fill-opacity="0.95" stroke="#ffffff" stroke-width="2.4"/>
  
    <circle cx="2390" cy="1115" r="8" fill="#4f7ea7" fill-opacity="0.95" stroke="#ffffff" stroke-width="2.4"/>
  
    <circle cx="2170" cy="1155" r="8" fill="#4f7ea7" fill-opacity="0.95" stroke="#ffffff" stroke-width="2.4"/>
  
    
    <circle cx="256" cy="985" r="20" fill="#ffffff" stroke="#8e2f2f" stroke-width="5"/>
    <circle cx="256" cy="985" r="7" fill="#8e2f2f"/>
    <rect x="280" y="960" width="178" height="42" rx="12" fill="#ffffff" fill-opacity="0.96" stroke="#cfd6dc" stroke-width="1.5"/>
    <text x="294" y="989" font-family="Helvetica Neue, Arial, sans-serif" font-size="26" font-weight="700" fill="#243240">Dolomite</text>
  
    <circle cx="590" cy="935" r="20" fill="#ffffff" stroke="#8e2f2f" stroke-width="5"/>
    <circle cx="590" cy="935" r="7" fill="#8e2f2f"/>
    <rect x="614" y="910" width="235" height="42" rx="12" fill="#ffffff" fill-opacity="0.96" stroke="#cfd6dc" stroke-width="1.5"/>
    <text x="628" y="939" font-family="Helvetica Neue, Arial, sans-serif" font-size="26" font-weight="700" fill="#243240">Olifantsrus</text>
  
    <circle cx="1718" cy="1160" r="20" fill="#ffffff" stroke="#8e2f2f" stroke-width="5"/>
    <circle cx="1718" cy="1160" r="7" fill="#8e2f2f"/>
    <rect x="1742" y="1135" width="197" height="42" rx="12" fill="#ffffff" fill-opacity="0.96" stroke="#cfd6dc" stroke-width="1.5"/>
    <text x="1756" y="1164" font-family="Helvetica Neue, Arial, sans-serif" font-size="26" font-weight="700" fill="#243240">Okaukuejo</text>
  
    <circle cx="2250" cy="1060" r="20" fill="#ffffff" stroke="#8e2f2f" stroke-width="5"/>
    <circle cx="2250" cy="1060" r="7" fill="#8e2f2f"/>
    <rect x="2274" y="1035" width="140" height="42" rx="12" fill="#ffffff" fill-opacity="0.96" stroke="#cfd6dc" stroke-width="1.5"/>
    <text x="2288" y="1064" font-family="Helvetica Neue, Arial, sans-serif" font-size="26" font-weight="700" fill="#243240">Halali</text>
  
    <circle cx="2730" cy="815" r="20" fill="#ffffff" stroke="#8e2f2f" stroke-width="5"/>
    <circle cx="2730" cy="815" r="7" fill="#8e2f2f"/>
    <rect x="2754" y="790" width="178" height="42" rx="12" fill="#ffffff" fill-opacity="0.96" stroke="#cfd6dc" stroke-width="1.5"/>
    <text x="2768" y="819" font-family="Helvetica Neue, Arial, sans-serif" font-size="26" font-weight="700" fill="#243240">Namutoni</text>
  
    <circle cx="2590" cy="685" r="20" fill="#ffffff" stroke="#8e2f2f" stroke-width="5"/>
    <circle cx="2590" cy="685" r="7" fill="#8e2f2f"/>
    <rect x="2614" y="660" width="159" height="42" rx="12" fill="#ffffff" fill-opacity="0.96" stroke="#cfd6dc" stroke-width="1.5"/>
    <text x="2628" y="689" font-family="Helvetica Neue, Arial, sans-serif" font-size="26" font-weight="700" fill="#243240">Onkoshi</text>
  
    
    <circle cx="280" cy="1330" r="17" fill="#eef5ec" stroke="#5f805d" stroke-width="4.5"/>
    <text x="280" y="1338" text-anchor="middle" font-family="Helvetica Neue, Arial, sans-serif" font-size="21" font-weight="700" fill="#5f805d">G</text>
    <text x="302" y="1337" font-family="Helvetica Neue, Arial, sans-serif" font-size="23" fill="#243240">Galton</text>
  
    <circle cx="1730" cy="1345" r="17" fill="#eef5ec" stroke="#5f805d" stroke-width="4.5"/>
    <text x="1730" y="1353" text-anchor="middle" font-family="Helvetica Neue, Arial, sans-serif" font-size="21" font-weight="700" fill="#5f805d">G</text>
    <text x="1752" y="1352" font-family="Helvetica Neue, Arial, sans-serif" font-size="23" fill="#243240">Andersson</text>
  
    <circle cx="2930" cy="840" r="17" fill="#eef5ec" stroke="#5f805d" stroke-width="4.5"/>
    <text x="2930" y="848" text-anchor="middle" font-family="Helvetica Neue, Arial, sans-serif" font-size="21" font-weight="700" fill="#5f805d">G</text>
    <text x="2952" y="847" font-family="Helvetica Neue, Arial, sans-serif" font-size="23" fill="#243240">VonLindequist</text>
  
    <circle cx="2440" cy="325" r="17" fill="#eef5ec" stroke="#5f805d" stroke-width="4.5"/>
    <text x="2440" y="333" text-anchor="middle" font-family="Helvetica Neue, Arial, sans-serif" font-size="21" font-weight="700" fill="#5f805d">G</text>
    <text x="2462" y="332" font-family="Helvetica Neue, Arial, sans-serif" font-size="23" fill="#243240">Nehale</text>
  
    <text x="1830" y="675" font-family="Helvetica Neue, Arial, sans-serif" font-size="42" font-weight="700" fill="#8f8777" opacity="0.9">Etosha Pan</text>
    <text x="930" y="1235" font-family="Helvetica Neue, Arial, sans-serif" font-size="30" fill="#6a7682">Southern patrol corridor</text>
    <g>
    <line x1="2850" y1="382" x2="2850" y2="310" stroke="#243240" stroke-width="5"/>
    <path d="M 2836 334 L 2850 310 L 2864 334 Z" fill="#243240"/>
    <text x="2850" y="294" text-anchor="middle" font-family="Helvetica Neue, Arial, sans-serif" font-size="28" font-weight="700" fill="#243240">N</text>
  </g>
    <g>
    <rect x="2490" y="1485" width="220" height="18" rx="3" fill="#243240"/>
    <rect x="2600" y="1485" width="110" height="18" rx="0" fill="#ffffff" stroke="#243240" stroke-width="2"/>
    <line x1="2490" y1="1485" x2="2490" y2="1515" stroke="#243240" stroke-width="3"/>
    <line x1="2600" y1="1485" x2="2600" y2="1515" stroke="#243240" stroke-width="3"/>
    <line x1="2710" y1="1485" x2="2710" y2="1515" stroke="#243240" stroke-width="3"/>
    <text x="2490" y="1547" font-family="Helvetica Neue, Arial, sans-serif" font-size="24" fill="#243240">0</text>
    <text x="2587" y="1547" font-family="Helvetica Neue, Arial, sans-serif" font-size="24" fill="#243240">25</text>
    <text x="2695" y="1547" font-family="Helvetica Neue, Arial, sans-serif" font-size="24" fill="#243240">50 km</text>
  </g>
  
    <path d="M 1718 1160 L 1940 1063 L 2250 1060 L 2510 905 L 2730 815 L 2600 879 L 2390 1115 L 2170 1155 L 1718 1160" fill="none" stroke="#ffffff" stroke-width="22" stroke-linecap="round" stroke-linejoin="round" opacity="0.88"/>
    <path d="M 1718 1160 L 1940 1063 L 2250 1060 L 2510 905 L 2730 815 L 2600 879 L 2390 1115 L 2170 1155 L 1718 1160" fill="none" stroke="#2f557d" stroke-width="14" stroke-linecap="round" stroke-linejoin="round" />
    <path d="M 590 935 L 810 937 L 1130 920 L 1500 949 L 1718 1160 L 1320 920 L 970 925 L 590 935" fill="none" stroke="#ffffff" stroke-width="20" stroke-linecap="round" stroke-linejoin="round" opacity="0.88"/>
    <path d="M 590 935 L 810 937 L 1130 920 L 1500 949 L 1718 1160 L 1320 920 L 970 925 L 590 935" fill="none" stroke="#a5652e" stroke-width="12" stroke-linecap="round" stroke-linejoin="round" />
    <path d="M 280 1330 L 256 985 L 490 945 L 660 955 L 590 935 L 360 1185 L 280 1330" fill="none" stroke="#ffffff" stroke-width="19" stroke-linecap="round" stroke-linejoin="round" opacity="0.88"/>
    <path d="M 280 1330 L 256 985 L 490 945 L 660 955 L 590 935 L 360 1185 L 280 1330" fill="none" stroke="#5e7a4f" stroke-width="11" stroke-linecap="round" stroke-linejoin="round" stroke-dasharray="22 12"/>
    <path d="M 810 937 L 1130 920 L 1500 949 L 1940 1063 L 2290 965 L 2600 879" fill="none" stroke="#ffffff" stroke-width="18" stroke-linecap="round" stroke-linejoin="round" opacity="0.88"/>
    <path d="M 810 937 L 1130 920 L 1500 949 L 1940 1063 L 2290 965 L 2600 879" fill="none" stroke="#7a6a92" stroke-width="10" stroke-linecap="round" stroke-linejoin="round" />
    <path d="M 1718 1160 L 2250 1060 L 2730 815" fill="none" stroke="#ffffff" stroke-width="18" stroke-linecap="round" stroke-linejoin="round" opacity="0.88"/>
    <path d="M 1718 1160 L 2250 1060 L 2730 815" fill="none" stroke="#9f473b" stroke-width="10" stroke-linecap="round" stroke-linejoin="round" stroke-dasharray="16 10"/>
    <rect x="2325" y="330" width="670" height="345" rx="22" fill="#fcfbf7" stroke="#cfd6dc" stroke-width="2.2" filter="url(#shadow)"/><text x="2359" y="386" font-family="Helvetica Neue, Arial, sans-serif" font-size="34" font-weight="700" fill="#243240">Route Portfolio</text><text x="2359" y="438" font-family="Helvetica Neue, Arial, sans-serif" font-size="24" fill="#6a7682">East Loop: repeated coverage of the highest-risk corridor</text><text x="2359" y="476" font-family="Helvetica Neue, Arial, sans-serif" font-size="24" fill="#6a7682">South Loop: reconnects camps with the main waterhole chain</text><text x="2359" y="514" font-family="Helvetica Neue, Arial, sans-serif" font-size="24" fill="#6a7682">West Loop: low-frequency deterrence and gate linkage</text><text x="2359" y="552" font-family="Helvetica Neue, Arial, sans-serif" font-size="24" fill="#6a7682">Rapid Response: direct corridor for dispatch reinforcement</text>
    <g>
    
      <line x1="2395" y1="740" x2="2449" y2="740" stroke="#2f557d" stroke-width="8" stroke-linecap="round"/>
      <text x="2467" y="748" font-family="Helvetica Neue, Arial, sans-serif" font-size="24" fill="#243240">East Loop</text>
    
      <line x1="2395" y1="784" x2="2449" y2="784" stroke="#a5652e" stroke-width="8" stroke-linecap="round"/>
      <text x="2467" y="792" font-family="Helvetica Neue, Arial, sans-serif" font-size="24" fill="#243240">South Loop</text>
    
      <line x1="2395" y1="828" x2="2449" y2="828" stroke="#5e7a4f" stroke-width="8" stroke-linecap="round"/>
      <text x="2467" y="836" font-family="Helvetica Neue, Arial, sans-serif" font-size="24" fill="#243240">West Loop</text>
    
      <line x1="2395" y1="872" x2="2449" y2="872" stroke="#7a6a92" stroke-width="8" stroke-linecap="round"/>
      <text x="2467" y="880" font-family="Helvetica Neue, Arial, sans-serif" font-size="24" fill="#243240">Pan Arc</text>
    
      <line x1="2395" y1="916" x2="2449" y2="916" stroke="#9f473b" stroke-width="8" stroke-linecap="round"/>
      <text x="2467" y="924" font-family="Helvetica Neue, Arial, sans-serif" font-size="24" fill="#243240">Rapid Response</text>
    
  </g>
    <rect x="2325" y="1108" width="670" height="250" rx="22" fill="#fcfbf7" stroke="#cfd6dc" stroke-width="2.2" filter="url(#shadow)"/><text x="2359" y="1164" font-family="Helvetica Neue, Arial, sans-serif" font-size="34" font-weight="700" fill="#243240">Route Logic</text><text x="2359" y="1216" font-family="Helvetica Neue, Arial, sans-serif" font-size="24" fill="#6a7682">East and south loops receive the most recurrent patrol pressure</text><text x="2359" y="1250" font-family="Helvetica Neue, Arial, sans-serif" font-size="24" fill="#6a7682">Rapid-response links shorten reinforcement time to hotspot cells</text><text x="2359" y="1284" font-family="Helvetica Neue, Arial, sans-serif" font-size="24" fill="#6a7682">The legend separates persistent loops from dispatch corridors</text>
  
</svg>