<?xml version="1.0" encoding="UTF-8"?>
<svg xmlns="http://www.w3.org/2000/svg" viewBox="0 0 3200 1800" width="3200" height="1800">
  <defs>
    <linearGradient id="pageBg" x1="0" y1="0" x2="0" y2="1"><stop offset="0%" stop-color="#ede7de"/><stop offset="100%" stop-color="#d9d0c2"/></linearGradient>
    <linearGradient id="headBg" x1="0" y1="0" x2="1" y2="0"><stop offset="0%" stop-color="#16212a"/><stop offset="100%" stop-color="#243746"/></linearGradient>
    <pattern id="paperGrid" width="24" height="24" patternUnits="userSpaceOnUse"><path d="M 24 0 L 0 0 0 24" fill="none" stroke="#ddd3c3" stroke-width="0.8" opacity="0.32"/></pattern>
    <filter id="shadow" x="-20%" y="-20%" width="140%" height="140%"><feDropShadow dx="0" dy="12" stdDeviation="14" flood-color="#8c948f" flood-opacity="0.18"/></filter>
  </defs>
  <rect x="0" y="0" width="3200" height="1800" fill="url(#pageBg)"/>
  <rect x="0" y="0" width="3200" height="1800" fill="url(#paperGrid)" opacity="0.42"/>
  <rect x="54" y="46" width="3092" height="176" rx="24" fill="url(#headBg)" filter="url(#shadow)"/>
  <rect x="54" y="196" width="3092" height="20" fill="#2f666d" opacity="0.95"/>
  
    <rect x="92" y="82" width="270" height="38" rx="10" fill="#f2ecdf" stroke="#2f666d" stroke-opacity="0.15" stroke-width="1.2"/>
    <rect x="102" y="90" width="8" height="22" rx="4" fill="#2f666d" opacity="0.84"/>
    <text x="122" y="108" font-family="Helvetica Neue, Arial, sans-serif" font-size="18" font-weight="700" letter-spacing="1.8" fill="#2f666d">SERVICE CALENDAR</text>
  
  
    <rect x="2926" y="82" width="162" height="38" rx="10" fill="#f2ecdf" stroke="#16212a" stroke-opacity="0.15" stroke-width="1.2"/>
    <rect x="2936" y="90" width="8" height="22" rx="4" fill="#16212a" opacity="0.84"/>
    <text x="2956" y="108" font-family="Helvetica Neue, Arial, sans-serif" font-size="18" font-weight="700" letter-spacing="1.8" fill="#16212a">FIG. 07</text>
  
  <text x="92" y="152" font-family="Helvetica Neue, Arial, sans-serif" font-size="58" font-weight="700" fill="#fcfaf6">Workload-Aware Daily Service Calendar</text>
  <text x="92" y="188" font-family="Helvetica Neue, Arial, sans-serif" font-size="25" fill="#d7dde0">Patrol departures and reserve windows are timed against station volatility and contract cells</text>
  <rect x="92" y="106" width="941.1200000000001" height="6" rx="3" fill="#2f666d"/><rect x="1088.48" y="106" width="442.88" height="6" rx="3" fill="#d5c8ae"/><rect x="1586.72" y="106" width="775.0400000000001" height="6" rx="3" fill="#8796a2" opacity="0.55"/><rect x="92" y="118" width="2103.68" height="2" rx="1" fill="#c5beb1"/>
  
    
    <rect x="58" y="256" width="3084" height="1482" rx="26" fill="#f5f0e8" stroke="#c5beb1" stroke-width="2.2" filter="url(#shadow)"/>
    <rect x="74" y="272" width="3052" height="1450" rx="18" fill="#fcfaf6" stroke="#ddd3c5" stroke-width="1.4"/>
    <rect x="86" y="284" width="22" height="1426" rx="11" fill="#16212a" opacity="0.92"/>
    <rect x="130" y="284" width="2984" height="34" rx="10" fill="#eef1ed"/>
    <line x1="150" y1="332" x2="150" y2="1710" stroke="#efe7da" stroke-width="1"/><line x1="732.8" y1="332" x2="732.8" y2="1710" stroke="#efe7da" stroke-width="1"/><line x1="1315.6" y1="332" x2="1315.6" y2="1710" stroke="#efe7da" stroke-width="1"/><line x1="1898.3999999999999" y1="332" x2="1898.3999999999999" y2="1710" stroke="#efe7da" stroke-width="1"/><line x1="2481.2" y1="332" x2="2481.2" y2="1710" stroke="#efe7da" stroke-width="1"/><line x1="3064" y1="332" x2="3064" y2="1710" stroke="#efe7da" stroke-width="1"/>
  
    <circle cx="1210" cy="970" r="506" fill="#f8f3ea" stroke="#c5beb1" stroke-width="2" filter="url(#shadow)"/>
    <circle cx="1210" cy="970" r="450" fill="#ffffff" stroke="#c5beb1" stroke-width="2"/>
    <path d="M 1247.476969381493 541.6362798205494 A 430 430 0 0 1 1635.8152695588751 910.1555665871718 L 1536.7884626847183 924.0728766831784 A 330 330 0 0 0 1238.7613951067272 641.255749629724 Z" fill="#26455d" fill-opacity="0.78"/>
    <path d="M 1618.954302006916 1102.8773075812273 A 430 430 0 0 1 1210 1400 L 1210 1300 A 330 330 0 0 0 1523.8486503774006 1071.9756081437326 Z" fill="#996351" fill-opacity="0.78"/>
    <path d="M 1021.5004068806967 1356.4814399086417 A 430 430 0 0 1 805.9321730620593 822.9313383699625 L 899.9014351406502 857.1333527025294 A 330 330 0 0 0 1065.3375215596045 1266.602035278725 Z" fill="#4f6961" fill-opacity="0.78"/>
    <path d="M 1210 666 A 304 304 0 1 1 1210 666 L 1210 750 A 220 220 0 1 0 1210 750 Z" fill="#2f666d" fill-opacity="0.18"/>
    <path d="M 1355.8782577963893 818.9386419288833 A 210 210 0 0 1 1409.7218684219822 905.1064311812611 L 1345.0500253139119 926.1195867987575 A 142 142 0 0 0 1308.6414886051775 867.8537483519116 Z" fill="#a9782e" fill-opacity="0.82"/>
    <path d="M 1058.9386419288833 1115.8782577963893 A 210 210 0 0 1 1008.1350438529531 1027.8838447215699 L 1073.5008391767587 1009.140504526014 A 142 142 0 0 0 1107.8537483519115 1068.6414886051775 Z" fill="#a9782e" fill-opacity="0.82"/>
    <path d="M 1099.1487483155918 906 A 128 128 0 0 1 1183.3873035753268 844.7971071060729 L 1196.2778284060278 905.4422583515689 A 66 66 0 0 0 1152.8423233502272 937 Z" fill="#7e453d" fill-opacity="0.22"/>
    <line x1="1210" y1="534" x2="1210" y2="500" stroke="#16212a" stroke-width="3.2"/><text x="1210" y="477" text-anchor="middle" font-family="Helvetica Neue, Arial, sans-serif" font-size="23" fill="#5d6872">0:00</text><line x1="1322.845103664699" y1="548.8563397379662" x2="1331.6449511981848" y2="516.0148616441379" stroke="#bfc5c6" stroke-width="1.4"/><line x1="1428" y1="592.4129239499848" x2="1445" y2="562.9680602213139" stroke="#bfc5c6" stroke-width="1.4"/><line x1="1518.2985565973347" y1="661.7014434026653" x2="1542.3401871576773" y2="637.6598128423227" stroke="#bfc5c6" stroke-width="1.4"/><text x="1563.553390593274" y="623.4466094067263" text-anchor="middle" font-family="Helvetica Neue, Arial, sans-serif" font-size="23" fill="#5d6872">3:00</text><line x1="1587.5870760500152" y1="752" x2="1617.0319397786861" y2="735" stroke="#bfc5c6" stroke-width="1.4"/><line x1="1631.1436602620338" y1="857.1548963353009" x2="1663.985138355862" y2="848.3550488018152" stroke="#bfc5c6" stroke-width="1.4"/><line x1="1646" y1="970" x2="1680" y2="970" stroke="#16212a" stroke-width="3.2"/><text x="1710" y="977" text-anchor="middle" font-family="Helvetica Neue, Arial, sans-serif" font-size="23" fill="#5d6872">6:00</text><line x1="1631.1436602620338" y1="1082.845103664699" x2="1663.985138355862" y2="1091.6449511981848" stroke="#bfc5c6" stroke-width="1.4"/><line x1="1587.5870760500152" y1="1188" x2="1617.0319397786861" y2="1205" stroke="#bfc5c6" stroke-width="1.4"/><line x1="1518.2985565973347" y1="1278.2985565973347" x2="1542.3401871576773" y2="1302.3401871576773" stroke="#bfc5c6" stroke-width="1.4"/><text x="1563.553390593274" y="1330.5533905932737" text-anchor="middle" font-family="Helvetica Neue, Arial, sans-serif" font-size="23" fill="#5d6872">9:00</text><line x1="1428" y1="1347.5870760500152" x2="1445" y2="1377.0319397786861" stroke="#bfc5c6" stroke-width="1.4"/><line x1="1322.845103664699" y1="1391.1436602620338" x2="1331.6449511981848" y2="1423.985138355862" stroke="#bfc5c6" stroke-width="1.4"/><line x1="1210" y1="1406" x2="1210" y2="1440" stroke="#16212a" stroke-width="3.2"/><text x="1210" y="1477" text-anchor="middle" font-family="Helvetica Neue, Arial, sans-serif" font-size="23" fill="#5d6872">12:00</text><line x1="1097.154896335301" y1="1391.1436602620338" x2="1088.3550488018152" y2="1423.985138355862" stroke="#bfc5c6" stroke-width="1.4"/><line x1="992.0000000000001" y1="1347.5870760500152" x2="975.0000000000001" y2="1377.0319397786861" stroke="#bfc5c6" stroke-width="1.4"/><line x1="901.7014434026653" y1="1278.2985565973347" x2="877.6598128423227" y2="1302.3401871576773" stroke="#bfc5c6" stroke-width="1.4"/><text x="856.4466094067263" y="1330.553390593274" text-anchor="middle" font-family="Helvetica Neue, Arial, sans-serif" font-size="23" fill="#5d6872">15:00</text><line x1="832.4129239499847" y1="1188" x2="802.9680602213139" y2="1205" stroke="#bfc5c6" stroke-width="1.4"/><line x1="788.8563397379662" y1="1082.845103664699" x2="756.0148616441379" y2="1091.6449511981848" stroke="#bfc5c6" stroke-width="1.4"/><line x1="774" y1="970" x2="740" y2="970.0000000000001" stroke="#16212a" stroke-width="3.2"/><text x="710" y="977.0000000000001" text-anchor="middle" font-family="Helvetica Neue, Arial, sans-serif" font-size="23" fill="#5d6872">18:00</text><line x1="788.8563397379662" y1="857.1548963353011" x2="756.0148616441379" y2="848.3550488018154" stroke="#bfc5c6" stroke-width="1.4"/><line x1="832.4129239499848" y1="752" x2="802.9680602213139" y2="735" stroke="#bfc5c6" stroke-width="1.4"/><line x1="901.7014434026653" y1="661.7014434026653" x2="877.6598128423226" y2="637.6598128423227" stroke="#bfc5c6" stroke-width="1.4"/><text x="856.4466094067261" y="623.4466094067263" text-anchor="middle" font-family="Helvetica Neue, Arial, sans-serif" font-size="23" fill="#5d6872">21:00</text><line x1="991.9999999999998" y1="592.4129239499848" x2="974.9999999999998" y2="562.9680602213139" stroke="#bfc5c6" stroke-width="1.4"/><line x1="1097.154896335301" y1="548.8563397379662" x2="1088.3550488018152" y2="516.0148616441379" stroke="#bfc5c6" stroke-width="1.4"/>
    <text x="1210" y="958" text-anchor="middle" font-family="Helvetica Neue, Arial, sans-serif" font-size="40" font-weight="700" fill="#16212a">daily sortie clock</text>
    <text x="1210" y="998" text-anchor="middle" font-family="Helvetica Neue, Arial, sans-serif" font-size="24" fill="#5d6872">outer ring sweep bands - middle ring watch dwell - inner gold reserve windows</text>
    
    <rect x="2020" y="390" width="930" height="282" rx="18" fill="#ffffff" stroke="#c5beb1" stroke-width="1.9" filter="url(#shadow)"/>
    <rect x="2036" y="406" width="10" height="250" rx="5" fill="#2f666d" opacity="0.9"/>
    <rect x="2060" y="408" width="188" height="30" rx="8" fill="#2f666d" fill-opacity="0.12"/>
    <text x="2072" y="444" font-family="Helvetica Neue, Arial, sans-serif" font-size="34" font-weight="700" fill="#16212a">Clock logic</text>
    <text x="2072" y="488" font-family="Helvetica Neue, Arial, sans-serif" font-size="24" fill="#5d6872">05:00-08:00 hinge sweep departure</text><text x="2072" y="522" font-family="Helvetica Neue, Arial, sans-serif" font-size="24" fill="#5d6872">09:00-11:00 sentinel review and watch confirmation</text><text x="2072" y="556" font-family="Helvetica Neue, Arial, sans-serif" font-size="24" fill="#5d6872">11:00-13:00 first reserve window</text><text x="2072" y="590" font-family="Helvetica Neue, Arial, sans-serif" font-size="24" fill="#5d6872">14:00-18:00 southern and western seal rotation</text><text x="2072" y="624" font-family="Helvetica Neue, Arial, sans-serif" font-size="24" fill="#5d6872">19:00-21:00 second reserve window and exception handling</text><text x="2072" y="658" font-family="Helvetica Neue, Arial, sans-serif" font-size="24" fill="#5d6872">late hours held as standby or surge bridge</text>
  
    
    <rect x="2020" y="736" width="930" height="222" rx="18" fill="#ffffff" stroke="#c5beb1" stroke-width="1.9" filter="url(#shadow)"/>
    <rect x="2036" y="752" width="10" height="190" rx="5" fill="#a9782e" opacity="0.9"/>
    <rect x="2060" y="754" width="440" height="30" rx="8" fill="#a9782e" fill-opacity="0.12"/>
    <text x="2072" y="790" font-family="Helvetica Neue, Arial, sans-serif" font-size="34" font-weight="700" fill="#16212a">Why a clock instead of a line</text>
    <text x="2072" y="834" font-family="Helvetica Neue, Arial, sans-serif" font-size="24" fill="#5d6872">This plate emphasizes recurrence and overlap across the full day, which is the queueing issue the model cares about.</text><text x="2072" y="868" font-family="Helvetica Neue, Arial, sans-serif" font-size="24" fill="#5d6872">A straight timeline hides how sweep bands and reserve windows wrap into the next day.</text>
  
    
    <rect x="2060" y="1030" width="186" height="38" rx="10" fill="#dee8f0" stroke="#16212a" stroke-opacity="0.15" stroke-width="1.2"/>
    <rect x="2070" y="1038" width="8" height="22" rx="4" fill="#16212a" opacity="0.84"/>
    <text x="2090" y="1056" font-family="Helvetica Neue, Arial, sans-serif" font-size="18" font-weight="700" letter-spacing="1.8" fill="#16212a">sweep bands</text>
  
    
    <rect x="2268" y="1030" width="188" height="38" rx="10" fill="#dfe9df" stroke="#16212a" stroke-opacity="0.15" stroke-width="1.2"/>
    <rect x="2278" y="1038" width="8" height="22" rx="4" fill="#16212a" opacity="0.84"/>
    <text x="2298" y="1056" font-family="Helvetica Neue, Arial, sans-serif" font-size="18" font-weight="700" letter-spacing="1.8" fill="#16212a">watch dwell</text>
  
    
    <rect x="2484" y="1030" width="232" height="38" rx="10" fill="#efe3c5" stroke="#16212a" stroke-opacity="0.15" stroke-width="1.2"/>
    <rect x="2494" y="1038" width="8" height="22" rx="4" fill="#16212a" opacity="0.84"/>
    <text x="2514" y="1056" font-family="Helvetica Neue, Arial, sans-serif" font-size="18" font-weight="700" letter-spacing="1.8" fill="#16212a">reserve windows</text>
  
    
    <rect x="2740" y="1030" width="150" height="38" rx="10" fill="#f0dfdb" stroke="#16212a" stroke-opacity="0.15" stroke-width="1.2"/>
    <rect x="2750" y="1038" width="8" height="22" rx="4" fill="#16212a" opacity="0.84"/>
    <text x="2770" y="1056" font-family="Helvetica Neue, Arial, sans-serif" font-size="18" font-weight="700" letter-spacing="1.8" fill="#16212a">standby</text>
  
  
</svg>