<?xml version="1.0" encoding="UTF-8"?>
<svg xmlns="http://www.w3.org/2000/svg" viewBox="0 0 3200 1800" width="3200" height="1800">
  <defs>
    <linearGradient id="paperBg" x1="0" y1="0" x2="0" y2="1">
      <stop offset="0%" stop-color="#faf7f0"/>
      <stop offset="100%" stop-color="#f1ece1"/>
    </linearGradient>
    <linearGradient id="headerRule" x1="0" y1="0" x2="1" y2="0">
      <stop offset="0%" stop-color="#3f678e"/>
      <stop offset="35%" stop-color="#5f805d"/>
      <stop offset="68%" stop-color="#b77735"/>
      <stop offset="100%" stop-color="#9f473b"/>
    </linearGradient>
    <filter id="shadow" x="-20%" y="-20%" width="140%" height="140%">
      <feDropShadow dx="0" dy="10" stdDeviation="14" flood-color="#a6afb7" flood-opacity="0.20"/>
    </filter>
    <clipPath id="parkClip" clipPathUnits="userSpaceOnUse">
      <path d="M 285 500 L 530 420 L 1090 400 L 1670 410 L 2270 437 L 2800 469 L 2982 545 L 3000 795 L 2970 1185 L 2830 1350 L 2320 1389 L 1500 1415 L 830 1403 L 428 1337 L 290 1130 L 255 775 Z"/>
    </clipPath>
  </defs>
  <rect x="0" y="0" width="3200" height="1800" fill="url(#paperBg)"/>
  <rect x="68" y="54" width="3064" height="144" rx="28" fill="#ffffff" stroke="#cfd6dc" stroke-width="2" filter="url(#shadow)"/>
  <rect x="98" y="86" width="3004" height="10" rx="5" fill="url(#headerRule)"/>
  <rect x="2942" y="104" width="162" height="48" rx="24" fill="#ece1c5" stroke="#ece1c5" stroke-width="1.5"/>
    <text x="3023" y="136" text-anchor="middle" font-family="Helvetica Neue, Arial, sans-serif" font-size="24" font-weight="700" fill="#243240">FIG. 09</text>
  <text x="104" y="145" font-family="Helvetica Neue, Arial, sans-serif" font-size="56" font-weight="700" fill="#243240">Robustness Distribution under Strategy Stress</text>
  <text x="104" y="184" font-family="Helvetica Neue, Arial, sans-serif" font-size="28" fill="#6a7682">Kernel-style performance densities with restrained color treatment</text>
  
    <rect x="180" y="330" width="2860" height="1140" rx="22" fill="#ffffff" stroke="#cfd6dc" stroke-width="2.2" filter="url(#shadow)"/><line x1="280" y1="1470" x2="2990" y2="1470" stroke="#d7dbdf" stroke-width="2" stroke-dasharray="6 10"/>
      <text x="256" y="1479" text-anchor="end" font-family="Helvetica Neue, Arial, sans-serif" font-size="25" fill="#6a7682">0</text><line x1="280" y1="1185" x2="2990" y2="1185" stroke="#d7dbdf" stroke-width="2" stroke-dasharray="6 10"/>
      <text x="256" y="1194" text-anchor="end" font-family="Helvetica Neue, Arial, sans-serif" font-size="25" fill="#6a7682">1.2</text><line x1="280" y1="900" x2="2990" y2="900" stroke="#d7dbdf" stroke-width="2" stroke-dasharray="6 10"/>
      <text x="256" y="909" text-anchor="end" font-family="Helvetica Neue, Arial, sans-serif" font-size="25" fill="#6a7682">2.5</text><line x1="280" y1="615" x2="2990" y2="615" stroke="#d7dbdf" stroke-width="2" stroke-dasharray="6 10"/>
      <text x="256" y="624" text-anchor="end" font-family="Helvetica Neue, Arial, sans-serif" font-size="25" fill="#6a7682">3.7</text><line x1="280" y1="330" x2="2990" y2="330" stroke="#d7dbdf" stroke-width="2" stroke-dasharray="6 10"/>
      <text x="256" y="339" text-anchor="end" font-family="Helvetica Neue, Arial, sans-serif" font-size="25" fill="#6a7682">4.9</text><line x1="409.04761904761915" y1="400" x2="409.04761904761915" y2="1400" stroke="#d7dbdf" stroke-width="1.6" stroke-dasharray="6 12"/>
      <text x="409.04761904761915" y="1446" text-anchor="middle" font-family="Helvetica Neue, Arial, sans-serif" font-size="25" fill="#6a7682">0.50</text><line x1="1054.2857142857142" y1="400" x2="1054.2857142857142" y2="1400" stroke="#d7dbdf" stroke-width="1.6" stroke-dasharray="6 12"/>
      <text x="1054.2857142857142" y="1446" text-anchor="middle" font-family="Helvetica Neue, Arial, sans-serif" font-size="25" fill="#6a7682">0.60</text><line x1="1699.5238095238094" y1="400" x2="1699.5238095238094" y2="1400" stroke="#d7dbdf" stroke-width="1.6" stroke-dasharray="6 12"/>
      <text x="1699.5238095238094" y="1446" text-anchor="middle" font-family="Helvetica Neue, Arial, sans-serif" font-size="25" fill="#6a7682">0.70</text><line x1="2344.761904761905" y1="400" x2="2344.761904761905" y2="1400" stroke="#d7dbdf" stroke-width="1.6" stroke-dasharray="6 12"/>
      <text x="2344.761904761905" y="1446" text-anchor="middle" font-family="Helvetica Neue, Arial, sans-serif" font-size="25" fill="#6a7682">0.80</text><line x1="2990.0000000000005" y1="400" x2="2990.0000000000005" y2="1400" stroke="#d7dbdf" stroke-width="1.6" stroke-dasharray="6 12"/>
      <text x="2990.0000000000005" y="1446" text-anchor="middle" font-family="Helvetica Neue, Arial, sans-serif" font-size="25" fill="#6a7682">0.90</text><line x1="280" y1="1400" x2="2990" y2="1400" stroke="#243240" stroke-width="3"/>
    <line x1="280" y1="400" x2="280" y2="1400" stroke="#243240" stroke-width="3"/>
    <text x="1610" y="1465" text-anchor="middle" font-family="Helvetica Neue, Arial, sans-serif" font-size="28" font-weight="700" fill="#243240">Protection index</text>
    <text x="204" y="900" transform="rotate(-90 204 900)" text-anchor="middle" font-family="Helvetica Neue, Arial, sans-serif" font-size="28" font-weight="700" fill="#243240">Density</text>
    
    <path d="M 280 1380 L 280 1380 L 299.2857142857143 1380 L 318.5714285714286 1379.9999999999998 L 337.8571428571429 1379.9999999999998 L 357.1428571428572 1379.9999999999993 L 376.4285714285715 1379.9999999999984 L 395.71428571428584 1379.9999999999964 L 415.0000000000001 1379.999999999992 L 434.28571428571445 1379.999999999982 L 453.5714285714288 1379.9999999999607 L 472.857142857143 1379.9999999999143 L 492.14285714285734 1379.9999999998151 L 511.4285714285717 1379.9999999996053 L 530.714285714286 1379.9999999991655 L 550.0000000000002 1379.999999998254 L 569.2857142857146 1379.9999999963827 L 588.5714285714289 1379.999999992581 L 607.8571428571431 1379.999999984935 L 627.1428571428576 1379.9999999697122 L 646.4285714285718 1379.9999999397135 L 665.714285714286 1379.9999998811938 L 684.9999999999997 1379.9999997681916 L 704.2857142857147 1379.9999995521864 L 723.5714285714282 1379.999999143448 L 742.8571428571433 1379.9999983777632 L 762.1428571428569 1379.9999969577102 L 781.4285714285711 1379.9999943500643 L 800.7142857142856 1379.9999896083307 L 819.9999999999998 1379.9999810685824 L 839.2857142857141 1379.9999658325376 L 858.5714285714284 1379.9999388956 L 877.8571428571427 1379.9998916853012 L 897.142857142857 1379.9998096239312 L 916.4285714285713 1379.999668079477 L 935.7142857142857 1379.9994256576992 L 954.9999999999999 1379.999013111618 L 974.2857142857142 1379.9983150375253 L 993.5714285714286 1379.9971397324862 L 1012.8571428571428 1379.9951697246313 L 1032.1428571428573 1379.9918810117897 L 1051.4285714285713 1379.9864122367935 L 1070.7142857142858 1379.9773550219977 L 1090 1379.962422586086 L 1109.2857142857142 1379.9379349175226 L 1128.5714285714287 1379.8980352396882 L 1147.857142857143 1379.8335257607018 L 1167.1428571428573 1379.7301845949812 L 1186.4285714285716 1379.566407434095 L 1205.7142857142858 1379.310018202737 L 1225 1378.9141276313208 L 1244.2857142857144 1378.3120048131311 L 1263.571428571429 1377.4110805032697 L 1282.8571428571431 1376.0864310305103 L 1302.1428571428573 1374.17439205024 L 1321.4285714285716 1371.4672925920017 L 1340.714285714286 1367.7106236364557 L 1360.0000000000005 1362.6041747792453 L 1379.2857142857147 1355.8086814121762 L 1398.571428571429 1346.9592194917986 L 1417.8571428571431 1335.6858951940285 L 1437.1428571428569 1321.6413019280078 L 1456.4285714285718 1304.5328565502032 L 1475.7142857142853 1284.1566914250693 L 1495.0000000000005 1260.4285748416667 L 1514.285714285714 1233.4067064400033 L 1533.5714285714291 1203.301492595248 L 1552.8571428571427 1170.4687176554005 L 1572.1428571428576 1135.384839469808 L 1591.4285714285713 1098.6061424445893 L 1610.7142857142862 1060.7166380523279 L 1629.9999999999998 1022.2722387625349 L 1649.2857142857142 983.7501956536112 L 1668.5714285714284 945.5126237882498 L 1687.8571428571427 907.7910159712967 L 1707.142857142857 870.6952333634133 L 1726.4285714285713 834.2461867123706 L 1745.7142857142856 798.4271331734768 L 1764.9999999999998 763.2450833741105 L 1784.2857142857144 728.7919308852032 L 1803.5714285714284 695.2949287920374 L 1822.8571428571427 663.1479822483761 L 1842.1428571428573 632.9184643686353 L 1861.4285714285716 605.3282090835744 L 1880.7142857142858 581.2112261312643 L 1900 561.4538530697135 L 1919.2857142857144 546.9250619689042 L 1938.5714285714287 538.4053078656309 L 1957.857142857143 536.5217391304348 L 1977.1428571428573 541.696076983298 L 1996.4285714285716 554.1093998379997 L 2015.7142857142858 573.685828200665 L 2035 600.09502029004 L 2054.2857142857147 632.7716757278149 L 2073.571428571429 670.9490133562432 L 2092.857142857143 713.7024564746629 L 2112.142857142858 759.9994785386045 L 2131.4285714285716 808.7516549265575 L 2150.7142857142853 858.8653413992498 L 2170 909.2879706693238 L 2189.2857142857138 959.0476484533126 L 2208.571428571429 1007.2844741003711 L 2227.857142857142 1053.2727530244363 L 2247.142857142858 1096.433962076717 L 2266.4285714285716 1136.3409364364866 L 2285.7142857142862 1172.7142384217386 L 2305 1205.412025984952 L 2324.2857142857147 1234.4149539936661 L 2343.5714285714284 1259.807718507999 L 2362.857142857143 1281.7588073033278 L 2382.142857142857 1300.4998711893702 L 2401.428571428572 1316.3059078727613 L 2420.714285714286 1329.4771828651396 L 2440.000000000001 1340.323528869404 L 2459.285714285714 1349.1513911921047 L 2478.5714285714294 1356.2537416598877 L 2497.8571428571427 1361.9027806163801 L 2517.142857142858 1366.3451928573145 L 2536.4285714285716 1369.7996201180483 L 2555.714285714286 1372.4559566210883 L 2575 1374.4760585937497 L 2594.285714285714 1375.9954750409715 L 2613.571428571429 1377.1258462165033 L 2632.857142857143 1377.957669356492 L 2652.142857142857 1378.5631905992934 L 2671.4285714285716 1378.9992414177452 L 2690.714285714286 1379.309892828194 L 2710 1379.5288482446488 L 2729.285714285714 1379.6815346831947 L 2748.571428571429 1379.7868818073282 L 2767.857142857143 1379.858799588365 L 2787.1428571428573 1379.9073792152647 L 2806.4285714285716 1379.9398496713056 L 2825.714285714286 1379.9613255088104 L 2845 1379.9753811213443 L 2864.285714285714 1379.9844843854528 L 2883.571428571429 1379.9903188544104 L 2902.857142857143 1379.9940194438002 L 2922.1428571428573 1379.996342254745 L 2941.428571428572 1379.9977851598358 L 2960.7142857142862 1379.9986722130968 L 2960.7142857142862 1380 Z" fill="#3f678e" opacity="0.16"/>
    <path d="M 280 1380 L 299.2857142857143 1380 L 318.5714285714286 1379.9999999999998 L 337.8571428571429 1379.9999999999998 L 357.1428571428572 1379.9999999999993 L 376.4285714285715 1379.9999999999984 L 395.71428571428584 1379.9999999999964 L 415.0000000000001 1379.999999999992 L 434.28571428571445 1379.999999999982 L 453.5714285714288 1379.9999999999607 L 472.857142857143 1379.9999999999143 L 492.14285714285734 1379.9999999998151 L 511.4285714285717 1379.9999999996053 L 530.714285714286 1379.9999999991655 L 550.0000000000002 1379.999999998254 L 569.2857142857146 1379.9999999963827 L 588.5714285714289 1379.999999992581 L 607.8571428571431 1379.999999984935 L 627.1428571428576 1379.9999999697122 L 646.4285714285718 1379.9999999397135 L 665.714285714286 1379.9999998811938 L 684.9999999999997 1379.9999997681916 L 704.2857142857147 1379.9999995521864 L 723.5714285714282 1379.999999143448 L 742.8571428571433 1379.9999983777632 L 762.1428571428569 1379.9999969577102 L 781.4285714285711 1379.9999943500643 L 800.7142857142856 1379.9999896083307 L 819.9999999999998 1379.9999810685824 L 839.2857142857141 1379.9999658325376 L 858.5714285714284 1379.9999388956 L 877.8571428571427 1379.9998916853012 L 897.142857142857 1379.9998096239312 L 916.4285714285713 1379.999668079477 L 935.7142857142857 1379.9994256576992 L 954.9999999999999 1379.999013111618 L 974.2857142857142 1379.9983150375253 L 993.5714285714286 1379.9971397324862 L 1012.8571428571428 1379.9951697246313 L 1032.1428571428573 1379.9918810117897 L 1051.4285714285713 1379.9864122367935 L 1070.7142857142858 1379.9773550219977 L 1090 1379.962422586086 L 1109.2857142857142 1379.9379349175226 L 1128.5714285714287 1379.8980352396882 L 1147.857142857143 1379.8335257607018 L 1167.1428571428573 1379.7301845949812 L 1186.4285714285716 1379.566407434095 L 1205.7142857142858 1379.310018202737 L 1225 1378.9141276313208 L 1244.2857142857144 1378.3120048131311 L 1263.571428571429 1377.4110805032697 L 1282.8571428571431 1376.0864310305103 L 1302.1428571428573 1374.17439205024 L 1321.4285714285716 1371.4672925920017 L 1340.714285714286 1367.7106236364557 L 1360.0000000000005 1362.6041747792453 L 1379.2857142857147 1355.8086814121762 L 1398.571428571429 1346.9592194917986 L 1417.8571428571431 1335.6858951940285 L 1437.1428571428569 1321.6413019280078 L 1456.4285714285718 1304.5328565502032 L 1475.7142857142853 1284.1566914250693 L 1495.0000000000005 1260.4285748416667 L 1514.285714285714 1233.4067064400033 L 1533.5714285714291 1203.301492595248 L 1552.8571428571427 1170.4687176554005 L 1572.1428571428576 1135.384839469808 L 1591.4285714285713 1098.6061424445893 L 1610.7142857142862 1060.7166380523279 L 1629.9999999999998 1022.2722387625349 L 1649.2857142857142 983.7501956536112 L 1668.5714285714284 945.5126237882498 L 1687.8571428571427 907.7910159712967 L 1707.142857142857 870.6952333634133 L 1726.4285714285713 834.2461867123706 L 1745.7142857142856 798.4271331734768 L 1764.9999999999998 763.2450833741105 L 1784.2857142857144 728.7919308852032 L 1803.5714285714284 695.2949287920374 L 1822.8571428571427 663.1479822483761 L 1842.1428571428573 632.9184643686353 L 1861.4285714285716 605.3282090835744 L 1880.7142857142858 581.2112261312643 L 1900 561.4538530697135 L 1919.2857142857144 546.9250619689042 L 1938.5714285714287 538.4053078656309 L 1957.857142857143 536.5217391304348 L 1977.1428571428573 541.696076983298 L 1996.4285714285716 554.1093998379997 L 2015.7142857142858 573.685828200665 L 2035 600.09502029004 L 2054.2857142857147 632.7716757278149 L 2073.571428571429 670.9490133562432 L 2092.857142857143 713.7024564746629 L 2112.142857142858 759.9994785386045 L 2131.4285714285716 808.7516549265575 L 2150.7142857142853 858.8653413992498 L 2170 909.2879706693238 L 2189.2857142857138 959.0476484533126 L 2208.571428571429 1007.2844741003711 L 2227.857142857142 1053.2727530244363 L 2247.142857142858 1096.433962076717 L 2266.4285714285716 1136.3409364364866 L 2285.7142857142862 1172.7142384217386 L 2305 1205.412025984952 L 2324.2857142857147 1234.4149539936661 L 2343.5714285714284 1259.807718507999 L 2362.857142857143 1281.7588073033278 L 2382.142857142857 1300.4998711893702 L 2401.428571428572 1316.3059078727613 L 2420.714285714286 1329.4771828651396 L 2440.000000000001 1340.323528869404 L 2459.285714285714 1349.1513911921047 L 2478.5714285714294 1356.2537416598877 L 2497.8571428571427 1361.9027806163801 L 2517.142857142858 1366.3451928573145 L 2536.4285714285716 1369.7996201180483 L 2555.714285714286 1372.4559566210883 L 2575 1374.4760585937497 L 2594.285714285714 1375.9954750409715 L 2613.571428571429 1377.1258462165033 L 2632.857142857143 1377.957669356492 L 2652.142857142857 1378.5631905992934 L 2671.4285714285716 1378.9992414177452 L 2690.714285714286 1379.309892828194 L 2710 1379.5288482446488 L 2729.285714285714 1379.6815346831947 L 2748.571428571429 1379.7868818073282 L 2767.857142857143 1379.858799588365 L 2787.1428571428573 1379.9073792152647 L 2806.4285714285716 1379.9398496713056 L 2825.714285714286 1379.9613255088104 L 2845 1379.9753811213443 L 2864.285714285714 1379.9844843854528 L 2883.571428571429 1379.9903188544104 L 2902.857142857143 1379.9940194438002 L 2922.1428571428573 1379.996342254745 L 2941.428571428572 1379.9977851598358 L 2960.7142857142862 1379.9986722130968" fill="none" stroke="#3f678e" stroke-width="8" stroke-linecap="round"/>
    
    <path d="M 280 1380 L 280 1379.8142040911594 L 299.2857142857143 1379.7404006326726 L 318.5714285714286 1379.6397904865328 L 337.8571428571429 1379.5036468368337 L 357.1428571428572 1379.3207799848492 L 376.4285714285715 1379.0769733879226 L 395.71428571428584 1378.7543327803296 L 415.0000000000001 1378.330548081825 L 434.28571428571445 1377.778072617627 L 453.5714285714288 1377.063230420771 L 472.857142857143 1376.1452701165445 L 492.14285714285734 1374.9753930512813 L 511.4285714285717 1373.4957937460865 L 530.714285714286 1371.6387620937237 L 550.0000000000002 1369.3259084574818 L 569.2857142857146 1366.4675842656989 L 588.5714285714289 1362.962580926497 L 607.8571428571431 1358.6981978472568 L 627.1428571428576 1353.5507748398152 L 646.4285714285718 1347.3867839738195 L 665.714285714286 1340.064569787349 L 684.9999999999997 1331.43681359944 L 704.2857142857147 1321.3537766875986 L 723.5714285714282 1309.6673478928521 L 742.8571428571433 1296.2358839258532 L 762.1428571428569 1280.9297860420595 L 781.4285714285711 1263.63770632006 L 800.7142857142856 1244.2732227440672 L 819.9999999999998 1222.7817675921701 L 839.2857142857141 1199.1475417937504 L 858.5714285714284 1173.4001028808284 L 877.8571428571427 1145.620280014362 L 897.142857142857 1115.945050258749 L 916.4285714285713 1084.5710092462186 L 935.7142857142857 1051.7560892052923 L 954.9999999999999 1017.8192194387636 L 974.2857142857142 983.1376887181802 L 993.5714285714286 948.1420541396465 L 1012.8571428571428 913.3085436169897 L 1032.1428571428573 879.1490148135997 L 1051.4285714285713 846.1986562644826 L 1070.7142857142858 815.0017403722588 L 1090 786.0958563715593 L 1109.2857142857142 759.9951580997032 L 1128.5714285714287 737.1732511329183 L 1147.857142857143 718.0464122435587 L 1167.1428571428573 702.9578779725197 L 1186.4285714285716 692.1639559843451 L 1205.7142857142858 685.822700724881 L 1225 683.9858514526447 L 1244.2857142857144 686.5946529719793 L 1263.571428571429 693.4800634953631 L 1282.8571428571431 704.3676956862369 L 1302.1428571428573 718.8876324623732 L 1321.4285714285716 736.5890075491427 L 1340.714285714286 756.9589460661803 L 1360.0000000000005 779.4451341464679 L 1379.2857142857147 803.4809496950595 L 1398.571428571429 828.5117698262752 L 1417.8571428571431 854.0208136147475 L 1437.1428571428569 879.5527252905131 L 1456.4285714285718 904.7330946434834 L 1475.7142857142853 929.2822799161534 L 1495.0000000000005 953.0222572950449 L 1514.285714285714 975.8757585997237 L 1533.5714285714291 997.8576346910579 L 1552.8571428571427 1019.0591290494353 L 1572.1428571428576 1039.6264761027912 L 1591.4285714285713 1059.735855843386 L 1610.7142857142862 1079.5671502435407 L 1629.9999999999998 1099.2790904411308 L 1649.2857142857142 1118.9882246248603 L 1668.5714285714284 1138.753686358916 L 1687.8571428571427 1158.569056843512 L 1707.142857142857 1178.3617836211372 L 1726.4285714285713 1197.9997557145134 L 1745.7142857142856 1217.3038577575367 L 1764.9999999999998 1236.0647343601756 L 1784.2857142857144 1254.061660143584 L 1803.5714285714284 1271.0813585437447 L 1822.8571428571427 1286.9348279889653 L 1842.1428571428573 1301.4706638483358 L 1861.4285714285716 1314.583928926309 L 1880.7142857142858 1326.2202336586668 L 1900 1336.3752536131599 L 1919.2857142857144 1345.0903680440388 L 1938.5714285714287 1352.4454065282405 L 1957.857142857143 1358.5496270600868 L 1977.1428571428573 1363.5320303362148 L 1996.4285714285716 1367.5319728402715 L 2015.7142857142858 1370.6908183441615 L 2035 1373.145108604342 L 2054.2857142857147 1375.021479510137 L 2073.571428571429 1376.4333291281616 L 2092.857142857143 1377.479077395924 L 2112.142857142858 1378.2417503225313 L 2131.4285714285716 1378.789571434107 L 2150.7142857142853 1379.1772401747521 L 2170 1379.4476079455853 L 2189.2857142857138 1379.6335137780552 L 2208.571428571429 1379.759601172584 L 2227.857142857142 1379.8439960259948 L 2247.142857142858 1379.899776631977 L 2266.4285714285716 1379.9362072572048 L 2285.7142857142862 1379.9597359642398 L 2305 1379.974776035547 L 2324.2857142857147 1379.9843003702847 L 2343.5714285714284 1379.9902817574628 L 2362.857142857143 1379.9940110934688 L 2382.142857142857 1379.9963222122115 L 2401.428571428572 1379.997747412831 L 2420.714285714286 1379.9986229557135 L 2440.000000000001 1379.9991593337004 L 2459.285714285714 1379.9994873060086 L 2478.5714285714294 1379.9996876018351 L 2497.8571428571427 1379.9998098298834 L 2517.142857142858 1379.9998843756416 L 2536.4285714285716 1379.9999298129399 L 2555.714285714286 1379.9999574843305 L 2575 1379.9999743147505 L 2594.285714285714 1379.9999845327986 L 2613.571428571429 1379.9999907212632 L 2632.857142857143 1379.9999944577412 L 2652.142857142857 1379.999996705425 L 2671.4285714285716 1379.9999980517443 L 2690.714285714286 1379.9999988542972 L 2710 1379.999999330195 L 2729.285714285714 1379.999999610803 L 2748.571428571429 1379.9999997752757 L 2767.857142857143 1379.9999998710794 L 2787.1428571428573 1379.9999999265258 L 2806.4285714285716 1379.9999999584047 L 2825.714285714286 1379.9999999766103 L 2845 1379.999999986937 L 2864.285714285714 1379.999999992754 L 2883.571428571429 1379.9999999960082 L 2902.857142857143 1379.999999997816 L 2922.1428571428573 1379.9999999988133 L 2941.428571428572 1379.9999999993597 L 2960.7142857142862 1379.999999999657 L 2960.7142857142862 1380 Z" fill="#b77735" opacity="0.16"/>
    <path d="M 280 1379.8142040911594 L 299.2857142857143 1379.7404006326726 L 318.5714285714286 1379.6397904865328 L 337.8571428571429 1379.5036468368337 L 357.1428571428572 1379.3207799848492 L 376.4285714285715 1379.0769733879226 L 395.71428571428584 1378.7543327803296 L 415.0000000000001 1378.330548081825 L 434.28571428571445 1377.778072617627 L 453.5714285714288 1377.063230420771 L 472.857142857143 1376.1452701165445 L 492.14285714285734 1374.9753930512813 L 511.4285714285717 1373.4957937460865 L 530.714285714286 1371.6387620937237 L 550.0000000000002 1369.3259084574818 L 569.2857142857146 1366.4675842656989 L 588.5714285714289 1362.962580926497 L 607.8571428571431 1358.6981978472568 L 627.1428571428576 1353.5507748398152 L 646.4285714285718 1347.3867839738195 L 665.714285714286 1340.064569787349 L 684.9999999999997 1331.43681359944 L 704.2857142857147 1321.3537766875986 L 723.5714285714282 1309.6673478928521 L 742.8571428571433 1296.2358839258532 L 762.1428571428569 1280.9297860420595 L 781.4285714285711 1263.63770632006 L 800.7142857142856 1244.2732227440672 L 819.9999999999998 1222.7817675921701 L 839.2857142857141 1199.1475417937504 L 858.5714285714284 1173.4001028808284 L 877.8571428571427 1145.620280014362 L 897.142857142857 1115.945050258749 L 916.4285714285713 1084.5710092462186 L 935.7142857142857 1051.7560892052923 L 954.9999999999999 1017.8192194387636 L 974.2857142857142 983.1376887181802 L 993.5714285714286 948.1420541396465 L 1012.8571428571428 913.3085436169897 L 1032.1428571428573 879.1490148135997 L 1051.4285714285713 846.1986562644826 L 1070.7142857142858 815.0017403722588 L 1090 786.0958563715593 L 1109.2857142857142 759.9951580997032 L 1128.5714285714287 737.1732511329183 L 1147.857142857143 718.0464122435587 L 1167.1428571428573 702.9578779725197 L 1186.4285714285716 692.1639559843451 L 1205.7142857142858 685.822700724881 L 1225 683.9858514526447 L 1244.2857142857144 686.5946529719793 L 1263.571428571429 693.4800634953631 L 1282.8571428571431 704.3676956862369 L 1302.1428571428573 718.8876324623732 L 1321.4285714285716 736.5890075491427 L 1340.714285714286 756.9589460661803 L 1360.0000000000005 779.4451341464679 L 1379.2857142857147 803.4809496950595 L 1398.571428571429 828.5117698262752 L 1417.8571428571431 854.0208136147475 L 1437.1428571428569 879.5527252905131 L 1456.4285714285718 904.7330946434834 L 1475.7142857142853 929.2822799161534 L 1495.0000000000005 953.0222572950449 L 1514.285714285714 975.8757585997237 L 1533.5714285714291 997.8576346910579 L 1552.8571428571427 1019.0591290494353 L 1572.1428571428576 1039.6264761027912 L 1591.4285714285713 1059.735855843386 L 1610.7142857142862 1079.5671502435407 L 1629.9999999999998 1099.2790904411308 L 1649.2857142857142 1118.9882246248603 L 1668.5714285714284 1138.753686358916 L 1687.8571428571427 1158.569056843512 L 1707.142857142857 1178.3617836211372 L 1726.4285714285713 1197.9997557145134 L 1745.7142857142856 1217.3038577575367 L 1764.9999999999998 1236.0647343601756 L 1784.2857142857144 1254.061660143584 L 1803.5714285714284 1271.0813585437447 L 1822.8571428571427 1286.9348279889653 L 1842.1428571428573 1301.4706638483358 L 1861.4285714285716 1314.583928926309 L 1880.7142857142858 1326.2202336586668 L 1900 1336.3752536131599 L 1919.2857142857144 1345.0903680440388 L 1938.5714285714287 1352.4454065282405 L 1957.857142857143 1358.5496270600868 L 1977.1428571428573 1363.5320303362148 L 1996.4285714285716 1367.5319728402715 L 2015.7142857142858 1370.6908183441615 L 2035 1373.145108604342 L 2054.2857142857147 1375.021479510137 L 2073.571428571429 1376.4333291281616 L 2092.857142857143 1377.479077395924 L 2112.142857142858 1378.2417503225313 L 2131.4285714285716 1378.789571434107 L 2150.7142857142853 1379.1772401747521 L 2170 1379.4476079455853 L 2189.2857142857138 1379.6335137780552 L 2208.571428571429 1379.759601172584 L 2227.857142857142 1379.8439960259948 L 2247.142857142858 1379.899776631977 L 2266.4285714285716 1379.9362072572048 L 2285.7142857142862 1379.9597359642398 L 2305 1379.974776035547 L 2324.2857142857147 1379.9843003702847 L 2343.5714285714284 1379.9902817574628 L 2362.857142857143 1379.9940110934688 L 2382.142857142857 1379.9963222122115 L 2401.428571428572 1379.997747412831 L 2420.714285714286 1379.9986229557135 L 2440.000000000001 1379.9991593337004 L 2459.285714285714 1379.9994873060086 L 2478.5714285714294 1379.9996876018351 L 2497.8571428571427 1379.9998098298834 L 2517.142857142858 1379.9998843756416 L 2536.4285714285716 1379.9999298129399 L 2555.714285714286 1379.9999574843305 L 2575 1379.9999743147505 L 2594.285714285714 1379.9999845327986 L 2613.571428571429 1379.9999907212632 L 2632.857142857143 1379.9999944577412 L 2652.142857142857 1379.999996705425 L 2671.4285714285716 1379.9999980517443 L 2690.714285714286 1379.9999988542972 L 2710 1379.999999330195 L 2729.285714285714 1379.999999610803 L 2748.571428571429 1379.9999997752757 L 2767.857142857143 1379.9999998710794 L 2787.1428571428573 1379.9999999265258 L 2806.4285714285716 1379.9999999584047 L 2825.714285714286 1379.9999999766103 L 2845 1379.999999986937 L 2864.285714285714 1379.999999992754 L 2883.571428571429 1379.9999999960082 L 2902.857142857143 1379.999999997816 L 2922.1428571428573 1379.9999999988133 L 2941.428571428572 1379.9999999993597 L 2960.7142857142862 1379.999999999657" fill="none" stroke="#b77735" stroke-width="8" stroke-linecap="round"/>
    
    <path d="M 280 1380 L 280 1376.8815389480123 L 299.2857142857143 1375.8016024832727 L 318.5714285714286 1374.397140302526 L 337.8571428571429 1372.5882818313614 L 357.1428571428572 1370.2812366982678 L 376.4285714285715 1367.36759409147 L 395.71428571428584 1363.7241342868979 L 415.0000000000001 1359.2133222737586 L 434.28571428571445 1353.6846574825813 L 453.5714285714288 1346.9770451064626 L 472.857142857143 1338.9223304788447 L 492.14285714285734 1329.350096199434 L 511.4285714285717 1318.0937610748292 L 530.714285714286 1304.9979408940014 L 550.0000000000002 1289.926935911631 L 569.2857142857146 1272.7741030884024 L 588.5714285714289 1253.4717591843923 L 607.8571428571431 1232.0011521692627 L 627.1428571428576 1208.4019429611094 L 646.4285714285718 1182.780567748594 L 665.714285714286 1155.3168132772494 L 684.9999999999997 1126.2679422356284 L 704.2857142857147 1095.9697594242248 L 723.5714285714282 1064.8341143061223 L 742.8571428571433 1033.342490094789 L 762.1428571428569 1002.0355274192799 L 781.4285714285711 971.4985611848653 L 800.7142857142856 942.3434983969121 L 819.9999999999998 915.1876161756688 L 839.2857142857141 890.6300962390198 L 858.5714285714284 869.2273193230817 L 877.8571428571427 851.4681076118338 L 897.142857142857 837.7502160141232 L 916.4285714285713 828.3594281708607 L 935.7142857142857 823.452606739298 L 954.9999999999999 823.0459764809442 L 974.2857142857142 827.0097779632022 L 993.5714285714286 835.0702111668492 L 1012.8571428571428 846.8192810403744 L 1032.1428571428573 861.7327500273364 L 1051.4285714285713 879.1958901489519 L 1070.7142857142858 898.5361166662551 L 1090 919.0609051190008 L 1109.2857142857142 940.0986993709623 L 1128.5714285714287 961.0398944084865 L 1147.857142857143 981.3745304863496 L 1167.1428571428573 1000.7231785388317 L 1186.4285714285716 1018.8577291564261 L 1205.7142857142858 1035.7094759971005 L 1225 1051.3630007961356 L 1244.2857142857144 1066.0358321566682 L 1263.571428571429 1080.045494897679 L 1282.8571428571431 1093.7671606796998 L 1302.1428571428573 1107.5863991742253 L 1321.4285714285716 1121.8522808704151 L 1340.714285714286 1136.8361390375026 L 1360.0000000000005 1152.7006119938455 L 1379.2857142857147 1169.4822393126149 L 1398.571428571429 1187.0890784852784 L 1417.8571428571431 1205.3128279708537 L 1437.1428571428569 1223.8531046832045 L 1456.4285714285718 1242.3501138548527 L 1475.7142857142853 1260.421166739376 L 1495.0000000000005 1277.6964268764525 L 1514.285714285714 1293.8498508692817 L 1533.5714285714291 1308.6223779355682 L 1552.8571428571427 1321.8357874486358 L 1572.1428571428576 1333.3970390275147 L 1591.4285714285713 1343.2941173919312 L 1610.7142857142862 1351.585270342097 L 1629.9999999999998 1358.3839812718015 L 1649.2857142857142 1363.8420671156907 L 1668.5714285714284 1368.1330124399913 L 1687.8571428571427 1371.4371526701316 L 1707.142857142857 1373.9297266154365 L 1726.4285714285713 1375.7722393414301 L 1745.7142857142856 1377.1070906684952 L 1764.9999999999998 1378.055076244074 L 1784.2857142857144 1378.715167810507 L 1803.5714285714284 1379.1659116339756 L 1822.8571428571427 1379.467818016194 L 1842.1428571428573 1379.6662135942056 L 1861.4285714285716 1379.7941571307424 L 1880.7142857142858 1379.8751512147976 L 1900 1379.925498380651 L 1919.2857142857144 1379.9562411240831 L 1938.5714285714287 1379.9746887931847 L 1957.857142857143 1379.9855728262055 L 1977.1428571428573 1379.99189033734 L 1996.4285714285716 1379.9955004170665 L 2015.7142857142858 1379.99753308451 L 2035 1379.9986619053575 L 2054.2857142857147 1379.9992809148487 L 2073.571428571429 1379.9996165494758 L 2092.857142857143 1379.9997967666186 L 2112.142857142858 1379.99989275515 L 2131.4285714285716 1379.9999435621098 L 2150.7142857142853 1379.9999703362537 L 2170 1379.9999844090808 L 2189.2857142857138 1379.9999917988102 L 2208.571428571429 1379.9999956806053 L 2227.857142857142 1379.9999977222885 L 2247.142857142858 1379.9999987979631 L 2266.4285714285716 1379.9999993656138 L 2285.7142857142862 1379.9999996655079 L 2305 1379.9999998239864 L 2324.2857142857147 1379.9999999076663 L 2343.5714285714284 1379.9999999517631 L 2362.857142857143 1379.9999999749275 L 2382.142857142857 1379.9999999870442 L 2401.428571428572 1379.999999993349 L 2420.714285714286 1379.9999999966096 L 2440.000000000001 1379.999999998285 L 2459.285714285714 1379.9999999991392 L 2478.5714285714294 1379.9999999995714 L 2497.8571428571427 1379.9999999997883 L 2517.142857142858 1379.9999999998963 L 2536.4285714285716 1379.9999999999498 L 2555.714285714286 1379.999999999976 L 2575 1379.9999999999884 L 2594.285714285714 1379.9999999999945 L 2613.571428571429 1379.9999999999975 L 2632.857142857143 1379.9999999999989 L 2652.142857142857 1379.9999999999995 L 2671.4285714285716 1379.9999999999998 L 2690.714285714286 1380 L 2710 1380 L 2729.285714285714 1380 L 2748.571428571429 1380 L 2767.857142857143 1380 L 2787.1428571428573 1380 L 2806.4285714285716 1380 L 2825.714285714286 1380 L 2845 1380 L 2864.285714285714 1380 L 2883.571428571429 1380 L 2902.857142857143 1380 L 2922.1428571428573 1380 L 2941.428571428572 1380 L 2960.7142857142862 1380 L 2960.7142857142862 1380 Z" fill="#9f473b" opacity="0.16"/>
    <path d="M 280 1376.8815389480123 L 299.2857142857143 1375.8016024832727 L 318.5714285714286 1374.397140302526 L 337.8571428571429 1372.5882818313614 L 357.1428571428572 1370.2812366982678 L 376.4285714285715 1367.36759409147 L 395.71428571428584 1363.7241342868979 L 415.0000000000001 1359.2133222737586 L 434.28571428571445 1353.6846574825813 L 453.5714285714288 1346.9770451064626 L 472.857142857143 1338.9223304788447 L 492.14285714285734 1329.350096199434 L 511.4285714285717 1318.0937610748292 L 530.714285714286 1304.9979408940014 L 550.0000000000002 1289.926935911631 L 569.2857142857146 1272.7741030884024 L 588.5714285714289 1253.4717591843923 L 607.8571428571431 1232.0011521692627 L 627.1428571428576 1208.4019429611094 L 646.4285714285718 1182.780567748594 L 665.714285714286 1155.3168132772494 L 684.9999999999997 1126.2679422356284 L 704.2857142857147 1095.9697594242248 L 723.5714285714282 1064.8341143061223 L 742.8571428571433 1033.342490094789 L 762.1428571428569 1002.0355274192799 L 781.4285714285711 971.4985611848653 L 800.7142857142856 942.3434983969121 L 819.9999999999998 915.1876161756688 L 839.2857142857141 890.6300962390198 L 858.5714285714284 869.2273193230817 L 877.8571428571427 851.4681076118338 L 897.142857142857 837.7502160141232 L 916.4285714285713 828.3594281708607 L 935.7142857142857 823.452606739298 L 954.9999999999999 823.0459764809442 L 974.2857142857142 827.0097779632022 L 993.5714285714286 835.0702111668492 L 1012.8571428571428 846.8192810403744 L 1032.1428571428573 861.7327500273364 L 1051.4285714285713 879.1958901489519 L 1070.7142857142858 898.5361166662551 L 1090 919.0609051190008 L 1109.2857142857142 940.0986993709623 L 1128.5714285714287 961.0398944084865 L 1147.857142857143 981.3745304863496 L 1167.1428571428573 1000.7231785388317 L 1186.4285714285716 1018.8577291564261 L 1205.7142857142858 1035.7094759971005 L 1225 1051.3630007961356 L 1244.2857142857144 1066.0358321566682 L 1263.571428571429 1080.045494897679 L 1282.8571428571431 1093.7671606796998 L 1302.1428571428573 1107.5863991742253 L 1321.4285714285716 1121.8522808704151 L 1340.714285714286 1136.8361390375026 L 1360.0000000000005 1152.7006119938455 L 1379.2857142857147 1169.4822393126149 L 1398.571428571429 1187.0890784852784 L 1417.8571428571431 1205.3128279708537 L 1437.1428571428569 1223.8531046832045 L 1456.4285714285718 1242.3501138548527 L 1475.7142857142853 1260.421166739376 L 1495.0000000000005 1277.6964268764525 L 1514.285714285714 1293.8498508692817 L 1533.5714285714291 1308.6223779355682 L 1552.8571428571427 1321.8357874486358 L 1572.1428571428576 1333.3970390275147 L 1591.4285714285713 1343.2941173919312 L 1610.7142857142862 1351.585270342097 L 1629.9999999999998 1358.3839812718015 L 1649.2857142857142 1363.8420671156907 L 1668.5714285714284 1368.1330124399913 L 1687.8571428571427 1371.4371526701316 L 1707.142857142857 1373.9297266154365 L 1726.4285714285713 1375.7722393414301 L 1745.7142857142856 1377.1070906684952 L 1764.9999999999998 1378.055076244074 L 1784.2857142857144 1378.715167810507 L 1803.5714285714284 1379.1659116339756 L 1822.8571428571427 1379.467818016194 L 1842.1428571428573 1379.6662135942056 L 1861.4285714285716 1379.7941571307424 L 1880.7142857142858 1379.8751512147976 L 1900 1379.925498380651 L 1919.2857142857144 1379.9562411240831 L 1938.5714285714287 1379.9746887931847 L 1957.857142857143 1379.9855728262055 L 1977.1428571428573 1379.99189033734 L 1996.4285714285716 1379.9955004170665 L 2015.7142857142858 1379.99753308451 L 2035 1379.9986619053575 L 2054.2857142857147 1379.9992809148487 L 2073.571428571429 1379.9996165494758 L 2092.857142857143 1379.9997967666186 L 2112.142857142858 1379.99989275515 L 2131.4285714285716 1379.9999435621098 L 2150.7142857142853 1379.9999703362537 L 2170 1379.9999844090808 L 2189.2857142857138 1379.9999917988102 L 2208.571428571429 1379.9999956806053 L 2227.857142857142 1379.9999977222885 L 2247.142857142858 1379.9999987979631 L 2266.4285714285716 1379.9999993656138 L 2285.7142857142862 1379.9999996655079 L 2305 1379.9999998239864 L 2324.2857142857147 1379.9999999076663 L 2343.5714285714284 1379.9999999517631 L 2362.857142857143 1379.9999999749275 L 2382.142857142857 1379.9999999870442 L 2401.428571428572 1379.999999993349 L 2420.714285714286 1379.9999999966096 L 2440.000000000001 1379.999999998285 L 2459.285714285714 1379.9999999991392 L 2478.5714285714294 1379.9999999995714 L 2497.8571428571427 1379.9999999997883 L 2517.142857142858 1379.9999999998963 L 2536.4285714285716 1379.9999999999498 L 2555.714285714286 1379.999999999976 L 2575 1379.9999999999884 L 2594.285714285714 1379.9999999999945 L 2613.571428571429 1379.9999999999975 L 2632.857142857143 1379.9999999999989 L 2652.142857142857 1379.9999999999995 L 2671.4285714285716 1379.9999999999998 L 2690.714285714286 1380 L 2710 1380 L 2729.285714285714 1380 L 2748.571428571429 1380 L 2767.857142857143 1380 L 2787.1428571428573 1380 L 2806.4285714285716 1380 L 2825.714285714286 1380 L 2845 1380 L 2864.285714285714 1380 L 2883.571428571429 1380 L 2902.857142857143 1380 L 2922.1428571428573 1380 L 2941.428571428572 1380 L 2960.7142857142862 1380" fill="none" stroke="#9f473b" stroke-width="8" stroke-linecap="round"/>
    <g>
    
      <line x1="2150" y1="425" x2="2204" y2="425" stroke="#3f678e" stroke-width="8" stroke-linecap="round"/>
      <text x="2222" y="433" font-family="Helvetica Neue, Arial, sans-serif" font-size="24" fill="#243240">Optimized package</text>
    
      <line x1="2150" y1="469" x2="2204" y2="469" stroke="#b77735" stroke-width="8" stroke-linecap="round"/>
      <text x="2222" y="477" font-family="Helvetica Neue, Arial, sans-serif" font-size="24" fill="#243240">Uniform deployment</text>
    
      <line x1="2150" y1="513" x2="2204" y2="513" stroke="#9f473b" stroke-width="8" stroke-linecap="round"/>
      <text x="2222" y="521" font-family="Helvetica Neue, Arial, sans-serif" font-size="24" fill="#243240">Reduced staffing stress</text>
    
  </g>
    <rect x="2125" y="330" width="760" height="90" rx="22" fill="#fcfbf7" stroke="#cfd6dc" stroke-width="2.2" filter="url(#shadow)"/><text x="2159" y="386" font-family="Helvetica Neue, Arial, sans-serif" font-size="34" font-weight="700" fill="#243240">Distribution shift</text><text x="2159" y="438" font-family="Helvetica Neue, Arial, sans-serif" font-size="24" fill="#6a7682">The whole optimized density moves right and thins its low-performance tail</text>
  
</svg>