<?xml version="1.0" encoding="UTF-8"?>
<svg xmlns="http://www.w3.org/2000/svg" viewBox="0 0 3200 1800" width="3200" height="1800">
  <defs>
    <linearGradient id="pageBg" x1="0" y1="0" x2="0" y2="1"><stop offset="0%" stop-color="#f5efe3"/><stop offset="100%" stop-color="#ece2d1"/></linearGradient>
    <pattern id="paperGrain" width="18" height="18" patternUnits="userSpaceOnUse"><circle cx="4" cy="5" r="0.9" fill="#d8d0c0" opacity="0.28"/><circle cx="13" cy="8" r="0.7" fill="#cfc7b7" opacity="0.24"/><circle cx="9" cy="14" r="0.8" fill="#d8d0c0" opacity="0.22"/></pattern>
    <filter id="shadow" x="-20%" y="-20%" width="140%" height="140%"><feDropShadow dx="0" dy="12" stdDeviation="14" flood-color="#8c948f" flood-opacity="0.18"/></filter>
  </defs>
  <rect x="0" y="0" width="3200" height="1800" fill="url(#pageBg)"/>
  <rect x="0" y="0" width="3200" height="1800" fill="url(#paperGrain)" opacity="0.44"/>
  <rect x="54" y="48" width="3092" height="162" rx="32" fill="#fbf8f1" stroke="#bcc4c5" stroke-width="2.2" filter="url(#shadow)"/>
  
    <rect x="92" y="78" width="248" height="42" rx="21" fill="#4f7d78" stroke="#4f7d78" stroke-width="1.2"/>
    <text x="216" y="106" text-anchor="middle" font-family="Helvetica Neue, Arial, sans-serif" font-size="19" font-weight="700" letter-spacing="2" fill="#fbf8f1">COMMAND CYCLE</text>
  
  
    <rect x="2914" y="78" width="174" height="42" rx="21" fill="#efe5cb" stroke="#efe5cb" stroke-width="1.2"/>
    <text x="3001" y="106" text-anchor="middle" font-family="Helvetica Neue, Arial, sans-serif" font-size="19" font-weight="700" letter-spacing="2" fill="#20303d">FIG. 07</text>
  
  <text x="92" y="152" font-family="Helvetica Neue, Arial, sans-serif" font-size="60" font-weight="700" fill="#20303d">Twenty-Four-Hour Operational Dial</text>
  <text x="92" y="189" font-family="Helvetica Neue, Arial, sans-serif" font-size="26" fill="#687682">The daily plan is expressed as a duty cycle with recurring patrol waves, sensor watch, and drone windows</text>
  <rect x="92" y="98" width="2768" height="7" rx="4" fill="#4f7d78"/><rect x="92" y="108" width="1826.88" height="2" rx="1" fill="#bcc4c5"/>
  
    
    <rect x="58" y="256" width="3084" height="1482" rx="34" fill="#fbf8f1" stroke="#bcc4c5" stroke-width="2.3" filter="url(#shadow)"/>
    <rect x="74" y="272" width="3052" height="1450" rx="28" fill="#f8f3ea" stroke="#dad3c4" stroke-width="1.5"/>
  
    <circle cx="1210" cy="970" r="506" fill="#f8f3ea" stroke="#bcc4c5" stroke-width="2" filter="url(#shadow)"/>
    <circle cx="1210" cy="970" r="450" fill="#ffffff" stroke="#bcc4c5" stroke-width="2"/>
    <path d="M 1247.476969381493 541.6362798205494 A 430 430 0 0 1 1635.8152695588751 910.1555665871718 L 1536.7884626847183 924.0728766831784 A 330 330 0 0 0 1238.7613951067272 641.255749629724 Z" fill="#405b74" fill-opacity="0.78"/>
    <path d="M 1618.954302006916 1102.8773075812273 A 430 430 0 0 1 1210 1400 L 1210 1300 A 330 330 0 0 0 1523.8486503774006 1071.9756081437326 Z" fill="#b26a48" fill-opacity="0.78"/>
    <path d="M 1021.5004068806967 1356.4814399086417 A 430 430 0 0 1 805.9321730620593 822.9313383699625 L 899.9014351406502 857.1333527025294 A 330 330 0 0 0 1065.3375215596045 1266.602035278725 Z" fill="#6d8368" fill-opacity="0.78"/>
    <path d="M 1210 666 A 304 304 0 1 1 1210 666 L 1210 750 A 220 220 0 1 0 1210 750 Z" fill="#4f7d78" fill-opacity="0.18"/>
    <path d="M 1355.8782577963893 818.9386419288833 A 210 210 0 0 1 1409.7218684219822 905.1064311812611 L 1345.0500253139119 926.1195867987575 A 142 142 0 0 0 1308.6414886051775 867.8537483519116 Z" fill="#b89443" fill-opacity="0.82"/>
    <path d="M 1058.9386419288833 1115.8782577963893 A 210 210 0 0 1 1008.1350438529531 1027.8838447215699 L 1073.5008391767587 1009.140504526014 A 142 142 0 0 0 1107.8537483519115 1068.6414886051775 Z" fill="#b89443" fill-opacity="0.82"/>
    <path d="M 1099.1487483155918 906 A 128 128 0 0 1 1183.3873035753268 844.7971071060729 L 1196.2778284060278 905.4422583515689 A 66 66 0 0 0 1152.8423233502272 937 Z" fill="#8f4637" fill-opacity="0.22"/>
    <line x1="1210" y1="534" x2="1210" y2="500" stroke="#20303d" stroke-width="3.2"/><text x="1210" y="477" text-anchor="middle" font-family="Helvetica Neue, Arial, sans-serif" font-size="23" fill="#687682">0:00</text><line x1="1322.845103664699" y1="548.8563397379662" x2="1331.6449511981848" y2="516.0148616441379" stroke="#bfc5c6" stroke-width="1.4"/><line x1="1428" y1="592.4129239499848" x2="1445" y2="562.9680602213139" stroke="#bfc5c6" stroke-width="1.4"/><line x1="1518.2985565973347" y1="661.7014434026653" x2="1542.3401871576773" y2="637.6598128423227" stroke="#bfc5c6" stroke-width="1.4"/><text x="1563.553390593274" y="623.4466094067263" text-anchor="middle" font-family="Helvetica Neue, Arial, sans-serif" font-size="23" fill="#687682">3:00</text><line x1="1587.5870760500152" y1="752" x2="1617.0319397786861" y2="735" stroke="#bfc5c6" stroke-width="1.4"/><line x1="1631.1436602620338" y1="857.1548963353009" x2="1663.985138355862" y2="848.3550488018152" stroke="#bfc5c6" stroke-width="1.4"/><line x1="1646" y1="970" x2="1680" y2="970" stroke="#20303d" stroke-width="3.2"/><text x="1710" y="977" text-anchor="middle" font-family="Helvetica Neue, Arial, sans-serif" font-size="23" fill="#687682">6:00</text><line x1="1631.1436602620338" y1="1082.845103664699" x2="1663.985138355862" y2="1091.6449511981848" stroke="#bfc5c6" stroke-width="1.4"/><line x1="1587.5870760500152" y1="1188" x2="1617.0319397786861" y2="1205" stroke="#bfc5c6" stroke-width="1.4"/><line x1="1518.2985565973347" y1="1278.2985565973347" x2="1542.3401871576773" y2="1302.3401871576773" stroke="#bfc5c6" stroke-width="1.4"/><text x="1563.553390593274" y="1330.5533905932737" text-anchor="middle" font-family="Helvetica Neue, Arial, sans-serif" font-size="23" fill="#687682">9:00</text><line x1="1428" y1="1347.5870760500152" x2="1445" y2="1377.0319397786861" stroke="#bfc5c6" stroke-width="1.4"/><line x1="1322.845103664699" y1="1391.1436602620338" x2="1331.6449511981848" y2="1423.985138355862" stroke="#bfc5c6" stroke-width="1.4"/><line x1="1210" y1="1406" x2="1210" y2="1440" stroke="#20303d" stroke-width="3.2"/><text x="1210" y="1477" text-anchor="middle" font-family="Helvetica Neue, Arial, sans-serif" font-size="23" fill="#687682">12:00</text><line x1="1097.154896335301" y1="1391.1436602620338" x2="1088.3550488018152" y2="1423.985138355862" stroke="#bfc5c6" stroke-width="1.4"/><line x1="992.0000000000001" y1="1347.5870760500152" x2="975.0000000000001" y2="1377.0319397786861" stroke="#bfc5c6" stroke-width="1.4"/><line x1="901.7014434026653" y1="1278.2985565973347" x2="877.6598128423227" y2="1302.3401871576773" stroke="#bfc5c6" stroke-width="1.4"/><text x="856.4466094067263" y="1330.553390593274" text-anchor="middle" font-family="Helvetica Neue, Arial, sans-serif" font-size="23" fill="#687682">15:00</text><line x1="832.4129239499847" y1="1188" x2="802.9680602213139" y2="1205" stroke="#bfc5c6" stroke-width="1.4"/><line x1="788.8563397379662" y1="1082.845103664699" x2="756.0148616441379" y2="1091.6449511981848" stroke="#bfc5c6" stroke-width="1.4"/><line x1="774" y1="970" x2="740" y2="970.0000000000001" stroke="#20303d" stroke-width="3.2"/><text x="710" y="977.0000000000001" text-anchor="middle" font-family="Helvetica Neue, Arial, sans-serif" font-size="23" fill="#687682">18:00</text><line x1="788.8563397379662" y1="857.1548963353011" x2="756.0148616441379" y2="848.3550488018154" stroke="#bfc5c6" stroke-width="1.4"/><line x1="832.4129239499848" y1="752" x2="802.9680602213139" y2="735" stroke="#bfc5c6" stroke-width="1.4"/><line x1="901.7014434026653" y1="661.7014434026653" x2="877.6598128423226" y2="637.6598128423227" stroke="#bfc5c6" stroke-width="1.4"/><text x="856.4466094067261" y="623.4466094067263" text-anchor="middle" font-family="Helvetica Neue, Arial, sans-serif" font-size="23" fill="#687682">21:00</text><line x1="991.9999999999998" y1="592.4129239499848" x2="974.9999999999998" y2="562.9680602213139" stroke="#bfc5c6" stroke-width="1.4"/><line x1="1097.154896335301" y1="548.8563397379662" x2="1088.3550488018152" y2="516.0148616441379" stroke="#bfc5c6" stroke-width="1.4"/>
    <text x="1210" y="958" text-anchor="middle" font-family="Helvetica Neue, Arial, sans-serif" font-size="40" font-weight="700" fill="#20303d">daily command cycle</text>
    <text x="1210" y="998" text-anchor="middle" font-family="Helvetica Neue, Arial, sans-serif" font-size="24" fill="#687682">outer ring patrol waves - middle ring sensors - inner gold drone windows</text>
    
    <rect x="2020" y="390" width="930" height="282" rx="24" fill="#ffffff" stroke="#bcc4c5" stroke-width="2" filter="url(#shadow)"/>
    <rect x="2020" y="390" width="930" height="12" rx="24" fill="#4f7d78" opacity="0.92"/>
    <text x="2046" y="448" font-family="Helvetica Neue, Arial, sans-serif" font-size="34" font-weight="700" fill="#20303d">Cycle logic</text>
    <text x="2046" y="496" font-family="Helvetica Neue, Arial, sans-serif" font-size="24" fill="#687682">05:00-08:00 east loop deployment</text><text x="2046" y="530" font-family="Helvetica Neue, Arial, sans-serif" font-size="24" fill="#687682">09:00-11:00 sensor watch and report review</text><text x="2046" y="564" font-family="Helvetica Neue, Arial, sans-serif" font-size="24" fill="#687682">11:00-13:00 first UAV window</text><text x="2046" y="598" font-family="Helvetica Neue, Arial, sans-serif" font-size="24" fill="#687682">14:00-18:00 south and west patrol rotation</text><text x="2046" y="632" font-family="Helvetica Neue, Arial, sans-serif" font-size="24" fill="#687682">19:00-21:00 second UAV window and exception handling</text><text x="2046" y="666" font-family="Helvetica Neue, Arial, sans-serif" font-size="24" fill="#687682">late hours kept as reserve or rapid response</text>
  
    
    <rect x="2020" y="736" width="930" height="222" rx="24" fill="#ffffff" stroke="#bcc4c5" stroke-width="2" filter="url(#shadow)"/>
    <rect x="2020" y="736" width="930" height="12" rx="24" fill="#b89443" opacity="0.92"/>
    <text x="2046" y="794" font-family="Helvetica Neue, Arial, sans-serif" font-size="34" font-weight="700" fill="#20303d">Why a dial instead of a line</text>
    <text x="2046" y="842" font-family="Helvetica Neue, Arial, sans-serif" font-size="24" fill="#687682">This figure emphasizes recurrence and overlap across the full day, which is the operational issue the simulation cares about.</text><text x="2046" y="876" font-family="Helvetica Neue, Arial, sans-serif" font-size="24" fill="#687682">A straight timeline hides how patrol waves and drone windows wrap into the next day.</text>
  
    
    <rect x="2060" y="1030" width="188" height="42" rx="21" fill="#dee8f0" stroke="#dee8f0" stroke-width="1.2"/>
    <text x="2154" y="1058" text-anchor="middle" font-family="Helvetica Neue, Arial, sans-serif" font-size="19" font-weight="700" letter-spacing="2" fill="#20303d">patrol waves</text>
  
    
    <rect x="2268" y="1030" width="194" height="42" rx="21" fill="#dfe9df" stroke="#dfe9df" stroke-width="1.2"/>
    <text x="2365" y="1058" text-anchor="middle" font-family="Helvetica Neue, Arial, sans-serif" font-size="19" font-weight="700" letter-spacing="2" fill="#20303d">sensor watch</text>
  
    
    <rect x="2484" y="1030" width="196" height="42" rx="21" fill="#efe3c5" stroke="#efe3c5" stroke-width="1.2"/>
    <text x="2582" y="1058" text-anchor="middle" font-family="Helvetica Neue, Arial, sans-serif" font-size="19" font-weight="700" letter-spacing="2" fill="#20303d">UAV windows</text>
  
    
    <rect x="2704" y="1030" width="154" height="42" rx="21" fill="#f0dfdb" stroke="#f0dfdb" stroke-width="1.2"/>
    <text x="2781" y="1058" text-anchor="middle" font-family="Helvetica Neue, Arial, sans-serif" font-size="19" font-weight="700" letter-spacing="2" fill="#20303d">reserve</text>
  
  
</svg>