<?xml version="1.0" encoding="UTF-8"?>
<svg xmlns="http://www.w3.org/2000/svg" viewBox="0 0 3200 1800" width="3200" height="1800">
  <defs>
    <linearGradient id="pageBg" x1="0" y1="0" x2="0" y2="1"><stop offset="0%" stop-color="#eef1ee"/><stop offset="100%" stop-color="#dfe6e1"/></linearGradient>
    <pattern id="paperGrain" width="18" height="18" patternUnits="userSpaceOnUse"><circle cx="4" cy="5" r="0.9" fill="#d8d0c0" opacity="0.28"/><circle cx="13" cy="8" r="0.7" fill="#cfc7b7" opacity="0.24"/><circle cx="9" cy="14" r="0.8" fill="#d8d0c0" opacity="0.22"/></pattern>
    <filter id="shadow" x="-20%" y="-20%" width="140%" height="140%"><feDropShadow dx="0" dy="12" stdDeviation="14" flood-color="#8c948f" flood-opacity="0.18"/></filter>
  </defs>
  <rect x="0" y="0" width="3200" height="1800" fill="url(#pageBg)"/>
  <rect x="0" y="0" width="3200" height="1800" fill="url(#paperGrain)" opacity="0.44"/>
  <rect x="54" y="48" width="3092" height="162" rx="32" fill="#f7f9f6" stroke="#bcc8c3" stroke-width="2.2" filter="url(#shadow)"/>
  
    <rect x="92" y="78" width="248" height="42" rx="21" fill="#567568" stroke="#567568" stroke-width="1.2"/>
    <text x="216" y="106" text-anchor="middle" font-family="Helvetica Neue, Arial, sans-serif" font-size="19" font-weight="700" letter-spacing="2" fill="#f7f9f6">DIGITAL TWIN</text>
  
  
    <rect x="2914" y="78" width="174" height="42" rx="21" fill="#efe5cb" stroke="#efe5cb" stroke-width="1.2"/>
    <text x="3001" y="106" text-anchor="middle" font-family="Helvetica Neue, Arial, sans-serif" font-size="19" font-weight="700" letter-spacing="2" fill="#1f2d36">FIG. 02</text>
  
  <text x="92" y="152" font-family="Helvetica Neue, Arial, sans-serif" font-size="60" font-weight="700" fill="#1f2d36">Etosha Digital Twin and Command Grid</text>
  <text x="92" y="189" font-family="Helvetica Neue, Arial, sans-serif" font-size="26" fill="#60717d">The park is encoded as a corridor-aware control mesh with station geometry and mobility structure</text>
  <rect x="92" y="98" width="2768" height="7" rx="4" fill="#567568"/><rect x="92" y="108" width="1826.88" height="2" rx="1" fill="#bcc8c3"/>
  
    <rect x="58" y="256" width="3084" height="1482" rx="34" fill="#f7f9f6" stroke="#bcc8c3" stroke-width="2.3" filter="url(#shadow)"/>
    <rect x="74" y="272" width="3052" height="1450" rx="28" fill="#f8f3ea" stroke="#dad3c4" stroke-width="1.5"/>
  <linearGradient id="legend_2480_470_260_30" x1="0" y1="0" x2="1" y2="0"><stop offset="0%" stop-color="rgb(247,241,223)"/><stop offset="25%" stop-color="rgb(227,208,162)"/><stop offset="50%" stop-color="rgb(205,164,105)"/><stop offset="75%" stop-color="rgb(176,113,71)"/><stop offset="100%" stop-color="rgb(143,70,55)"/></linearGradient>
    <rect x="88" y="242" width="3024" height="1298" rx="28" fill="#efe8db" stroke="#bcc8c3" stroke-width="1.6"/>
    <path d="M 285 500 L 530 420 L 1090 400 L 1670 410 L 2270 437 L 2800 469 L 2982 545 L 3000 795 L 2970 1185 L 2830 1350 L 2320 1389 L 1500 1415 L 830 1403 L 428 1337 L 290 1130 L 255 775 Z" fill="#d7ccb2" stroke="none"/>
    <path d="M 320 775 L 600 675 L 970 645 L 1210 715 L 1090 865 L 730 915 L 420 885 Z" fill="#cfd6be" opacity="0.88"/>
    <path d="M 870 1125 L 1250 1055 L 1650 1025 L 1870 1155 L 1620 1310 L 1160 1270 L 930 1195 Z" fill="#c9d1ba" opacity="0.88"/>
    <path d="M 2120 905 L 2430 815 L 2830 775 L 2920 985 L 2620 1165 L 2250 1115 L 2100 1015 Z" fill="#ced7c1" opacity="0.88"/>
    <path d="M 1210 565 L 1420 495 L 1710 460 L 2055 480 L 2340 555 L 2470 650 L 2390 775 L 2080 820 L 1700 803 L 1415 750 L 1240 665 Z" fill="#e7dfcf" opacity="0.96"/>
    <path d="M 280 1255 C 810 1135 1610 1165 2930 875" fill="none" stroke="#d9cfbb" stroke-width="5" opacity="0.55" stroke-dasharray="16 12"/><path d="M 300 1115 C 890 1015 1630 985 2900 800" fill="none" stroke="#e4dbc9" stroke-width="3.4" opacity="0.48" stroke-dasharray="8 14"/><path d="M 360 935 C 930 865 1620 795 2880 695" fill="none" stroke="#d9cfbb" stroke-width="3.4" opacity="0.48" stroke-dasharray="16 12"/><path d="M 410 735 C 970 685 1690 615 2830 585" fill="none" stroke="#e4dbc9" stroke-width="3.4" opacity="0.48" stroke-dasharray="8 14"/>
    <path d="M 310 1075 C 890 955 1590 985 2870 790" fill="none" stroke="#cbb07d" stroke-width="68" opacity="0.55" stroke-linecap="round"/><path d="M 310 1280 C 950 1195 1650 1150 2900 905" fill="none" stroke="#cbb07d" stroke-width="38" opacity="0.36" stroke-linecap="round"/>
    <path d="M 285 500 L 530 420 L 1090 400 L 1670 410 L 2270 437 L 2800 469 L 2982 545 L 3000 795 L 2970 1185 L 2830 1350 L 2320 1389 L 1500 1415 L 830 1403 L 428 1337 L 290 1130 L 255 775 Z" fill="none" stroke="#1f2d36" stroke-width="4.2"/>
    <path d="M 280 1330 L 360 1185 L 590 935 L 870 930 L 1140 923 L 1500 947 L 1718 1160 L 1930 1075 L 2250 1060 L 2475 950 L 2730 815 L 2930 840" fill="none" stroke="#efe7da" stroke-width="16" stroke-linecap="round" stroke-linejoin="round"/><path d="M 280 1330 L 360 1185 L 590 935 L 870 930 L 1140 923 L 1500 947 L 1718 1160 L 1930 1075 L 2250 1060 L 2475 950 L 2730 815 L 2930 840" fill="none" stroke="#826f61" stroke-width="6.5" stroke-linecap="round" stroke-linejoin="round" />
    <path d="M 440 1025 L 690 975 L 970 930 L 1290 910 L 1600 925 L 1880 980 L 2180 963 L 2470 920 L 2785 820" fill="none" stroke="#efe7da" stroke-width="14" stroke-linecap="round" stroke-linejoin="round"/><path d="M 440 1025 L 690 975 L 970 930 L 1290 910 L 1600 925 L 1880 980 L 2180 963 L 2470 920 L 2785 820" fill="none" stroke="#978474" stroke-width="5.5" stroke-linecap="round" stroke-linejoin="round" />
    <path d="M 2440 325 L 2490 440 L 2590 685 L 2730 815" fill="none" stroke="#efe7da" stroke-width="14" stroke-linecap="round" stroke-linejoin="round"/><path d="M 2440 325 L 2490 440 L 2590 685 L 2730 815" fill="none" stroke="#978474" stroke-width="5.5" stroke-linecap="round" stroke-linejoin="round" stroke-dasharray="14 10"/>
    <path d="M 280 1330 L 275 1135 L 256 985" fill="none" stroke="#efe7da" stroke-width="14" stroke-linecap="round" stroke-linejoin="round"/><path d="M 280 1330 L 275 1135 L 256 985" fill="none" stroke="#978474" stroke-width="5.5" stroke-linecap="round" stroke-linejoin="round" />
    <circle cx="490" cy="945" r="7" fill="#487b9c" fill-opacity="0.92" stroke="#f7f9f6" stroke-width="2"/><circle cx="660" cy="955" r="7" fill="#487b9c" fill-opacity="0.92" stroke="#f7f9f6" stroke-width="2"/><circle cx="810" cy="937" r="7" fill="#487b9c" fill-opacity="0.92" stroke="#f7f9f6" stroke-width="2"/><circle cx="970" cy="925" r="7" fill="#487b9c" fill-opacity="0.92" stroke="#f7f9f6" stroke-width="2"/><circle cx="1130" cy="920" r="7" fill="#487b9c" fill-opacity="0.92" stroke="#f7f9f6" stroke-width="2"/><circle cx="1320" cy="920" r="7" fill="#487b9c" fill-opacity="0.92" stroke="#f7f9f6" stroke-width="2"/><circle cx="1500" cy="949" r="7" fill="#487b9c" fill-opacity="0.92" stroke="#f7f9f6" stroke-width="2"/><circle cx="1640" cy="985" r="7" fill="#487b9c" fill-opacity="0.92" stroke="#f7f9f6" stroke-width="2"/><circle cx="1810" cy="1100" r="7" fill="#487b9c" fill-opacity="0.92" stroke="#f7f9f6" stroke-width="2"/><circle cx="1940" cy="1063" r="7" fill="#487b9c" fill-opacity="0.92" stroke="#f7f9f6" stroke-width="2"/><circle cx="2060" cy="1025" r="7" fill="#487b9c" fill-opacity="0.92" stroke="#f7f9f6" stroke-width="2"/><circle cx="2170" cy="999" r="7" fill="#487b9c" fill-opacity="0.92" stroke="#f7f9f6" stroke-width="2"/><circle cx="2290" cy="965" r="7" fill="#487b9c" fill-opacity="0.92" stroke="#f7f9f6" stroke-width="2"/><circle cx="2400" cy="935" r="7" fill="#487b9c" fill-opacity="0.92" stroke="#f7f9f6" stroke-width="2"/><circle cx="2510" cy="905" r="7" fill="#487b9c" fill-opacity="0.92" stroke="#f7f9f6" stroke-width="2"/><circle cx="2600" cy="879" r="7" fill="#487b9c" fill-opacity="0.92" stroke="#f7f9f6" stroke-width="2"/><circle cx="2690" cy="855" r="7" fill="#487b9c" fill-opacity="0.92" stroke="#f7f9f6" stroke-width="2"/><circle cx="2770" cy="835" r="7" fill="#487b9c" fill-opacity="0.92" stroke="#f7f9f6" stroke-width="2"/><circle cx="2830" cy="815" r="7" fill="#487b9c" fill-opacity="0.92" stroke="#f7f9f6" stroke-width="2"/><circle cx="2890" cy="795" r="7" fill="#487b9c" fill-opacity="0.92" stroke="#f7f9f6" stroke-width="2"/><circle cx="2950" cy="775" r="7" fill="#487b9c" fill-opacity="0.92" stroke="#f7f9f6" stroke-width="2"/><circle cx="2550" cy="1105" r="7" fill="#487b9c" fill-opacity="0.92" stroke="#f7f9f6" stroke-width="2"/><circle cx="2390" cy="1115" r="7" fill="#487b9c" fill-opacity="0.92" stroke="#f7f9f6" stroke-width="2"/><circle cx="2170" cy="1155" r="7" fill="#487b9c" fill-opacity="0.92" stroke="#f7f9f6" stroke-width="2"/>
    
    <rect x="241" y="970" width="30" height="30" rx="8" fill="#f7f9f6" stroke="#8c4338" stroke-width="4"/>
    <circle cx="256" cy="985" r="5.5" fill="#8c4338"/>
    <rect x="278" y="965" width="172" height="38" rx="11" fill="#f7f9f6" stroke="#bcc8c3" stroke-width="1.4"/><text x="294" y="991" font-family="Helvetica Neue, Arial, sans-serif" font-size="24" font-weight="700" fill="#1f2d36">Dolomite</text>
  
    <rect x="575" y="920" width="30" height="30" rx="8" fill="#f7f9f6" stroke="#8c4338" stroke-width="4"/>
    <circle cx="590" cy="935" r="5.5" fill="#8c4338"/>
    <rect x="612" y="915" width="226" height="38" rx="11" fill="#f7f9f6" stroke="#bcc8c3" stroke-width="1.4"/><text x="628" y="941" font-family="Helvetica Neue, Arial, sans-serif" font-size="24" font-weight="700" fill="#1f2d36">Olifantsrus</text>
  
    <rect x="1703" y="1145" width="30" height="30" rx="8" fill="#f7f9f6" stroke="#8c4338" stroke-width="4"/>
    <circle cx="1718" cy="1160" r="5.5" fill="#8c4338"/>
    <rect x="1740" y="1140" width="190" height="38" rx="11" fill="#f7f9f6" stroke="#bcc8c3" stroke-width="1.4"/><text x="1756" y="1166" font-family="Helvetica Neue, Arial, sans-serif" font-size="24" font-weight="700" fill="#1f2d36">Okaukuejo</text>
  
    <rect x="2235" y="1045" width="30" height="30" rx="8" fill="#f7f9f6" stroke="#8c4338" stroke-width="4"/>
    <circle cx="2250" cy="1060" r="5.5" fill="#8c4338"/>
    <rect x="2272" y="1040" width="136" height="38" rx="11" fill="#f7f9f6" stroke="#bcc8c3" stroke-width="1.4"/><text x="2288" y="1066" font-family="Helvetica Neue, Arial, sans-serif" font-size="24" font-weight="700" fill="#1f2d36">Halali</text>
  
    <rect x="2715" y="800" width="30" height="30" rx="8" fill="#f7f9f6" stroke="#8c4338" stroke-width="4"/>
    <circle cx="2730" cy="815" r="5.5" fill="#8c4338"/>
    <rect x="2752" y="795" width="172" height="38" rx="11" fill="#f7f9f6" stroke="#bcc8c3" stroke-width="1.4"/><text x="2768" y="821" font-family="Helvetica Neue, Arial, sans-serif" font-size="24" font-weight="700" fill="#1f2d36">Namutoni</text>
  
    <rect x="2575" y="670" width="30" height="30" rx="8" fill="#f7f9f6" stroke="#8c4338" stroke-width="4"/>
    <circle cx="2590" cy="685" r="5.5" fill="#8c4338"/>
    <rect x="2612" y="665" width="154" height="38" rx="11" fill="#f7f9f6" stroke="#bcc8c3" stroke-width="1.4"/><text x="2628" y="691" font-family="Helvetica Neue, Arial, sans-serif" font-size="24" font-weight="700" fill="#1f2d36">Onkoshi</text>
  
    
    <path d="M 280 1314 L 296 1330 L 280 1346 L 264 1330 Z" fill="#edf4eb" stroke="#567568" stroke-width="3.2"/>
    <text x="302" y="1337" font-family="Helvetica Neue, Arial, sans-serif" font-size="22" fill="#1f2d36">Galton</text>
  
    <path d="M 1730 1329 L 1746 1345 L 1730 1361 L 1714 1345 Z" fill="#edf4eb" stroke="#567568" stroke-width="3.2"/>
    <text x="1752" y="1352" font-family="Helvetica Neue, Arial, sans-serif" font-size="22" fill="#1f2d36">Andersson</text>
  
    <path d="M 2930 824 L 2946 840 L 2930 856 L 2914 840 Z" fill="#edf4eb" stroke="#567568" stroke-width="3.2"/>
    <text x="2952" y="847" font-family="Helvetica Neue, Arial, sans-serif" font-size="22" fill="#1f2d36">VonLindequist</text>
  
    <path d="M 2440 309 L 2456 325 L 2440 341 L 2424 325 Z" fill="#edf4eb" stroke="#567568" stroke-width="3.2"/>
    <text x="2462" y="332" font-family="Helvetica Neue, Arial, sans-serif" font-size="22" fill="#1f2d36">Nehale</text>
  
    <text x="1820" y="683" font-family="Helvetica Neue, Arial, sans-serif" font-size="42" font-weight="700" fill="#8f8675">Etosha Pan</text>
    <text x="950" y="1245" font-family="Helvetica Neue, Arial, sans-serif" font-size="30" fill="#60717d">southern operations corridor</text>
    <text x="625" y="351" text-anchor="middle" font-family="Helvetica Neue, Arial, sans-serif" font-size="23" font-weight="700" fill="#60717d">A</text><text x="935" y="351" text-anchor="middle" font-family="Helvetica Neue, Arial, sans-serif" font-size="23" font-weight="700" fill="#60717d">B</text><text x="1245" y="351" text-anchor="middle" font-family="Helvetica Neue, Arial, sans-serif" font-size="23" font-weight="700" fill="#60717d">C</text><text x="1555" y="351" text-anchor="middle" font-family="Helvetica Neue, Arial, sans-serif" font-size="23" font-weight="700" fill="#60717d">D</text><text x="1865" y="351" text-anchor="middle" font-family="Helvetica Neue, Arial, sans-serif" font-size="23" font-weight="700" fill="#60717d">E</text><text x="2175" y="351" text-anchor="middle" font-family="Helvetica Neue, Arial, sans-serif" font-size="23" font-weight="700" fill="#60717d">F</text><text x="2485" y="351" text-anchor="middle" font-family="Helvetica Neue, Arial, sans-serif" font-size="23" font-weight="700" fill="#60717d">G</text><text x="2795" y="351" text-anchor="middle" font-family="Helvetica Neue, Arial, sans-serif" font-size="23" font-weight="700" fill="#60717d">H</text><text x="452" y="443.3" text-anchor="end" font-family="Helvetica Neue, Arial, sans-serif" font-size="23" font-weight="700" fill="#60717d">1</text><text x="452" y="578.3" text-anchor="end" font-family="Helvetica Neue, Arial, sans-serif" font-size="23" font-weight="700" fill="#60717d">2</text><text x="452" y="713.3" text-anchor="end" font-family="Helvetica Neue, Arial, sans-serif" font-size="23" font-weight="700" fill="#60717d">3</text><text x="452" y="848.3" text-anchor="end" font-family="Helvetica Neue, Arial, sans-serif" font-size="23" font-weight="700" fill="#60717d">4</text><text x="452" y="983.3" text-anchor="end" font-family="Helvetica Neue, Arial, sans-serif" font-size="23" font-weight="700" fill="#60717d">5</text><text x="452" y="1118.3" text-anchor="end" font-family="Helvetica Neue, Arial, sans-serif" font-size="23" font-weight="700" fill="#60717d">6</text><text x="452" y="1253.3" text-anchor="end" font-family="Helvetica Neue, Arial, sans-serif" font-size="23" font-weight="700" fill="#60717d">7</text><text x="452" y="1388.3" text-anchor="end" font-family="Helvetica Neue, Arial, sans-serif" font-size="23" font-weight="700" fill="#60717d">8</text>
    <g><line x1="2890" y1="402" x2="2890" y2="332" stroke="#1f2d36" stroke-width="4"/><path d="M 2877 356 L 2890 332 L 2903 356 Z" fill="#1f2d36"/><text x="2890" y="318" text-anchor="middle" font-family="Helvetica Neue, Arial, sans-serif" font-size="26" font-weight="700" fill="#1f2d36">N</text></g>
    <g><rect x="2502" y="1478" width="220" height="16" rx="3" fill="#1f2d36"/><rect x="2612" y="1478" width="110" height="16" fill="#f7f9f6" stroke="#1f2d36" stroke-width="1.8"/><line x1="2502" y1="1478" x2="2502" y2="1505" stroke="#1f2d36" stroke-width="2.4"/><line x1="2612" y1="1478" x2="2612" y2="1505" stroke="#1f2d36" stroke-width="2.4"/><line x1="2722" y1="1478" x2="2722" y2="1505" stroke="#1f2d36" stroke-width="2.4"/><text x="2502" y="1532" font-family="Helvetica Neue, Arial, sans-serif" font-size="22" fill="#1f2d36">0</text><text x="2601" y="1532" font-family="Helvetica Neue, Arial, sans-serif" font-size="22" fill="#1f2d36">25</text><text x="2705" y="1532" font-family="Helvetica Neue, Arial, sans-serif" font-size="22" fill="#1f2d36">50 km</text></g>
  <rect x="470" y="365" width="310" height="135" fill="none" fill-opacity="1" stroke="#efe9da" stroke-opacity="1" stroke-width="1.6"/><rect x="780" y="365" width="310" height="135" fill="none" fill-opacity="1" stroke="#efe9da" stroke-opacity="1" stroke-width="1.6"/><rect x="1090" y="365" width="310" height="135" fill="none" fill-opacity="1" stroke="#efe9da" stroke-opacity="1" stroke-width="1.6"/><rect x="1400" y="365" width="310" height="135" fill="none" fill-opacity="1" stroke="#efe9da" stroke-opacity="1" stroke-width="1.6"/><rect x="1710" y="365" width="310" height="135" fill="none" fill-opacity="1" stroke="#efe9da" stroke-opacity="1" stroke-width="1.6"/><rect x="2020" y="365" width="310" height="135" fill="none" fill-opacity="1" stroke="#efe9da" stroke-opacity="1" stroke-width="1.6"/><rect x="2330" y="365" width="310" height="135" fill="none" fill-opacity="1" stroke="#efe9da" stroke-opacity="1" stroke-width="1.6"/><rect x="2640" y="365" width="310" height="135" fill="none" fill-opacity="1" stroke="#efe9da" stroke-opacity="1" stroke-width="1.6"/><rect x="470" y="500" width="310" height="135" fill="none" fill-opacity="1" stroke="#efe9da" stroke-opacity="1" stroke-width="1.6"/><rect x="780" y="500" width="310" height="135" fill="none" fill-opacity="1" stroke="#efe9da" stroke-opacity="1" stroke-width="1.6"/><rect x="1090" y="500" width="310" height="135" fill="none" fill-opacity="1" stroke="#efe9da" stroke-opacity="1" stroke-width="1.6"/><rect x="1400" y="500" width="310" height="135" fill="none" fill-opacity="1" stroke="#efe9da" stroke-opacity="1" stroke-width="1.6"/><rect x="1710" y="500" width="310" height="135" fill="none" fill-opacity="1" stroke="#efe9da" stroke-opacity="1" stroke-width="1.6"/><rect x="2020" y="500" width="310" height="135" fill="none" fill-opacity="1" stroke="#efe9da" stroke-opacity="1" stroke-width="1.6"/><rect x="2330" y="500" width="310" height="135" fill="none" fill-opacity="1" stroke="#efe9da" stroke-opacity="1" stroke-width="1.6"/><rect x="2640" y="500" width="310" height="135" fill="none" fill-opacity="1" stroke="#efe9da" stroke-opacity="1" stroke-width="1.6"/><rect x="470" y="635" width="310" height="135" fill="none" fill-opacity="1" stroke="#efe9da" stroke-opacity="1" stroke-width="1.6"/><rect x="780" y="635" width="310" height="135" fill="none" fill-opacity="1" stroke="#efe9da" stroke-opacity="1" stroke-width="1.6"/><rect x="1090" y="635" width="310" height="135" fill="none" fill-opacity="1" stroke="#efe9da" stroke-opacity="1" stroke-width="1.6"/><rect x="1400" y="635" width="310" height="135" fill="none" fill-opacity="1" stroke="#efe9da" stroke-opacity="1" stroke-width="1.6"/><rect x="1710" y="635" width="310" height="135" fill="none" fill-opacity="1" stroke="#efe9da" stroke-opacity="1" stroke-width="1.6"/><rect x="2020" y="635" width="310" height="135" fill="none" fill-opacity="1" stroke="#efe9da" stroke-opacity="1" stroke-width="1.6"/><rect x="2330" y="635" width="310" height="135" fill="none" fill-opacity="1" stroke="#efe9da" stroke-opacity="1" stroke-width="1.6"/><rect x="2640" y="635" width="310" height="135" fill="none" fill-opacity="1" stroke="#efe9da" stroke-opacity="1" stroke-width="1.6"/><rect x="470" y="770" width="310" height="135" fill="none" fill-opacity="1" stroke="#efe9da" stroke-opacity="1" stroke-width="1.6"/><rect x="780" y="770" width="310" height="135" fill="none" fill-opacity="1" stroke="#efe9da" stroke-opacity="1" stroke-width="1.6"/><rect x="1090" y="770" width="310" height="135" fill="none" fill-opacity="1" stroke="#efe9da" stroke-opacity="1" stroke-width="1.6"/><rect x="1400" y="770" width="310" height="135" fill="none" fill-opacity="1" stroke="#efe9da" stroke-opacity="1" stroke-width="1.6"/><rect x="1710" y="770" width="310" height="135" fill="none" fill-opacity="1" stroke="#efe9da" stroke-opacity="1" stroke-width="1.6"/><rect x="2020" y="770" width="310" height="135" fill="none" fill-opacity="1" stroke="#efe9da" stroke-opacity="1" stroke-width="1.6"/><rect x="2330" y="770" width="310" height="135" fill="none" fill-opacity="1" stroke="#efe9da" stroke-opacity="1" stroke-width="1.6"/><rect x="2640" y="770" width="310" height="135" fill="none" fill-opacity="1" stroke="#efe9da" stroke-opacity="1" stroke-width="1.6"/><rect x="470" y="905" width="310" height="135" fill="none" fill-opacity="1" stroke="#efe9da" stroke-opacity="1" stroke-width="1.6"/><rect x="780" y="905" width="310" height="135" fill="none" fill-opacity="1" stroke="#efe9da" stroke-opacity="1" stroke-width="1.6"/><rect x="1090" y="905" width="310" height="135" fill="none" fill-opacity="1" stroke="#efe9da" stroke-opacity="1" stroke-width="1.6"/><rect x="1400" y="905" width="310" height="135" fill="none" fill-opacity="1" stroke="#efe9da" stroke-opacity="1" stroke-width="1.6"/><rect x="1710" y="905" width="310" height="135" fill="none" fill-opacity="1" stroke="#efe9da" stroke-opacity="1" stroke-width="1.6"/><rect x="2020" y="905" width="310" height="135" fill="none" fill-opacity="1" stroke="#efe9da" stroke-opacity="1" stroke-width="1.6"/><rect x="2330" y="905" width="310" height="135" fill="none" fill-opacity="1" stroke="#efe9da" stroke-opacity="1" stroke-width="1.6"/><rect x="2640" y="905" width="310" height="135" fill="none" fill-opacity="1" stroke="#efe9da" stroke-opacity="1" stroke-width="1.6"/><rect x="470" y="1040" width="310" height="135" fill="none" fill-opacity="1" stroke="#efe9da" stroke-opacity="1" stroke-width="1.6"/><rect x="780" y="1040" width="310" height="135" fill="none" fill-opacity="1" stroke="#efe9da" stroke-opacity="1" stroke-width="1.6"/><rect x="1090" y="1040" width="310" height="135" fill="none" fill-opacity="1" stroke="#efe9da" stroke-opacity="1" stroke-width="1.6"/><rect x="1400" y="1040" width="310" height="135" fill="none" fill-opacity="1" stroke="#efe9da" stroke-opacity="1" stroke-width="1.6"/><rect x="1710" y="1040" width="310" height="135" fill="none" fill-opacity="1" stroke="#efe9da" stroke-opacity="1" stroke-width="1.6"/><rect x="2020" y="1040" width="310" height="135" fill="none" fill-opacity="1" stroke="#efe9da" stroke-opacity="1" stroke-width="1.6"/><rect x="2330" y="1040" width="310" height="135" fill="none" fill-opacity="1" stroke="#efe9da" stroke-opacity="1" stroke-width="1.6"/><rect x="2640" y="1040" width="310" height="135" fill="none" fill-opacity="1" stroke="#efe9da" stroke-opacity="1" stroke-width="1.6"/><rect x="470" y="1175" width="310" height="135" fill="none" fill-opacity="1" stroke="#efe9da" stroke-opacity="1" stroke-width="1.6"/><rect x="780" y="1175" width="310" height="135" fill="none" fill-opacity="1" stroke="#efe9da" stroke-opacity="1" stroke-width="1.6"/><rect x="1090" y="1175" width="310" height="135" fill="none" fill-opacity="1" stroke="#efe9da" stroke-opacity="1" stroke-width="1.6"/><rect x="1400" y="1175" width="310" height="135" fill="none" fill-opacity="1" stroke="#efe9da" stroke-opacity="1" stroke-width="1.6"/><rect x="1710" y="1175" width="310" height="135" fill="none" fill-opacity="1" stroke="#efe9da" stroke-opacity="1" stroke-width="1.6"/><rect x="2020" y="1175" width="310" height="135" fill="none" fill-opacity="1" stroke="#efe9da" stroke-opacity="1" stroke-width="1.6"/><rect x="2330" y="1175" width="310" height="135" fill="none" fill-opacity="1" stroke="#efe9da" stroke-opacity="1" stroke-width="1.6"/><rect x="2640" y="1175" width="310" height="135" fill="none" fill-opacity="1" stroke="#efe9da" stroke-opacity="1" stroke-width="1.6"/><rect x="470" y="1310" width="310" height="135" fill="none" fill-opacity="1" stroke="#efe9da" stroke-opacity="1" stroke-width="1.6"/><rect x="780" y="1310" width="310" height="135" fill="none" fill-opacity="1" stroke="#efe9da" stroke-opacity="1" stroke-width="1.6"/><rect x="1090" y="1310" width="310" height="135" fill="none" fill-opacity="1" stroke="#efe9da" stroke-opacity="1" stroke-width="1.6"/><rect x="1400" y="1310" width="310" height="135" fill="none" fill-opacity="1" stroke="#efe9da" stroke-opacity="1" stroke-width="1.6"/><rect x="1710" y="1310" width="310" height="135" fill="none" fill-opacity="1" stroke="#efe9da" stroke-opacity="1" stroke-width="1.6"/><rect x="2020" y="1310" width="310" height="135" fill="none" fill-opacity="1" stroke="#efe9da" stroke-opacity="1" stroke-width="1.6"/><rect x="2330" y="1310" width="310" height="135" fill="none" fill-opacity="1" stroke="#efe9da" stroke-opacity="1" stroke-width="1.6"/><rect x="2640" y="1310" width="310" height="135" fill="none" fill-opacity="1" stroke="#efe9da" stroke-opacity="1" stroke-width="1.6"/><rect x="470" y="365" width="2480" height="1080" fill="none" stroke="#1f2d36" stroke-width="2.4"/><rect x="2648" y="508" width="294" height="119" rx="14" fill="none" stroke="#fff5d9" stroke-width="3.2" stroke-dasharray="9 8"/><rect x="2648" y="643" width="294" height="119" rx="14" fill="none" stroke="#fff5d9" stroke-width="3.2" stroke-dasharray="9 8"/><rect x="1408" y="778" width="294" height="119" rx="14" fill="none" stroke="#fff5d9" stroke-width="3.2" stroke-dasharray="9 8"/><rect x="2028" y="778" width="294" height="119" rx="14" fill="none" stroke="#fff5d9" stroke-width="3.2" stroke-dasharray="9 8"/><rect x="2338" y="778" width="294" height="119" rx="14" fill="none" stroke="#fff5d9" stroke-width="3.2" stroke-dasharray="9 8"/><rect x="2648" y="778" width="294" height="119" rx="14" fill="none" stroke="#fff5d9" stroke-width="3.2" stroke-dasharray="9 8"/><rect x="1098" y="913" width="294" height="119" rx="14" fill="none" stroke="#fff5d9" stroke-width="3.2" stroke-dasharray="9 8"/><rect x="1408" y="913" width="294" height="119" rx="14" fill="none" stroke="#fff5d9" stroke-width="3.2" stroke-dasharray="9 8"/><rect x="1718" y="913" width="294" height="119" rx="14" fill="none" stroke="#fff5d9" stroke-width="3.2" stroke-dasharray="9 8"/><rect x="2028" y="913" width="294" height="119" rx="14" fill="none" stroke="#fff5d9" stroke-width="3.2" stroke-dasharray="9 8"/><rect x="2338" y="913" width="294" height="119" rx="14" fill="none" stroke="#fff5d9" stroke-width="3.2" stroke-dasharray="9 8"/><rect x="2648" y="913" width="294" height="119" rx="14" fill="none" stroke="#fff5d9" stroke-width="3.2" stroke-dasharray="9 8"/><rect x="1718" y="1048" width="294" height="119" rx="14" fill="none" stroke="#fff5d9" stroke-width="3.2" stroke-dasharray="9 8"/><rect x="2028" y="1048" width="294" height="119" rx="14" fill="none" stroke="#fff5d9" stroke-width="3.2" stroke-dasharray="9 8"/><rect x="2338" y="1048" width="294" height="119" rx="14" fill="none" stroke="#fff5d9" stroke-width="3.2" stroke-dasharray="9 8"/><rect x="2648" y="1048" width="294" height="119" rx="14" fill="none" stroke="#fff5d9" stroke-width="3.2" stroke-dasharray="9 8"/><path d="M 360 1175 C 1090 1115 1890 1087 2880 865" fill="none" stroke="#8c4338" stroke-width="6" stroke-dasharray="18 10"/><text x="1050" y="1115" font-family="Helvetica Neue, Arial, sans-serif" font-size="24" font-weight="700" fill="#8c4338">command corridor thesis</text>
    <rect x="136" y="312" width="578" height="244" rx="24" fill="#ffffff" stroke="#bcc8c3" stroke-width="2" filter="url(#shadow)"/>
    <rect x="136" y="312" width="578" height="12" rx="24" fill="#567568" opacity="0.92"/>
    <text x="162" y="370" font-family="Helvetica Neue, Arial, sans-serif" font-size="34" font-weight="700" fill="#1f2d36">Mesh design choices</text>
    <text x="162" y="418" font-family="Helvetica Neue, Arial, sans-serif" font-size="23" fill="#60717d">64 cells are coarse enough for a management packet and fine enough for the east-south risk corridor.</text><text x="162" y="451" font-family="Helvetica Neue, Arial, sans-serif" font-size="23" fill="#60717d">Camps, gates, and waterholes are all visible on the same planning surface.</text><text x="162" y="484" font-family="Helvetica Neue, Arial, sans-serif" font-size="23" fill="#60717d">The figure emphasizes command anchors rather than decorative terrain.</text>
  
    <rect x="2304" y="1138" width="734" height="248" rx="24" fill="#ffffff" stroke="#bcc8c3" stroke-width="2" filter="url(#shadow)"/>
    <rect x="2304" y="1138" width="734" height="12" rx="24" fill="#35556c" opacity="0.92"/>
    <text x="2330" y="1196" font-family="Helvetica Neue, Arial, sans-serif" font-size="34" font-weight="700" fill="#1f2d36">How this map is used later</text>
    <text x="2330" y="1244" font-family="Helvetica Neue, Arial, sans-serif" font-size="23" fill="#60717d">Risk scoring reads from the same cells.</text><text x="2330" y="1278" font-family="Helvetica Neue, Arial, sans-serif" font-size="23" fill="#60717d">Allocation routes start from the same camps.</text><text x="2330" y="1312" font-family="Helvetica Neue, Arial, sans-serif" font-size="23" fill="#60717d">Simulation response lag is computed on the same operational geometry.</text>
  <rect x="2480" y="470" width="260" height="30" rx="15" fill="url(#legend_2480_470_260_30)" stroke="#bcc8c3" stroke-width="1.4"/><text x="2480" y="454" font-family="Helvetica Neue, Arial, sans-serif" font-size="22" font-weight="700" fill="#1f2d36">priority reference</text><text x="2480" y="528" text-anchor="middle" font-family="Helvetica Neue, Arial, sans-serif" font-size="20" fill="#60717d">low</text><text x="2610" y="528" text-anchor="middle" font-family="Helvetica Neue, Arial, sans-serif" font-size="20" fill="#60717d">mid</text><text x="2740" y="528" text-anchor="middle" font-family="Helvetica Neue, Arial, sans-serif" font-size="20" fill="#60717d">high</text>
    <rect x="2360" y="312" width="226" height="42" rx="21" fill="#efe7cf" stroke="#efe7cf" stroke-width="1.2"/>
    <text x="2473" y="340" text-anchor="middle" font-family="Helvetica Neue, Arial, sans-serif" font-size="19" font-weight="700" letter-spacing="2" fill="#1f2d36">A-H x 1-8 mesh</text>
  
    <rect x="2360" y="362" width="286" height="42" rx="21" fill="#f2e0d7" stroke="#f2e0d7" stroke-width="1.2"/>
    <text x="2503" y="390" text-anchor="middle" font-family="Helvetica Neue, Arial, sans-serif" font-size="19" font-weight="700" letter-spacing="2" fill="#1f2d36">hot quartile outlined</text>
  
</svg>