<?xml version="1.0" encoding="UTF-8"?>
<svg xmlns="http://www.w3.org/2000/svg" viewBox="0 0 3200 1800" width="3200" height="1800">
  <defs>
    <linearGradient id="pageBg" x1="0" y1="0" x2="0" y2="1"><stop offset="0%" stop-color="#ede7de"/><stop offset="100%" stop-color="#d9d0c2"/></linearGradient>
    <linearGradient id="headBg" x1="0" y1="0" x2="1" y2="0"><stop offset="0%" stop-color="#16212a"/><stop offset="100%" stop-color="#243746"/></linearGradient>
    <pattern id="paperGrid" width="24" height="24" patternUnits="userSpaceOnUse"><path d="M 24 0 L 0 0 0 24" fill="none" stroke="#ddd3c3" stroke-width="0.8" opacity="0.32"/></pattern>
    <filter id="shadow" x="-20%" y="-20%" width="140%" height="140%"><feDropShadow dx="0" dy="12" stdDeviation="14" flood-color="#8c948f" flood-opacity="0.18"/></filter>
  </defs>
  <rect x="0" y="0" width="3200" height="1800" fill="url(#pageBg)"/>
  <rect x="0" y="0" width="3200" height="1800" fill="url(#paperGrid)" opacity="0.42"/>
  <rect x="54" y="46" width="3092" height="176" rx="24" fill="url(#headBg)" filter="url(#shadow)"/>
  <rect x="54" y="196" width="3092" height="20" fill="#67586d" opacity="0.95"/>
  
    <rect x="92" y="82" width="270" height="38" rx="10" fill="#f2ecdf" stroke="#67586d" stroke-opacity="0.15" stroke-width="1.2"/>
    <rect x="102" y="90" width="8" height="22" rx="4" fill="#67586d" opacity="0.84"/>
    <text x="122" y="108" font-family="Helvetica Neue, Arial, sans-serif" font-size="18" font-weight="700" letter-spacing="1.8" fill="#67586d">MORPHOLOGY TRANSFER</text>
  
  
    <rect x="2926" y="82" width="162" height="38" rx="10" fill="#f2ecdf" stroke="#16212a" stroke-opacity="0.15" stroke-width="1.2"/>
    <rect x="2936" y="90" width="8" height="22" rx="4" fill="#16212a" opacity="0.84"/>
    <text x="2956" y="108" font-family="Helvetica Neue, Arial, sans-serif" font-size="18" font-weight="700" letter-spacing="1.8" fill="#16212a">FIG. 11</text>
  
  <text x="92" y="152" font-family="Helvetica Neue, Arial, sans-serif" font-size="58" font-weight="700" fill="#fcfaf6">Transfer by Liability Morphology</text>
  <text x="92" y="188" font-family="Helvetica Neue, Arial, sans-serif" font-size="25" fill="#d7dde0">The framework transfers by liability shape, uncertainty structure, and station workload geometry</text>
  <rect x="92" y="106" width="941.1200000000001" height="6" rx="3" fill="#67586d"/><rect x="1088.48" y="106" width="442.88" height="6" rx="3" fill="#d5c8ae"/><rect x="1586.72" y="106" width="775.0400000000001" height="6" rx="3" fill="#8796a2" opacity="0.55"/><rect x="92" y="118" width="2103.68" height="2" rx="1" fill="#c5beb1"/>
  
    <rect x="58" y="256" width="3084" height="1482" rx="26" fill="#f5f0e8" stroke="#c5beb1" stroke-width="2.2" filter="url(#shadow)"/>
    <rect x="74" y="272" width="3052" height="1450" rx="18" fill="#fcfaf6" stroke="#ddd3c5" stroke-width="1.4"/>
    <rect x="86" y="284" width="22" height="1426" rx="11" fill="#16212a" opacity="0.92"/>
    <rect x="130" y="284" width="2984" height="34" rx="10" fill="#eef1ed"/>
    <line x1="150" y1="332" x2="150" y2="1710" stroke="#efe7da" stroke-width="1"/><line x1="732.8" y1="332" x2="732.8" y2="1710" stroke="#efe7da" stroke-width="1"/><line x1="1315.6" y1="332" x2="1315.6" y2="1710" stroke="#efe7da" stroke-width="1"/><line x1="1898.3999999999999" y1="332" x2="1898.3999999999999" y2="1710" stroke="#efe7da" stroke-width="1"/><line x1="2481.2" y1="332" x2="2481.2" y2="1710" stroke="#efe7da" stroke-width="1"/><line x1="3064" y1="332" x2="3064" y2="1710" stroke="#efe7da" stroke-width="1"/>
  <circle cx="1370" cy="1010" r="520" fill="#f7f1e7" stroke="#c5beb1" stroke-width="2" filter="url(#shadow)"/><circle cx="1370" cy="1010" r="520" fill="none" stroke="#7e453d" stroke-width="36" opacity="0.16"/><circle cx="1370" cy="1010" r="365" fill="none" stroke="#a9782e" stroke-width="36" opacity="0.18"/><circle cx="1370" cy="1010" r="210" fill="none" stroke="#4f6961" stroke-width="36" opacity="0.22"/><circle cx="1370" cy="1010" r="124" fill="#ffffff" stroke="#c5beb1" stroke-width="2"/><text x="1370" y="1000" text-anchor="middle" font-family="Helvetica Neue, Arial, sans-serif" font-size="36" font-weight="700" fill="#16212a">portable core</text><text x="1370" y="1038" text-anchor="middle" font-family="Helvetica Neue, Arial, sans-serif" font-size="22" fill="#5d6872">same architecture across parks</text><line x1="1370" y1="1010" x2="1160" y2="1010" stroke="#4f6961" stroke-width="6" stroke-linecap="round"/><circle cx="1160" cy="1010" r="16" fill="#4f6961" stroke="#fcfaf6" stroke-width="4"/><text x="760" y="1017.9999999999999" text-anchor="middle" font-family="Helvetica Neue, Arial, sans-serif" font-size="27" font-weight="700" fill="#16212a">Zoning</text><text x="760" y="1050" text-anchor="middle" font-family="Helvetica Neue, Arial, sans-serif" font-size="21" fill="#5d6872">Direct</text><line x1="1370" y1="1010" x2="1265" y2="828.1346652052679" stroke="#4f6961" stroke-width="6" stroke-linecap="round"/><circle cx="1265" cy="828.1346652052679" r="16" fill="#4f6961" stroke="#fcfaf6" stroke-width="4"/><text x="1065" y="489.7245036914924" text-anchor="middle" font-family="Helvetica Neue, Arial, sans-serif" font-size="27" font-weight="700" fill="#16212a">Risk logic</text><text x="1065" y="521.7245036914924" text-anchor="middle" font-family="Helvetica Neue, Arial, sans-serif" font-size="21" fill="#5d6872">Direct</text><line x1="1370" y1="1010" x2="1475" y2="828.1346652052679" stroke="#4f6961" stroke-width="6" stroke-linecap="round"/><circle cx="1475" cy="828.1346652052679" r="16" fill="#4f6961" stroke="#fcfaf6" stroke-width="4"/><text x="1675" y="489.7245036914925" text-anchor="middle" font-family="Helvetica Neue, Arial, sans-serif" font-size="27" font-weight="700" fill="#16212a">Allocation</text><text x="1675" y="521.7245036914925" text-anchor="middle" font-family="Helvetica Neue, Arial, sans-serif" font-size="21" fill="#5d6872">Direct</text><line x1="1370" y1="1010" x2="1580" y2="1010" stroke="#4f6961" stroke-width="6" stroke-linecap="round"/><circle cx="1580" cy="1010" r="16" fill="#4f6961" stroke="#fcfaf6" stroke-width="4"/><text x="1980" y="1018" text-anchor="middle" font-family="Helvetica Neue, Arial, sans-serif" font-size="27" font-weight="700" fill="#16212a">Simulation</text><text x="1980" y="1050" text-anchor="middle" font-family="Helvetica Neue, Arial, sans-serif" font-size="21" fill="#5d6872">Direct</text><line x1="1370" y1="1010" x2="1547" y2="1316.5729929396912" stroke="#a9782e" stroke-width="6" stroke-linecap="round"/><circle cx="1547" cy="1316.5729929396912" r="16" fill="#a9782e" stroke="#fcfaf6" stroke-width="4"/><text x="1675" y="1546.2754963085076" text-anchor="middle" font-family="Helvetica Neue, Arial, sans-serif" font-size="27" font-weight="700" fill="#16212a">Ecology layer</text><text x="1675" y="1578.2754963085076" text-anchor="middle" font-family="Helvetica Neue, Arial, sans-serif" font-size="21" fill="#5d6872">Retune</text><line x1="1370" y1="1010" x2="1116" y2="1449.9409051224948" stroke="#7e453d" stroke-width="6" stroke-linecap="round"/><circle cx="1116" cy="1449.9409051224948" r="16" fill="#7e453d" stroke="#fcfaf6" stroke-width="4"/><text x="1065" y="1546.2754963085076" text-anchor="middle" font-family="Helvetica Neue, Arial, sans-serif" font-size="27" font-weight="700" fill="#16212a">Threat prior</text><text x="1065" y="1578.2754963085076" text-anchor="middle" font-family="Helvetica Neue, Arial, sans-serif" font-size="21" fill="#5d6872">Rebuild</text>
    <rect x="2230" y="420" width="700" height="244" rx="18" fill="#ffffff" stroke="#c5beb1" stroke-width="1.9" filter="url(#shadow)"/>
    <rect x="2246" y="436" width="10" height="212" rx="5" fill="#67586d" opacity="0.9"/>
    <rect x="2270" y="438" width="202" height="30" rx="8" fill="#67586d" fill-opacity="0.12"/>
    <text x="2282" y="474" font-family="Helvetica Neue, Arial, sans-serif" font-size="34" font-weight="700" fill="#16212a">Ring meaning</text>
    <text x="2282" y="518" font-family="Helvetica Neue, Arial, sans-serif" font-size="23" fill="#5d6872">Inner ring - transfers directly with the same mathematical structure.</text><text x="2282" y="552" font-family="Helvetica Neue, Arial, sans-serif" font-size="23" fill="#5d6872">Middle ring - same structure, but local calibration is needed.</text><text x="2282" y="586" font-family="Helvetica Neue, Arial, sans-serif" font-size="23" fill="#5d6872">Outer ring - reserve-specific priors must be rebuilt.</text>
  
    <rect x="2230" y="728" width="700" height="210" rx="18" fill="#ffffff" stroke="#c5beb1" stroke-width="1.9" filter="url(#shadow)"/>
    <rect x="2246" y="744" width="10" height="178" rx="5" fill="#26455d" opacity="0.9"/>
    <rect x="2270" y="746" width="188" height="30" rx="8" fill="#26455d" fill-opacity="0.12"/>
    <text x="2282" y="782" font-family="Helvetica Neue, Arial, sans-serif" font-size="34" font-weight="700" fill="#16212a">Why a wheel</text>
    <text x="2282" y="826" font-family="Helvetica Neue, Arial, sans-serif" font-size="23" fill="#5d6872">Transferability is radial rather than tabular because every module depends on the same core architecture at the center.</text><text x="2282" y="860" font-family="Helvetica Neue, Arial, sans-serif" font-size="23" fill="#5d6872">The figure therefore avoids looking like a generic policy matrix.</text>
  
    <rect x="2248" y="1012" width="142" height="38" rx="10" fill="#dce8d7" stroke="#16212a" stroke-opacity="0.15" stroke-width="1.2"/>
    <rect x="2258" y="1020" width="8" height="22" rx="4" fill="#16212a" opacity="0.84"/>
    <text x="2278" y="1038" font-family="Helvetica Neue, Arial, sans-serif" font-size="18" font-weight="700" letter-spacing="1.8" fill="#16212a">direct</text>
  
    <rect x="2408" y="1012" width="160" height="38" rx="10" fill="#efe4be" stroke="#16212a" stroke-opacity="0.15" stroke-width="1.2"/>
    <rect x="2418" y="1020" width="8" height="22" rx="4" fill="#16212a" opacity="0.84"/>
    <text x="2438" y="1038" font-family="Helvetica Neue, Arial, sans-serif" font-size="18" font-weight="700" letter-spacing="1.8" fill="#16212a">retune</text>
  
    <rect x="2590" y="1012" width="170" height="38" rx="10" fill="#f0ddd8" stroke="#16212a" stroke-opacity="0.15" stroke-width="1.2"/>
    <rect x="2600" y="1020" width="8" height="22" rx="4" fill="#16212a" opacity="0.84"/>
    <text x="2620" y="1038" font-family="Helvetica Neue, Arial, sans-serif" font-size="18" font-weight="700" letter-spacing="1.8" fill="#16212a">rebuild</text>
  
</svg>