<?xml version="1.0" encoding="UTF-8"?>
<svg xmlns="http://www.w3.org/2000/svg" viewBox="0 0 3200 1800" width="3200" height="1800">
  <defs>
    <linearGradient id="paperBg" x1="0" y1="0" x2="0" y2="1">
      <stop offset="0%" stop-color="#faf7f0"/>
      <stop offset="100%" stop-color="#f1ece1"/>
    </linearGradient>
    <linearGradient id="headerRule" x1="0" y1="0" x2="1" y2="0">
      <stop offset="0%" stop-color="#3f678e"/>
      <stop offset="35%" stop-color="#5f805d"/>
      <stop offset="68%" stop-color="#b77735"/>
      <stop offset="100%" stop-color="#9f473b"/>
    </linearGradient>
    <filter id="shadow" x="-20%" y="-20%" width="140%" height="140%">
      <feDropShadow dx="0" dy="10" stdDeviation="14" flood-color="#a6afb7" flood-opacity="0.20"/>
    </filter>
    <clipPath id="parkClip" clipPathUnits="userSpaceOnUse">
      <path d="M 285 500 L 530 420 L 1090 400 L 1670 410 L 2270 437 L 2800 469 L 2982 545 L 3000 795 L 2970 1185 L 2830 1350 L 2320 1389 L 1500 1415 L 830 1403 L 428 1337 L 290 1130 L 255 775 Z"/>
    </clipPath>
  </defs>
  <rect x="0" y="0" width="3200" height="1800" fill="url(#paperBg)"/>
  <rect x="68" y="54" width="3064" height="144" rx="28" fill="#ffffff" stroke="#cfd6dc" stroke-width="2" filter="url(#shadow)"/>
  <rect x="98" y="86" width="3004" height="10" rx="5" fill="url(#headerRule)"/>
  <rect x="2942" y="104" width="162" height="48" rx="24" fill="#ece1c5" stroke="#ece1c5" stroke-width="1.5"/>
    <text x="3023" y="136" text-anchor="middle" font-family="Helvetica Neue, Arial, sans-serif" font-size="24" font-weight="700" fill="#243240">FIG. 14</text>
  <text x="104" y="145" font-family="Helvetica Neue, Arial, sans-serif" font-size="56" font-weight="700" fill="#243240">Minimum Ranger Requirement Curve</text>
  <text x="104" y="184" font-family="Helvetica Neue, Arial, sans-serif" font-size="28" fill="#6a7682">Staffing threshold and safe region with subdued axis treatment</text>
  
    <rect x="180" y="320" width="2860" height="1150" rx="22" fill="#ffffff" stroke="#cfd6dc" stroke-width="2.2" filter="url(#shadow)"/><line x1="280" y1="1470" x2="2990" y2="1470" stroke="#d7dbdf" stroke-width="2" stroke-dasharray="6 10"/>
      <text x="256" y="1479" text-anchor="end" font-family="Helvetica Neue, Arial, sans-serif" font-size="25" fill="#6a7682">0.50</text><line x1="280" y1="1141.4285714285716" x2="2990" y2="1141.4285714285716" stroke="#d7dbdf" stroke-width="2" stroke-dasharray="6 10"/>
      <text x="256" y="1150.4285714285716" text-anchor="end" font-family="Helvetica Neue, Arial, sans-serif" font-size="25" fill="#6a7682">0.60</text><line x1="280" y1="812.857142857143" x2="2990" y2="812.857142857143" stroke="#d7dbdf" stroke-width="2" stroke-dasharray="6 10"/>
      <text x="256" y="821.857142857143" text-anchor="end" font-family="Helvetica Neue, Arial, sans-serif" font-size="25" fill="#6a7682">0.70</text><line x1="280" y1="484.2857142857141" x2="2990" y2="484.2857142857141" stroke="#d7dbdf" stroke-width="2" stroke-dasharray="6 10"/>
      <text x="256" y="493.2857142857141" text-anchor="end" font-family="Helvetica Neue, Arial, sans-serif" font-size="25" fill="#6a7682">0.80</text><line x1="280" y1="390" x2="280" y2="1400" stroke="#d7dbdf" stroke-width="1.6" stroke-dasharray="6 12"/>
      <text x="280" y="1446" text-anchor="middle" font-family="Helvetica Neue, Arial, sans-serif" font-size="25" fill="#6a7682">22</text><line x1="731.6666666666666" y1="390" x2="731.6666666666666" y2="1400" stroke="#d7dbdf" stroke-width="1.6" stroke-dasharray="6 12"/>
      <text x="731.6666666666666" y="1446" text-anchor="middle" font-family="Helvetica Neue, Arial, sans-serif" font-size="25" fill="#6a7682">26</text><line x1="1183.3333333333333" y1="390" x2="1183.3333333333333" y2="1400" stroke="#d7dbdf" stroke-width="1.6" stroke-dasharray="6 12"/>
      <text x="1183.3333333333333" y="1446" text-anchor="middle" font-family="Helvetica Neue, Arial, sans-serif" font-size="25" fill="#6a7682">30</text><line x1="1635" y1="390" x2="1635" y2="1400" stroke="#d7dbdf" stroke-width="1.6" stroke-dasharray="6 12"/>
      <text x="1635" y="1446" text-anchor="middle" font-family="Helvetica Neue, Arial, sans-serif" font-size="25" fill="#6a7682">34</text><line x1="2086.6666666666665" y1="390" x2="2086.6666666666665" y2="1400" stroke="#d7dbdf" stroke-width="1.6" stroke-dasharray="6 12"/>
      <text x="2086.6666666666665" y="1446" text-anchor="middle" font-family="Helvetica Neue, Arial, sans-serif" font-size="25" fill="#6a7682">38</text><line x1="2538.3333333333335" y1="390" x2="2538.3333333333335" y2="1400" stroke="#d7dbdf" stroke-width="1.6" stroke-dasharray="6 12"/>
      <text x="2538.3333333333335" y="1446" text-anchor="middle" font-family="Helvetica Neue, Arial, sans-serif" font-size="25" fill="#6a7682">42</text><line x1="2990" y1="390" x2="2990" y2="1400" stroke="#d7dbdf" stroke-width="1.6" stroke-dasharray="6 12"/>
      <text x="2990" y="1446" text-anchor="middle" font-family="Helvetica Neue, Arial, sans-serif" font-size="25" fill="#6a7682">46</text><line x1="280" y1="1400" x2="2990" y2="1400" stroke="#243240" stroke-width="3"/>
    <line x1="280" y1="390" x2="280" y2="1400" stroke="#243240" stroke-width="3"/>
    <text x="1610" y="1465" text-anchor="middle" font-family="Helvetica Neue, Arial, sans-serif" font-size="28" font-weight="700" fill="#243240">Field rangers</text>
    <text x="204" y="895" transform="rotate(-90 204 895)" text-anchor="middle" font-family="Helvetica Neue, Arial, sans-serif" font-size="28" font-weight="700" fill="#243240">Protection index</text>
    <path d="M 280 1315.4155375831215 L 280 1203.4155375831215 L 392.5 1199.6445574926838 L 505 1194.2654272830819 L 617.5 1186.642786048168 L 730 1175.941267829389 L 842.5 1161.1124950919823 L 955 1140.9328289831647 L 1067.5 1114.1366313933563 L 1180 1079.6899734772683 L 1292.5 1037.2087764444407 L 1405 987.42091250315 L 1517.5 932.4372969347405 L 1630 875.5627030652593 L 1742.5 820.5790874968499 L 1855 770.7912235555591 L 1967.5 728.3100265227312 L 2080 693.8633686066435 L 2192.5 667.0671710168348 L 2305 646.8875049080175 L 2417.5 632.0587321706104 L 2530 621.3572139518313 L 2642.5 613.7345727169177 L 2755 608.3554425073155 L 2867.5 604.5844624168784 L 2980 601.9530653196831 L 2980 713.9530653196832 L 2867.5 716.5844624168784 L 2755 720.3554425073156 L 2642.5 725.7345727169179 L 2530 733.3572139518315 L 2417.5 744.0587321706104 L 2305 758.8875049080176 L 2192.5 779.067171016835 L 2080 805.8633686066437 L 1967.5 840.3100265227312 L 1855 882.7912235555591 L 1742.5 932.5790874968499 L 1630 987.5627030652594 L 1517.5 1044.4372969347405 L 1405 1099.42091250315 L 1292.5 1149.2087764444407 L 1180 1191.6899734772685 L 1067.5 1226.1366313933563 L 955 1252.9328289831647 L 842.5 1273.1124950919823 L 730 1287.9412678293893 L 617.5 1298.642786048168 L 505 1306.265427283082 L 392.5 1311.644557492684 L 280 1315.4155375831215 Z" fill="#5f805d" opacity="0.18"/>
    <path d="M 280 1259.4155375831215 L 392.5 1255.6445574926838 L 505 1250.265427283082 L 617.5 1242.642786048168 L 730 1231.941267829389 L 842.5 1217.1124950919823 L 955 1196.9328289831647 L 1067.5 1170.1366313933563 L 1180 1135.6899734772685 L 1292.5 1093.2087764444407 L 1405 1043.42091250315 L 1517.5 988.4372969347405 L 1630 931.5627030652593 L 1742.5 876.5790874968499 L 1855 826.7912235555591 L 1967.5 784.3100265227312 L 2080 749.8633686066435 L 2192.5 723.0671710168348 L 2305 702.8875049080176 L 2417.5 688.0587321706104 L 2530 677.3572139518313 L 2642.5 669.7345727169178 L 2755 664.3554425073155 L 2867.5 660.5844624168784 L 2980 657.9530653196832" fill="none" stroke="#5f805d" stroke-width="9" stroke-linecap="round"/>
    <line x1="1630" y1="1380" x2="1630" y2="539.9999999999998" stroke="#9f473b" stroke-width="4" stroke-dasharray="14 12"/>
    <line x1="280" y1="820.0000000000001" x2="2980" y2="820.0000000000001" stroke="#9f473b" stroke-width="4" stroke-dasharray="14 12"/>
    <rect x="1630" y="820.0000000000001" width="1350" height="559.9999999999999" fill="#5f805d" opacity="0.08"/>
    <text x="1646" y="736" font-family="Helvetica Neue, Arial, sans-serif" font-size="24" font-weight="700" fill="#9f473b">minimum safe staffing >= 34</text>
    <rect x="2140" y="360" width="760" height="140" rx="22" fill="#fcfbf7" stroke="#cfd6dc" stroke-width="2.2" filter="url(#shadow)"/><text x="2174" y="416" font-family="Helvetica Neue, Arial, sans-serif" font-size="34" font-weight="700" fill="#243240">Threshold interpretation</text><text x="2174" y="468" font-family="Helvetica Neue, Arial, sans-serif" font-size="24" fill="#6a7682">Safe region begins once both the 34-ranger floor and PI >= 0.70 are met</text>
  
</svg>