<?xml version="1.0" encoding="UTF-8"?>
<svg xmlns="http://www.w3.org/2000/svg" viewBox="0 0 3200 1800" width="3200" height="1800">
  <defs>
    <linearGradient id="pageBg" x1="0" y1="0" x2="0" y2="1"><stop offset="0%" stop-color="#f5efe3"/><stop offset="100%" stop-color="#ece2d1"/></linearGradient>
    <pattern id="paperGrain" width="18" height="18" patternUnits="userSpaceOnUse"><circle cx="4" cy="5" r="0.9" fill="#d8d0c0" opacity="0.28"/><circle cx="13" cy="8" r="0.7" fill="#cfc7b7" opacity="0.24"/><circle cx="9" cy="14" r="0.8" fill="#d8d0c0" opacity="0.22"/></pattern>
    <filter id="shadow" x="-20%" y="-20%" width="140%" height="140%"><feDropShadow dx="0" dy="12" stdDeviation="14" flood-color="#8c948f" flood-opacity="0.18"/></filter>
  </defs>
  <rect x="0" y="0" width="3200" height="1800" fill="url(#pageBg)"/>
  <rect x="0" y="0" width="3200" height="1800" fill="url(#paperGrain)" opacity="0.44"/>
  <rect x="54" y="48" width="3092" height="162" rx="32" fill="#fbf8f1" stroke="#bcc4c5" stroke-width="2.2" filter="url(#shadow)"/>
  
    <rect x="92" y="78" width="248" height="42" rx="21" fill="#b89443" stroke="#b89443" stroke-width="1.2"/>
    <text x="216" y="106" text-anchor="middle" font-family="Helvetica Neue, Arial, sans-serif" font-size="19" font-weight="700" letter-spacing="2" fill="#fbf8f1">INFLUENCE LADDER</text>
  
  
    <rect x="2914" y="78" width="174" height="42" rx="21" fill="#efe5cb" stroke="#efe5cb" stroke-width="1.2"/>
    <text x="3001" y="106" text-anchor="middle" font-family="Helvetica Neue, Arial, sans-serif" font-size="19" font-weight="700" letter-spacing="2" fill="#20303d">FIG. 10</text>
  
  <text x="92" y="152" font-family="Helvetica Neue, Arial, sans-serif" font-size="60" font-weight="700" fill="#20303d">Sensitivity Influence Ladder</text>
  <text x="92" y="189" font-family="Helvetica Neue, Arial, sans-serif" font-size="26" fill="#687682">Management levers are ranked as outcome spans instead of reusing a standard tornado template</text>
  <rect x="92" y="98" width="2768" height="7" rx="4" fill="#b89443"/><rect x="92" y="108" width="1826.88" height="2" rx="1" fill="#bcc4c5"/>
  
    <rect x="58" y="256" width="3084" height="1482" rx="34" fill="#fbf8f1" stroke="#bcc4c5" stroke-width="2.3" filter="url(#shadow)"/>
    <rect x="74" y="272" width="3052" height="1450" rx="28" fill="#f8f3ea" stroke="#dad3c4" stroke-width="1.5"/>
  <rect x="160" y="334" width="2880" height="1220" rx="28" fill="#ffffff" stroke="#bcc4c5" stroke-width="2" filter="url(#shadow)"/><line x1="1640" y1="470" x2="1640" y2="1380" stroke="#20303d" stroke-width="2.4"/><text x="1310" y="420" text-anchor="middle" font-family="Helvetica Neue, Arial, sans-serif" font-size="24" font-weight="700" fill="#687682">worse than baseline</text><text x="1970" y="420" text-anchor="middle" font-family="Helvetica Neue, Arial, sans-serif" font-size="24" font-weight="700" fill="#687682">better than baseline</text><circle cx="320" cy="410" r="24" fill="#8f4637"/><text x="320" y="418" text-anchor="middle" font-family="Helvetica Neue, Arial, sans-serif" font-size="20" font-weight="700" fill="#fbf8f1">1</text><text x="376" y="418" font-family="Helvetica Neue, Arial, sans-serif" font-size="34" font-weight="700" fill="#20303d">Ranger count</text><line x1="1200" y1="410" x2="1942.5" y2="410" stroke="#8f4637" stroke-width="16" stroke-linecap="round" opacity="0.82"/><circle cx="1200" cy="410" r="11" fill="#8f4637"/><circle cx="1942.5" cy="410" r="11" fill="#405b74"/><text x="1182" y="418" text-anchor="end" font-family="Helvetica Neue, Arial, sans-serif" font-size="24" fill="#687682">-0.16</text><text x="1960.5" y="418" font-family="Helvetica Neue, Arial, sans-serif" font-size="24" fill="#687682">+0.11</text><circle cx="320" cy="630" r="24" fill="#b89443"/><text x="320" y="638" text-anchor="middle" font-family="Helvetica Neue, Arial, sans-serif" font-size="20" font-weight="700" fill="#fbf8f1">2</text><text x="376" y="638" font-family="Helvetica Neue, Arial, sans-serif" font-size="34" font-weight="700" fill="#20303d">Detection quality</text><line x1="1365" y1="630" x2="1860" y2="630" stroke="#b89443" stroke-width="16" stroke-linecap="round" opacity="0.82"/><circle cx="1365" cy="630" r="11" fill="#8f4637"/><circle cx="1860" cy="630" r="11" fill="#405b74"/><text x="1347" y="638" text-anchor="end" font-family="Helvetica Neue, Arial, sans-serif" font-size="24" fill="#687682">-0.10</text><text x="1878" y="638" font-family="Helvetica Neue, Arial, sans-serif" font-size="24" fill="#687682">+0.08</text><circle cx="320" cy="850" r="24" fill="#405b74"/><text x="320" y="858" text-anchor="middle" font-family="Helvetica Neue, Arial, sans-serif" font-size="20" font-weight="700" fill="#fbf8f1">3</text><text x="376" y="858" font-family="Helvetica Neue, Arial, sans-serif" font-size="34" font-weight="700" fill="#20303d">Patrol interval</text><line x1="1447.5" y1="850" x2="1777.5" y2="850" stroke="#405b74" stroke-width="16" stroke-linecap="round" opacity="0.82"/><circle cx="1447.5" cy="850" r="11" fill="#8f4637"/><circle cx="1777.5" cy="850" r="11" fill="#405b74"/><text x="1429.5" y="858" text-anchor="end" font-family="Helvetica Neue, Arial, sans-serif" font-size="24" fill="#687682">-0.07</text><text x="1795.5" y="858" font-family="Helvetica Neue, Arial, sans-serif" font-size="24" fill="#687682">+0.05</text><circle cx="320" cy="1070" r="24" fill="#6d8368"/><text x="320" y="1078" text-anchor="middle" font-family="Helvetica Neue, Arial, sans-serif" font-size="20" font-weight="700" fill="#fbf8f1">4</text><text x="376" y="1078" font-family="Helvetica Neue, Arial, sans-serif" font-size="34" font-weight="700" fill="#20303d">Fixed devices</text><line x1="1530" y1="1070" x2="1722.5" y2="1070" stroke="#6d8368" stroke-width="16" stroke-linecap="round" opacity="0.82"/><circle cx="1530" cy="1070" r="11" fill="#8f4637"/><circle cx="1722.5" cy="1070" r="11" fill="#405b74"/><text x="1512" y="1078" text-anchor="end" font-family="Helvetica Neue, Arial, sans-serif" font-size="24" fill="#687682">-0.04</text><text x="1740.5" y="1078" font-family="Helvetica Neue, Arial, sans-serif" font-size="24" fill="#687682">+0.03</text>
    <rect x="2300" y="1100" width="640" height="260" rx="24" fill="#ffffff" stroke="#bcc4c5" stroke-width="2" filter="url(#shadow)"/>
    <rect x="2300" y="1100" width="640" height="12" rx="24" fill="#b89443" opacity="0.92"/>
    <text x="2326" y="1158" font-family="Helvetica Neue, Arial, sans-serif" font-size="34" font-weight="700" fill="#20303d">Interpretation</text>
    <text x="2326" y="1206" font-family="Helvetica Neue, Arial, sans-serif" font-size="23" fill="#687682">The span length is the full management swing around baseline PI.</text><text x="2326" y="1240" font-family="Helvetica Neue, Arial, sans-serif" font-size="23" fill="#687682">Ranger count dominates, detection quality is second, and devices remain the smallest lever.</text>
  
</svg>