<?xml version="1.0" encoding="UTF-8"?>
<svg xmlns="http://www.w3.org/2000/svg" viewBox="0 0 3000 1289" width="3000" height="1289">
  <defs>
    <linearGradient id="legendGrad" x1="0" y1="1" x2="0" y2="0">
      <stop offset="0%" stop-color="rgb(255,247,188)"/>
      <stop offset="25%" stop-color="rgb(254,227,145)"/>
      <stop offset="50%" stop-color="rgb(254,196,79)"/>
      <stop offset="75%" stop-color="rgb(244,124,32)"/>
      <stop offset="100%" stop-color="rgb(206,45,37)"/>
    </linearGradient>
    <linearGradient id="paperBg" x1="0" y1="0" x2="0" y2="1">
      <stop offset="0%" stop-color="#fbfdff"/>
      <stop offset="100%" stop-color="#f2f6fb"/>
    </linearGradient>
    <linearGradient id="headerAccent" x1="0" y1="0" x2="1" y2="0">
      <stop offset="0%" stop-color="#3b4992"/>
      <stop offset="45%" stop-color="#4dbbd5"/>
      <stop offset="100%" stop-color="#008280"/>
    </linearGradient>
    <radialGradient id="mapVignette" cx="50%" cy="38%" r="80%">
      <stop offset="0%" stop-color="#ffffff" stop-opacity="0.00"/>
      <stop offset="100%" stop-color="#081220" stop-opacity="0.20"/>
    </radialGradient>
    <filter id="cardShadow" x="-20%" y="-20%" width="140%" height="140%">
      <feDropShadow dx="0" dy="10" stdDeviation="12" flood-color="#a8b7c8" flood-opacity="0.23"/>
    </filter>
  </defs>
  <image href="../map_assets/etosha_official_map.jpg" x="0" y="0" width="3000" height="1289"/><rect x="0" y="0" width="3000" height="1289" fill="#102035" fill-opacity="0.10"/><rect x="0" y="0" width="3000" height="1289" fill="url(#mapVignette)"/>
  <rect x="28" y="26" width="2944" height="112" rx="18" fill="#ffffff" fill-opacity="0.94" stroke="#d4dce6" stroke-width="1.8" filter="url(#cardShadow)"/>
  <rect x="52" y="42" width="840.0000000000001" height="8" rx="4" fill="url(#headerAccent)"/>
  <text x="60" y="78" font-family="Times New Roman, Georgia, serif" font-size="56" font-weight="700" fill="#18324a">Station-Centered Response Time Map</text>
  <text x="60" y="115" font-family="Times New Roman, Georgia, serif" font-size="30" fill="#405d78">GIS-style isochrone overlay linking station geography to likely interception delay</text>
  
  <path d="M 150 1030 C 520 760, 1180 890, 1640 906 S 2280 782, 2790 560" fill="none" stroke="#ffffff" stroke-width="14" stroke-linecap="round" stroke-opacity="0.35"/>
  <path d="M 150 1030 C 520 760, 1180 890, 1640 906 S 2280 782, 2790 560" fill="none" stroke="#4aa3d8" stroke-width="6" stroke-linecap="round" stroke-dasharray="18 12" stroke-opacity="0.88"/>
  <rect x="360" y="110" width="310" height="135" fill="#c8d7e6" fill-opacity="0.08" stroke="#fff" stroke-opacity="0.18"/><rect x="670" y="110" width="310" height="135" fill="#c8d7e6" fill-opacity="0.08" stroke="#fff" stroke-opacity="0.18"/><rect x="980" y="110" width="310" height="135" fill="#c8d7e6" fill-opacity="0.08" stroke="#fff" stroke-opacity="0.18"/><rect x="1290" y="110" width="310" height="135" fill="#c8d7e6" fill-opacity="0.08" stroke="#fff" stroke-opacity="0.18"/><rect x="1600" y="110" width="310" height="135" fill="#c8d7e6" fill-opacity="0.08" stroke="#fff" stroke-opacity="0.18"/><rect x="1910" y="110" width="310" height="135" fill="#c8d7e6" fill-opacity="0.08" stroke="#fff" stroke-opacity="0.18"/><rect x="2220" y="110" width="310" height="135" fill="#c8d7e6" fill-opacity="0.08" stroke="#fff" stroke-opacity="0.18"/><rect x="2530" y="110" width="310" height="135" fill="#f4b942" fill-opacity="0.16" stroke="#fff" stroke-opacity="0.26"/><rect x="360" y="245" width="310" height="135" fill="#c8d7e6" fill-opacity="0.08" stroke="#fff" stroke-opacity="0.18"/><rect x="670" y="245" width="310" height="135" fill="#c8d7e6" fill-opacity="0.08" stroke="#fff" stroke-opacity="0.18"/><rect x="980" y="245" width="310" height="135" fill="#c8d7e6" fill-opacity="0.08" stroke="#fff" stroke-opacity="0.18"/><rect x="1290" y="245" width="310" height="135" fill="#c8d7e6" fill-opacity="0.08" stroke="#fff" stroke-opacity="0.18"/><rect x="1600" y="245" width="310" height="135" fill="#c8d7e6" fill-opacity="0.08" stroke="#fff" stroke-opacity="0.18"/><rect x="1910" y="245" width="310" height="135" fill="#f4b942" fill-opacity="0.16" stroke="#fff" stroke-opacity="0.26"/><rect x="2220" y="245" width="310" height="135" fill="#f4b942" fill-opacity="0.16" stroke="#fff" stroke-opacity="0.26"/><rect x="2530" y="245" width="310" height="135" fill="#f4b942" fill-opacity="0.16" stroke="#fff" stroke-opacity="0.26"/><rect x="360" y="380" width="310" height="135" fill="#c8d7e6" fill-opacity="0.08" stroke="#fff" stroke-opacity="0.18"/><rect x="670" y="380" width="310" height="135" fill="#c8d7e6" fill-opacity="0.08" stroke="#fff" stroke-opacity="0.18"/><rect x="980" y="380" width="310" height="135" fill="#c8d7e6" fill-opacity="0.08" stroke="#fff" stroke-opacity="0.18"/><rect x="1290" y="380" width="310" height="135" fill="#c8d7e6" fill-opacity="0.08" stroke="#fff" stroke-opacity="0.18"/><rect x="1600" y="380" width="310" height="135" fill="#f4b942" fill-opacity="0.16" stroke="#fff" stroke-opacity="0.26"/><rect x="1910" y="380" width="310" height="135" fill="#f4b942" fill-opacity="0.16" stroke="#fff" stroke-opacity="0.26"/><rect x="2220" y="380" width="310" height="135" fill="#f4b942" fill-opacity="0.16" stroke="#fff" stroke-opacity="0.26"/><rect x="2530" y="380" width="310" height="135" fill="#f4b942" fill-opacity="0.16" stroke="#fff" stroke-opacity="0.26"/><rect x="360" y="515" width="310" height="135" fill="#c8d7e6" fill-opacity="0.08" stroke="#fff" stroke-opacity="0.18"/><rect x="670" y="515" width="310" height="135" fill="#c8d7e6" fill-opacity="0.08" stroke="#fff" stroke-opacity="0.18"/><rect x="980" y="515" width="310" height="135" fill="#c8d7e6" fill-opacity="0.08" stroke="#fff" stroke-opacity="0.18"/><rect x="1290" y="515" width="310" height="135" fill="#c8d7e6" fill-opacity="0.08" stroke="#fff" stroke-opacity="0.18"/><rect x="1600" y="515" width="310" height="135" fill="#f4b942" fill-opacity="0.16" stroke="#fff" stroke-opacity="0.26"/><rect x="1910" y="515" width="310" height="135" fill="#d1495b" fill-opacity="0.28" stroke="#fff" stroke-opacity="0.45"/>
          <rect x="1918" y="523" width="294" height="119" rx="10" fill="none" stroke="#ffe1d5" stroke-width="2.2" stroke-dasharray="8 6"/><rect x="2220" y="515" width="310" height="135" fill="#d1495b" fill-opacity="0.28" stroke="#fff" stroke-opacity="0.45"/>
          <rect x="2228" y="523" width="294" height="119" rx="10" fill="none" stroke="#ffe1d5" stroke-width="2.2" stroke-dasharray="8 6"/><rect x="2530" y="515" width="310" height="135" fill="#d1495b" fill-opacity="0.28" stroke="#fff" stroke-opacity="0.45"/>
          <rect x="2538" y="523" width="294" height="119" rx="10" fill="none" stroke="#ffe1d5" stroke-width="2.2" stroke-dasharray="8 6"/><rect x="360" y="650" width="310" height="135" fill="#c8d7e6" fill-opacity="0.08" stroke="#fff" stroke-opacity="0.18"/><rect x="670" y="650" width="310" height="135" fill="#c8d7e6" fill-opacity="0.08" stroke="#fff" stroke-opacity="0.18"/><rect x="980" y="650" width="310" height="135" fill="#c8d7e6" fill-opacity="0.08" stroke="#fff" stroke-opacity="0.18"/><rect x="1290" y="650" width="310" height="135" fill="#f4b942" fill-opacity="0.16" stroke="#fff" stroke-opacity="0.26"/><rect x="1600" y="650" width="310" height="135" fill="#d1495b" fill-opacity="0.28" stroke="#fff" stroke-opacity="0.45"/>
          <rect x="1608" y="658" width="294" height="119" rx="10" fill="none" stroke="#ffe1d5" stroke-width="2.2" stroke-dasharray="8 6"/><rect x="1910" y="650" width="310" height="135" fill="#d1495b" fill-opacity="0.28" stroke="#fff" stroke-opacity="0.45"/>
          <rect x="1918" y="658" width="294" height="119" rx="10" fill="none" stroke="#ffe1d5" stroke-width="2.2" stroke-dasharray="8 6"/><rect x="2220" y="650" width="310" height="135" fill="#d1495b" fill-opacity="0.28" stroke="#fff" stroke-opacity="0.45"/>
          <rect x="2228" y="658" width="294" height="119" rx="10" fill="none" stroke="#ffe1d5" stroke-width="2.2" stroke-dasharray="8 6"/><rect x="2530" y="650" width="310" height="135" fill="#d1495b" fill-opacity="0.28" stroke="#fff" stroke-opacity="0.45"/>
          <rect x="2538" y="658" width="294" height="119" rx="10" fill="none" stroke="#ffe1d5" stroke-width="2.2" stroke-dasharray="8 6"/><rect x="360" y="785" width="310" height="135" fill="#c8d7e6" fill-opacity="0.08" stroke="#fff" stroke-opacity="0.18"/><rect x="670" y="785" width="310" height="135" fill="#c8d7e6" fill-opacity="0.08" stroke="#fff" stroke-opacity="0.18"/><rect x="980" y="785" width="310" height="135" fill="#c8d7e6" fill-opacity="0.08" stroke="#fff" stroke-opacity="0.18"/><rect x="1290" y="785" width="310" height="135" fill="#f4b942" fill-opacity="0.16" stroke="#fff" stroke-opacity="0.26"/><rect x="1600" y="785" width="310" height="135" fill="#f4b942" fill-opacity="0.16" stroke="#fff" stroke-opacity="0.26"/><rect x="1910" y="785" width="310" height="135" fill="#d1495b" fill-opacity="0.28" stroke="#fff" stroke-opacity="0.45"/>
          <rect x="1918" y="793" width="294" height="119" rx="10" fill="none" stroke="#ffe1d5" stroke-width="2.2" stroke-dasharray="8 6"/><rect x="2220" y="785" width="310" height="135" fill="#d1495b" fill-opacity="0.28" stroke="#fff" stroke-opacity="0.45"/>
          <rect x="2228" y="793" width="294" height="119" rx="10" fill="none" stroke="#ffe1d5" stroke-width="2.2" stroke-dasharray="8 6"/><rect x="2530" y="785" width="310" height="135" fill="#d1495b" fill-opacity="0.28" stroke="#fff" stroke-opacity="0.45"/>
          <rect x="2538" y="793" width="294" height="119" rx="10" fill="none" stroke="#ffe1d5" stroke-width="2.2" stroke-dasharray="8 6"/><rect x="360" y="920" width="310" height="135" fill="#c8d7e6" fill-opacity="0.08" stroke="#fff" stroke-opacity="0.18"/><rect x="670" y="920" width="310" height="135" fill="#c8d7e6" fill-opacity="0.08" stroke="#fff" stroke-opacity="0.18"/><rect x="980" y="920" width="310" height="135" fill="#c8d7e6" fill-opacity="0.08" stroke="#fff" stroke-opacity="0.18"/><rect x="1290" y="920" width="310" height="135" fill="#c8d7e6" fill-opacity="0.08" stroke="#fff" stroke-opacity="0.18"/><rect x="1600" y="920" width="310" height="135" fill="#c8d7e6" fill-opacity="0.08" stroke="#fff" stroke-opacity="0.18"/><rect x="1910" y="920" width="310" height="135" fill="#c8d7e6" fill-opacity="0.08" stroke="#fff" stroke-opacity="0.18"/><rect x="2220" y="920" width="310" height="135" fill="#f4b942" fill-opacity="0.16" stroke="#fff" stroke-opacity="0.26"/><rect x="2530" y="920" width="310" height="135" fill="#f4b942" fill-opacity="0.16" stroke="#fff" stroke-opacity="0.26"/><rect x="360" y="1055" width="310" height="135" fill="#c8d7e6" fill-opacity="0.08" stroke="#fff" stroke-opacity="0.18"/><rect x="670" y="1055" width="310" height="135" fill="#c8d7e6" fill-opacity="0.08" stroke="#fff" stroke-opacity="0.18"/><rect x="980" y="1055" width="310" height="135" fill="#c8d7e6" fill-opacity="0.08" stroke="#fff" stroke-opacity="0.18"/><rect x="1290" y="1055" width="310" height="135" fill="#c8d7e6" fill-opacity="0.08" stroke="#fff" stroke-opacity="0.18"/><rect x="1600" y="1055" width="310" height="135" fill="#c8d7e6" fill-opacity="0.08" stroke="#fff" stroke-opacity="0.18"/><rect x="1910" y="1055" width="310" height="135" fill="#c8d7e6" fill-opacity="0.08" stroke="#fff" stroke-opacity="0.18"/><rect x="2220" y="1055" width="310" height="135" fill="#c8d7e6" fill-opacity="0.08" stroke="#fff" stroke-opacity="0.18"/><rect x="2530" y="1055" width="310" height="135" fill="#f4b942" fill-opacity="0.16" stroke="#fff" stroke-opacity="0.26"/><rect x="360" y="110" width="2480" height="1080" fill="none" stroke="#fff" stroke-width="3"/>
  <circle cx="146" cy="730" r="380" fill="#bfe4fb" fill-opacity="0.10" stroke="#9fd1f1" stroke-width="2.2"/>
    <circle cx="146" cy="730" r="250" fill="#89c8f3" fill-opacity="0.12" stroke="#75bbe9" stroke-width="2.2"/>
    <circle cx="146" cy="730" r="140" fill="#3e9fe0" fill-opacity="0.14" stroke="#2d89cb" stroke-width="2.2"/><circle cx="1608" cy="905" r="470" fill="#bfe4fb" fill-opacity="0.10" stroke="#9fd1f1" stroke-width="2.2"/>
    <circle cx="1608" cy="905" r="320" fill="#89c8f3" fill-opacity="0.12" stroke="#75bbe9" stroke-width="2.2"/>
    <circle cx="1608" cy="905" r="170" fill="#3e9fe0" fill-opacity="0.14" stroke="#2d89cb" stroke-width="2.2"/><circle cx="2140" cy="805" r="440" fill="#bfe4fb" fill-opacity="0.10" stroke="#9fd1f1" stroke-width="2.2"/>
    <circle cx="2140" cy="805" r="300" fill="#89c8f3" fill-opacity="0.12" stroke="#75bbe9" stroke-width="2.2"/>
    <circle cx="2140" cy="805" r="160" fill="#3e9fe0" fill-opacity="0.14" stroke="#2d89cb" stroke-width="2.2"/><circle cx="2620" cy="560" r="410" fill="#bfe4fb" fill-opacity="0.10" stroke="#9fd1f1" stroke-width="2.2"/>
    <circle cx="2620" cy="560" r="280" fill="#89c8f3" fill-opacity="0.12" stroke="#75bbe9" stroke-width="2.2"/>
    <circle cx="2620" cy="560" r="150" fill="#3e9fe0" fill-opacity="0.14" stroke="#2d89cb" stroke-width="2.2"/>
  <ellipse cx="2420" cy="760" rx="430" ry="210" fill="#f18972" fill-opacity="0.22" stroke="#ffd4cb" stroke-width="3.2"/>
  <rect x="2080" y="675" width="360" height="54" rx="27" fill="#ffffff" fill-opacity="0.92" stroke="#f0d3ce" stroke-width="1.8"/>
  <text x="2260" y="710" text-anchor="middle" font-family="Times New Roman, Georgia, serif" font-size="26" font-weight="700" fill="#d55e00">Delayed-response pocket</text>
  <rect x="1920" y="525" width="290" height="115" rx="10" fill="none" stroke="#ffe8d9" stroke-width="2.3" stroke-dasharray="9 7"/><rect x="2230" y="525" width="290" height="115" rx="10" fill="none" stroke="#ffe8d9" stroke-width="2.3" stroke-dasharray="9 7"/><rect x="2540" y="525" width="290" height="115" rx="10" fill="none" stroke="#ffe8d9" stroke-width="2.3" stroke-dasharray="9 7"/><rect x="1610" y="660" width="290" height="115" rx="10" fill="none" stroke="#ffe8d9" stroke-width="2.3" stroke-dasharray="9 7"/><rect x="1920" y="660" width="290" height="115" rx="10" fill="none" stroke="#ffe8d9" stroke-width="2.3" stroke-dasharray="9 7"/><rect x="2230" y="660" width="290" height="115" rx="10" fill="none" stroke="#ffe8d9" stroke-width="2.3" stroke-dasharray="9 7"/><rect x="2540" y="660" width="290" height="115" rx="10" fill="none" stroke="#ffe8d9" stroke-width="2.3" stroke-dasharray="9 7"/><rect x="1920" y="795" width="290" height="115" rx="10" fill="none" stroke="#ffe8d9" stroke-width="2.3" stroke-dasharray="9 7"/><rect x="2230" y="795" width="290" height="115" rx="10" fill="none" stroke="#ffe8d9" stroke-width="2.3" stroke-dasharray="9 7"/><rect x="2540" y="795" width="290" height="115" rx="10" fill="none" stroke="#ffe8d9" stroke-width="2.3" stroke-dasharray="9 7"/>
  <text x="515" y="92" text-anchor="middle" font-family="Times New Roman, Georgia, serif" font-size="22" font-weight="700" fill="#f4f7fb">A</text><text x="825" y="92" text-anchor="middle" font-family="Times New Roman, Georgia, serif" font-size="22" font-weight="700" fill="#f4f7fb">B</text><text x="1135" y="92" text-anchor="middle" font-family="Times New Roman, Georgia, serif" font-size="22" font-weight="700" fill="#f4f7fb">C</text><text x="1445" y="92" text-anchor="middle" font-family="Times New Roman, Georgia, serif" font-size="22" font-weight="700" fill="#f4f7fb">D</text><text x="1755" y="92" text-anchor="middle" font-family="Times New Roman, Georgia, serif" font-size="22" font-weight="700" fill="#f4f7fb">E</text><text x="2065" y="92" text-anchor="middle" font-family="Times New Roman, Georgia, serif" font-size="22" font-weight="700" fill="#f4f7fb">F</text><text x="2375" y="92" text-anchor="middle" font-family="Times New Roman, Georgia, serif" font-size="22" font-weight="700" fill="#f4f7fb">G</text><text x="2685" y="92" text-anchor="middle" font-family="Times New Roman, Georgia, serif" font-size="22" font-weight="700" fill="#f4f7fb">H</text><text x="336" y="185.5" text-anchor="end" font-family="Times New Roman, Georgia, serif" font-size="22" font-weight="700" fill="#f4f7fb">1</text><text x="336" y="320.5" text-anchor="end" font-family="Times New Roman, Georgia, serif" font-size="22" font-weight="700" fill="#f4f7fb">2</text><text x="336" y="455.5" text-anchor="end" font-family="Times New Roman, Georgia, serif" font-size="22" font-weight="700" fill="#f4f7fb">3</text><text x="336" y="590.5" text-anchor="end" font-family="Times New Roman, Georgia, serif" font-size="22" font-weight="700" fill="#f4f7fb">4</text><text x="336" y="725.5" text-anchor="end" font-family="Times New Roman, Georgia, serif" font-size="22" font-weight="700" fill="#f4f7fb">5</text><text x="336" y="860.5" text-anchor="end" font-family="Times New Roman, Georgia, serif" font-size="22" font-weight="700" fill="#f4f7fb">6</text><text x="336" y="995.5" text-anchor="end" font-family="Times New Roman, Georgia, serif" font-size="22" font-weight="700" fill="#f4f7fb">7</text><text x="336" y="1130.5" text-anchor="end" font-family="Times New Roman, Georgia, serif" font-size="22" font-weight="700" fill="#f4f7fb">8</text>
  <circle cx="146" cy="730" r="20" fill="#fff" stroke="#7a1225" stroke-width="6"/><circle cx="146" cy="730" r="7" fill="#7a1225"/>
    <rect x="166" y="706" width="154" height="34" rx="8" fill="#fff" fill-opacity="0.9" stroke="#d1dae5"/>
    <text x="178" y="729" font-family="Times New Roman, Georgia, serif" font-size="24" font-weight="700" fill="#182b3c">Dolomite</text><circle cx="480" cy="680" r="20" fill="#fff" stroke="#7a1225" stroke-width="6"/><circle cx="480" cy="680" r="7" fill="#7a1225"/>
    <rect x="500" y="656" width="205" height="34" rx="8" fill="#fff" fill-opacity="0.9" stroke="#d1dae5"/>
    <text x="512" y="679" font-family="Times New Roman, Georgia, serif" font-size="24" font-weight="700" fill="#182b3c">Olifantsrus</text><circle cx="1608" cy="905" r="20" fill="#fff" stroke="#7a1225" stroke-width="6"/><circle cx="1608" cy="905" r="7" fill="#7a1225"/>
    <rect x="1628" y="881" width="171" height="34" rx="8" fill="#fff" fill-opacity="0.9" stroke="#d1dae5"/>
    <text x="1640" y="904" font-family="Times New Roman, Georgia, serif" font-size="24" font-weight="700" fill="#182b3c">Okaukuejo</text><circle cx="2140" cy="805" r="20" fill="#fff" stroke="#7a1225" stroke-width="6"/><circle cx="2140" cy="805" r="7" fill="#7a1225"/>
    <rect x="2160" y="781" width="120" height="34" rx="8" fill="#fff" fill-opacity="0.9" stroke="#d1dae5"/>
    <text x="2172" y="804" font-family="Times New Roman, Georgia, serif" font-size="24" font-weight="700" fill="#182b3c">Halali</text><circle cx="2620" cy="560" r="20" fill="#fff" stroke="#7a1225" stroke-width="6"/><circle cx="2620" cy="560" r="7" fill="#7a1225"/>
    <rect x="2640" y="536" width="154" height="34" rx="8" fill="#fff" fill-opacity="0.9" stroke="#d1dae5"/>
    <text x="2652" y="559" font-family="Times New Roman, Georgia, serif" font-size="24" font-weight="700" fill="#182b3c">Namutoni</text><circle cx="2480" cy="430" r="20" fill="#fff" stroke="#7a1225" stroke-width="6"/><circle cx="2480" cy="430" r="7" fill="#7a1225"/>
    <rect x="2500" y="406" width="137" height="34" rx="8" fill="#fff" fill-opacity="0.9" stroke="#d1dae5"/>
    <text x="2512" y="429" font-family="Times New Roman, Georgia, serif" font-size="24" font-weight="700" fill="#182b3c">Onkoshi</text>
  <circle cx="170" cy="1075" r="17" fill="#f2fff4" stroke="#2e7d32" stroke-width="5"/>
    <text x="170" y="1083" text-anchor="middle" font-family="Times New Roman, Georgia, serif" font-size="22" font-weight="700" fill="#2e7d32">G</text>
    <text x="194" y="1081" font-family="Times New Roman, Georgia, serif" font-size="21" fill="#1f3c24">Galton Gate</text><circle cx="1620" cy="1090" r="17" fill="#f2fff4" stroke="#2e7d32" stroke-width="5"/>
    <text x="1620" y="1098" text-anchor="middle" font-family="Times New Roman, Georgia, serif" font-size="22" font-weight="700" fill="#2e7d32">G</text>
    <text x="1644" y="1096" font-family="Times New Roman, Georgia, serif" font-size="21" fill="#1f3c24">Andersson Gate</text><circle cx="2820" cy="585" r="17" fill="#f2fff4" stroke="#2e7d32" stroke-width="5"/>
    <text x="2820" y="593" text-anchor="middle" font-family="Times New Roman, Georgia, serif" font-size="22" font-weight="700" fill="#2e7d32">G</text>
    <text x="2844" y="591" font-family="Times New Roman, Georgia, serif" font-size="21" fill="#1f3c24">VonLindequist Gate</text><circle cx="2330" cy="70" r="17" fill="#f2fff4" stroke="#2e7d32" stroke-width="5"/>
    <text x="2330" y="78" text-anchor="middle" font-family="Times New Roman, Georgia, serif" font-size="22" font-weight="700" fill="#2e7d32">G</text>
    <text x="2354" y="76" font-family="Times New Roman, Georgia, serif" font-size="21" fill="#1f3c24">Nehale Gate</text>
  <circle cx="380" cy="690" r="7" fill="#ff5a36" fill-opacity="0.84" stroke="#fff" stroke-width="2"/><circle cx="550" cy="700" r="7" fill="#ff5a36" fill-opacity="0.84" stroke="#fff" stroke-width="2"/><circle cx="700" cy="682" r="7" fill="#ff5a36" fill-opacity="0.84" stroke="#fff" stroke-width="2"/><circle cx="860" cy="670" r="7" fill="#ff5a36" fill-opacity="0.84" stroke="#fff" stroke-width="2"/><circle cx="1020" cy="665" r="7" fill="#ff5a36" fill-opacity="0.84" stroke="#fff" stroke-width="2"/><circle cx="1210" cy="665" r="7" fill="#ff5a36" fill-opacity="0.84" stroke="#fff" stroke-width="2"/><circle cx="1390" cy="694" r="7" fill="#ff5a36" fill-opacity="0.84" stroke="#fff" stroke-width="2"/><circle cx="1530" cy="730" r="7" fill="#ff5a36" fill-opacity="0.84" stroke="#fff" stroke-width="2"/><circle cx="1700" cy="845" r="7" fill="#ff5a36" fill-opacity="0.84" stroke="#fff" stroke-width="2"/><circle cx="1830" cy="808" r="7" fill="#ff5a36" fill-opacity="0.84" stroke="#fff" stroke-width="2"/><circle cx="1950" cy="770" r="7" fill="#ff5a36" fill-opacity="0.84" stroke="#fff" stroke-width="2"/><circle cx="2060" cy="744" r="7" fill="#ff5a36" fill-opacity="0.84" stroke="#fff" stroke-width="2"/><circle cx="2180" cy="710" r="7" fill="#ff5a36" fill-opacity="0.84" stroke="#fff" stroke-width="2"/><circle cx="2290" cy="680" r="7" fill="#ff5a36" fill-opacity="0.84" stroke="#fff" stroke-width="2"/><circle cx="2400" cy="650" r="7" fill="#ff5a36" fill-opacity="0.84" stroke="#fff" stroke-width="2"/><circle cx="2490" cy="624" r="7" fill="#ff5a36" fill-opacity="0.84" stroke="#fff" stroke-width="2"/><circle cx="2580" cy="600" r="7" fill="#ff5a36" fill-opacity="0.84" stroke="#fff" stroke-width="2"/><circle cx="2660" cy="580" r="7" fill="#ff5a36" fill-opacity="0.84" stroke="#fff" stroke-width="2"/><circle cx="2720" cy="560" r="7" fill="#ff5a36" fill-opacity="0.84" stroke="#fff" stroke-width="2"/><circle cx="2780" cy="540" r="7" fill="#ff5a36" fill-opacity="0.84" stroke="#fff" stroke-width="2"/><circle cx="2840" cy="520" r="7" fill="#ff5a36" fill-opacity="0.84" stroke="#fff" stroke-width="2"/><circle cx="2440" cy="850" r="7" fill="#ff5a36" fill-opacity="0.84" stroke="#fff" stroke-width="2"/><circle cx="2280" cy="860" r="7" fill="#ff5a36" fill-opacity="0.84" stroke="#fff" stroke-width="2"/><circle cx="2060" cy="900" r="7" fill="#ff5a36" fill-opacity="0.84" stroke="#fff" stroke-width="2"/>
  <rect x="2060" y="190" width="760" height="256" rx="16" fill="#ffffff" fill-opacity="0.93" stroke="#d5dee9" stroke-width="1.8" filter="url(#cardShadow)"/><text x="2084" y="232" font-family="Times New Roman, Georgia, serif" font-size="28" font-weight="700" fill="#18324a">Response Isochrones</text><rect x="2084" y="244" width="24" height="18" rx="4" fill="#3e9fe0" /><text x="2148" y="262" font-family="Times New Roman, Georgia, serif" font-size="21" fill="#405d78">0-15 min rapid intercept zone</text><rect x="2084" y="284" width="24" height="18" rx="4" fill="#89c8f3" /><text x="2148" y="302" font-family="Times New Roman, Georgia, serif" font-size="21" fill="#405d78">15-30 min normal deployment zone</text><rect x="2084" y="324" width="24" height="18" rx="4" fill="#bfe4fb" /><text x="2148" y="342" font-family="Times New Roman, Georgia, serif" font-size="21" fill="#405d78">30-45 min stretched support zone</text><rect x="2084" y="364" width="24" height="18" rx="4" fill="#f18972" /><text x="2148" y="382" font-family="Times New Roman, Georgia, serif" font-size="21" fill="#405d78">High-delay corridor requiring staging</text>
  <rect x="2060" y="804" width="760" height="280" rx="16" fill="#ffffff" fill-opacity="0.95" stroke="#d5dee9" stroke-width="1.8" filter="url(#cardShadow)"/><text x="2084" y="846" font-family="Times New Roman, Georgia, serif" font-size="28" font-weight="700" fill="#18324a">Operational Reading</text><text x="2084" y="882" font-family="Times New Roman, Georgia, serif" font-size="21" fill="#405d78">Western and central camps provide overlapping response coverage.</text><text x="2084" y="910" font-family="Times New Roman, Georgia, serif" font-size="21" fill="#405d78">That overlap follows the main mobility corridor across the park.</text><text x="2084" y="938" font-family="Times New Roman, Georgia, serif" font-size="21" fill="#405d78">The eastern corridor still contains a delay pocket.</text><text x="2084" y="966" font-family="Times New Roman, Georgia, serif" font-size="21" fill="#405d78">The command plan should pre-stage mobile patrol assets there.</text><text x="2084" y="994" font-family="Times New Roman, Georgia, serif" font-size="21" fill="#405d78">Hotspot overlap with delay supports forward reserve positioning.</text>
</svg>