<?xml version="1.0" encoding="UTF-8"?>
<svg xmlns="http://www.w3.org/2000/svg" viewBox="0 0 3200 1800" width="3200" height="1800">
  <defs>
    <linearGradient id="pageBg" x1="0" y1="0" x2="0" y2="1"><stop offset="0%" stop-color="#ede7de"/><stop offset="100%" stop-color="#d9d0c2"/></linearGradient>
    <linearGradient id="headBg" x1="0" y1="0" x2="1" y2="0"><stop offset="0%" stop-color="#16212a"/><stop offset="100%" stop-color="#243746"/></linearGradient>
    <pattern id="paperGrid" width="24" height="24" patternUnits="userSpaceOnUse"><path d="M 24 0 L 0 0 0 24" fill="none" stroke="#ddd3c3" stroke-width="0.8" opacity="0.32"/></pattern>
    <filter id="shadow" x="-20%" y="-20%" width="140%" height="140%"><feDropShadow dx="0" dy="12" stdDeviation="14" flood-color="#8c948f" flood-opacity="0.18"/></filter>
  </defs>
  <rect x="0" y="0" width="3200" height="1800" fill="url(#pageBg)"/>
  <rect x="0" y="0" width="3200" height="1800" fill="url(#paperGrid)" opacity="0.42"/>
  <rect x="54" y="46" width="3092" height="176" rx="24" fill="url(#headBg)" filter="url(#shadow)"/>
  <rect x="54" y="196" width="3092" height="20" fill="#4f6961" opacity="0.95"/>
  
    <rect x="92" y="82" width="270" height="38" rx="10" fill="#f2ecdf" stroke="#4f6961" stroke-opacity="0.15" stroke-width="1.2"/>
    <rect x="102" y="90" width="8" height="22" rx="4" fill="#4f6961" opacity="0.84"/>
    <text x="122" y="108" font-family="Helvetica Neue, Arial, sans-serif" font-size="18" font-weight="700" letter-spacing="1.8" fill="#4f6961">TEAM FLOOR</text>
  
  
    <rect x="2926" y="82" width="162" height="38" rx="10" fill="#f2ecdf" stroke="#16212a" stroke-opacity="0.15" stroke-width="1.2"/>
    <rect x="2936" y="90" width="8" height="22" rx="4" fill="#16212a" opacity="0.84"/>
    <text x="2956" y="108" font-family="Helvetica Neue, Arial, sans-serif" font-size="18" font-weight="700" letter-spacing="1.8" fill="#16212a">FIG. 14</text>
  
  <text x="92" y="152" font-family="Helvetica Neue, Arial, sans-serif" font-size="58" font-weight="700" fill="#fcfaf6">Team-Depth Requirement Curve</text>
  <text x="92" y="188" font-family="Helvetica Neue, Arial, sans-serif" font-size="25" fill="#d7dde0">The staffing floor is the point at which the queueing envelope stops violating the service covenant</text>
  <rect x="92" y="106" width="941.1200000000001" height="6" rx="3" fill="#4f6961"/><rect x="1088.48" y="106" width="442.88" height="6" rx="3" fill="#d5c8ae"/><rect x="1586.72" y="106" width="775.0400000000001" height="6" rx="3" fill="#8796a2" opacity="0.55"/><rect x="92" y="118" width="2103.68" height="2" rx="1" fill="#c5beb1"/>
  
    <rect x="58" y="256" width="3084" height="1482" rx="26" fill="#f5f0e8" stroke="#c5beb1" stroke-width="2.2" filter="url(#shadow)"/>
    <rect x="74" y="272" width="3052" height="1450" rx="18" fill="#fcfaf6" stroke="#ddd3c5" stroke-width="1.4"/>
    <rect x="86" y="284" width="22" height="1426" rx="11" fill="#16212a" opacity="0.92"/>
    <rect x="130" y="284" width="2984" height="34" rx="10" fill="#eef1ed"/>
    <line x1="150" y1="332" x2="150" y2="1710" stroke="#efe7da" stroke-width="1"/><line x1="732.8" y1="332" x2="732.8" y2="1710" stroke="#efe7da" stroke-width="1"/><line x1="1315.6" y1="332" x2="1315.6" y2="1710" stroke="#efe7da" stroke-width="1"/><line x1="1898.3999999999999" y1="332" x2="1898.3999999999999" y2="1710" stroke="#efe7da" stroke-width="1"/><line x1="2481.2" y1="332" x2="2481.2" y2="1710" stroke="#efe7da" stroke-width="1"/><line x1="3064" y1="332" x2="3064" y2="1710" stroke="#efe7da" stroke-width="1"/>
  <rect x="170" y="338" width="2230" height="1120" rx="26" fill="#ffffff" stroke="#c5beb1" stroke-width="2" filter="url(#shadow)"/><line x1="266" y1="1283.1612903225805" x2="2356" y2="1283.1612903225805" stroke="#d9dedf" stroke-width="1.7" stroke-dasharray="5 9"/><text x="248" y="1291.1612903225805" text-anchor="end" font-family="Helvetica Neue, Arial, sans-serif" font-size="22" fill="#5d6872">0.55</text><line x1="266" y1="1125.0967741935485" x2="2356" y2="1125.0967741935485" stroke="#d9dedf" stroke-width="1.7" stroke-dasharray="5 9"/><text x="248" y="1133.0967741935485" text-anchor="end" font-family="Helvetica Neue, Arial, sans-serif" font-size="22" fill="#5d6872">0.60</text><line x1="266" y1="967.0322580645161" x2="2356" y2="967.0322580645161" stroke="#d9dedf" stroke-width="1.7" stroke-dasharray="5 9"/><text x="248" y="975.0322580645161" text-anchor="end" font-family="Helvetica Neue, Arial, sans-serif" font-size="22" fill="#5d6872">0.65</text><line x1="266" y1="808.967741935484" x2="2356" y2="808.967741935484" stroke="#d9dedf" stroke-width="1.7" stroke-dasharray="5 9"/><text x="248" y="816.967741935484" text-anchor="end" font-family="Helvetica Neue, Arial, sans-serif" font-size="22" fill="#5d6872">0.70</text><line x1="266" y1="650.9032258064517" x2="2356" y2="650.9032258064517" stroke="#d9dedf" stroke-width="1.7" stroke-dasharray="5 9"/><text x="248" y="658.9032258064517" text-anchor="end" font-family="Helvetica Neue, Arial, sans-serif" font-size="22" fill="#5d6872">0.75</text><line x1="266" y1="492.8387096774193" x2="2356" y2="492.8387096774193" stroke="#d9dedf" stroke-width="1.7" stroke-dasharray="5 9"/><text x="248" y="500.8387096774193" text-anchor="end" font-family="Helvetica Neue, Arial, sans-serif" font-size="22" fill="#5d6872">0.80</text><line x1="266" y1="388" x2="266" y2="1378" stroke="#e2e5e6" stroke-width="1.5" stroke-dasharray="5 11"/><text x="266" y="1432" text-anchor="middle" font-family="Helvetica Neue, Arial, sans-serif" font-size="22" fill="#5d6872">22</text><line x1="614.3333333333333" y1="388" x2="614.3333333333333" y2="1378" stroke="#e2e5e6" stroke-width="1.5" stroke-dasharray="5 11"/><text x="614.3333333333333" y="1432" text-anchor="middle" font-family="Helvetica Neue, Arial, sans-serif" font-size="22" fill="#5d6872">26</text><line x1="962.6666666666666" y1="388" x2="962.6666666666666" y2="1378" stroke="#e2e5e6" stroke-width="1.5" stroke-dasharray="5 11"/><text x="962.6666666666666" y="1432" text-anchor="middle" font-family="Helvetica Neue, Arial, sans-serif" font-size="22" fill="#5d6872">30</text><line x1="1311" y1="388" x2="1311" y2="1378" stroke="#e2e5e6" stroke-width="1.5" stroke-dasharray="5 11"/><text x="1311" y="1432" text-anchor="middle" font-family="Helvetica Neue, Arial, sans-serif" font-size="22" fill="#5d6872">34</text><line x1="1659.3333333333333" y1="388" x2="1659.3333333333333" y2="1378" stroke="#e2e5e6" stroke-width="1.5" stroke-dasharray="5 11"/><text x="1659.3333333333333" y="1432" text-anchor="middle" font-family="Helvetica Neue, Arial, sans-serif" font-size="22" fill="#5d6872">38</text><line x1="2007.6666666666667" y1="388" x2="2007.6666666666667" y2="1378" stroke="#e2e5e6" stroke-width="1.5" stroke-dasharray="5 11"/><text x="2007.6666666666667" y="1432" text-anchor="middle" font-family="Helvetica Neue, Arial, sans-serif" font-size="22" fill="#5d6872">42</text><line x1="2356" y1="388" x2="2356" y2="1378" stroke="#e2e5e6" stroke-width="1.5" stroke-dasharray="5 11"/><text x="2356" y="1432" text-anchor="middle" font-family="Helvetica Neue, Arial, sans-serif" font-size="22" fill="#5d6872">46</text><line x1="266" y1="1378" x2="2356" y2="1378" stroke="#16212a" stroke-width="2.6"/><line x1="266" y1="388" x2="266" y2="1378" stroke="#16212a" stroke-width="2.6"/><text x="1285" y="1456" text-anchor="middle" font-family="Helvetica Neue, Arial, sans-serif" font-size="27" font-weight="700" fill="#16212a">field rangers</text><text x="192" y="898" transform="rotate(-90 192 898)" text-anchor="middle" font-family="Helvetica Neue, Arial, sans-serif" font-size="27" font-weight="700" fill="#16212a">protection index</text><rect x="266" y="808.967741935484" width="1045" height="569.032258064516" fill="#f2e2dc" opacity="0.38"/><rect x="1311" y="808.967741935484" width="261.25" height="569.032258064516" fill="#f1e9cf" opacity="0.42"/><rect x="1572.25" y="808.967741935484" width="783.75" height="569.032258064516" fill="#dfe9dc" opacity="0.42"/><path d="M 266 1306.6192840808865 L 266 1180.1676711776606 L 353.0833333333333 1176.7347884023525 L 440.16666666666663 1171.8968654791959 L 527.25 1165.1186663038222 L 614.3333333333333 1155.6995801487171 L 701.4166666666667 1142.758731871111 L 788.5 1125.254487320086 L 875.5833333333334 1102.0705549001182 L 962.6666666666666 1072.2050352993872 L 1049.75 1035.0790770758347 L 1136.8333333333335 990.9190188338202 L 1223.9166666666665 941.0661740016142 L 1311 887.9999999999999 L 1398.0833333333333 834.9338259983854 L 1485.1666666666667 785.0809811661792 L 1572.25 740.9209229241648 L 1659.3333333333333 703.7949647006126 L 1746.4166666666667 673.9294450998811 L 1833.5 650.7455126799138 L 1920.5833333333333 633.2412681288885 L 2007.6666666666667 620.3004198512828 L 2094.75 610.8813336961775 L 2181.833333333333 604.1031345208038 L 2268.916666666667 599.2652115976471 L 2356 595.8323288223393 L 2356 722.2839417255652 L 2268.916666666667 725.716824500873 L 2181.833333333333 730.5547474240298 L 2094.75 737.3329465994035 L 2007.6666666666667 746.7520327545087 L 1920.5833333333333 759.6928810321144 L 1833.5 777.1971255831396 L 1746.4166666666667 800.3810580031071 L 1659.3333333333333 830.2465776038384 L 1572.25 867.3725358273907 L 1485.1666666666667 911.5325940694051 L 1398.0833333333333 961.3854389016112 L 1311 1014.4516129032259 L 1223.9166666666665 1067.51778690484 L 1136.8333333333335 1117.370631737046 L 1049.75 1161.5306899790608 L 962.6666666666666 1198.6566482026133 L 875.5833333333334 1228.5221678033442 L 788.5 1251.7061002233118 L 701.4166666666667 1269.2103447743368 L 614.3333333333333 1282.151193051943 L 527.25 1291.5702792070483 L 440.16666666666663 1298.348478382422 L 353.0833333333333 1303.1864013055783 L 266 1306.6192840808865 Z" fill="#4f6961" opacity="0.18"/><path d="M 266 1243.3934776292735 L 353.0833333333333 1239.9605948539654 L 440.16666666666663 1235.1226719308088 L 527.25 1228.3444727554352 L 614.3333333333333 1218.92538660033 L 701.4166666666667 1205.984538322724 L 788.5 1188.4802937716986 L 875.5833333333334 1165.2963613517313 L 962.6666666666666 1135.4308417510001 L 1049.75 1098.3048835274476 L 1136.8333333333335 1054.1448252854332 L 1223.9166666666665 1004.2919804532271 L 1311 951.2258064516129 L 1398.0833333333333 898.1596324499983 L 1485.1666666666667 848.3067876177922 L 1572.25 804.1467293757777 L 1659.3333333333333 767.0207711522255 L 1746.4166666666667 737.1552515514942 L 1833.5 713.9713191315267 L 1920.5833333333333 696.4670745805015 L 2007.6666666666667 683.5262263028957 L 2094.75 674.1071401477905 L 2181.833333333333 667.3289409724168 L 2268.916666666667 662.4910180492601 L 2356 659.0581352739523" fill="none" stroke="#4f6961" stroke-width="8" stroke-linecap="round"/><line x1="1311" y1="1378" x2="1311" y2="524.4516129032257" stroke="#7e453d" stroke-width="3" stroke-dasharray="10 10"/><line x1="266" y1="808.967741935484" x2="2356" y2="808.967741935484" stroke="#7e453d" stroke-width="3" stroke-dasharray="10 10"/><text x="1323" y="714.1290322580646" font-family="Helvetica Neue, Arial, sans-serif" font-size="20" font-weight="700" fill="#7e453d">minimum safe staffing = 34</text><text x="701.4166666666667" y="556.0645161290322" text-anchor="middle" font-family="Helvetica Neue, Arial, sans-serif" font-size="24" font-weight="700" fill="#7e453d">fragile</text><text x="1441.625" y="556.0645161290322" text-anchor="middle" font-family="Helvetica Neue, Arial, sans-serif" font-size="24" font-weight="700" fill="#a9782e">bridge</text><text x="1964.125" y="556.0645161290322" text-anchor="middle" font-family="Helvetica Neue, Arial, sans-serif" font-size="24" font-weight="700" fill="#4f6961">stable</text>
    <rect x="2460" y="404" width="520" height="232" rx="18" fill="#ffffff" stroke="#c5beb1" stroke-width="1.9" filter="url(#shadow)"/>
    <rect x="2476" y="420" width="10" height="200" rx="5" fill="#4f6961" opacity="0.9"/>
    <rect x="2500" y="422" width="300" height="30" rx="8" fill="#4f6961" fill-opacity="0.12"/>
    <text x="2512" y="458" font-family="Helvetica Neue, Arial, sans-serif" font-size="34" font-weight="700" fill="#16212a">Reading the regimes</text>
    <text x="2512" y="502" font-family="Helvetica Neue, Arial, sans-serif" font-size="23" fill="#5d6872">Below 34, the hinge belt loses repeat coverage quickly.</text><text x="2512" y="536" font-family="Helvetica Neue, Arial, sans-serif" font-size="23" fill="#5d6872">Between 34 and 37, marginal gains remain steep.</text><text x="2512" y="570" font-family="Helvetica Neue, Arial, sans-serif" font-size="23" fill="#5d6872">Beyond 37, gains still exist but flatten into stability.</text>
  
</svg>