<?xml version="1.0" encoding="UTF-8"?>
<svg xmlns="http://www.w3.org/2000/svg" viewBox="0 0 3200 1800" width="3200" height="1800">
  <defs>
    <linearGradient id="paperBg" x1="0" y1="0" x2="0" y2="1">
      <stop offset="0%" stop-color="#faf7f0"/>
      <stop offset="100%" stop-color="#f1ece1"/>
    </linearGradient>
    <linearGradient id="headerRule" x1="0" y1="0" x2="1" y2="0">
      <stop offset="0%" stop-color="#3f678e"/>
      <stop offset="35%" stop-color="#5f805d"/>
      <stop offset="68%" stop-color="#b77735"/>
      <stop offset="100%" stop-color="#9f473b"/>
    </linearGradient>
    <filter id="shadow" x="-20%" y="-20%" width="140%" height="140%">
      <feDropShadow dx="0" dy="10" stdDeviation="14" flood-color="#a6afb7" flood-opacity="0.20"/>
    </filter>
    <clipPath id="parkClip" clipPathUnits="userSpaceOnUse">
      <path d="M 285 500 L 530 420 L 1090 400 L 1670 410 L 2270 437 L 2800 469 L 2982 545 L 3000 795 L 2970 1185 L 2830 1350 L 2320 1389 L 1500 1415 L 830 1403 L 428 1337 L 290 1130 L 255 775 Z"/>
    </clipPath>
  </defs>
  <rect x="0" y="0" width="3200" height="1800" fill="url(#paperBg)"/>
  <rect x="68" y="54" width="3064" height="144" rx="28" fill="#ffffff" stroke="#cfd6dc" stroke-width="2" filter="url(#shadow)"/>
  <rect x="98" y="86" width="3004" height="10" rx="5" fill="url(#headerRule)"/>
  <rect x="2942" y="104" width="162" height="48" rx="24" fill="#ece1c5" stroke="#ece1c5" stroke-width="1.5"/>
    <text x="3023" y="136" text-anchor="middle" font-family="Helvetica Neue, Arial, sans-serif" font-size="24" font-weight="700" fill="#243240">FIG. 11</text>
  <text x="104" y="145" font-family="Helvetica Neue, Arial, sans-serif" font-size="56" font-weight="700" fill="#243240">Cross-Park Transferability Matrix</text>
  <text x="104" y="184" font-family="Helvetica Neue, Arial, sans-serif" font-size="28" fill="#6a7682">Portable modules versus local recalibration in journal-table form</text>
  <rect x="190" y="330" width="2820" height="1120" rx="24" fill="#ffffff" stroke="#cfd6dc" stroke-width="2.2" filter="url(#shadow)"/>
    <rect x="220" y="380" width="760" height="86" fill="#eef2f5"/><rect x="980" y="380" width="420" height="86" fill="#eef2f5"/><rect x="1400" y="380" width="1580" height="86" fill="#eef2f5"/>
    <text x="258" y="434" font-family="Helvetica Neue, Arial, sans-serif" font-size="30" font-weight="700" fill="#243240">Module</text>
    <text x="1018" y="434" font-family="Helvetica Neue, Arial, sans-serif" font-size="30" font-weight="700" fill="#243240">Status</text>
    <text x="1438" y="434" font-family="Helvetica Neue, Arial, sans-serif" font-size="30" font-weight="700" fill="#243240">Transfer rule</text>
      <rect x="220" y="466" width="760" height="148" fill="#f6f8fa"/>
      <rect x="980" y="466" width="420" height="148" fill="#dce8d9"/>
      <rect x="1400" y="466" width="1580" height="148" fill="#f6f8fa"/>
      <text x="258" y="526" font-family="Helvetica Neue, Arial, sans-serif" font-size="30" font-weight="700" fill="#243240">GIS zoning architecture</text>
      <text x="1190" y="548" text-anchor="middle" font-family="Helvetica Neue, Arial, sans-serif" font-size="30" font-weight="700" fill="#243240">Direct</text>
      <text x="1438" y="524" font-family="Helvetica Neue, Arial, sans-serif" font-size="26" fill="#6a7682">Only cell size and park boundary need retuning</text>
    
      <rect x="220" y="638" width="760" height="148" fill="#fbfbf8"/>
      <rect x="980" y="638" width="420" height="148" fill="#dce8d9"/>
      <rect x="1400" y="638" width="1580" height="148" fill="#fbfbf8"/>
      <text x="258" y="698" font-family="Helvetica Neue, Arial, sans-serif" font-size="30" font-weight="700" fill="#243240">Risk formula structure</text>
      <text x="1190" y="720" text-anchor="middle" font-family="Helvetica Neue, Arial, sans-serif" font-size="30" font-weight="700" fill="#243240">Direct</text>
      <text x="1438" y="696" font-family="Helvetica Neue, Arial, sans-serif" font-size="26" fill="#6a7682">Weights are re-estimated from local ecology and access</text>
    
      <rect x="220" y="810" width="760" height="148" fill="#f6f8fa"/>
      <rect x="980" y="810" width="420" height="148" fill="#ece1c8"/>
      <rect x="1400" y="810" width="1580" height="148" fill="#f6f8fa"/>
      <text x="258" y="870" font-family="Helvetica Neue, Arial, sans-serif" font-size="30" font-weight="700" fill="#243240">Route allocation core</text>
      <text x="1190" y="892" text-anchor="middle" font-family="Helvetica Neue, Arial, sans-serif" font-size="30" font-weight="700" fill="#243240">Retune</text>
      <text x="1438" y="868" font-family="Helvetica Neue, Arial, sans-serif" font-size="26" fill="#6a7682">Road/river/trail networks must be rebuilt</text>
    
      <rect x="220" y="982" width="760" height="148" fill="#fbfbf8"/>
      <rect x="980" y="982" width="420" height="148" fill="#ece1c8"/>
      <rect x="1400" y="982" width="1580" height="148" fill="#fbfbf8"/>
      <text x="258" y="1042" font-family="Helvetica Neue, Arial, sans-serif" font-size="30" font-weight="700" fill="#243240">Simulation engine</text>
      <text x="1190" y="1064" text-anchor="middle" font-family="Helvetica Neue, Arial, sans-serif" font-size="30" font-weight="700" fill="#243240">Retune</text>
      <text x="1438" y="1040" font-family="Helvetica Neue, Arial, sans-serif" font-size="26" fill="#6a7682">Detection, delay, and sortie assumptions are local</text>
    
      <rect x="220" y="1154" width="760" height="148" fill="#f6f8fa"/>
      <rect x="980" y="1154" width="420" height="148" fill="#ead8d8"/>
      <rect x="1400" y="1154" width="1580" height="148" fill="#f6f8fa"/>
      <text x="258" y="1214" font-family="Helvetica Neue, Arial, sans-serif" font-size="30" font-weight="700" fill="#243240">Threat prior</text>
      <text x="1190" y="1236" text-anchor="middle" font-family="Helvetica Neue, Arial, sans-serif" font-size="30" font-weight="700" fill="#243240">Rebuild</text>
      <text x="1438" y="1212" font-family="Helvetica Neue, Arial, sans-serif" font-size="26" fill="#6a7682">Needs local intelligence, incident, and species data</text>
    <rect x="2260" y="1405" width="144" height="48" rx="24" fill="#dce8d9" stroke="#dce8d9" stroke-width="1.5"/>
    <text x="2332" y="1437" text-anchor="middle" font-family="Helvetica Neue, Arial, sans-serif" font-size="24" font-weight="700" fill="#243240">Direct</text><rect x="2440" y="1405" width="144" height="48" rx="24" fill="#ece1c8" stroke="#ece1c8" stroke-width="1.5"/>
    <text x="2512" y="1437" text-anchor="middle" font-family="Helvetica Neue, Arial, sans-serif" font-size="24" font-weight="700" fill="#243240">Retune</text><rect x="2650" y="1405" width="162" height="48" rx="24" fill="#ead8d8" stroke="#ead8d8" stroke-width="1.5"/>
    <text x="2731" y="1437" text-anchor="middle" font-family="Helvetica Neue, Arial, sans-serif" font-size="24" font-weight="700" fill="#243240">Rebuild</text>
</svg>