<?xml version="1.0" encoding="UTF-8"?>
<svg xmlns="http://www.w3.org/2000/svg" viewBox="0 0 3200 1800" width="3200" height="1800">
  <defs>
    <linearGradient id="paperBg" x1="0" y1="0" x2="0" y2="1">
      <stop offset="0%" stop-color="#faf7f0"/>
      <stop offset="100%" stop-color="#f1ece1"/>
    </linearGradient>
    <linearGradient id="headerRule" x1="0" y1="0" x2="1" y2="0">
      <stop offset="0%" stop-color="#3f678e"/>
      <stop offset="35%" stop-color="#5f805d"/>
      <stop offset="68%" stop-color="#b77735"/>
      <stop offset="100%" stop-color="#9f473b"/>
    </linearGradient>
    <filter id="shadow" x="-20%" y="-20%" width="140%" height="140%">
      <feDropShadow dx="0" dy="10" stdDeviation="14" flood-color="#a6afb7" flood-opacity="0.20"/>
    </filter>
    <clipPath id="parkClip" clipPathUnits="userSpaceOnUse">
      <path d="M 285 500 L 530 420 L 1090 400 L 1670 410 L 2270 437 L 2800 469 L 2982 545 L 3000 795 L 2970 1185 L 2830 1350 L 2320 1389 L 1500 1415 L 830 1403 L 428 1337 L 290 1130 L 255 775 Z"/>
    </clipPath>
  </defs>
  <rect x="0" y="0" width="3200" height="1800" fill="url(#paperBg)"/>
  <rect x="68" y="54" width="3064" height="144" rx="28" fill="#ffffff" stroke="#cfd6dc" stroke-width="2" filter="url(#shadow)"/>
  <rect x="98" y="86" width="3004" height="10" rx="5" fill="url(#headerRule)"/>
  <rect x="2942" y="104" width="162" height="48" rx="24" fill="#ece1c5" stroke="#ece1c5" stroke-width="1.5"/>
    <text x="3023" y="136" text-anchor="middle" font-family="Helvetica Neue, Arial, sans-serif" font-size="24" font-weight="700" fill="#243240">FIG. 10</text>
  <text x="104" y="145" font-family="Helvetica Neue, Arial, sans-serif" font-size="56" font-weight="700" fill="#243240">Nature-Style Tornado Sensitivity Ranking</text>
  <text x="104" y="184" font-family="Helvetica Neue, Arial, sans-serif" font-size="28" fill="#6a7682">Centered tornado bars styled after classical manuscript graphics</text>
  
    <rect x="170" y="300" width="2860" height="1220" rx="24" fill="#ffffff" stroke="#cfd6dc" stroke-width="2.2" filter="url(#shadow)"/>
    <text x="520" y="410" font-family="Helvetica Neue, Arial, sans-serif" font-size="28" font-weight="700" fill="#6a7682">Lower than baseline</text>
    <text x="2430" y="410" font-family="Helvetica Neue, Arial, sans-serif" font-size="28" font-weight="700" fill="#6a7682" text-anchor="end">Higher than baseline</text>
    <line x1="1600" y1="430" x2="1600" y2="1415" stroke="#243240" stroke-width="3"/>
    
        <text x="640" y="574" text-anchor="end" font-family="Helvetica Neue, Arial, sans-serif" font-size="34" font-weight="700" fill="#243240">Ranger count</text>
        <rect x="1264" y="526" width="336" height="68" rx="18" fill="#9f473b" opacity="0.82"/>
        <rect x="1600" y="526" width="231" height="68" rx="18" fill="#3f678e" opacity="0.82"/>
        <text x="1248" y="570" text-anchor="end" font-family="Helvetica Neue, Arial, sans-serif" font-size="24" fill="#6a7682">-0.16</text>
        <text x="1847" y="570" font-family="Helvetica Neue, Arial, sans-serif" font-size="24" fill="#6a7682">+0.11</text>
      
        <text x="640" y="784" text-anchor="end" font-family="Helvetica Neue, Arial, sans-serif" font-size="34" font-weight="700" fill="#243240">Detection quality</text>
        <rect x="1390" y="736" width="210" height="68" rx="18" fill="#9f473b" opacity="0.82"/>
        <rect x="1600" y="736" width="168" height="68" rx="18" fill="#3f678e" opacity="0.82"/>
        <text x="1374" y="780" text-anchor="end" font-family="Helvetica Neue, Arial, sans-serif" font-size="24" fill="#6a7682">-0.10</text>
        <text x="1784" y="780" font-family="Helvetica Neue, Arial, sans-serif" font-size="24" fill="#6a7682">+0.08</text>
      
        <text x="640" y="994" text-anchor="end" font-family="Helvetica Neue, Arial, sans-serif" font-size="34" font-weight="700" fill="#243240">Patrol interval</text>
        <rect x="1453" y="946" width="147" height="68" rx="18" fill="#9f473b" opacity="0.82"/>
        <rect x="1600" y="946" width="105" height="68" rx="18" fill="#3f678e" opacity="0.82"/>
        <text x="1437" y="990" text-anchor="end" font-family="Helvetica Neue, Arial, sans-serif" font-size="24" fill="#6a7682">-0.07</text>
        <text x="1721" y="990" font-family="Helvetica Neue, Arial, sans-serif" font-size="24" fill="#6a7682">+0.05</text>
      
        <text x="640" y="1204" text-anchor="end" font-family="Helvetica Neue, Arial, sans-serif" font-size="34" font-weight="700" fill="#243240">Fixed devices</text>
        <rect x="1516" y="1156" width="84" height="68" rx="18" fill="#9f473b" opacity="0.82"/>
        <rect x="1600" y="1156" width="63" height="68" rx="18" fill="#3f678e" opacity="0.82"/>
        <text x="1500" y="1200" text-anchor="end" font-family="Helvetica Neue, Arial, sans-serif" font-size="24" fill="#6a7682">-0.04</text>
        <text x="1679" y="1200" font-family="Helvetica Neue, Arial, sans-serif" font-size="24" fill="#6a7682">+0.03</text>
      
    <rect x="2250" y="1170" width="640" height="220" rx="22" fill="#fcfbf7" stroke="#cfd6dc" stroke-width="2.2" filter="url(#shadow)"/><text x="2284" y="1226" font-family="Helvetica Neue, Arial, sans-serif" font-size="34" font-weight="700" fill="#243240">Interpretation</text><text x="2284" y="1278" font-family="Helvetica Neue, Arial, sans-serif" font-size="24" fill="#6a7682">Bar lengths show change in PI under low/high perturbation</text><text x="2284" y="1312" font-family="Helvetica Neue, Arial, sans-serif" font-size="24" fill="#6a7682">The ordering reproduces the main management sensitivity hierarchy</text><text x="2284" y="1346" font-family="Helvetica Neue, Arial, sans-serif" font-size="24" fill="#6a7682">The visual language now matches classical tornado charts</text>
  
</svg>