<?xml version="1.0" encoding="UTF-8"?>
<svg xmlns="http://www.w3.org/2000/svg" viewBox="0 0 3200 1800" width="3200" height="1800">
  <defs>
    <linearGradient id="pageBg" x1="0" y1="0" x2="0" y2="1"><stop offset="0%" stop-color="#ede7de"/><stop offset="100%" stop-color="#d9d0c2"/></linearGradient>
    <linearGradient id="headBg" x1="0" y1="0" x2="1" y2="0"><stop offset="0%" stop-color="#16212a"/><stop offset="100%" stop-color="#243746"/></linearGradient>
    <pattern id="paperGrid" width="24" height="24" patternUnits="userSpaceOnUse"><path d="M 24 0 L 0 0 0 24" fill="none" stroke="#ddd3c3" stroke-width="0.8" opacity="0.32"/></pattern>
    <filter id="shadow" x="-20%" y="-20%" width="140%" height="140%"><feDropShadow dx="0" dy="12" stdDeviation="14" flood-color="#8c948f" flood-opacity="0.18"/></filter>
  </defs>
  <rect x="0" y="0" width="3200" height="1800" fill="url(#pageBg)"/>
  <rect x="0" y="0" width="3200" height="1800" fill="url(#paperGrid)" opacity="0.42"/>
  <rect x="54" y="46" width="3092" height="176" rx="24" fill="url(#headBg)" filter="url(#shadow)"/>
  <rect x="54" y="196" width="3092" height="20" fill="#a9782e" opacity="0.95"/>
  
    <rect x="92" y="82" width="270" height="38" rx="10" fill="#f2ecdf" stroke="#a9782e" stroke-opacity="0.15" stroke-width="1.2"/>
    <rect x="102" y="90" width="8" height="22" rx="4" fill="#a9782e" opacity="0.84"/>
    <text x="122" y="108" font-family="Helvetica Neue, Arial, sans-serif" font-size="18" font-weight="700" letter-spacing="1.8" fill="#a9782e">TRADE-OFF FRONTIER</text>
  
  
    <rect x="2926" y="82" width="162" height="38" rx="10" fill="#f2ecdf" stroke="#16212a" stroke-opacity="0.15" stroke-width="1.2"/>
    <rect x="2936" y="90" width="8" height="22" rx="4" fill="#16212a" opacity="0.84"/>
    <text x="2956" y="108" font-family="Helvetica Neue, Arial, sans-serif" font-size="18" font-weight="700" letter-spacing="1.8" fill="#16212a">FIG. 10</text>
  
  <text x="92" y="152" font-family="Helvetica Neue, Arial, sans-serif" font-size="58" font-weight="700" fill="#fcfaf6">Structural Trade-Offs in Teams and Uptime</text>
  <text x="92" y="188" font-family="Helvetica Neue, Arial, sans-serif" font-size="25" fill="#d7dde0">The decisive levers are crew depth, sentinel uptime, and revisit discipline</text>
  <rect x="92" y="106" width="941.1200000000001" height="6" rx="3" fill="#a9782e"/><rect x="1088.48" y="106" width="442.88" height="6" rx="3" fill="#d5c8ae"/><rect x="1586.72" y="106" width="775.0400000000001" height="6" rx="3" fill="#8796a2" opacity="0.55"/><rect x="92" y="118" width="2103.68" height="2" rx="1" fill="#c5beb1"/>
  
    <rect x="58" y="256" width="3084" height="1482" rx="26" fill="#f5f0e8" stroke="#c5beb1" stroke-width="2.2" filter="url(#shadow)"/>
    <rect x="74" y="272" width="3052" height="1450" rx="18" fill="#fcfaf6" stroke="#ddd3c5" stroke-width="1.4"/>
    <rect x="86" y="284" width="22" height="1426" rx="11" fill="#16212a" opacity="0.92"/>
    <rect x="130" y="284" width="2984" height="34" rx="10" fill="#eef1ed"/>
    <line x1="150" y1="332" x2="150" y2="1710" stroke="#efe7da" stroke-width="1"/><line x1="732.8" y1="332" x2="732.8" y2="1710" stroke="#efe7da" stroke-width="1"/><line x1="1315.6" y1="332" x2="1315.6" y2="1710" stroke="#efe7da" stroke-width="1"/><line x1="1898.3999999999999" y1="332" x2="1898.3999999999999" y2="1710" stroke="#efe7da" stroke-width="1"/><line x1="2481.2" y1="332" x2="2481.2" y2="1710" stroke="#efe7da" stroke-width="1"/><line x1="3064" y1="332" x2="3064" y2="1710" stroke="#efe7da" stroke-width="1"/>
  <rect x="160" y="334" width="2880" height="1220" rx="28" fill="#ffffff" stroke="#c5beb1" stroke-width="2" filter="url(#shadow)"/><line x1="1640" y1="470" x2="1640" y2="1380" stroke="#16212a" stroke-width="2.4"/><text x="1310" y="420" text-anchor="middle" font-family="Helvetica Neue, Arial, sans-serif" font-size="24" font-weight="700" fill="#5d6872">worse than baseline</text><text x="1970" y="420" text-anchor="middle" font-family="Helvetica Neue, Arial, sans-serif" font-size="24" font-weight="700" fill="#5d6872">better than baseline</text><circle cx="320" cy="410" r="24" fill="#7e453d"/><text x="320" y="418" text-anchor="middle" font-family="Helvetica Neue, Arial, sans-serif" font-size="20" font-weight="700" fill="#fcfaf6">1</text><text x="376" y="418" font-family="Helvetica Neue, Arial, sans-serif" font-size="34" font-weight="700" fill="#16212a">Ranger count</text><line x1="1200" y1="410" x2="1942.5" y2="410" stroke="#7e453d" stroke-width="16" stroke-linecap="round" opacity="0.82"/><circle cx="1200" cy="410" r="11" fill="#7e453d"/><circle cx="1942.5" cy="410" r="11" fill="#26455d"/><text x="1182" y="418" text-anchor="end" font-family="Helvetica Neue, Arial, sans-serif" font-size="24" fill="#5d6872">-0.16</text><text x="1960.5" y="418" font-family="Helvetica Neue, Arial, sans-serif" font-size="24" fill="#5d6872">+0.11</text><circle cx="320" cy="630" r="24" fill="#a9782e"/><text x="320" y="638" text-anchor="middle" font-family="Helvetica Neue, Arial, sans-serif" font-size="20" font-weight="700" fill="#fcfaf6">2</text><text x="376" y="638" font-family="Helvetica Neue, Arial, sans-serif" font-size="34" font-weight="700" fill="#16212a">Detection quality</text><line x1="1365" y1="630" x2="1860" y2="630" stroke="#a9782e" stroke-width="16" stroke-linecap="round" opacity="0.82"/><circle cx="1365" cy="630" r="11" fill="#7e453d"/><circle cx="1860" cy="630" r="11" fill="#26455d"/><text x="1347" y="638" text-anchor="end" font-family="Helvetica Neue, Arial, sans-serif" font-size="24" fill="#5d6872">-0.10</text><text x="1878" y="638" font-family="Helvetica Neue, Arial, sans-serif" font-size="24" fill="#5d6872">+0.08</text><circle cx="320" cy="850" r="24" fill="#26455d"/><text x="320" y="858" text-anchor="middle" font-family="Helvetica Neue, Arial, sans-serif" font-size="20" font-weight="700" fill="#fcfaf6">3</text><text x="376" y="858" font-family="Helvetica Neue, Arial, sans-serif" font-size="34" font-weight="700" fill="#16212a">Patrol interval</text><line x1="1447.5" y1="850" x2="1777.5" y2="850" stroke="#26455d" stroke-width="16" stroke-linecap="round" opacity="0.82"/><circle cx="1447.5" cy="850" r="11" fill="#7e453d"/><circle cx="1777.5" cy="850" r="11" fill="#26455d"/><text x="1429.5" y="858" text-anchor="end" font-family="Helvetica Neue, Arial, sans-serif" font-size="24" fill="#5d6872">-0.07</text><text x="1795.5" y="858" font-family="Helvetica Neue, Arial, sans-serif" font-size="24" fill="#5d6872">+0.05</text><circle cx="320" cy="1070" r="24" fill="#4f6961"/><text x="320" y="1078" text-anchor="middle" font-family="Helvetica Neue, Arial, sans-serif" font-size="20" font-weight="700" fill="#fcfaf6">4</text><text x="376" y="1078" font-family="Helvetica Neue, Arial, sans-serif" font-size="34" font-weight="700" fill="#16212a">Fixed devices</text><line x1="1530" y1="1070" x2="1722.5" y2="1070" stroke="#4f6961" stroke-width="16" stroke-linecap="round" opacity="0.82"/><circle cx="1530" cy="1070" r="11" fill="#7e453d"/><circle cx="1722.5" cy="1070" r="11" fill="#26455d"/><text x="1512" y="1078" text-anchor="end" font-family="Helvetica Neue, Arial, sans-serif" font-size="24" fill="#5d6872">-0.04</text><text x="1740.5" y="1078" font-family="Helvetica Neue, Arial, sans-serif" font-size="24" fill="#5d6872">+0.03</text>
    <rect x="2300" y="1100" width="640" height="260" rx="18" fill="#ffffff" stroke="#c5beb1" stroke-width="1.9" filter="url(#shadow)"/>
    <rect x="2316" y="1116" width="10" height="228" rx="5" fill="#a9782e" opacity="0.9"/>
    <rect x="2340" y="1118" width="230" height="30" rx="8" fill="#a9782e" fill-opacity="0.12"/>
    <text x="2352" y="1154" font-family="Helvetica Neue, Arial, sans-serif" font-size="34" font-weight="700" fill="#16212a">Interpretation</text>
    <text x="2352" y="1198" font-family="Helvetica Neue, Arial, sans-serif" font-size="23" fill="#5d6872">The span length is the full management swing around baseline PI.</text><text x="2352" y="1232" font-family="Helvetica Neue, Arial, sans-serif" font-size="23" fill="#5d6872">Ranger count dominates, detection quality is second, and devices remain the smallest lever.</text>
  
</svg>