<?xml version="1.0" encoding="UTF-8"?>
<svg xmlns="http://www.w3.org/2000/svg" viewBox="0 0 3200 1800" width="3200" height="1800">
  <defs>
    <linearGradient id="pageBg" x1="0" y1="0" x2="0" y2="1"><stop offset="0%" stop-color="#eef1ee"/><stop offset="100%" stop-color="#dfe6e1"/></linearGradient>
    <pattern id="paperGrain" width="18" height="18" patternUnits="userSpaceOnUse"><circle cx="4" cy="5" r="0.9" fill="#d8d0c0" opacity="0.28"/><circle cx="13" cy="8" r="0.7" fill="#cfc7b7" opacity="0.24"/><circle cx="9" cy="14" r="0.8" fill="#d8d0c0" opacity="0.22"/></pattern>
    <filter id="shadow" x="-20%" y="-20%" width="140%" height="140%"><feDropShadow dx="0" dy="12" stdDeviation="14" flood-color="#8c948f" flood-opacity="0.18"/></filter>
  </defs>
  <rect x="0" y="0" width="3200" height="1800" fill="url(#pageBg)"/>
  <rect x="0" y="0" width="3200" height="1800" fill="url(#paperGrain)" opacity="0.44"/>
  <rect x="54" y="48" width="3092" height="162" rx="32" fill="#f7f9f6" stroke="#bcc8c3" stroke-width="2.2" filter="url(#shadow)"/>
  
    <rect x="92" y="78" width="248" height="42" rx="21" fill="#567568" stroke="#567568" stroke-width="1.2"/>
    <text x="216" y="106" text-anchor="middle" font-family="Helvetica Neue, Arial, sans-serif" font-size="19" font-weight="700" letter-spacing="2" fill="#f7f9f6">STAFFING BREAKPOINT</text>
  
  
    <rect x="2914" y="78" width="174" height="42" rx="21" fill="#efe5cb" stroke="#efe5cb" stroke-width="1.2"/>
    <text x="3001" y="106" text-anchor="middle" font-family="Helvetica Neue, Arial, sans-serif" font-size="19" font-weight="700" letter-spacing="2" fill="#1f2d36">FIG. 14</text>
  
  <text x="92" y="152" font-family="Helvetica Neue, Arial, sans-serif" font-size="60" font-weight="700" fill="#1f2d36">Ranger Floor and Stability Regimes</text>
  <text x="92" y="189" font-family="Helvetica Neue, Arial, sans-serif" font-size="26" fill="#60717d">The staffing curve marks the boundary between fragile, transitional, and stable protection</text>
  <rect x="92" y="98" width="2768" height="7" rx="4" fill="#567568"/><rect x="92" y="108" width="1826.88" height="2" rx="1" fill="#bcc8c3"/>
  
    <rect x="58" y="256" width="3084" height="1482" rx="34" fill="#f7f9f6" stroke="#bcc8c3" stroke-width="2.3" filter="url(#shadow)"/>
    <rect x="74" y="272" width="3052" height="1450" rx="28" fill="#f8f3ea" stroke="#dad3c4" stroke-width="1.5"/>
  <rect x="170" y="338" width="2230" height="1120" rx="26" fill="#ffffff" stroke="#bcc8c3" stroke-width="2" filter="url(#shadow)"/><line x1="266" y1="1283.1612903225805" x2="2356" y2="1283.1612903225805" stroke="#d9dedf" stroke-width="1.7" stroke-dasharray="5 9"/><text x="248" y="1291.1612903225805" text-anchor="end" font-family="Helvetica Neue, Arial, sans-serif" font-size="22" fill="#60717d">0.55</text><line x1="266" y1="1125.0967741935485" x2="2356" y2="1125.0967741935485" stroke="#d9dedf" stroke-width="1.7" stroke-dasharray="5 9"/><text x="248" y="1133.0967741935485" text-anchor="end" font-family="Helvetica Neue, Arial, sans-serif" font-size="22" fill="#60717d">0.60</text><line x1="266" y1="967.0322580645161" x2="2356" y2="967.0322580645161" stroke="#d9dedf" stroke-width="1.7" stroke-dasharray="5 9"/><text x="248" y="975.0322580645161" text-anchor="end" font-family="Helvetica Neue, Arial, sans-serif" font-size="22" fill="#60717d">0.65</text><line x1="266" y1="808.967741935484" x2="2356" y2="808.967741935484" stroke="#d9dedf" stroke-width="1.7" stroke-dasharray="5 9"/><text x="248" y="816.967741935484" text-anchor="end" font-family="Helvetica Neue, Arial, sans-serif" font-size="22" fill="#60717d">0.70</text><line x1="266" y1="650.9032258064517" x2="2356" y2="650.9032258064517" stroke="#d9dedf" stroke-width="1.7" stroke-dasharray="5 9"/><text x="248" y="658.9032258064517" text-anchor="end" font-family="Helvetica Neue, Arial, sans-serif" font-size="22" fill="#60717d">0.75</text><line x1="266" y1="492.8387096774193" x2="2356" y2="492.8387096774193" stroke="#d9dedf" stroke-width="1.7" stroke-dasharray="5 9"/><text x="248" y="500.8387096774193" text-anchor="end" font-family="Helvetica Neue, Arial, sans-serif" font-size="22" fill="#60717d">0.80</text><line x1="266" y1="388" x2="266" y2="1378" stroke="#e2e5e6" stroke-width="1.5" stroke-dasharray="5 11"/><text x="266" y="1432" text-anchor="middle" font-family="Helvetica Neue, Arial, sans-serif" font-size="22" fill="#60717d">22</text><line x1="614.3333333333333" y1="388" x2="614.3333333333333" y2="1378" stroke="#e2e5e6" stroke-width="1.5" stroke-dasharray="5 11"/><text x="614.3333333333333" y="1432" text-anchor="middle" font-family="Helvetica Neue, Arial, sans-serif" font-size="22" fill="#60717d">26</text><line x1="962.6666666666666" y1="388" x2="962.6666666666666" y2="1378" stroke="#e2e5e6" stroke-width="1.5" stroke-dasharray="5 11"/><text x="962.6666666666666" y="1432" text-anchor="middle" font-family="Helvetica Neue, Arial, sans-serif" font-size="22" fill="#60717d">30</text><line x1="1311" y1="388" x2="1311" y2="1378" stroke="#e2e5e6" stroke-width="1.5" stroke-dasharray="5 11"/><text x="1311" y="1432" text-anchor="middle" font-family="Helvetica Neue, Arial, sans-serif" font-size="22" fill="#60717d">34</text><line x1="1659.3333333333333" y1="388" x2="1659.3333333333333" y2="1378" stroke="#e2e5e6" stroke-width="1.5" stroke-dasharray="5 11"/><text x="1659.3333333333333" y="1432" text-anchor="middle" font-family="Helvetica Neue, Arial, sans-serif" font-size="22" fill="#60717d">38</text><line x1="2007.6666666666667" y1="388" x2="2007.6666666666667" y2="1378" stroke="#e2e5e6" stroke-width="1.5" stroke-dasharray="5 11"/><text x="2007.6666666666667" y="1432" text-anchor="middle" font-family="Helvetica Neue, Arial, sans-serif" font-size="22" fill="#60717d">42</text><line x1="2356" y1="388" x2="2356" y2="1378" stroke="#e2e5e6" stroke-width="1.5" stroke-dasharray="5 11"/><text x="2356" y="1432" text-anchor="middle" font-family="Helvetica Neue, Arial, sans-serif" font-size="22" fill="#60717d">46</text><line x1="266" y1="1378" x2="2356" y2="1378" stroke="#1f2d36" stroke-width="2.6"/><line x1="266" y1="388" x2="266" y2="1378" stroke="#1f2d36" stroke-width="2.6"/><text x="1285" y="1456" text-anchor="middle" font-family="Helvetica Neue, Arial, sans-serif" font-size="27" font-weight="700" fill="#1f2d36">field rangers</text><text x="192" y="898" transform="rotate(-90 192 898)" text-anchor="middle" font-family="Helvetica Neue, Arial, sans-serif" font-size="27" font-weight="700" fill="#1f2d36">protection index</text><rect x="266" y="808.967741935484" width="1045" height="569.032258064516" fill="#f2e2dc" opacity="0.38"/><rect x="1311" y="808.967741935484" width="261.25" height="569.032258064516" fill="#f1e9cf" opacity="0.42"/><rect x="1572.25" y="808.967741935484" width="783.75" height="569.032258064516" fill="#dfe9dc" opacity="0.42"/><path d="M 266 1306.6192840808865 L 266 1180.1676711776606 L 353.0833333333333 1176.7347884023525 L 440.16666666666663 1171.8968654791959 L 527.25 1165.1186663038222 L 614.3333333333333 1155.6995801487171 L 701.4166666666667 1142.758731871111 L 788.5 1125.254487320086 L 875.5833333333334 1102.0705549001182 L 962.6666666666666 1072.2050352993872 L 1049.75 1035.0790770758347 L 1136.8333333333335 990.9190188338202 L 1223.9166666666665 941.0661740016142 L 1311 887.9999999999999 L 1398.0833333333333 834.9338259983854 L 1485.1666666666667 785.0809811661792 L 1572.25 740.9209229241648 L 1659.3333333333333 703.7949647006126 L 1746.4166666666667 673.9294450998811 L 1833.5 650.7455126799138 L 1920.5833333333333 633.2412681288885 L 2007.6666666666667 620.3004198512828 L 2094.75 610.8813336961775 L 2181.833333333333 604.1031345208038 L 2268.916666666667 599.2652115976471 L 2356 595.8323288223393 L 2356 722.2839417255652 L 2268.916666666667 725.716824500873 L 2181.833333333333 730.5547474240298 L 2094.75 737.3329465994035 L 2007.6666666666667 746.7520327545087 L 1920.5833333333333 759.6928810321144 L 1833.5 777.1971255831396 L 1746.4166666666667 800.3810580031071 L 1659.3333333333333 830.2465776038384 L 1572.25 867.3725358273907 L 1485.1666666666667 911.5325940694051 L 1398.0833333333333 961.3854389016112 L 1311 1014.4516129032259 L 1223.9166666666665 1067.51778690484 L 1136.8333333333335 1117.370631737046 L 1049.75 1161.5306899790608 L 962.6666666666666 1198.6566482026133 L 875.5833333333334 1228.5221678033442 L 788.5 1251.7061002233118 L 701.4166666666667 1269.2103447743368 L 614.3333333333333 1282.151193051943 L 527.25 1291.5702792070483 L 440.16666666666663 1298.348478382422 L 353.0833333333333 1303.1864013055783 L 266 1306.6192840808865 Z" fill="#567568" opacity="0.18"/><path d="M 266 1243.3934776292735 L 353.0833333333333 1239.9605948539654 L 440.16666666666663 1235.1226719308088 L 527.25 1228.3444727554352 L 614.3333333333333 1218.92538660033 L 701.4166666666667 1205.984538322724 L 788.5 1188.4802937716986 L 875.5833333333334 1165.2963613517313 L 962.6666666666666 1135.4308417510001 L 1049.75 1098.3048835274476 L 1136.8333333333335 1054.1448252854332 L 1223.9166666666665 1004.2919804532271 L 1311 951.2258064516129 L 1398.0833333333333 898.1596324499983 L 1485.1666666666667 848.3067876177922 L 1572.25 804.1467293757777 L 1659.3333333333333 767.0207711522255 L 1746.4166666666667 737.1552515514942 L 1833.5 713.9713191315267 L 1920.5833333333333 696.4670745805015 L 2007.6666666666667 683.5262263028957 L 2094.75 674.1071401477905 L 2181.833333333333 667.3289409724168 L 2268.916666666667 662.4910180492601 L 2356 659.0581352739523" fill="none" stroke="#567568" stroke-width="8" stroke-linecap="round"/><line x1="1311" y1="1378" x2="1311" y2="524.4516129032257" stroke="#8c4338" stroke-width="3" stroke-dasharray="10 10"/><line x1="266" y1="808.967741935484" x2="2356" y2="808.967741935484" stroke="#8c4338" stroke-width="3" stroke-dasharray="10 10"/><text x="1323" y="714.1290322580646" font-family="Helvetica Neue, Arial, sans-serif" font-size="20" font-weight="700" fill="#8c4338">minimum safe staffing = 34</text><text x="701.4166666666667" y="556.0645161290322" text-anchor="middle" font-family="Helvetica Neue, Arial, sans-serif" font-size="24" font-weight="700" fill="#8c4338">fragile</text><text x="1441.625" y="556.0645161290322" text-anchor="middle" font-family="Helvetica Neue, Arial, sans-serif" font-size="24" font-weight="700" fill="#bc8531">transition</text><text x="1964.125" y="556.0645161290322" text-anchor="middle" font-family="Helvetica Neue, Arial, sans-serif" font-size="24" font-weight="700" fill="#567568">stable</text>
    <rect x="2460" y="404" width="520" height="232" rx="24" fill="#ffffff" stroke="#bcc8c3" stroke-width="2" filter="url(#shadow)"/>
    <rect x="2460" y="404" width="520" height="12" rx="24" fill="#567568" opacity="0.92"/>
    <text x="2486" y="462" font-family="Helvetica Neue, Arial, sans-serif" font-size="34" font-weight="700" fill="#1f2d36">Reading the regimes</text>
    <text x="2486" y="510" font-family="Helvetica Neue, Arial, sans-serif" font-size="23" fill="#60717d">Below 34, the hotspot corridor loses repeat coverage quickly.</text><text x="2486" y="544" font-family="Helvetica Neue, Arial, sans-serif" font-size="23" fill="#60717d">Between 34 and 37, marginal gains remain steep.</text><text x="2486" y="578" font-family="Helvetica Neue, Arial, sans-serif" font-size="23" fill="#60717d">Beyond 37, gains still exist but flatten into stability.</text>
  
</svg>